<?xml version="1.0" encoding="utf-8"?>
<!-- Generator: Adobe Illustrator 16.0.4, SVG Export Plug-In . SVG Version: 6.00 Build 0)  -->
<svg version="1.2" baseProfile="tiny" id="Ebene_1" xmlns="http://www.w3.org/2000/svg" xmlns:xlink="http://www.w3.org/1999/xlink"
	 x="0px" y="0px" width="78.5px" height="87.205px" viewBox="0 0 78.5 87.205" xml:space="preserve">
<g>
	<path d="M39.336,1.419c20.986,0,38.059,17.073,38.059,38.059c0,14.949-8.778,28.528-22.394,34.686v11.815H23.671V74.163
		C10.055,68.006,1.277,54.428,1.277,39.478C1.277,18.492,18.35,1.419,39.336,1.419z M54.001,84.979V73.514l0.298-0.132
		c13.423-5.934,22.096-19.242,22.096-33.904c0-20.435-16.625-37.059-37.059-37.059S2.277,19.043,2.277,39.478
		c0,14.662,8.673,27.971,22.096,33.904l0.298,0.132v11.465H54.001z"/>
</g>
<g>
	<path d="M39.336,80.814c1.354,0,2.456,1.102,2.456,2.455s-1.102,2.455-2.456,2.455s-2.456-1.102-2.456-2.455
		S37.982,80.814,39.336,80.814z M39.336,84.725c0.803,0,1.456-0.652,1.456-1.455s-0.653-1.455-1.456-1.455s-1.456,0.652-1.456,1.455
		S38.533,84.725,39.336,84.725z"/>
</g>
<g>
	<path d="M39.336,22.814c1.354,0,2.456,1.102,2.456,2.455s-1.102,2.455-2.456,2.455s-2.456-1.102-2.456-2.455
		S37.982,22.814,39.336,22.814z M39.336,26.725c0.803,0,1.456-0.652,1.456-1.455s-0.653-1.455-1.456-1.455s-1.456,0.652-1.456,1.455
		S38.533,26.725,39.336,26.725z"/>
</g>
<g>
	<path d="M35.63,49.895h7.411v2.955H35.63V49.895z M42.042,50.895H36.63v0.955h5.411V50.895z"/>
</g>
</svg>
