<?xml version="1.0" encoding="utf-8"?>
<!-- Generator: Adobe Illustrator 16.0.4, SVG Export Plug-In . SVG Version: 6.00 Build 0)  -->
<svg version="1.2" baseProfile="tiny" xmlns="http://www.w3.org/2000/svg" xmlns:xlink="http://www.w3.org/1999/xlink" x="0px"
	 y="0px" width="84.5px" height="60.75px" viewBox="0 0 84.5 60.75" xml:space="preserve">
<g id="Ebene_1">
</g>
<g id="monochrome">
	<path d="M70.633,14.475c0-1.432-1.16-2.592-2.593-2.592H50.92c-1.432,0-2.592,1.16-2.592,2.592s1.16,2.592,2.592,2.592h17.12
		C69.473,17.066,70.633,15.906,70.633,14.475z M49.123,14.475c0-0.951,0.771-1.722,1.721-1.722c0.951,0,1.722,0.771,1.722,1.722
		c0,0.949-0.771,1.721-1.722,1.721C49.894,16.195,49.123,15.424,49.123,14.475z M66.306,14.475c0-0.951,0.771-1.722,1.722-1.722
		c0.949,0,1.72,0.771,1.72,1.722c0,0.949-0.771,1.721-1.72,1.721C67.077,16.195,66.306,15.424,66.306,14.475z"/>
	<path d="M70.633,35.1c0-1.432-1.16-2.593-2.593-2.593H50.92c-1.432,0-2.592,1.161-2.592,2.593c0,1.431,1.16,2.591,2.592,2.591
		h17.12C69.473,37.69,70.633,36.53,70.633,35.1z M49.123,35.1c0-0.951,0.771-1.721,1.721-1.721c0.951,0,1.722,0.77,1.722,1.721
		c0,0.95-0.771,1.721-1.722,1.721C49.894,36.82,49.123,36.05,49.123,35.1z M66.306,35.1c0-0.951,0.771-1.721,1.722-1.721
		c0.949,0,1.72,0.77,1.72,1.721c0,0.95-0.771,1.721-1.72,1.721C67.077,36.82,66.306,36.05,66.306,35.1z"/>
	<path d="M69.873,12.643c-1.012-1.012-2.652-1.012-3.665,0l-17.12,20.624c-1.012,1.013-1.012,2.653,0,3.665s2.653,1.012,3.665,0
		l17.12-20.624C70.886,15.295,70.886,13.654,69.873,12.643z M49.65,36.37c-0.673-0.672-0.673-1.762,0-2.434
		c0.672-0.672,1.762-0.672,2.434,0s0.672,1.762,0,2.434C51.41,37.043,50.321,37.043,49.65,36.37z M66.814,15.701
		c-0.672-0.672-0.672-1.761,0-2.434c0.672-0.672,1.762-0.672,2.434,0c0.672,0.673,0.672,1.762,0,2.434S67.486,16.373,66.814,15.701z
		"/>
	<g>
		<circle cx="14.53" cy="35.117" r="1.593"/>
		<path d="M15.667,13.357c-0.301-0.3-0.701-0.466-1.127-0.466s-0.826,0.165-1.127,0.466c-0.382,0.382-0.527,0.913-0.438,1.409
			c0.155,0.718,0.792,1.257,1.555,1.257c0.879,0,1.594-0.715,1.594-1.595c0-0.094-0.012-0.185-0.028-0.274
			C16.035,13.863,15.893,13.584,15.667,13.357z"/>
		<path d="M24.913,23.262c-0.421,0.003-0.817,0.168-1.115,0.467c-0.622,0.62-0.622,1.631,0,2.253
			c0.299,0.299,0.696,0.464,1.119,0.466c0.423-0.002,0.82-0.167,1.12-0.466c0.621-0.621,0.621-1.632,0-2.253
			C25.736,23.427,25.337,23.263,24.913,23.262z"/>
		<path d="M24.409,2.259c-12.462,0-22.6,10.139-22.6,22.601s10.138,22.601,22.6,22.601s22.6-10.139,22.6-22.601
			S36.871,2.259,24.409,2.259z M5.893,12.681c3.194-4.854,8.077-8.215,13.751-9.464c5.78-1.272,11.711-0.218,16.699,2.97l-0.55,0.86
			C31.034,4.006,25.377,3,19.863,4.213C14.45,5.405,9.792,8.611,6.747,13.24c-0.087,0.134-0.174,0.27-0.259,0.406l-0.87-0.534
			C5.708,12.967,5.8,12.823,5.893,12.681z M31.546,45.84c-2.336,0.795-4.748,1.189-7.151,1.189c-3.255,0-6.494-0.724-9.511-2.16
			c-5.345-2.545-9.379-7.018-11.359-12.597l0.962-0.341c1.889,5.321,5.737,9.588,10.836,12.016
			c5.003,2.383,10.648,2.711,15.895,0.926c0.152-0.052,0.304-0.104,0.454-0.161l0.358,0.956
			C31.869,45.728,31.708,45.784,31.546,45.84z M38.022,14.484V35.1c0,1.499-1.22,2.719-2.718,2.719c-1.5,0-2.72-1.22-2.72-2.719
			V21.039l-5.684,5.684c-0.513,0.514-1.196,0.796-1.922,0.796c-0.019,0-0.037-0.005-0.056-0.005c-0.022,0-0.043,0.006-0.066,0.006
			c-0.727,0-1.41-0.283-1.924-0.797L17.25,21.04v14c0,1.5-1.22,2.72-2.72,2.72c-1.499,0-2.718-1.22-2.718-2.72V14.479
			c0-0.001,0-0.003,0-0.005s0-0.003,0-0.005v-0.055c0-1.499,1.219-2.719,2.718-2.719c0.906,0,1.705,0.45,2.2,1.133l8.188,8.188
			l8.465-8.464c0.104-0.104,0.219-0.191,0.335-0.276c0.024-0.017,0.044-0.039,0.068-0.056c0.129-0.087,0.267-0.158,0.407-0.222
			c0.02-0.009,0.037-0.021,0.056-0.03c0.137-0.058,0.281-0.098,0.427-0.133c0.029-0.007,0.055-0.02,0.084-0.025
			c0.177-0.036,0.359-0.055,0.544-0.055c0,0,0,0,0,0c0.005,0,0.009,0.001,0.014,0.001c0.18,0.001,0.357,0.019,0.53,0.054
			c0.032,0.006,0.061,0.021,0.093,0.028c0.143,0.035,0.284,0.074,0.419,0.13c0.014,0.006,0.026,0.015,0.04,0.021
			c0.304,0.134,0.586,0.32,0.828,0.562c0.514,0.513,0.796,1.196,0.796,1.922C38.023,14.478,38.022,14.481,38.022,14.484z
			 M40.342,40.262c-0.225,0.232-0.455,0.462-0.691,0.686l-0.703-0.741c4.104-3.884,6.439-9.131,6.593-14.775
			c0.148-5.54-1.838-10.834-5.596-14.907c-0.108-0.117-0.219-0.233-0.331-0.349l0.727-0.716c0.12,0.123,0.238,0.246,0.354,0.371
			c3.941,4.271,6.023,9.82,5.867,15.627C46.41,31.05,44.209,36.27,40.342,40.262z"/>
		<path d="M34.84,16.005c0.146,0.043,0.297,0.073,0.454,0.073c0.426,0,0.826-0.166,1.127-0.467c0.621-0.621,0.621-1.632,0-2.254
			c-0.074-0.074-0.154-0.14-0.239-0.197c-0.039-0.026-0.082-0.044-0.123-0.067c-0.047-0.026-0.092-0.055-0.141-0.075
			c-0.189-0.08-0.396-0.124-0.613-0.124c-0.879,0-1.594,0.715-1.594,1.594C33.711,15.205,34.189,15.805,34.84,16.005z"/>
		<path d="M35.305,33.582c-0.879,0-1.594,0.715-1.594,1.593c0,0.88,0.715,1.595,1.594,1.595c0.877,0,1.592-0.715,1.592-1.595
			C36.896,34.297,36.182,33.582,35.305,33.582z"/>
	</g>
	<g>
		<path d="M11.812,58.798v-6.967c0-0.074,0.013-0.144,0.04-0.208c0.027-0.065,0.064-0.122,0.113-0.172
			c0.049-0.048,0.104-0.085,0.168-0.111c0.064-0.028,0.134-0.041,0.211-0.041c0.208,0,0.364,0.095,0.472,0.286l3.012,6.019
			l3.012-6.019c0.121-0.191,0.278-0.286,0.472-0.286c0.074,0,0.143,0.013,0.208,0.041c0.065,0.026,0.123,0.063,0.171,0.111
			c0.048,0.05,0.086,0.106,0.113,0.172c0.026,0.064,0.04,0.134,0.04,0.208v6.967c0,0.147-0.052,0.273-0.155,0.377
			c-0.104,0.103-0.229,0.155-0.377,0.155c-0.147,0-0.272-0.053-0.376-0.155c-0.104-0.104-0.156-0.229-0.156-0.377V54.09
			l-2.489,4.975c-0.104,0.177-0.258,0.266-0.462,0.266c-0.221,0-0.383-0.106-0.487-0.321l-2.464-4.919v4.708
			c0,0.147-0.052,0.273-0.155,0.377c-0.104,0.103-0.229,0.155-0.376,0.155c-0.147,0-0.273-0.053-0.377-0.155
			C11.863,59.071,11.812,58.945,11.812,58.798z"/>
		<path d="M20.275,58.557l2.68-6.896c0.107-0.241,0.276-0.361,0.507-0.361c0.238,0,0.407,0.12,0.507,0.361l2.69,6.922
			c0.027,0.067,0.041,0.139,0.041,0.216c0,0.147-0.052,0.273-0.155,0.377c-0.104,0.103-0.229,0.155-0.376,0.155
			c-0.148,0-0.271-0.053-0.372-0.155c-0.053-0.054-0.093-0.11-0.12-0.171l-0.929-2.385h-2.57l-0.934,2.385
			c-0.026,0.061-0.067,0.117-0.12,0.171c-0.104,0.103-0.229,0.155-0.377,0.155s-0.271-0.053-0.374-0.155
			c-0.103-0.104-0.154-0.229-0.154-0.377C20.219,58.718,20.238,58.638,20.275,58.557z M24.335,55.555l-0.874-2.253l-0.873,2.253
			H24.335z"/>
		<path d="M27.026,51.831c0-0.147,0.052-0.272,0.156-0.377c0.103-0.104,0.229-0.155,0.376-0.155s0.273,0.052,0.376,0.155
			c0.104,0.104,0.156,0.229,0.156,0.377v2.971l3.337-3.337c0.111-0.111,0.24-0.166,0.387-0.166c0.073,0,0.143,0.013,0.208,0.041
			c0.065,0.026,0.123,0.063,0.171,0.111c0.048,0.05,0.086,0.106,0.113,0.172c0.026,0.064,0.04,0.134,0.04,0.208
			c0,0.147-0.052,0.272-0.156,0.376l-2.63,2.635l2.685,3.64c0.067,0.094,0.101,0.194,0.101,0.302c0,0.07-0.014,0.139-0.04,0.206
			c-0.027,0.066-0.064,0.125-0.111,0.175c-0.047,0.051-0.102,0.09-0.165,0.121c-0.064,0.03-0.133,0.045-0.206,0.045
			c-0.198,0-0.346-0.076-0.447-0.227l-2.58-3.498l-0.707,0.708v2.484c0,0.147-0.052,0.273-0.156,0.377
			c-0.104,0.103-0.229,0.155-0.376,0.155s-0.273-0.053-0.376-0.155c-0.104-0.104-0.156-0.229-0.156-0.377V51.831z"/>
		<path d="M37.818,58.266c0.148,0,0.273,0.052,0.377,0.156c0.104,0.104,0.155,0.229,0.155,0.376s-0.052,0.273-0.155,0.377
			c-0.104,0.103-0.229,0.155-0.377,0.155h-4.643c-0.077,0-0.147-0.014-0.211-0.04c-0.063-0.027-0.119-0.064-0.168-0.113
			c-0.048-0.049-0.085-0.104-0.113-0.168c-0.026-0.063-0.04-0.134-0.04-0.211v-6.967c0-0.074,0.014-0.144,0.04-0.208
			c0.027-0.065,0.065-0.122,0.113-0.172c0.049-0.048,0.105-0.085,0.168-0.111c0.064-0.028,0.134-0.041,0.211-0.041h4.643
			c0.148,0,0.273,0.052,0.377,0.155c0.104,0.104,0.155,0.229,0.155,0.377s-0.052,0.272-0.155,0.376s-0.229,0.156-0.377,0.156h-4.11
			v2.419h2.951c0.148,0,0.273,0.052,0.377,0.155c0.104,0.104,0.155,0.229,0.155,0.377s-0.052,0.272-0.155,0.377
			c-0.104,0.104-0.229,0.154-0.377,0.154h-2.951v2.42H37.818z"/>
	</g>
	<g>
		<path d="M38.084,51.299h5.422c0.072,0,0.143,0.013,0.208,0.041c0.065,0.026,0.122,0.063,0.17,0.111
			c0.049,0.05,0.087,0.106,0.113,0.172c0.027,0.064,0.04,0.134,0.04,0.208c0,0.11-0.033,0.214-0.101,0.311l-4.764,6.124h4.333
			c0.149,0.003,0.276,0.057,0.378,0.161c0.102,0.104,0.153,0.229,0.153,0.376s-0.052,0.272-0.153,0.374
			c-0.102,0.103-0.226,0.153-0.373,0.153h-5.427c-0.077,0-0.147-0.014-0.21-0.04c-0.064-0.027-0.12-0.064-0.168-0.113
			c-0.049-0.049-0.087-0.104-0.113-0.168c-0.027-0.063-0.041-0.134-0.041-0.211c0.003-0.127,0.041-0.238,0.111-0.331l4.753-6.104
			h-4.333c-0.144,0-0.268-0.053-0.373-0.156c-0.106-0.104-0.159-0.229-0.159-0.376s0.053-0.272,0.159-0.377
			C37.816,51.351,37.94,51.299,38.084,51.299z"/>
		<path d="M45.43,51.831v4.644c0,0.244,0.047,0.475,0.14,0.691c0.094,0.219,0.221,0.408,0.382,0.57
			c0.16,0.162,0.35,0.291,0.567,0.386c0.217,0.096,0.45,0.144,0.697,0.144c0.248,0,0.48-0.047,0.698-0.141s0.407-0.222,0.57-0.386
			c0.161-0.165,0.289-0.354,0.384-0.57c0.093-0.216,0.14-0.447,0.14-0.694v-4.644c0-0.147,0.053-0.272,0.156-0.377
			c0.104-0.104,0.229-0.155,0.376-0.155s0.273,0.052,0.377,0.155c0.104,0.104,0.155,0.229,0.155,0.377v4.644
			c0,0.261-0.034,0.512-0.104,0.752c-0.067,0.241-0.163,0.468-0.288,0.681c-0.124,0.212-0.272,0.405-0.446,0.579
			c-0.174,0.175-0.367,0.324-0.58,0.449c-0.213,0.126-0.44,0.223-0.683,0.291c-0.242,0.069-0.494,0.104-0.756,0.104
			c-0.789,0-1.46-0.279-2.013-0.838c-0.559-0.56-0.838-1.232-0.838-2.018v-4.644c0-0.147,0.052-0.272,0.156-0.377
			c0.103-0.104,0.229-0.155,0.376-0.155c0.146,0,0.273,0.052,0.376,0.155C45.377,51.559,45.43,51.684,45.43,51.831z"/>
		<path d="M50.374,58.798v-6.967c0-0.074,0.014-0.144,0.04-0.208c0.026-0.065,0.064-0.122,0.113-0.172
			c0.048-0.048,0.104-0.085,0.168-0.111c0.062-0.028,0.133-0.041,0.21-0.041h1.938c0.338,0,0.658,0.065,0.957,0.196
			c0.299,0.13,0.56,0.307,0.783,0.532c0.222,0.224,0.399,0.485,0.529,0.785c0.131,0.299,0.195,0.618,0.195,0.956
			c0,0.221-0.027,0.436-0.083,0.645c-0.055,0.209-0.136,0.407-0.245,0.593c-0.108,0.186-0.245,0.357-0.407,0.517
			s-0.351,0.299-0.564,0.419l1.602,2.565c0.057,0.094,0.085,0.191,0.085,0.291c0,0.077-0.014,0.147-0.04,0.211
			c-0.027,0.063-0.064,0.119-0.112,0.168c-0.049,0.049-0.105,0.086-0.171,0.113c-0.066,0.026-0.135,0.04-0.209,0.04
			c-0.188,0-0.339-0.087-0.456-0.261l-1.771-2.837h-1.497v2.565c0,0.147-0.052,0.273-0.154,0.377
			c-0.104,0.103-0.229,0.155-0.378,0.155c-0.147,0-0.271-0.053-0.376-0.155C50.425,59.071,50.374,58.945,50.374,58.798z
			 M51.438,52.363v2.806h1.405c0.194,0,0.377-0.036,0.548-0.11c0.171-0.073,0.319-0.176,0.443-0.304
			c0.127-0.13,0.226-0.277,0.3-0.447c0.073-0.169,0.11-0.349,0.11-0.539c0-0.194-0.037-0.377-0.11-0.547
			c-0.074-0.171-0.174-0.32-0.301-0.446c-0.128-0.128-0.276-0.229-0.447-0.302c-0.17-0.074-0.352-0.11-0.543-0.11H51.438z"/>
		<path d="M57.407,58.798c0,0.147-0.053,0.273-0.156,0.377c-0.104,0.103-0.229,0.155-0.376,0.155c-0.148,0-0.273-0.053-0.378-0.155
			c-0.103-0.104-0.154-0.229-0.154-0.377v-6.967c0-0.147,0.052-0.272,0.154-0.377c0.104-0.104,0.229-0.155,0.378-0.155
			c0.146,0,0.271,0.052,0.376,0.155c0.104,0.104,0.156,0.229,0.156,0.377V58.798z"/>
		<path d="M64.174,57.523c0.072,0,0.142,0.014,0.206,0.042c0.062,0.028,0.118,0.066,0.168,0.113
			c0.048,0.047,0.087,0.104,0.114,0.169c0.029,0.064,0.043,0.134,0.043,0.207c0,0.141-0.055,0.268-0.166,0.382
			c-0.746,0.596-1.587,0.894-2.524,0.894c-1.11,0-2.058-0.392-2.841-1.174c-0.782-0.784-1.175-1.73-1.175-2.842
			c0-1.107,0.393-2.053,1.175-2.836c0.786-0.786,1.733-1.18,2.841-1.18c0.95,0,1.809,0.312,2.575,0.938
			c0.094,0.091,0.141,0.213,0.141,0.366c0,0.078-0.014,0.147-0.039,0.211c-0.028,0.063-0.065,0.119-0.114,0.168
			s-0.105,0.087-0.171,0.113c-0.064,0.027-0.134,0.04-0.208,0.04c-0.13,0-0.253-0.05-0.366-0.151
			c-0.255-0.2-0.534-0.354-0.841-0.461s-0.631-0.16-0.977-0.16c-0.816,0-1.514,0.289-2.093,0.868
			c-0.572,0.572-0.858,1.267-0.858,2.083c0,0.819,0.286,1.516,0.858,2.088c0.575,0.575,1.273,0.863,2.093,0.863
			c0.699,0,1.315-0.216,1.848-0.647C63.949,57.559,64.053,57.526,64.174,57.523z"/>
		<path d="M70.715,58.798c0,0.147-0.052,0.273-0.156,0.377c-0.104,0.103-0.229,0.155-0.376,0.155s-0.273-0.053-0.376-0.155
			c-0.104-0.104-0.156-0.229-0.156-0.377v-2.952h-3.579v2.952c0,0.147-0.053,0.273-0.154,0.377
			c-0.105,0.103-0.229,0.155-0.378,0.155c-0.147,0-0.271-0.053-0.377-0.155c-0.104-0.104-0.154-0.229-0.154-0.377v-6.967
			c0-0.147,0.051-0.272,0.154-0.377c0.105-0.104,0.229-0.155,0.377-0.155c0.148,0,0.272,0.052,0.378,0.155
			c0.102,0.104,0.154,0.229,0.154,0.377v2.951h3.579v-2.951c0-0.147,0.053-0.272,0.156-0.377c0.103-0.104,0.229-0.155,0.376-0.155
			s0.272,0.052,0.376,0.155c0.104,0.104,0.156,0.229,0.156,0.377V58.798z"/>
	</g>
	<path d="M59.48,2.004c-8.073,0-15.177,4.211-19.244,10.549h0.559v2.05C44.428,8.013,51.439,3.535,59.48,3.535
		c11.758,0,21.324,9.566,21.324,21.324S71.238,46.184,59.48,46.184c-8.041,0-15.053-4.478-18.685-11.067v1.594h-0.851
		c4.014,6.593,11.27,11.005,19.536,11.005c12.603,0,22.855-10.253,22.855-22.855S72.083,2.004,59.48,2.004z M79.906,17.897
		c-1.858-5.455-5.73-9.86-10.903-12.404C63.927,2.998,58.168,2.59,52.789,4.342c-0.154,0.052-0.311,0.104-0.466,0.16l-0.344-0.961
		c0.162-0.059,0.326-0.113,0.49-0.168c5.635-1.837,11.666-1.409,16.983,1.204c5.418,2.665,9.473,7.278,11.42,12.991L79.906,17.897z
		 M61.204,47.395l-0.078-1.018c5.747-0.44,10.979-3.092,14.733-7.466c3.683-4.293,5.515-9.767,5.158-15.412
		c-0.011-0.164-0.021-0.327-0.037-0.49l1.016-0.097c0.017,0.174,0.029,0.348,0.04,0.521c0.373,5.914-1.545,11.646-5.402,16.143
		C72.702,44.157,67.222,46.934,61.204,47.395z"/>
</g>
</svg>
