G04 MADE WITH FRITZING*
G04 WWW.FRITZING.ORG*
G04 DOUBLE SIDED*
G04 HOLES PLATED*
G04 CONTOUR ON CENTER OF CONTOUR VECTOR*
%ASAXBY*%
%FSLAX23Y23*%
%MOIN*%
%OFA0B0*%
%SFA1.0B1.0*%
%ADD10C,0.049370*%
%ADD11C,0.084000*%
%ADD12C,0.084803*%
%ADD13C,0.206850*%
%ADD14C,0.088000*%
%ADD15R,0.049370X0.206850*%
%ADD16R,0.199370X0.206850*%
%LNMASK1*%
G90*
G70*
G54D10*
X689Y1534D03*
X582Y1648D03*
X853Y1767D03*
G54D11*
X1788Y1391D03*
X1532Y1391D03*
X1788Y1391D03*
X1532Y1391D03*
G54D12*
X1028Y463D03*
X1028Y1269D03*
G54D10*
X1699Y237D03*
X1650Y304D03*
X1301Y237D03*
X1250Y280D03*
X1199Y320D03*
X1148Y363D03*
X694Y387D03*
X749Y343D03*
X801Y305D03*
X851Y262D03*
X49Y408D03*
X297Y406D03*
X349Y354D03*
X401Y301D03*
X454Y359D03*
X183Y1394D03*
G54D13*
X175Y2701D03*
X575Y2701D03*
X1025Y2701D03*
X1475Y2701D03*
X1875Y2701D03*
X1875Y292D03*
X1475Y292D03*
X1025Y292D03*
X574Y292D03*
X174Y292D03*
G54D14*
X1469Y1998D03*
X1369Y1998D03*
X1269Y1998D03*
X1169Y1998D03*
X1069Y1998D03*
X969Y1998D03*
X869Y1998D03*
X769Y1998D03*
X669Y1998D03*
X569Y1998D03*
X1469Y1998D03*
X1369Y1998D03*
X1269Y1998D03*
X1169Y1998D03*
X1069Y1998D03*
X969Y1998D03*
X869Y1998D03*
X769Y1998D03*
X669Y1998D03*
X569Y1998D03*
X569Y1898D03*
X669Y1898D03*
X769Y1898D03*
X869Y1898D03*
X969Y1898D03*
X1069Y1898D03*
X1169Y1898D03*
X1269Y1898D03*
X1369Y1898D03*
X1469Y1898D03*
G54D10*
X2000Y1898D03*
X1600Y1998D03*
X1650Y2098D03*
X1700Y1798D03*
X181Y1990D03*
X500Y1898D03*
X50Y1798D03*
X300Y2107D03*
X350Y1748D03*
X450Y1698D03*
X1306Y2151D03*
X1366Y1712D03*
X1750Y2004D03*
X1750Y1804D03*
X394Y2154D03*
X1250Y2198D03*
X1314Y1667D03*
X1800Y2004D03*
X1800Y1804D03*
X906Y356D03*
X250Y604D03*
X242Y2057D03*
X1200Y2248D03*
X1218Y1655D03*
X1850Y1804D03*
X1850Y2004D03*
X1147Y2298D03*
X1091Y1655D03*
X1900Y1804D03*
X1900Y2004D03*
X700Y2307D03*
X92Y1540D03*
X564Y2207D03*
X100Y2298D03*
X147Y2209D03*
X136Y1654D03*
X799Y2342D03*
X1950Y2342D03*
X817Y1657D03*
X1950Y2004D03*
X1950Y1804D03*
X976Y1657D03*
X1088Y1498D03*
X897Y1575D03*
X814Y1498D03*
X975Y1498D03*
X1022Y2176D03*
X918Y2299D03*
X1033Y1762D03*
X1468Y462D03*
X1218Y1498D03*
X50Y2612D03*
X299Y2612D03*
X350Y2612D03*
X399Y2612D03*
X450Y2612D03*
X699Y2612D03*
X750Y2612D03*
X799Y2612D03*
X850Y2612D03*
X1150Y2612D03*
X1199Y2612D03*
X1250Y2612D03*
X1299Y2612D03*
X1650Y2612D03*
X1699Y2612D03*
X1350Y2385D03*
X1750Y2385D03*
X375Y2384D03*
X92Y2385D03*
X900Y2385D03*
G54D15*
X1250Y108D03*
X1300Y108D03*
G54D16*
X1475Y107D03*
G54D15*
X1350Y108D03*
X1600Y108D03*
X1650Y108D03*
X1700Y108D03*
G54D16*
X1875Y107D03*
G54D15*
X1750Y108D03*
X2000Y108D03*
X400Y108D03*
G54D16*
X175Y107D03*
G54D15*
X50Y108D03*
X300Y108D03*
X350Y108D03*
G54D16*
X575Y107D03*
G54D15*
X450Y108D03*
X700Y108D03*
X750Y108D03*
X800Y108D03*
X850Y108D03*
G54D16*
X1025Y107D03*
G54D15*
X900Y108D03*
X1150Y108D03*
X1200Y108D03*
G04 End of Mask1*
M02*