; NON-PLATED HOLES START AT T1
; THROUGH (PLATED) HOLES START AT T100
M48
INCH
T100C0.038000
T101C0.015748
T102C0.051181
T103C0.157480
T104C0.035433
%
T100
X012694Y019982
X008694Y019982
X011694Y019982
X006694Y019982
X005694Y019982
X009694Y018982
X012694Y018982
X008694Y018982
X011694Y018982
X014694Y019982
X006694Y018982
X013694Y019982
X005694Y018982
X007694Y019982
X010694Y019982
X014694Y018982
X013694Y018982
X007694Y018982
X010694Y018982
X009694Y019982
T101
X016000Y019982
X010907Y016550
X007487Y003433
X019500Y018038
X012175Y016547
X004499Y016982
X001833Y013938
X010222Y021760
X019000Y020038
X008512Y002618
X016988Y002371
X004537Y003594
X001805Y019899
X019500Y020038
X008531Y017673
X001361Y016538
X016500Y020982
X009061Y003563
X020000Y018982
X017500Y018038
X011477Y003628
X013659Y017124
X005817Y016482
X010333Y017621
X002999Y021066
X013055Y021510
X010880Y014980
X007999Y023538
X008006Y003050
X002969Y004063
X011472Y022982
X017500Y020038
X000999Y022982
X003487Y003544
X004006Y003013
X013144Y016668
X000499Y017983
X001472Y022094
X009333Y023010
X002416Y020566
X006944Y003865
X017000Y017983
X006888Y015344
X019500Y023538
X018000Y018038
X002499Y006038
X005638Y022066
X018500Y018038
X006999Y023066
X018000Y020038
X012500Y021982
X009749Y014980
X018500Y020038
X000916Y015399
X016500Y003038
X012000Y022482
X013011Y002371
X003499Y017482
X000487Y004075
X008138Y014980
X003944Y021538
X009763Y016566
X004999Y018982
X012177Y014982
X019000Y018038
X011988Y003198
X008972Y015746
X014675Y004621
X008166Y016566
X012500Y002801
T102
X010277Y004631
X010277Y012686
T103
X010250Y027010
X001750Y027010
X010250Y002918
X005740Y002918
X005750Y027010
X014750Y027010
X001740Y002918
X014750Y002918
X018751Y002920
X018750Y027010
T104
X015316Y013905
X017875Y013905
T00
M30
