G04 MADE WITH FRITZING*
G04 WWW.FRITZING.ORG*
G04 DOUBLE SIDED*
G04 HOLES PLATED*
G04 CONTOUR ON CENTER OF CONTOUR VECTOR*
%ASAXBY*%
%FSLAX23Y23*%
%MOIN*%
%OFA0B0*%
%SFA1.0B1.0*%
%ADD10C,0.075000*%
%ADD11C,0.039370*%
%ADD12C,0.196850*%
%ADD13C,0.078000*%
%ADD14C,0.074803*%
%ADD15R,0.039370X0.196850*%
%ADD16R,0.189370X0.196850*%
%ADD17R,0.137795X0.078740*%
%ADD18C,0.024000*%
%LNCOPPER1*%
G90*
G70*
G54D10*
X1053Y2266D03*
X1270Y1734D03*
X348Y2710D03*
X1288Y350D03*
G54D11*
X1699Y237D03*
X1650Y304D03*
X1301Y237D03*
X1250Y280D03*
X1199Y320D03*
X1148Y363D03*
X694Y387D03*
X749Y343D03*
X801Y305D03*
X851Y262D03*
X49Y408D03*
X297Y406D03*
X349Y354D03*
X401Y301D03*
X454Y359D03*
X183Y1352D03*
G54D12*
X175Y2701D03*
X575Y2701D03*
X1025Y2701D03*
X1475Y2701D03*
X1875Y2701D03*
X1875Y292D03*
X1475Y292D03*
X1025Y292D03*
X574Y292D03*
X174Y292D03*
G54D13*
X1469Y1998D03*
X1369Y1998D03*
X1269Y1998D03*
X1169Y1998D03*
X1069Y1998D03*
X969Y1998D03*
X869Y1998D03*
X769Y1998D03*
X669Y1998D03*
X569Y1998D03*
X1469Y1998D03*
X1369Y1998D03*
X1269Y1998D03*
X1169Y1998D03*
X1069Y1998D03*
X969Y1998D03*
X869Y1998D03*
X769Y1998D03*
X669Y1998D03*
X569Y1998D03*
X569Y1898D03*
X669Y1898D03*
X769Y1898D03*
X869Y1898D03*
X969Y1898D03*
X1069Y1898D03*
X1169Y1898D03*
X1269Y1898D03*
X1369Y1898D03*
X1469Y1898D03*
G54D11*
X2000Y1898D03*
X1600Y1998D03*
X1650Y2098D03*
X1700Y1798D03*
X181Y1990D03*
X500Y1898D03*
X50Y1798D03*
X300Y2107D03*
X350Y1748D03*
X450Y1698D03*
X1306Y2151D03*
X1366Y1712D03*
X1750Y2004D03*
X1750Y1804D03*
X394Y2154D03*
X1250Y2198D03*
X1314Y1667D03*
X1800Y2004D03*
X1800Y1804D03*
X906Y356D03*
X250Y604D03*
X242Y2057D03*
X1200Y2248D03*
X1218Y1621D03*
X1850Y1804D03*
X1850Y2004D03*
X1147Y2298D03*
X1091Y1622D03*
X1900Y1804D03*
X1900Y2004D03*
X700Y2307D03*
X92Y1540D03*
X689Y1534D03*
X564Y2207D03*
X736Y1647D03*
X100Y2298D03*
X147Y2209D03*
X136Y1654D03*
X800Y2354D03*
X1950Y2354D03*
X817Y1623D03*
X1950Y2004D03*
X1950Y1804D03*
X976Y1623D03*
X1088Y1465D03*
X897Y1541D03*
X814Y1465D03*
X975Y1465D03*
X1022Y2176D03*
X933Y2301D03*
X1033Y1762D03*
X1468Y440D03*
X1218Y1465D03*
G54D14*
X1028Y441D03*
X1028Y1246D03*
G54D15*
X1250Y108D03*
X1300Y108D03*
G54D16*
X1475Y107D03*
G54D15*
X1350Y108D03*
X1600Y108D03*
X1650Y108D03*
X1700Y108D03*
G54D16*
X1875Y107D03*
G54D15*
X1750Y108D03*
X2000Y108D03*
G54D17*
X1556Y1360D03*
X1883Y1360D03*
G54D15*
X400Y108D03*
G54D16*
X175Y107D03*
G54D15*
X50Y108D03*
X300Y108D03*
X350Y108D03*
G54D16*
X575Y107D03*
G54D15*
X450Y108D03*
X700Y108D03*
X750Y108D03*
X800Y108D03*
X850Y108D03*
G54D16*
X1025Y107D03*
G54D15*
X900Y108D03*
X1150Y108D03*
X1200Y108D03*
G54D18*
X1964Y108D02*
X1986Y108D01*
D02*
X1786Y108D02*
X1764Y108D01*
D02*
X1564Y108D02*
X1586Y108D01*
D02*
X1386Y108D02*
X1364Y108D01*
D02*
X175Y200D02*
X175Y202D01*
D02*
X575Y200D02*
X575Y202D01*
D02*
X1025Y200D02*
X1025Y202D01*
D02*
X1475Y200D02*
X1475Y202D01*
D02*
X1875Y200D02*
X1875Y202D01*
D02*
X1301Y218D02*
X1301Y201D01*
D02*
X1199Y301D02*
X1200Y201D01*
D02*
X1250Y261D02*
X1250Y201D01*
D02*
X1148Y344D02*
X1149Y201D01*
D02*
X1650Y201D02*
X1650Y285D01*
D02*
X1699Y201D02*
X1699Y218D01*
D02*
X299Y201D02*
X297Y387D01*
D02*
X50Y201D02*
X49Y389D01*
D02*
X851Y243D02*
X851Y201D01*
D02*
X801Y286D02*
X800Y201D01*
D02*
X749Y324D02*
X750Y201D01*
D02*
X695Y368D02*
X698Y201D01*
D02*
X451Y201D02*
X453Y340D01*
D02*
X400Y201D02*
X401Y282D01*
D02*
X350Y201D02*
X349Y335D01*
D02*
X202Y1352D02*
X1493Y1359D01*
D02*
X519Y1898D02*
X539Y1898D01*
D02*
X200Y1990D02*
X539Y1998D01*
D02*
X1400Y1798D02*
X1378Y1869D01*
D02*
X1681Y1798D02*
X1400Y1798D01*
D02*
X1400Y2098D02*
X1378Y2027D01*
D02*
X1631Y2098D02*
X1400Y2098D01*
D02*
X1581Y1998D02*
X1500Y1998D01*
D02*
X1981Y1898D02*
X1500Y1898D01*
D02*
X750Y2148D02*
X413Y2154D01*
D02*
X1750Y2023D02*
X1750Y2148D01*
D02*
X1283Y1872D02*
X1357Y1729D01*
D02*
X1750Y1715D02*
X1385Y1713D01*
D02*
X1750Y2148D02*
X1325Y2151D01*
D02*
X1750Y1715D02*
X1750Y1785D01*
D02*
X700Y1698D02*
X850Y1875D01*
D02*
X469Y1698D02*
X700Y1698D01*
D02*
X650Y1748D02*
X751Y1875D01*
D02*
X369Y1748D02*
X650Y1748D01*
D02*
X700Y2098D02*
X752Y2023D01*
D02*
X319Y2106D02*
X700Y2098D01*
D02*
X600Y1798D02*
X652Y1874D01*
D02*
X69Y1798D02*
X600Y1798D01*
D02*
X1850Y2023D02*
X1850Y2248D01*
D02*
X1850Y1624D02*
X1850Y1785D01*
D02*
X1237Y1621D02*
X1850Y1624D01*
D02*
X888Y363D02*
X268Y597D01*
D02*
X261Y2057D02*
X614Y2059D01*
D02*
X614Y2059D02*
X649Y2021D01*
D02*
X1800Y1785D02*
X1800Y1665D01*
X1800Y1665D02*
X1333Y1667D01*
D02*
X1800Y2198D02*
X1800Y2023D01*
D02*
X1269Y2198D02*
X1800Y2198D01*
D02*
X1267Y2028D02*
X1252Y2179D01*
D02*
X851Y2022D02*
X750Y2148D01*
D02*
X1218Y1567D02*
X1108Y1614D01*
D02*
X111Y1540D02*
X670Y1535D01*
D02*
X681Y2306D02*
X119Y2299D01*
D02*
X783Y2204D02*
X712Y2292D01*
D02*
X949Y2021D02*
X783Y2204D01*
D02*
X1900Y1785D02*
X1900Y1565D01*
X1900Y1565D02*
X1218Y1567D01*
D02*
X1897Y2293D02*
X1900Y2023D01*
D02*
X1166Y2298D02*
X1897Y2293D01*
D02*
X1850Y2248D02*
X1219Y2248D01*
D02*
X1175Y1869D02*
X1214Y1640D01*
D02*
X1199Y1465D02*
X1107Y1465D01*
D02*
X884Y1555D02*
X830Y1610D01*
D02*
X1077Y1480D02*
X987Y1608D01*
D02*
X963Y1610D02*
X910Y1555D01*
D02*
X1948Y1459D02*
X1237Y1465D01*
D02*
X819Y2354D02*
X1931Y2354D01*
D02*
X1051Y2022D02*
X811Y2339D01*
D02*
X155Y1654D02*
X717Y1647D01*
D02*
X545Y2207D02*
X166Y2209D01*
D02*
X949Y1876D02*
X749Y1661D01*
D02*
X1011Y2192D02*
X944Y2286D01*
D02*
X1062Y1869D02*
X1038Y1781D01*
D02*
X1950Y1785D02*
X1948Y1459D01*
D02*
X1950Y2335D02*
X1950Y2023D01*
D02*
X1150Y2165D02*
X1148Y2279D01*
D02*
X1166Y2028D02*
X1150Y2165D01*
D02*
X1449Y440D02*
X1064Y441D01*
G36*
X860Y2331D02*
X860Y2309D01*
X862Y2309D01*
X862Y2307D01*
X864Y2307D01*
X864Y2305D01*
X866Y2305D01*
X866Y2301D01*
X868Y2301D01*
X868Y2299D01*
X870Y2299D01*
X870Y2297D01*
X872Y2297D01*
X872Y2293D01*
X874Y2293D01*
X874Y2291D01*
X876Y2291D01*
X876Y2289D01*
X878Y2289D01*
X878Y2287D01*
X880Y2287D01*
X880Y2283D01*
X882Y2283D01*
X882Y2281D01*
X884Y2281D01*
X884Y2279D01*
X886Y2279D01*
X886Y2275D01*
X888Y2275D01*
X888Y2273D01*
X890Y2273D01*
X890Y2271D01*
X892Y2271D01*
X892Y2267D01*
X894Y2267D01*
X894Y2265D01*
X896Y2265D01*
X896Y2263D01*
X898Y2263D01*
X898Y2259D01*
X900Y2259D01*
X900Y2257D01*
X902Y2257D01*
X902Y2255D01*
X904Y2255D01*
X904Y2251D01*
X906Y2251D01*
X906Y2249D01*
X908Y2249D01*
X908Y2247D01*
X910Y2247D01*
X910Y2243D01*
X912Y2243D01*
X912Y2241D01*
X914Y2241D01*
X914Y2239D01*
X916Y2239D01*
X916Y2235D01*
X918Y2235D01*
X918Y2233D01*
X920Y2233D01*
X920Y2231D01*
X922Y2231D01*
X922Y2227D01*
X924Y2227D01*
X924Y2225D01*
X926Y2225D01*
X926Y2223D01*
X928Y2223D01*
X928Y2221D01*
X930Y2221D01*
X930Y2217D01*
X932Y2217D01*
X932Y2215D01*
X934Y2215D01*
X934Y2213D01*
X936Y2213D01*
X936Y2209D01*
X938Y2209D01*
X938Y2207D01*
X940Y2207D01*
X940Y2205D01*
X942Y2205D01*
X942Y2201D01*
X944Y2201D01*
X944Y2199D01*
X946Y2199D01*
X946Y2197D01*
X948Y2197D01*
X948Y2193D01*
X950Y2193D01*
X950Y2191D01*
X952Y2191D01*
X952Y2189D01*
X954Y2189D01*
X954Y2185D01*
X956Y2185D01*
X956Y2183D01*
X958Y2183D01*
X958Y2181D01*
X960Y2181D01*
X960Y2177D01*
X962Y2177D01*
X962Y2175D01*
X964Y2175D01*
X964Y2173D01*
X966Y2173D01*
X966Y2169D01*
X968Y2169D01*
X968Y2167D01*
X970Y2167D01*
X970Y2165D01*
X972Y2165D01*
X972Y2163D01*
X974Y2163D01*
X974Y2159D01*
X976Y2159D01*
X976Y2157D01*
X978Y2157D01*
X978Y2155D01*
X980Y2155D01*
X980Y2151D01*
X982Y2151D01*
X982Y2149D01*
X984Y2149D01*
X984Y2147D01*
X1014Y2147D01*
X1014Y2149D01*
X1008Y2149D01*
X1008Y2151D01*
X1006Y2151D01*
X1006Y2153D01*
X1002Y2153D01*
X1002Y2155D01*
X1000Y2155D01*
X1000Y2157D01*
X998Y2157D01*
X998Y2161D01*
X996Y2161D01*
X996Y2165D01*
X994Y2165D01*
X994Y2171D01*
X992Y2171D01*
X992Y2183D01*
X990Y2183D01*
X990Y2185D01*
X988Y2185D01*
X988Y2187D01*
X986Y2187D01*
X986Y2191D01*
X984Y2191D01*
X984Y2193D01*
X982Y2193D01*
X982Y2197D01*
X980Y2197D01*
X980Y2199D01*
X978Y2199D01*
X978Y2201D01*
X976Y2201D01*
X976Y2205D01*
X974Y2205D01*
X974Y2207D01*
X972Y2207D01*
X972Y2211D01*
X970Y2211D01*
X970Y2213D01*
X968Y2213D01*
X968Y2215D01*
X966Y2215D01*
X966Y2219D01*
X964Y2219D01*
X964Y2221D01*
X962Y2221D01*
X962Y2225D01*
X960Y2225D01*
X960Y2227D01*
X958Y2227D01*
X958Y2229D01*
X956Y2229D01*
X956Y2233D01*
X954Y2233D01*
X954Y2235D01*
X952Y2235D01*
X952Y2239D01*
X950Y2239D01*
X950Y2241D01*
X948Y2241D01*
X948Y2243D01*
X946Y2243D01*
X946Y2247D01*
X944Y2247D01*
X944Y2249D01*
X942Y2249D01*
X942Y2253D01*
X940Y2253D01*
X940Y2255D01*
X938Y2255D01*
X938Y2257D01*
X936Y2257D01*
X936Y2261D01*
X934Y2261D01*
X934Y2263D01*
X932Y2263D01*
X932Y2267D01*
X930Y2267D01*
X930Y2269D01*
X928Y2269D01*
X928Y2273D01*
X922Y2273D01*
X922Y2275D01*
X918Y2275D01*
X918Y2277D01*
X914Y2277D01*
X914Y2279D01*
X912Y2279D01*
X912Y2281D01*
X910Y2281D01*
X910Y2285D01*
X908Y2285D01*
X908Y2287D01*
X906Y2287D01*
X906Y2293D01*
X904Y2293D01*
X904Y2309D01*
X906Y2309D01*
X906Y2331D01*
X860Y2331D01*
G37*
D02*
G36*
X960Y2331D02*
X960Y2311D01*
X962Y2311D01*
X962Y2297D01*
X964Y2297D01*
X964Y2295D01*
X966Y2295D01*
X966Y2291D01*
X968Y2291D01*
X968Y2289D01*
X970Y2289D01*
X970Y2287D01*
X972Y2287D01*
X972Y2283D01*
X974Y2283D01*
X974Y2281D01*
X976Y2281D01*
X976Y2277D01*
X978Y2277D01*
X978Y2275D01*
X980Y2275D01*
X980Y2273D01*
X982Y2273D01*
X982Y2269D01*
X984Y2269D01*
X984Y2267D01*
X986Y2267D01*
X986Y2263D01*
X988Y2263D01*
X988Y2261D01*
X990Y2261D01*
X990Y2257D01*
X992Y2257D01*
X992Y2255D01*
X994Y2255D01*
X994Y2253D01*
X996Y2253D01*
X996Y2249D01*
X998Y2249D01*
X998Y2247D01*
X1000Y2247D01*
X1000Y2243D01*
X1002Y2243D01*
X1002Y2241D01*
X1004Y2241D01*
X1004Y2239D01*
X1006Y2239D01*
X1006Y2235D01*
X1008Y2235D01*
X1008Y2233D01*
X1010Y2233D01*
X1010Y2229D01*
X1012Y2229D01*
X1012Y2227D01*
X1014Y2227D01*
X1014Y2225D01*
X1016Y2225D01*
X1016Y2221D01*
X1018Y2221D01*
X1018Y2219D01*
X1020Y2219D01*
X1020Y2215D01*
X1022Y2215D01*
X1022Y2213D01*
X1024Y2213D01*
X1024Y2211D01*
X1026Y2211D01*
X1026Y2207D01*
X1028Y2207D01*
X1028Y2205D01*
X1032Y2205D01*
X1032Y2203D01*
X1036Y2203D01*
X1036Y2201D01*
X1040Y2201D01*
X1040Y2199D01*
X1042Y2199D01*
X1042Y2197D01*
X1044Y2197D01*
X1044Y2195D01*
X1046Y2195D01*
X1046Y2193D01*
X1048Y2193D01*
X1048Y2189D01*
X1050Y2189D01*
X1050Y2183D01*
X1052Y2183D01*
X1052Y2169D01*
X1050Y2169D01*
X1050Y2163D01*
X1048Y2163D01*
X1048Y2159D01*
X1046Y2159D01*
X1046Y2157D01*
X1044Y2157D01*
X1044Y2155D01*
X1042Y2155D01*
X1042Y2153D01*
X1040Y2153D01*
X1040Y2151D01*
X1036Y2151D01*
X1036Y2149D01*
X1032Y2149D01*
X1032Y2147D01*
X1130Y2147D01*
X1130Y2155D01*
X1128Y2155D01*
X1128Y2213D01*
X1126Y2213D01*
X1126Y2279D01*
X1124Y2279D01*
X1124Y2281D01*
X1122Y2281D01*
X1122Y2285D01*
X1120Y2285D01*
X1120Y2289D01*
X1118Y2289D01*
X1118Y2307D01*
X1120Y2307D01*
X1120Y2311D01*
X1122Y2311D01*
X1122Y2331D01*
X960Y2331D01*
G37*
D02*
G36*
X986Y2147D02*
X986Y2145D01*
X1130Y2145D01*
X1130Y2147D01*
X986Y2147D01*
G37*
D02*
G36*
X986Y2147D02*
X986Y2145D01*
X1130Y2145D01*
X1130Y2147D01*
X986Y2147D01*
G37*
D02*
G36*
X986Y2145D02*
X986Y2143D01*
X988Y2143D01*
X988Y2141D01*
X990Y2141D01*
X990Y2139D01*
X992Y2139D01*
X992Y2135D01*
X994Y2135D01*
X994Y2133D01*
X996Y2133D01*
X996Y2131D01*
X998Y2131D01*
X998Y2127D01*
X1000Y2127D01*
X1000Y2125D01*
X1002Y2125D01*
X1002Y2123D01*
X1004Y2123D01*
X1004Y2119D01*
X1006Y2119D01*
X1006Y2117D01*
X1008Y2117D01*
X1008Y2115D01*
X1010Y2115D01*
X1010Y2111D01*
X1012Y2111D01*
X1012Y2109D01*
X1014Y2109D01*
X1014Y2107D01*
X1016Y2107D01*
X1016Y2103D01*
X1018Y2103D01*
X1018Y2101D01*
X1020Y2101D01*
X1020Y2099D01*
X1022Y2099D01*
X1022Y2097D01*
X1024Y2097D01*
X1024Y2093D01*
X1026Y2093D01*
X1026Y2091D01*
X1028Y2091D01*
X1028Y2089D01*
X1030Y2089D01*
X1030Y2085D01*
X1032Y2085D01*
X1032Y2083D01*
X1034Y2083D01*
X1034Y2081D01*
X1036Y2081D01*
X1036Y2077D01*
X1038Y2077D01*
X1038Y2075D01*
X1040Y2075D01*
X1040Y2073D01*
X1042Y2073D01*
X1042Y2069D01*
X1044Y2069D01*
X1044Y2067D01*
X1046Y2067D01*
X1046Y2065D01*
X1048Y2065D01*
X1048Y2061D01*
X1050Y2061D01*
X1050Y2059D01*
X1052Y2059D01*
X1052Y2057D01*
X1054Y2057D01*
X1054Y2053D01*
X1056Y2053D01*
X1056Y2051D01*
X1058Y2051D01*
X1058Y2049D01*
X1060Y2049D01*
X1060Y2047D01*
X1080Y2047D01*
X1080Y2045D01*
X1086Y2045D01*
X1086Y2043D01*
X1092Y2043D01*
X1092Y2041D01*
X1094Y2041D01*
X1094Y2039D01*
X1098Y2039D01*
X1098Y2037D01*
X1100Y2037D01*
X1100Y2035D01*
X1102Y2035D01*
X1102Y2033D01*
X1104Y2033D01*
X1104Y2031D01*
X1106Y2031D01*
X1106Y2029D01*
X1108Y2029D01*
X1108Y2027D01*
X1110Y2027D01*
X1110Y2025D01*
X1130Y2025D01*
X1130Y2029D01*
X1132Y2029D01*
X1132Y2031D01*
X1134Y2031D01*
X1134Y2033D01*
X1136Y2033D01*
X1136Y2035D01*
X1138Y2035D01*
X1138Y2037D01*
X1140Y2037D01*
X1140Y2069D01*
X1138Y2069D01*
X1138Y2087D01*
X1136Y2087D01*
X1136Y2103D01*
X1134Y2103D01*
X1134Y2121D01*
X1132Y2121D01*
X1132Y2139D01*
X1130Y2139D01*
X1130Y2145D01*
X986Y2145D01*
G37*
D02*
G36*
X1170Y2221D02*
X1170Y2213D01*
X1172Y2213D01*
X1172Y2157D01*
X1174Y2157D01*
X1174Y2141D01*
X1176Y2141D01*
X1176Y2123D01*
X1178Y2123D01*
X1178Y2107D01*
X1180Y2107D01*
X1180Y2089D01*
X1182Y2089D01*
X1182Y2073D01*
X1184Y2073D01*
X1184Y2055D01*
X1186Y2055D01*
X1186Y2043D01*
X1192Y2043D01*
X1192Y2041D01*
X1194Y2041D01*
X1194Y2039D01*
X1198Y2039D01*
X1198Y2037D01*
X1200Y2037D01*
X1200Y2035D01*
X1202Y2035D01*
X1202Y2033D01*
X1204Y2033D01*
X1204Y2031D01*
X1206Y2031D01*
X1206Y2029D01*
X1208Y2029D01*
X1208Y2027D01*
X1210Y2027D01*
X1210Y2025D01*
X1230Y2025D01*
X1230Y2029D01*
X1232Y2029D01*
X1232Y2031D01*
X1234Y2031D01*
X1234Y2033D01*
X1236Y2033D01*
X1236Y2035D01*
X1238Y2035D01*
X1238Y2037D01*
X1240Y2037D01*
X1240Y2039D01*
X1242Y2039D01*
X1242Y2063D01*
X1240Y2063D01*
X1240Y2083D01*
X1238Y2083D01*
X1238Y2105D01*
X1236Y2105D01*
X1236Y2125D01*
X1234Y2125D01*
X1234Y2145D01*
X1232Y2145D01*
X1232Y2167D01*
X1230Y2167D01*
X1230Y2177D01*
X1228Y2177D01*
X1228Y2179D01*
X1226Y2179D01*
X1226Y2183D01*
X1224Y2183D01*
X1224Y2187D01*
X1222Y2187D01*
X1222Y2193D01*
X1220Y2193D01*
X1220Y2205D01*
X1222Y2205D01*
X1222Y2219D01*
X1192Y2219D01*
X1192Y2221D01*
X1170Y2221D01*
G37*
D02*
G36*
X720Y2127D02*
X720Y2107D01*
X722Y2107D01*
X722Y2103D01*
X724Y2103D01*
X724Y2101D01*
X726Y2101D01*
X726Y2099D01*
X728Y2099D01*
X728Y2095D01*
X730Y2095D01*
X730Y2093D01*
X732Y2093D01*
X732Y2089D01*
X734Y2089D01*
X734Y2087D01*
X736Y2087D01*
X736Y2083D01*
X738Y2083D01*
X738Y2081D01*
X740Y2081D01*
X740Y2077D01*
X742Y2077D01*
X742Y2075D01*
X744Y2075D01*
X744Y2073D01*
X746Y2073D01*
X746Y2069D01*
X748Y2069D01*
X748Y2067D01*
X750Y2067D01*
X750Y2063D01*
X752Y2063D01*
X752Y2061D01*
X754Y2061D01*
X754Y2057D01*
X756Y2057D01*
X756Y2055D01*
X758Y2055D01*
X758Y2051D01*
X760Y2051D01*
X760Y2049D01*
X762Y2049D01*
X762Y2047D01*
X790Y2047D01*
X790Y2065D01*
X788Y2065D01*
X788Y2067D01*
X786Y2067D01*
X786Y2069D01*
X784Y2069D01*
X784Y2071D01*
X782Y2071D01*
X782Y2075D01*
X780Y2075D01*
X780Y2077D01*
X778Y2077D01*
X778Y2079D01*
X776Y2079D01*
X776Y2081D01*
X774Y2081D01*
X774Y2085D01*
X772Y2085D01*
X772Y2087D01*
X770Y2087D01*
X770Y2089D01*
X768Y2089D01*
X768Y2091D01*
X766Y2091D01*
X766Y2095D01*
X764Y2095D01*
X764Y2097D01*
X762Y2097D01*
X762Y2099D01*
X760Y2099D01*
X760Y2101D01*
X758Y2101D01*
X758Y2105D01*
X756Y2105D01*
X756Y2107D01*
X754Y2107D01*
X754Y2109D01*
X752Y2109D01*
X752Y2111D01*
X750Y2111D01*
X750Y2115D01*
X748Y2115D01*
X748Y2117D01*
X746Y2117D01*
X746Y2119D01*
X744Y2119D01*
X744Y2121D01*
X742Y2121D01*
X742Y2125D01*
X740Y2125D01*
X740Y2127D01*
X720Y2127D01*
G37*
D02*
G36*
X1324Y2129D02*
X1324Y2127D01*
X1322Y2127D01*
X1322Y2125D01*
X1318Y2125D01*
X1318Y2123D01*
X1310Y2123D01*
X1310Y2121D01*
X1382Y2121D01*
X1382Y2129D01*
X1324Y2129D01*
G37*
D02*
G36*
X1280Y2123D02*
X1280Y2121D01*
X1300Y2121D01*
X1300Y2123D01*
X1280Y2123D01*
G37*
D02*
G36*
X1280Y2121D02*
X1280Y2119D01*
X1382Y2119D01*
X1382Y2121D01*
X1280Y2121D01*
G37*
D02*
G36*
X1280Y2121D02*
X1280Y2119D01*
X1382Y2119D01*
X1382Y2121D01*
X1280Y2121D01*
G37*
D02*
G36*
X1280Y2119D02*
X1280Y2107D01*
X1282Y2107D01*
X1282Y2087D01*
X1284Y2087D01*
X1284Y2065D01*
X1286Y2065D01*
X1286Y2045D01*
X1288Y2045D01*
X1288Y2043D01*
X1292Y2043D01*
X1292Y2041D01*
X1294Y2041D01*
X1294Y2039D01*
X1298Y2039D01*
X1298Y2037D01*
X1300Y2037D01*
X1300Y2035D01*
X1302Y2035D01*
X1302Y2033D01*
X1304Y2033D01*
X1304Y2031D01*
X1306Y2031D01*
X1306Y2029D01*
X1308Y2029D01*
X1308Y2027D01*
X1310Y2027D01*
X1310Y2025D01*
X1330Y2025D01*
X1330Y2029D01*
X1332Y2029D01*
X1332Y2031D01*
X1334Y2031D01*
X1334Y2033D01*
X1336Y2033D01*
X1336Y2035D01*
X1338Y2035D01*
X1338Y2037D01*
X1340Y2037D01*
X1340Y2039D01*
X1344Y2039D01*
X1344Y2041D01*
X1348Y2041D01*
X1348Y2043D01*
X1352Y2043D01*
X1352Y2045D01*
X1358Y2045D01*
X1358Y2047D01*
X1362Y2047D01*
X1362Y2053D01*
X1364Y2053D01*
X1364Y2059D01*
X1366Y2059D01*
X1366Y2065D01*
X1368Y2065D01*
X1368Y2073D01*
X1370Y2073D01*
X1370Y2079D01*
X1372Y2079D01*
X1372Y2085D01*
X1374Y2085D01*
X1374Y2091D01*
X1376Y2091D01*
X1376Y2099D01*
X1378Y2099D01*
X1378Y2105D01*
X1380Y2105D01*
X1380Y2109D01*
X1382Y2109D01*
X1382Y2119D01*
X1280Y2119D01*
G37*
D02*
G36*
X644Y2077D02*
X644Y2057D01*
X646Y2057D01*
X646Y2055D01*
X648Y2055D01*
X648Y2053D01*
X650Y2053D01*
X650Y2051D01*
X652Y2051D01*
X652Y2049D01*
X654Y2049D01*
X654Y2047D01*
X680Y2047D01*
X680Y2045D01*
X686Y2045D01*
X686Y2043D01*
X692Y2043D01*
X692Y2041D01*
X694Y2041D01*
X694Y2039D01*
X714Y2039D01*
X714Y2041D01*
X712Y2041D01*
X712Y2043D01*
X710Y2043D01*
X710Y2047D01*
X708Y2047D01*
X708Y2049D01*
X706Y2049D01*
X706Y2053D01*
X704Y2053D01*
X704Y2055D01*
X702Y2055D01*
X702Y2059D01*
X700Y2059D01*
X700Y2061D01*
X698Y2061D01*
X698Y2065D01*
X696Y2065D01*
X696Y2067D01*
X694Y2067D01*
X694Y2069D01*
X692Y2069D01*
X692Y2073D01*
X690Y2073D01*
X690Y2075D01*
X688Y2075D01*
X688Y2077D01*
X644Y2077D01*
G37*
D02*
G36*
X260Y2035D02*
X260Y2033D01*
X258Y2033D01*
X258Y2015D01*
X366Y2015D01*
X366Y2035D01*
X260Y2035D01*
G37*
D02*
G36*
X1210Y1871D02*
X1210Y1869D01*
X1208Y1869D01*
X1208Y1867D01*
X1206Y1867D01*
X1206Y1865D01*
X1204Y1865D01*
X1204Y1863D01*
X1202Y1863D01*
X1202Y1833D01*
X1204Y1833D01*
X1204Y1823D01*
X1206Y1823D01*
X1206Y1811D01*
X1208Y1811D01*
X1208Y1799D01*
X1210Y1799D01*
X1210Y1787D01*
X1212Y1787D01*
X1212Y1777D01*
X1214Y1777D01*
X1214Y1765D01*
X1216Y1765D01*
X1216Y1753D01*
X1218Y1753D01*
X1218Y1741D01*
X1220Y1741D01*
X1220Y1731D01*
X1222Y1731D01*
X1222Y1719D01*
X1224Y1719D01*
X1224Y1707D01*
X1226Y1707D01*
X1226Y1695D01*
X1228Y1695D01*
X1228Y1685D01*
X1230Y1685D01*
X1230Y1673D01*
X1232Y1673D01*
X1232Y1661D01*
X1234Y1661D01*
X1234Y1649D01*
X1236Y1649D01*
X1236Y1643D01*
X1286Y1643D01*
X1286Y1665D01*
X1284Y1665D01*
X1284Y1669D01*
X1286Y1669D01*
X1286Y1679D01*
X1288Y1679D01*
X1288Y1681D01*
X1290Y1681D01*
X1290Y1685D01*
X1292Y1685D01*
X1292Y1687D01*
X1294Y1687D01*
X1294Y1689D01*
X1296Y1689D01*
X1296Y1691D01*
X1298Y1691D01*
X1298Y1693D01*
X1302Y1693D01*
X1302Y1695D01*
X1310Y1695D01*
X1310Y1697D01*
X1336Y1697D01*
X1336Y1725D01*
X1334Y1725D01*
X1334Y1729D01*
X1332Y1729D01*
X1332Y1733D01*
X1330Y1733D01*
X1330Y1735D01*
X1328Y1735D01*
X1328Y1739D01*
X1326Y1739D01*
X1326Y1743D01*
X1324Y1743D01*
X1324Y1747D01*
X1322Y1747D01*
X1322Y1751D01*
X1320Y1751D01*
X1320Y1755D01*
X1318Y1755D01*
X1318Y1759D01*
X1316Y1759D01*
X1316Y1763D01*
X1314Y1763D01*
X1314Y1767D01*
X1312Y1767D01*
X1312Y1771D01*
X1310Y1771D01*
X1310Y1775D01*
X1308Y1775D01*
X1308Y1779D01*
X1306Y1779D01*
X1306Y1783D01*
X1304Y1783D01*
X1304Y1785D01*
X1302Y1785D01*
X1302Y1789D01*
X1300Y1789D01*
X1300Y1793D01*
X1298Y1793D01*
X1298Y1797D01*
X1296Y1797D01*
X1296Y1801D01*
X1294Y1801D01*
X1294Y1805D01*
X1292Y1805D01*
X1292Y1809D01*
X1290Y1809D01*
X1290Y1813D01*
X1288Y1813D01*
X1288Y1817D01*
X1286Y1817D01*
X1286Y1821D01*
X1284Y1821D01*
X1284Y1825D01*
X1282Y1825D01*
X1282Y1829D01*
X1280Y1829D01*
X1280Y1833D01*
X1278Y1833D01*
X1278Y1837D01*
X1276Y1837D01*
X1276Y1839D01*
X1274Y1839D01*
X1274Y1843D01*
X1272Y1843D01*
X1272Y1847D01*
X1270Y1847D01*
X1270Y1849D01*
X1262Y1849D01*
X1262Y1851D01*
X1254Y1851D01*
X1254Y1853D01*
X1248Y1853D01*
X1248Y1855D01*
X1246Y1855D01*
X1246Y1857D01*
X1242Y1857D01*
X1242Y1859D01*
X1240Y1859D01*
X1240Y1861D01*
X1236Y1861D01*
X1236Y1863D01*
X1234Y1863D01*
X1234Y1865D01*
X1232Y1865D01*
X1232Y1869D01*
X1230Y1869D01*
X1230Y1871D01*
X1210Y1871D01*
G37*
D02*
G36*
X1314Y1865D02*
X1314Y1859D01*
X1316Y1859D01*
X1316Y1855D01*
X1318Y1855D01*
X1318Y1851D01*
X1320Y1851D01*
X1320Y1847D01*
X1322Y1847D01*
X1322Y1843D01*
X1324Y1843D01*
X1324Y1839D01*
X1326Y1839D01*
X1326Y1835D01*
X1328Y1835D01*
X1328Y1831D01*
X1330Y1831D01*
X1330Y1827D01*
X1332Y1827D01*
X1332Y1823D01*
X1334Y1823D01*
X1334Y1819D01*
X1336Y1819D01*
X1336Y1817D01*
X1338Y1817D01*
X1338Y1813D01*
X1340Y1813D01*
X1340Y1809D01*
X1342Y1809D01*
X1342Y1805D01*
X1344Y1805D01*
X1344Y1801D01*
X1346Y1801D01*
X1346Y1797D01*
X1348Y1797D01*
X1348Y1793D01*
X1350Y1793D01*
X1350Y1789D01*
X1352Y1789D01*
X1352Y1785D01*
X1354Y1785D01*
X1354Y1781D01*
X1356Y1781D01*
X1356Y1777D01*
X1358Y1777D01*
X1358Y1773D01*
X1360Y1773D01*
X1360Y1769D01*
X1692Y1769D01*
X1692Y1771D01*
X1686Y1771D01*
X1686Y1773D01*
X1684Y1773D01*
X1684Y1775D01*
X1680Y1775D01*
X1680Y1777D01*
X1392Y1777D01*
X1392Y1779D01*
X1388Y1779D01*
X1388Y1781D01*
X1386Y1781D01*
X1386Y1783D01*
X1384Y1783D01*
X1384Y1785D01*
X1382Y1785D01*
X1382Y1787D01*
X1380Y1787D01*
X1380Y1791D01*
X1378Y1791D01*
X1378Y1799D01*
X1376Y1799D01*
X1376Y1805D01*
X1374Y1805D01*
X1374Y1811D01*
X1372Y1811D01*
X1372Y1817D01*
X1370Y1817D01*
X1370Y1825D01*
X1368Y1825D01*
X1368Y1831D01*
X1366Y1831D01*
X1366Y1837D01*
X1364Y1837D01*
X1364Y1845D01*
X1362Y1845D01*
X1362Y1851D01*
X1354Y1851D01*
X1354Y1853D01*
X1348Y1853D01*
X1348Y1855D01*
X1346Y1855D01*
X1346Y1857D01*
X1342Y1857D01*
X1342Y1859D01*
X1340Y1859D01*
X1340Y1861D01*
X1336Y1861D01*
X1336Y1863D01*
X1334Y1863D01*
X1334Y1865D01*
X1314Y1865D01*
G37*
D02*
G36*
X1708Y1771D02*
X1708Y1769D01*
X1728Y1769D01*
X1728Y1771D01*
X1708Y1771D01*
G37*
D02*
G36*
X1362Y1769D02*
X1362Y1767D01*
X1728Y1767D01*
X1728Y1769D01*
X1362Y1769D01*
G37*
D02*
G36*
X1362Y1769D02*
X1362Y1767D01*
X1728Y1767D01*
X1728Y1769D01*
X1362Y1769D01*
G37*
D02*
G36*
X1362Y1767D02*
X1362Y1765D01*
X1364Y1765D01*
X1364Y1763D01*
X1366Y1763D01*
X1366Y1759D01*
X1368Y1759D01*
X1368Y1755D01*
X1370Y1755D01*
X1370Y1751D01*
X1372Y1751D01*
X1372Y1747D01*
X1374Y1747D01*
X1374Y1743D01*
X1376Y1743D01*
X1376Y1741D01*
X1378Y1741D01*
X1378Y1739D01*
X1380Y1739D01*
X1380Y1737D01*
X1384Y1737D01*
X1384Y1735D01*
X1592Y1735D01*
X1592Y1737D01*
X1728Y1737D01*
X1728Y1767D01*
X1362Y1767D01*
G37*
D02*
G36*
X662Y1849D02*
X662Y1847D01*
X660Y1847D01*
X660Y1845D01*
X658Y1845D01*
X658Y1841D01*
X656Y1841D01*
X656Y1839D01*
X654Y1839D01*
X654Y1837D01*
X652Y1837D01*
X652Y1833D01*
X650Y1833D01*
X650Y1831D01*
X648Y1831D01*
X648Y1827D01*
X646Y1827D01*
X646Y1825D01*
X644Y1825D01*
X644Y1821D01*
X642Y1821D01*
X642Y1819D01*
X640Y1819D01*
X640Y1815D01*
X638Y1815D01*
X638Y1813D01*
X636Y1813D01*
X636Y1811D01*
X634Y1811D01*
X634Y1807D01*
X632Y1807D01*
X632Y1805D01*
X630Y1805D01*
X630Y1801D01*
X628Y1801D01*
X628Y1799D01*
X626Y1799D01*
X626Y1795D01*
X624Y1795D01*
X624Y1793D01*
X622Y1793D01*
X622Y1791D01*
X620Y1791D01*
X620Y1771D01*
X640Y1771D01*
X640Y1773D01*
X642Y1773D01*
X642Y1775D01*
X644Y1775D01*
X644Y1777D01*
X646Y1777D01*
X646Y1779D01*
X648Y1779D01*
X648Y1783D01*
X650Y1783D01*
X650Y1785D01*
X652Y1785D01*
X652Y1787D01*
X654Y1787D01*
X654Y1789D01*
X656Y1789D01*
X656Y1793D01*
X658Y1793D01*
X658Y1795D01*
X660Y1795D01*
X660Y1797D01*
X662Y1797D01*
X662Y1799D01*
X664Y1799D01*
X664Y1803D01*
X666Y1803D01*
X666Y1805D01*
X668Y1805D01*
X668Y1807D01*
X670Y1807D01*
X670Y1811D01*
X672Y1811D01*
X672Y1813D01*
X674Y1813D01*
X674Y1815D01*
X676Y1815D01*
X676Y1817D01*
X678Y1817D01*
X678Y1821D01*
X680Y1821D01*
X680Y1823D01*
X682Y1823D01*
X682Y1825D01*
X684Y1825D01*
X684Y1827D01*
X686Y1827D01*
X686Y1831D01*
X688Y1831D01*
X688Y1833D01*
X690Y1833D01*
X690Y1835D01*
X692Y1835D01*
X692Y1849D01*
X662Y1849D01*
G37*
D02*
G36*
X758Y1849D02*
X758Y1847D01*
X756Y1847D01*
X756Y1845D01*
X754Y1845D01*
X754Y1843D01*
X752Y1843D01*
X752Y1839D01*
X750Y1839D01*
X750Y1837D01*
X748Y1837D01*
X748Y1835D01*
X746Y1835D01*
X746Y1833D01*
X744Y1833D01*
X744Y1829D01*
X742Y1829D01*
X742Y1827D01*
X740Y1827D01*
X740Y1825D01*
X738Y1825D01*
X738Y1823D01*
X736Y1823D01*
X736Y1819D01*
X734Y1819D01*
X734Y1817D01*
X732Y1817D01*
X732Y1815D01*
X730Y1815D01*
X730Y1813D01*
X728Y1813D01*
X728Y1809D01*
X726Y1809D01*
X726Y1807D01*
X724Y1807D01*
X724Y1805D01*
X722Y1805D01*
X722Y1803D01*
X720Y1803D01*
X720Y1799D01*
X718Y1799D01*
X718Y1797D01*
X716Y1797D01*
X716Y1795D01*
X714Y1795D01*
X714Y1793D01*
X712Y1793D01*
X712Y1789D01*
X710Y1789D01*
X710Y1787D01*
X708Y1787D01*
X708Y1785D01*
X706Y1785D01*
X706Y1783D01*
X704Y1783D01*
X704Y1779D01*
X702Y1779D01*
X702Y1777D01*
X700Y1777D01*
X700Y1775D01*
X698Y1775D01*
X698Y1773D01*
X696Y1773D01*
X696Y1769D01*
X694Y1769D01*
X694Y1767D01*
X692Y1767D01*
X692Y1765D01*
X690Y1765D01*
X690Y1761D01*
X688Y1761D01*
X688Y1759D01*
X686Y1759D01*
X686Y1757D01*
X684Y1757D01*
X684Y1755D01*
X682Y1755D01*
X682Y1751D01*
X680Y1751D01*
X680Y1749D01*
X678Y1749D01*
X678Y1747D01*
X676Y1747D01*
X676Y1745D01*
X674Y1745D01*
X674Y1741D01*
X672Y1741D01*
X672Y1721D01*
X692Y1721D01*
X692Y1725D01*
X694Y1725D01*
X694Y1727D01*
X696Y1727D01*
X696Y1729D01*
X698Y1729D01*
X698Y1731D01*
X700Y1731D01*
X700Y1733D01*
X702Y1733D01*
X702Y1735D01*
X704Y1735D01*
X704Y1739D01*
X706Y1739D01*
X706Y1741D01*
X708Y1741D01*
X708Y1743D01*
X710Y1743D01*
X710Y1745D01*
X712Y1745D01*
X712Y1747D01*
X714Y1747D01*
X714Y1751D01*
X716Y1751D01*
X716Y1753D01*
X718Y1753D01*
X718Y1755D01*
X720Y1755D01*
X720Y1757D01*
X722Y1757D01*
X722Y1759D01*
X724Y1759D01*
X724Y1761D01*
X726Y1761D01*
X726Y1765D01*
X728Y1765D01*
X728Y1767D01*
X730Y1767D01*
X730Y1769D01*
X732Y1769D01*
X732Y1771D01*
X734Y1771D01*
X734Y1773D01*
X736Y1773D01*
X736Y1777D01*
X738Y1777D01*
X738Y1779D01*
X740Y1779D01*
X740Y1781D01*
X742Y1781D01*
X742Y1783D01*
X744Y1783D01*
X744Y1785D01*
X746Y1785D01*
X746Y1787D01*
X748Y1787D01*
X748Y1791D01*
X750Y1791D01*
X750Y1793D01*
X752Y1793D01*
X752Y1795D01*
X754Y1795D01*
X754Y1797D01*
X756Y1797D01*
X756Y1799D01*
X758Y1799D01*
X758Y1803D01*
X760Y1803D01*
X760Y1805D01*
X762Y1805D01*
X762Y1807D01*
X764Y1807D01*
X764Y1809D01*
X766Y1809D01*
X766Y1811D01*
X768Y1811D01*
X768Y1813D01*
X770Y1813D01*
X770Y1817D01*
X772Y1817D01*
X772Y1819D01*
X774Y1819D01*
X774Y1821D01*
X776Y1821D01*
X776Y1823D01*
X778Y1823D01*
X778Y1825D01*
X780Y1825D01*
X780Y1829D01*
X782Y1829D01*
X782Y1831D01*
X784Y1831D01*
X784Y1833D01*
X786Y1833D01*
X786Y1849D01*
X758Y1849D01*
G37*
D02*
G36*
X856Y1849D02*
X856Y1847D01*
X854Y1847D01*
X854Y1845D01*
X852Y1845D01*
X852Y1843D01*
X850Y1843D01*
X850Y1841D01*
X848Y1841D01*
X848Y1837D01*
X846Y1837D01*
X846Y1835D01*
X844Y1835D01*
X844Y1833D01*
X842Y1833D01*
X842Y1831D01*
X840Y1831D01*
X840Y1829D01*
X838Y1829D01*
X838Y1825D01*
X836Y1825D01*
X836Y1823D01*
X834Y1823D01*
X834Y1821D01*
X832Y1821D01*
X832Y1819D01*
X830Y1819D01*
X830Y1817D01*
X828Y1817D01*
X828Y1815D01*
X826Y1815D01*
X826Y1811D01*
X824Y1811D01*
X824Y1809D01*
X822Y1809D01*
X822Y1807D01*
X820Y1807D01*
X820Y1805D01*
X818Y1805D01*
X818Y1803D01*
X816Y1803D01*
X816Y1801D01*
X814Y1801D01*
X814Y1797D01*
X812Y1797D01*
X812Y1795D01*
X810Y1795D01*
X810Y1793D01*
X808Y1793D01*
X808Y1791D01*
X806Y1791D01*
X806Y1789D01*
X804Y1789D01*
X804Y1785D01*
X802Y1785D01*
X802Y1783D01*
X800Y1783D01*
X800Y1781D01*
X798Y1781D01*
X798Y1779D01*
X796Y1779D01*
X796Y1777D01*
X794Y1777D01*
X794Y1775D01*
X792Y1775D01*
X792Y1771D01*
X790Y1771D01*
X790Y1769D01*
X788Y1769D01*
X788Y1767D01*
X786Y1767D01*
X786Y1765D01*
X784Y1765D01*
X784Y1763D01*
X782Y1763D01*
X782Y1759D01*
X780Y1759D01*
X780Y1757D01*
X778Y1757D01*
X778Y1755D01*
X776Y1755D01*
X776Y1753D01*
X774Y1753D01*
X774Y1751D01*
X772Y1751D01*
X772Y1749D01*
X770Y1749D01*
X770Y1745D01*
X768Y1745D01*
X768Y1743D01*
X766Y1743D01*
X766Y1741D01*
X764Y1741D01*
X764Y1739D01*
X762Y1739D01*
X762Y1737D01*
X760Y1737D01*
X760Y1733D01*
X758Y1733D01*
X758Y1731D01*
X756Y1731D01*
X756Y1729D01*
X754Y1729D01*
X754Y1727D01*
X752Y1727D01*
X752Y1725D01*
X750Y1725D01*
X750Y1723D01*
X748Y1723D01*
X748Y1719D01*
X746Y1719D01*
X746Y1717D01*
X744Y1717D01*
X744Y1715D01*
X742Y1715D01*
X742Y1713D01*
X740Y1713D01*
X740Y1711D01*
X738Y1711D01*
X738Y1707D01*
X736Y1707D01*
X736Y1705D01*
X734Y1705D01*
X734Y1703D01*
X732Y1703D01*
X732Y1701D01*
X730Y1701D01*
X730Y1699D01*
X728Y1699D01*
X728Y1697D01*
X726Y1697D01*
X726Y1689D01*
X746Y1689D01*
X746Y1691D01*
X748Y1691D01*
X748Y1693D01*
X750Y1693D01*
X750Y1695D01*
X752Y1695D01*
X752Y1697D01*
X754Y1697D01*
X754Y1699D01*
X756Y1699D01*
X756Y1701D01*
X758Y1701D01*
X758Y1703D01*
X760Y1703D01*
X760Y1705D01*
X762Y1705D01*
X762Y1709D01*
X764Y1709D01*
X764Y1711D01*
X766Y1711D01*
X766Y1713D01*
X768Y1713D01*
X768Y1715D01*
X770Y1715D01*
X770Y1717D01*
X772Y1717D01*
X772Y1719D01*
X774Y1719D01*
X774Y1721D01*
X776Y1721D01*
X776Y1723D01*
X778Y1723D01*
X778Y1725D01*
X780Y1725D01*
X780Y1727D01*
X782Y1727D01*
X782Y1729D01*
X784Y1729D01*
X784Y1731D01*
X786Y1731D01*
X786Y1733D01*
X788Y1733D01*
X788Y1737D01*
X790Y1737D01*
X790Y1739D01*
X792Y1739D01*
X792Y1741D01*
X794Y1741D01*
X794Y1743D01*
X796Y1743D01*
X796Y1745D01*
X798Y1745D01*
X798Y1747D01*
X800Y1747D01*
X800Y1749D01*
X802Y1749D01*
X802Y1751D01*
X804Y1751D01*
X804Y1753D01*
X806Y1753D01*
X806Y1755D01*
X808Y1755D01*
X808Y1757D01*
X810Y1757D01*
X810Y1759D01*
X812Y1759D01*
X812Y1761D01*
X814Y1761D01*
X814Y1765D01*
X816Y1765D01*
X816Y1767D01*
X818Y1767D01*
X818Y1769D01*
X820Y1769D01*
X820Y1771D01*
X822Y1771D01*
X822Y1773D01*
X824Y1773D01*
X824Y1775D01*
X826Y1775D01*
X826Y1777D01*
X828Y1777D01*
X828Y1779D01*
X830Y1779D01*
X830Y1781D01*
X832Y1781D01*
X832Y1783D01*
X834Y1783D01*
X834Y1785D01*
X836Y1785D01*
X836Y1787D01*
X838Y1787D01*
X838Y1791D01*
X840Y1791D01*
X840Y1793D01*
X842Y1793D01*
X842Y1795D01*
X844Y1795D01*
X844Y1797D01*
X846Y1797D01*
X846Y1799D01*
X848Y1799D01*
X848Y1801D01*
X850Y1801D01*
X850Y1803D01*
X852Y1803D01*
X852Y1805D01*
X854Y1805D01*
X854Y1807D01*
X856Y1807D01*
X856Y1809D01*
X858Y1809D01*
X858Y1811D01*
X860Y1811D01*
X860Y1813D01*
X862Y1813D01*
X862Y1815D01*
X864Y1815D01*
X864Y1819D01*
X866Y1819D01*
X866Y1821D01*
X868Y1821D01*
X868Y1823D01*
X870Y1823D01*
X870Y1825D01*
X872Y1825D01*
X872Y1827D01*
X874Y1827D01*
X874Y1829D01*
X876Y1829D01*
X876Y1831D01*
X878Y1831D01*
X878Y1849D01*
X856Y1849D01*
G37*
D02*
G36*
X40Y2775D02*
X40Y2593D01*
X160Y2593D01*
X160Y2595D01*
X150Y2595D01*
X150Y2597D01*
X142Y2597D01*
X142Y2599D01*
X136Y2599D01*
X136Y2601D01*
X132Y2601D01*
X132Y2603D01*
X128Y2603D01*
X128Y2605D01*
X124Y2605D01*
X124Y2607D01*
X120Y2607D01*
X120Y2609D01*
X116Y2609D01*
X116Y2611D01*
X114Y2611D01*
X114Y2613D01*
X110Y2613D01*
X110Y2615D01*
X108Y2615D01*
X108Y2617D01*
X106Y2617D01*
X106Y2619D01*
X104Y2619D01*
X104Y2621D01*
X102Y2621D01*
X102Y2623D01*
X98Y2623D01*
X98Y2625D01*
X96Y2625D01*
X96Y2629D01*
X94Y2629D01*
X94Y2631D01*
X92Y2631D01*
X92Y2633D01*
X90Y2633D01*
X90Y2635D01*
X88Y2635D01*
X88Y2639D01*
X86Y2639D01*
X86Y2641D01*
X84Y2641D01*
X84Y2645D01*
X82Y2645D01*
X82Y2647D01*
X80Y2647D01*
X80Y2651D01*
X78Y2651D01*
X78Y2655D01*
X76Y2655D01*
X76Y2659D01*
X74Y2659D01*
X74Y2665D01*
X72Y2665D01*
X72Y2671D01*
X70Y2671D01*
X70Y2679D01*
X68Y2679D01*
X68Y2693D01*
X66Y2693D01*
X66Y2709D01*
X68Y2709D01*
X68Y2723D01*
X70Y2723D01*
X70Y2731D01*
X72Y2731D01*
X72Y2737D01*
X74Y2737D01*
X74Y2743D01*
X76Y2743D01*
X76Y2747D01*
X78Y2747D01*
X78Y2751D01*
X80Y2751D01*
X80Y2755D01*
X82Y2755D01*
X82Y2775D01*
X40Y2775D01*
G37*
D02*
G36*
X268Y2775D02*
X268Y2755D01*
X270Y2755D01*
X270Y2751D01*
X272Y2751D01*
X272Y2747D01*
X274Y2747D01*
X274Y2743D01*
X276Y2743D01*
X276Y2737D01*
X278Y2737D01*
X278Y2731D01*
X280Y2731D01*
X280Y2723D01*
X282Y2723D01*
X282Y2709D01*
X284Y2709D01*
X284Y2693D01*
X282Y2693D01*
X282Y2679D01*
X280Y2679D01*
X280Y2671D01*
X278Y2671D01*
X278Y2665D01*
X276Y2665D01*
X276Y2659D01*
X274Y2659D01*
X274Y2655D01*
X272Y2655D01*
X272Y2651D01*
X270Y2651D01*
X270Y2647D01*
X268Y2647D01*
X268Y2645D01*
X266Y2645D01*
X266Y2641D01*
X264Y2641D01*
X264Y2639D01*
X262Y2639D01*
X262Y2635D01*
X260Y2635D01*
X260Y2633D01*
X258Y2633D01*
X258Y2631D01*
X256Y2631D01*
X256Y2629D01*
X254Y2629D01*
X254Y2625D01*
X252Y2625D01*
X252Y2623D01*
X248Y2623D01*
X248Y2621D01*
X246Y2621D01*
X246Y2619D01*
X244Y2619D01*
X244Y2617D01*
X242Y2617D01*
X242Y2615D01*
X240Y2615D01*
X240Y2613D01*
X236Y2613D01*
X236Y2611D01*
X234Y2611D01*
X234Y2609D01*
X230Y2609D01*
X230Y2607D01*
X226Y2607D01*
X226Y2605D01*
X222Y2605D01*
X222Y2603D01*
X218Y2603D01*
X218Y2601D01*
X214Y2601D01*
X214Y2599D01*
X208Y2599D01*
X208Y2597D01*
X200Y2597D01*
X200Y2595D01*
X190Y2595D01*
X190Y2593D01*
X560Y2593D01*
X560Y2595D01*
X550Y2595D01*
X550Y2597D01*
X542Y2597D01*
X542Y2599D01*
X536Y2599D01*
X536Y2601D01*
X532Y2601D01*
X532Y2603D01*
X528Y2603D01*
X528Y2605D01*
X524Y2605D01*
X524Y2607D01*
X520Y2607D01*
X520Y2609D01*
X516Y2609D01*
X516Y2611D01*
X514Y2611D01*
X514Y2613D01*
X510Y2613D01*
X510Y2615D01*
X508Y2615D01*
X508Y2617D01*
X506Y2617D01*
X506Y2619D01*
X504Y2619D01*
X504Y2621D01*
X502Y2621D01*
X502Y2623D01*
X498Y2623D01*
X498Y2625D01*
X496Y2625D01*
X496Y2629D01*
X494Y2629D01*
X494Y2631D01*
X492Y2631D01*
X492Y2633D01*
X490Y2633D01*
X490Y2635D01*
X488Y2635D01*
X488Y2639D01*
X486Y2639D01*
X486Y2641D01*
X484Y2641D01*
X484Y2645D01*
X482Y2645D01*
X482Y2647D01*
X480Y2647D01*
X480Y2651D01*
X478Y2651D01*
X478Y2655D01*
X476Y2655D01*
X476Y2659D01*
X474Y2659D01*
X474Y2665D01*
X472Y2665D01*
X472Y2671D01*
X470Y2671D01*
X470Y2679D01*
X468Y2679D01*
X468Y2693D01*
X466Y2693D01*
X466Y2709D01*
X468Y2709D01*
X468Y2723D01*
X470Y2723D01*
X470Y2731D01*
X472Y2731D01*
X472Y2737D01*
X474Y2737D01*
X474Y2743D01*
X476Y2743D01*
X476Y2747D01*
X478Y2747D01*
X478Y2751D01*
X480Y2751D01*
X480Y2755D01*
X482Y2755D01*
X482Y2775D01*
X268Y2775D01*
G37*
D02*
G36*
X668Y2775D02*
X668Y2755D01*
X670Y2755D01*
X670Y2751D01*
X672Y2751D01*
X672Y2747D01*
X674Y2747D01*
X674Y2743D01*
X676Y2743D01*
X676Y2737D01*
X678Y2737D01*
X678Y2731D01*
X680Y2731D01*
X680Y2723D01*
X682Y2723D01*
X682Y2709D01*
X684Y2709D01*
X684Y2693D01*
X682Y2693D01*
X682Y2679D01*
X680Y2679D01*
X680Y2671D01*
X678Y2671D01*
X678Y2665D01*
X676Y2665D01*
X676Y2659D01*
X674Y2659D01*
X674Y2655D01*
X672Y2655D01*
X672Y2651D01*
X670Y2651D01*
X670Y2647D01*
X668Y2647D01*
X668Y2645D01*
X666Y2645D01*
X666Y2641D01*
X664Y2641D01*
X664Y2639D01*
X662Y2639D01*
X662Y2635D01*
X660Y2635D01*
X660Y2633D01*
X658Y2633D01*
X658Y2631D01*
X656Y2631D01*
X656Y2629D01*
X654Y2629D01*
X654Y2625D01*
X652Y2625D01*
X652Y2623D01*
X648Y2623D01*
X648Y2621D01*
X646Y2621D01*
X646Y2619D01*
X644Y2619D01*
X644Y2617D01*
X642Y2617D01*
X642Y2615D01*
X640Y2615D01*
X640Y2613D01*
X636Y2613D01*
X636Y2611D01*
X634Y2611D01*
X634Y2609D01*
X630Y2609D01*
X630Y2607D01*
X626Y2607D01*
X626Y2605D01*
X622Y2605D01*
X622Y2603D01*
X618Y2603D01*
X618Y2601D01*
X614Y2601D01*
X614Y2599D01*
X608Y2599D01*
X608Y2597D01*
X600Y2597D01*
X600Y2595D01*
X590Y2595D01*
X590Y2593D01*
X1010Y2593D01*
X1010Y2595D01*
X1000Y2595D01*
X1000Y2597D01*
X992Y2597D01*
X992Y2599D01*
X986Y2599D01*
X986Y2601D01*
X982Y2601D01*
X982Y2603D01*
X978Y2603D01*
X978Y2605D01*
X974Y2605D01*
X974Y2607D01*
X970Y2607D01*
X970Y2609D01*
X966Y2609D01*
X966Y2611D01*
X964Y2611D01*
X964Y2613D01*
X960Y2613D01*
X960Y2615D01*
X958Y2615D01*
X958Y2617D01*
X956Y2617D01*
X956Y2619D01*
X954Y2619D01*
X954Y2621D01*
X952Y2621D01*
X952Y2623D01*
X948Y2623D01*
X948Y2625D01*
X946Y2625D01*
X946Y2629D01*
X944Y2629D01*
X944Y2631D01*
X942Y2631D01*
X942Y2633D01*
X940Y2633D01*
X940Y2635D01*
X938Y2635D01*
X938Y2639D01*
X936Y2639D01*
X936Y2641D01*
X934Y2641D01*
X934Y2645D01*
X932Y2645D01*
X932Y2647D01*
X930Y2647D01*
X930Y2651D01*
X928Y2651D01*
X928Y2655D01*
X926Y2655D01*
X926Y2659D01*
X924Y2659D01*
X924Y2665D01*
X922Y2665D01*
X922Y2671D01*
X920Y2671D01*
X920Y2679D01*
X918Y2679D01*
X918Y2693D01*
X916Y2693D01*
X916Y2709D01*
X918Y2709D01*
X918Y2723D01*
X920Y2723D01*
X920Y2731D01*
X922Y2731D01*
X922Y2737D01*
X924Y2737D01*
X924Y2743D01*
X926Y2743D01*
X926Y2747D01*
X928Y2747D01*
X928Y2751D01*
X930Y2751D01*
X930Y2755D01*
X932Y2755D01*
X932Y2775D01*
X668Y2775D01*
G37*
D02*
G36*
X1118Y2775D02*
X1118Y2755D01*
X1120Y2755D01*
X1120Y2751D01*
X1122Y2751D01*
X1122Y2747D01*
X1124Y2747D01*
X1124Y2743D01*
X1126Y2743D01*
X1126Y2737D01*
X1128Y2737D01*
X1128Y2731D01*
X1130Y2731D01*
X1130Y2723D01*
X1132Y2723D01*
X1132Y2709D01*
X1134Y2709D01*
X1134Y2693D01*
X1132Y2693D01*
X1132Y2679D01*
X1130Y2679D01*
X1130Y2671D01*
X1128Y2671D01*
X1128Y2665D01*
X1126Y2665D01*
X1126Y2659D01*
X1124Y2659D01*
X1124Y2655D01*
X1122Y2655D01*
X1122Y2651D01*
X1120Y2651D01*
X1120Y2647D01*
X1118Y2647D01*
X1118Y2645D01*
X1116Y2645D01*
X1116Y2641D01*
X1114Y2641D01*
X1114Y2639D01*
X1112Y2639D01*
X1112Y2635D01*
X1110Y2635D01*
X1110Y2633D01*
X1108Y2633D01*
X1108Y2631D01*
X1106Y2631D01*
X1106Y2629D01*
X1104Y2629D01*
X1104Y2625D01*
X1102Y2625D01*
X1102Y2623D01*
X1098Y2623D01*
X1098Y2621D01*
X1096Y2621D01*
X1096Y2619D01*
X1094Y2619D01*
X1094Y2617D01*
X1092Y2617D01*
X1092Y2615D01*
X1090Y2615D01*
X1090Y2613D01*
X1086Y2613D01*
X1086Y2611D01*
X1084Y2611D01*
X1084Y2609D01*
X1080Y2609D01*
X1080Y2607D01*
X1076Y2607D01*
X1076Y2605D01*
X1072Y2605D01*
X1072Y2603D01*
X1068Y2603D01*
X1068Y2601D01*
X1064Y2601D01*
X1064Y2599D01*
X1058Y2599D01*
X1058Y2597D01*
X1050Y2597D01*
X1050Y2595D01*
X1040Y2595D01*
X1040Y2593D01*
X1460Y2593D01*
X1460Y2595D01*
X1450Y2595D01*
X1450Y2597D01*
X1442Y2597D01*
X1442Y2599D01*
X1436Y2599D01*
X1436Y2601D01*
X1432Y2601D01*
X1432Y2603D01*
X1428Y2603D01*
X1428Y2605D01*
X1424Y2605D01*
X1424Y2607D01*
X1420Y2607D01*
X1420Y2609D01*
X1416Y2609D01*
X1416Y2611D01*
X1414Y2611D01*
X1414Y2613D01*
X1410Y2613D01*
X1410Y2615D01*
X1408Y2615D01*
X1408Y2617D01*
X1406Y2617D01*
X1406Y2619D01*
X1404Y2619D01*
X1404Y2621D01*
X1402Y2621D01*
X1402Y2623D01*
X1398Y2623D01*
X1398Y2625D01*
X1396Y2625D01*
X1396Y2629D01*
X1394Y2629D01*
X1394Y2631D01*
X1392Y2631D01*
X1392Y2633D01*
X1390Y2633D01*
X1390Y2635D01*
X1388Y2635D01*
X1388Y2639D01*
X1386Y2639D01*
X1386Y2641D01*
X1384Y2641D01*
X1384Y2645D01*
X1382Y2645D01*
X1382Y2647D01*
X1380Y2647D01*
X1380Y2651D01*
X1378Y2651D01*
X1378Y2655D01*
X1376Y2655D01*
X1376Y2659D01*
X1374Y2659D01*
X1374Y2665D01*
X1372Y2665D01*
X1372Y2671D01*
X1370Y2671D01*
X1370Y2679D01*
X1368Y2679D01*
X1368Y2693D01*
X1366Y2693D01*
X1366Y2709D01*
X1368Y2709D01*
X1368Y2723D01*
X1370Y2723D01*
X1370Y2731D01*
X1372Y2731D01*
X1372Y2737D01*
X1374Y2737D01*
X1374Y2743D01*
X1376Y2743D01*
X1376Y2747D01*
X1378Y2747D01*
X1378Y2751D01*
X1380Y2751D01*
X1380Y2755D01*
X1382Y2755D01*
X1382Y2775D01*
X1118Y2775D01*
G37*
D02*
G36*
X1568Y2775D02*
X1568Y2755D01*
X1570Y2755D01*
X1570Y2751D01*
X1572Y2751D01*
X1572Y2747D01*
X1574Y2747D01*
X1574Y2743D01*
X1576Y2743D01*
X1576Y2737D01*
X1578Y2737D01*
X1578Y2731D01*
X1580Y2731D01*
X1580Y2723D01*
X1582Y2723D01*
X1582Y2709D01*
X1584Y2709D01*
X1584Y2693D01*
X1582Y2693D01*
X1582Y2679D01*
X1580Y2679D01*
X1580Y2671D01*
X1578Y2671D01*
X1578Y2665D01*
X1576Y2665D01*
X1576Y2659D01*
X1574Y2659D01*
X1574Y2655D01*
X1572Y2655D01*
X1572Y2651D01*
X1570Y2651D01*
X1570Y2647D01*
X1568Y2647D01*
X1568Y2645D01*
X1566Y2645D01*
X1566Y2641D01*
X1564Y2641D01*
X1564Y2639D01*
X1562Y2639D01*
X1562Y2635D01*
X1560Y2635D01*
X1560Y2633D01*
X1558Y2633D01*
X1558Y2631D01*
X1556Y2631D01*
X1556Y2629D01*
X1554Y2629D01*
X1554Y2625D01*
X1552Y2625D01*
X1552Y2623D01*
X1548Y2623D01*
X1548Y2621D01*
X1546Y2621D01*
X1546Y2619D01*
X1544Y2619D01*
X1544Y2617D01*
X1542Y2617D01*
X1542Y2615D01*
X1540Y2615D01*
X1540Y2613D01*
X1536Y2613D01*
X1536Y2611D01*
X1534Y2611D01*
X1534Y2609D01*
X1530Y2609D01*
X1530Y2607D01*
X1526Y2607D01*
X1526Y2605D01*
X1522Y2605D01*
X1522Y2603D01*
X1518Y2603D01*
X1518Y2601D01*
X1514Y2601D01*
X1514Y2599D01*
X1508Y2599D01*
X1508Y2597D01*
X1500Y2597D01*
X1500Y2595D01*
X1490Y2595D01*
X1490Y2593D01*
X1860Y2593D01*
X1860Y2595D01*
X1850Y2595D01*
X1850Y2597D01*
X1842Y2597D01*
X1842Y2599D01*
X1836Y2599D01*
X1836Y2601D01*
X1832Y2601D01*
X1832Y2603D01*
X1828Y2603D01*
X1828Y2605D01*
X1824Y2605D01*
X1824Y2607D01*
X1820Y2607D01*
X1820Y2609D01*
X1816Y2609D01*
X1816Y2611D01*
X1814Y2611D01*
X1814Y2613D01*
X1810Y2613D01*
X1810Y2615D01*
X1808Y2615D01*
X1808Y2617D01*
X1806Y2617D01*
X1806Y2619D01*
X1804Y2619D01*
X1804Y2621D01*
X1802Y2621D01*
X1802Y2623D01*
X1798Y2623D01*
X1798Y2625D01*
X1796Y2625D01*
X1796Y2629D01*
X1794Y2629D01*
X1794Y2631D01*
X1792Y2631D01*
X1792Y2633D01*
X1790Y2633D01*
X1790Y2635D01*
X1788Y2635D01*
X1788Y2639D01*
X1786Y2639D01*
X1786Y2641D01*
X1784Y2641D01*
X1784Y2645D01*
X1782Y2645D01*
X1782Y2647D01*
X1780Y2647D01*
X1780Y2651D01*
X1778Y2651D01*
X1778Y2655D01*
X1776Y2655D01*
X1776Y2659D01*
X1774Y2659D01*
X1774Y2665D01*
X1772Y2665D01*
X1772Y2671D01*
X1770Y2671D01*
X1770Y2679D01*
X1768Y2679D01*
X1768Y2693D01*
X1766Y2693D01*
X1766Y2709D01*
X1768Y2709D01*
X1768Y2723D01*
X1770Y2723D01*
X1770Y2731D01*
X1772Y2731D01*
X1772Y2737D01*
X1774Y2737D01*
X1774Y2743D01*
X1776Y2743D01*
X1776Y2747D01*
X1778Y2747D01*
X1778Y2751D01*
X1780Y2751D01*
X1780Y2755D01*
X1782Y2755D01*
X1782Y2775D01*
X1568Y2775D01*
G37*
D02*
G36*
X1968Y2775D02*
X1968Y2755D01*
X1970Y2755D01*
X1970Y2751D01*
X1972Y2751D01*
X1972Y2747D01*
X1974Y2747D01*
X1974Y2743D01*
X1976Y2743D01*
X1976Y2737D01*
X1978Y2737D01*
X1978Y2731D01*
X1980Y2731D01*
X1980Y2723D01*
X1982Y2723D01*
X1982Y2709D01*
X1984Y2709D01*
X1984Y2693D01*
X1982Y2693D01*
X1982Y2679D01*
X1980Y2679D01*
X1980Y2671D01*
X1978Y2671D01*
X1978Y2665D01*
X1976Y2665D01*
X1976Y2659D01*
X1974Y2659D01*
X1974Y2655D01*
X1972Y2655D01*
X1972Y2651D01*
X1970Y2651D01*
X1970Y2647D01*
X1968Y2647D01*
X1968Y2645D01*
X1966Y2645D01*
X1966Y2641D01*
X1964Y2641D01*
X1964Y2639D01*
X1962Y2639D01*
X1962Y2635D01*
X1960Y2635D01*
X1960Y2633D01*
X1958Y2633D01*
X1958Y2631D01*
X1956Y2631D01*
X1956Y2629D01*
X1954Y2629D01*
X1954Y2625D01*
X1952Y2625D01*
X1952Y2623D01*
X1948Y2623D01*
X1948Y2621D01*
X1946Y2621D01*
X1946Y2619D01*
X1944Y2619D01*
X1944Y2617D01*
X1942Y2617D01*
X1942Y2615D01*
X1940Y2615D01*
X1940Y2613D01*
X1936Y2613D01*
X1936Y2611D01*
X1934Y2611D01*
X1934Y2609D01*
X1930Y2609D01*
X1930Y2607D01*
X1926Y2607D01*
X1926Y2605D01*
X1922Y2605D01*
X1922Y2603D01*
X1918Y2603D01*
X1918Y2601D01*
X1914Y2601D01*
X1914Y2599D01*
X1908Y2599D01*
X1908Y2597D01*
X1900Y2597D01*
X1900Y2595D01*
X1890Y2595D01*
X1890Y2593D01*
X2006Y2593D01*
X2006Y2775D01*
X1968Y2775D01*
G37*
D02*
G36*
X40Y2593D02*
X40Y2591D01*
X2006Y2591D01*
X2006Y2593D01*
X40Y2593D01*
G37*
D02*
G36*
X40Y2593D02*
X40Y2591D01*
X2006Y2591D01*
X2006Y2593D01*
X40Y2593D01*
G37*
D02*
G36*
X40Y2593D02*
X40Y2591D01*
X2006Y2591D01*
X2006Y2593D01*
X40Y2593D01*
G37*
D02*
G36*
X40Y2593D02*
X40Y2591D01*
X2006Y2591D01*
X2006Y2593D01*
X40Y2593D01*
G37*
D02*
G36*
X40Y2593D02*
X40Y2591D01*
X2006Y2591D01*
X2006Y2593D01*
X40Y2593D01*
G37*
D02*
G36*
X40Y2593D02*
X40Y2591D01*
X2006Y2591D01*
X2006Y2593D01*
X40Y2593D01*
G37*
D02*
G36*
X40Y2591D02*
X40Y2383D01*
X1960Y2383D01*
X1960Y2381D01*
X1964Y2381D01*
X1964Y2379D01*
X1968Y2379D01*
X1968Y2377D01*
X1970Y2377D01*
X1970Y2375D01*
X1972Y2375D01*
X1972Y2373D01*
X1974Y2373D01*
X1974Y2369D01*
X1976Y2369D01*
X1976Y2367D01*
X1978Y2367D01*
X1978Y2359D01*
X1980Y2359D01*
X1980Y2349D01*
X1978Y2349D01*
X1978Y2341D01*
X1976Y2341D01*
X1976Y2339D01*
X1974Y2339D01*
X1974Y2335D01*
X1972Y2335D01*
X1972Y2023D01*
X1974Y2023D01*
X1974Y2019D01*
X1976Y2019D01*
X1976Y2017D01*
X1978Y2017D01*
X1978Y2009D01*
X1980Y2009D01*
X1980Y1999D01*
X1978Y1999D01*
X1978Y1991D01*
X1976Y1991D01*
X1976Y1989D01*
X1974Y1989D01*
X1974Y1985D01*
X1972Y1985D01*
X1972Y1983D01*
X1970Y1983D01*
X1970Y1981D01*
X1968Y1981D01*
X1968Y1979D01*
X1964Y1979D01*
X1964Y1977D01*
X1960Y1977D01*
X1960Y1975D01*
X2006Y1975D01*
X2006Y2591D01*
X40Y2591D01*
G37*
D02*
G36*
X40Y2383D02*
X40Y2337D01*
X704Y2337D01*
X704Y2335D01*
X712Y2335D01*
X712Y2333D01*
X716Y2333D01*
X716Y2331D01*
X718Y2331D01*
X718Y2329D01*
X720Y2329D01*
X720Y2327D01*
X722Y2327D01*
X722Y2325D01*
X724Y2325D01*
X724Y2323D01*
X726Y2323D01*
X726Y2319D01*
X728Y2319D01*
X728Y2313D01*
X730Y2313D01*
X730Y2303D01*
X732Y2303D01*
X732Y2301D01*
X734Y2301D01*
X734Y2299D01*
X736Y2299D01*
X736Y2295D01*
X738Y2295D01*
X738Y2293D01*
X740Y2293D01*
X740Y2291D01*
X742Y2291D01*
X742Y2289D01*
X744Y2289D01*
X744Y2287D01*
X746Y2287D01*
X746Y2283D01*
X748Y2283D01*
X748Y2281D01*
X750Y2281D01*
X750Y2279D01*
X752Y2279D01*
X752Y2277D01*
X754Y2277D01*
X754Y2273D01*
X756Y2273D01*
X756Y2271D01*
X758Y2271D01*
X758Y2269D01*
X760Y2269D01*
X760Y2267D01*
X762Y2267D01*
X762Y2263D01*
X764Y2263D01*
X764Y2261D01*
X766Y2261D01*
X766Y2259D01*
X768Y2259D01*
X768Y2257D01*
X770Y2257D01*
X770Y2255D01*
X772Y2255D01*
X772Y2251D01*
X774Y2251D01*
X774Y2249D01*
X776Y2249D01*
X776Y2247D01*
X778Y2247D01*
X778Y2245D01*
X780Y2245D01*
X780Y2241D01*
X782Y2241D01*
X782Y2239D01*
X784Y2239D01*
X784Y2237D01*
X786Y2237D01*
X786Y2235D01*
X788Y2235D01*
X788Y2231D01*
X790Y2231D01*
X790Y2229D01*
X792Y2229D01*
X792Y2227D01*
X794Y2227D01*
X794Y2225D01*
X796Y2225D01*
X796Y2221D01*
X798Y2221D01*
X798Y2219D01*
X800Y2219D01*
X800Y2217D01*
X802Y2217D01*
X802Y2215D01*
X804Y2215D01*
X804Y2213D01*
X806Y2213D01*
X806Y2211D01*
X808Y2211D01*
X808Y2209D01*
X810Y2209D01*
X810Y2207D01*
X812Y2207D01*
X812Y2203D01*
X814Y2203D01*
X814Y2201D01*
X816Y2201D01*
X816Y2199D01*
X818Y2199D01*
X818Y2197D01*
X820Y2197D01*
X820Y2195D01*
X822Y2195D01*
X822Y2193D01*
X824Y2193D01*
X824Y2191D01*
X826Y2191D01*
X826Y2189D01*
X828Y2189D01*
X828Y2187D01*
X830Y2187D01*
X830Y2185D01*
X832Y2185D01*
X832Y2181D01*
X834Y2181D01*
X834Y2179D01*
X836Y2179D01*
X836Y2177D01*
X838Y2177D01*
X838Y2175D01*
X840Y2175D01*
X840Y2173D01*
X842Y2173D01*
X842Y2171D01*
X844Y2171D01*
X844Y2169D01*
X846Y2169D01*
X846Y2167D01*
X848Y2167D01*
X848Y2165D01*
X850Y2165D01*
X850Y2161D01*
X852Y2161D01*
X852Y2159D01*
X854Y2159D01*
X854Y2157D01*
X856Y2157D01*
X856Y2155D01*
X858Y2155D01*
X858Y2153D01*
X860Y2153D01*
X860Y2151D01*
X862Y2151D01*
X862Y2149D01*
X864Y2149D01*
X864Y2147D01*
X866Y2147D01*
X866Y2145D01*
X868Y2145D01*
X868Y2143D01*
X870Y2143D01*
X870Y2139D01*
X872Y2139D01*
X872Y2137D01*
X874Y2137D01*
X874Y2135D01*
X876Y2135D01*
X876Y2133D01*
X878Y2133D01*
X878Y2131D01*
X880Y2131D01*
X880Y2129D01*
X882Y2129D01*
X882Y2127D01*
X884Y2127D01*
X884Y2125D01*
X886Y2125D01*
X886Y2123D01*
X888Y2123D01*
X888Y2119D01*
X890Y2119D01*
X890Y2117D01*
X892Y2117D01*
X892Y2115D01*
X894Y2115D01*
X894Y2113D01*
X896Y2113D01*
X896Y2111D01*
X898Y2111D01*
X898Y2109D01*
X900Y2109D01*
X900Y2107D01*
X902Y2107D01*
X902Y2105D01*
X904Y2105D01*
X904Y2103D01*
X906Y2103D01*
X906Y2101D01*
X908Y2101D01*
X908Y2097D01*
X910Y2097D01*
X910Y2095D01*
X912Y2095D01*
X912Y2093D01*
X914Y2093D01*
X914Y2091D01*
X916Y2091D01*
X916Y2089D01*
X918Y2089D01*
X918Y2087D01*
X920Y2087D01*
X920Y2085D01*
X922Y2085D01*
X922Y2083D01*
X924Y2083D01*
X924Y2081D01*
X926Y2081D01*
X926Y2077D01*
X928Y2077D01*
X928Y2075D01*
X930Y2075D01*
X930Y2073D01*
X932Y2073D01*
X932Y2071D01*
X934Y2071D01*
X934Y2069D01*
X936Y2069D01*
X936Y2067D01*
X938Y2067D01*
X938Y2065D01*
X940Y2065D01*
X940Y2063D01*
X942Y2063D01*
X942Y2061D01*
X944Y2061D01*
X944Y2059D01*
X946Y2059D01*
X946Y2055D01*
X948Y2055D01*
X948Y2053D01*
X950Y2053D01*
X950Y2051D01*
X952Y2051D01*
X952Y2049D01*
X954Y2049D01*
X954Y2047D01*
X996Y2047D01*
X996Y2061D01*
X994Y2061D01*
X994Y2063D01*
X992Y2063D01*
X992Y2065D01*
X990Y2065D01*
X990Y2069D01*
X988Y2069D01*
X988Y2071D01*
X986Y2071D01*
X986Y2073D01*
X984Y2073D01*
X984Y2075D01*
X982Y2075D01*
X982Y2079D01*
X980Y2079D01*
X980Y2081D01*
X978Y2081D01*
X978Y2083D01*
X976Y2083D01*
X976Y2087D01*
X974Y2087D01*
X974Y2089D01*
X972Y2089D01*
X972Y2091D01*
X970Y2091D01*
X970Y2095D01*
X968Y2095D01*
X968Y2097D01*
X966Y2097D01*
X966Y2099D01*
X964Y2099D01*
X964Y2103D01*
X962Y2103D01*
X962Y2105D01*
X960Y2105D01*
X960Y2107D01*
X958Y2107D01*
X958Y2111D01*
X956Y2111D01*
X956Y2113D01*
X954Y2113D01*
X954Y2115D01*
X952Y2115D01*
X952Y2119D01*
X950Y2119D01*
X950Y2121D01*
X948Y2121D01*
X948Y2123D01*
X946Y2123D01*
X946Y2127D01*
X944Y2127D01*
X944Y2129D01*
X942Y2129D01*
X942Y2131D01*
X940Y2131D01*
X940Y2135D01*
X938Y2135D01*
X938Y2137D01*
X936Y2137D01*
X936Y2139D01*
X934Y2139D01*
X934Y2141D01*
X932Y2141D01*
X932Y2145D01*
X930Y2145D01*
X930Y2147D01*
X928Y2147D01*
X928Y2149D01*
X926Y2149D01*
X926Y2153D01*
X924Y2153D01*
X924Y2155D01*
X922Y2155D01*
X922Y2157D01*
X920Y2157D01*
X920Y2161D01*
X918Y2161D01*
X918Y2163D01*
X916Y2163D01*
X916Y2165D01*
X914Y2165D01*
X914Y2169D01*
X912Y2169D01*
X912Y2171D01*
X910Y2171D01*
X910Y2173D01*
X908Y2173D01*
X908Y2177D01*
X906Y2177D01*
X906Y2179D01*
X904Y2179D01*
X904Y2181D01*
X902Y2181D01*
X902Y2185D01*
X900Y2185D01*
X900Y2187D01*
X898Y2187D01*
X898Y2189D01*
X896Y2189D01*
X896Y2193D01*
X894Y2193D01*
X894Y2195D01*
X892Y2195D01*
X892Y2197D01*
X890Y2197D01*
X890Y2201D01*
X888Y2201D01*
X888Y2203D01*
X886Y2203D01*
X886Y2205D01*
X884Y2205D01*
X884Y2207D01*
X882Y2207D01*
X882Y2211D01*
X880Y2211D01*
X880Y2213D01*
X878Y2213D01*
X878Y2215D01*
X876Y2215D01*
X876Y2219D01*
X874Y2219D01*
X874Y2221D01*
X872Y2221D01*
X872Y2223D01*
X870Y2223D01*
X870Y2227D01*
X868Y2227D01*
X868Y2229D01*
X866Y2229D01*
X866Y2231D01*
X864Y2231D01*
X864Y2235D01*
X862Y2235D01*
X862Y2237D01*
X860Y2237D01*
X860Y2239D01*
X858Y2239D01*
X858Y2243D01*
X856Y2243D01*
X856Y2245D01*
X854Y2245D01*
X854Y2247D01*
X852Y2247D01*
X852Y2251D01*
X850Y2251D01*
X850Y2253D01*
X848Y2253D01*
X848Y2255D01*
X846Y2255D01*
X846Y2259D01*
X844Y2259D01*
X844Y2261D01*
X842Y2261D01*
X842Y2263D01*
X840Y2263D01*
X840Y2265D01*
X838Y2265D01*
X838Y2269D01*
X836Y2269D01*
X836Y2271D01*
X834Y2271D01*
X834Y2273D01*
X832Y2273D01*
X832Y2277D01*
X830Y2277D01*
X830Y2279D01*
X828Y2279D01*
X828Y2281D01*
X826Y2281D01*
X826Y2285D01*
X824Y2285D01*
X824Y2287D01*
X822Y2287D01*
X822Y2289D01*
X820Y2289D01*
X820Y2293D01*
X818Y2293D01*
X818Y2295D01*
X816Y2295D01*
X816Y2297D01*
X814Y2297D01*
X814Y2301D01*
X812Y2301D01*
X812Y2303D01*
X810Y2303D01*
X810Y2305D01*
X808Y2305D01*
X808Y2309D01*
X806Y2309D01*
X806Y2311D01*
X804Y2311D01*
X804Y2313D01*
X802Y2313D01*
X802Y2317D01*
X800Y2317D01*
X800Y2319D01*
X798Y2319D01*
X798Y2321D01*
X796Y2321D01*
X796Y2325D01*
X790Y2325D01*
X790Y2327D01*
X786Y2327D01*
X786Y2329D01*
X782Y2329D01*
X782Y2331D01*
X780Y2331D01*
X780Y2333D01*
X778Y2333D01*
X778Y2335D01*
X776Y2335D01*
X776Y2339D01*
X774Y2339D01*
X774Y2341D01*
X772Y2341D01*
X772Y2349D01*
X770Y2349D01*
X770Y2359D01*
X772Y2359D01*
X772Y2367D01*
X774Y2367D01*
X774Y2369D01*
X776Y2369D01*
X776Y2373D01*
X778Y2373D01*
X778Y2375D01*
X780Y2375D01*
X780Y2377D01*
X782Y2377D01*
X782Y2379D01*
X786Y2379D01*
X786Y2381D01*
X790Y2381D01*
X790Y2383D01*
X40Y2383D01*
G37*
D02*
G36*
X810Y2383D02*
X810Y2381D01*
X814Y2381D01*
X814Y2379D01*
X818Y2379D01*
X818Y2377D01*
X820Y2377D01*
X820Y2375D01*
X1930Y2375D01*
X1930Y2377D01*
X1932Y2377D01*
X1932Y2379D01*
X1936Y2379D01*
X1936Y2381D01*
X1940Y2381D01*
X1940Y2383D01*
X810Y2383D01*
G37*
D02*
G36*
X40Y2337D02*
X40Y2327D01*
X110Y2327D01*
X110Y2325D01*
X114Y2325D01*
X114Y2323D01*
X118Y2323D01*
X118Y2321D01*
X220Y2321D01*
X220Y2323D01*
X364Y2323D01*
X364Y2325D01*
X506Y2325D01*
X506Y2327D01*
X650Y2327D01*
X650Y2329D01*
X682Y2329D01*
X682Y2331D01*
X684Y2331D01*
X684Y2333D01*
X688Y2333D01*
X688Y2335D01*
X696Y2335D01*
X696Y2337D01*
X40Y2337D01*
G37*
D02*
G36*
X40Y2327D02*
X40Y2269D01*
X92Y2269D01*
X92Y2271D01*
X86Y2271D01*
X86Y2273D01*
X84Y2273D01*
X84Y2275D01*
X80Y2275D01*
X80Y2277D01*
X78Y2277D01*
X78Y2279D01*
X76Y2279D01*
X76Y2283D01*
X74Y2283D01*
X74Y2287D01*
X72Y2287D01*
X72Y2293D01*
X70Y2293D01*
X70Y2305D01*
X72Y2305D01*
X72Y2311D01*
X74Y2311D01*
X74Y2315D01*
X76Y2315D01*
X76Y2317D01*
X78Y2317D01*
X78Y2319D01*
X80Y2319D01*
X80Y2321D01*
X82Y2321D01*
X82Y2323D01*
X86Y2323D01*
X86Y2325D01*
X90Y2325D01*
X90Y2327D01*
X40Y2327D01*
G37*
D02*
G36*
X652Y2285D02*
X652Y2283D01*
X508Y2283D01*
X508Y2281D01*
X364Y2281D01*
X364Y2279D01*
X220Y2279D01*
X220Y2277D01*
X120Y2277D01*
X120Y2275D01*
X116Y2275D01*
X116Y2273D01*
X114Y2273D01*
X114Y2271D01*
X108Y2271D01*
X108Y2269D01*
X702Y2269D01*
X702Y2271D01*
X700Y2271D01*
X700Y2273D01*
X698Y2273D01*
X698Y2275D01*
X696Y2275D01*
X696Y2277D01*
X692Y2277D01*
X692Y2279D01*
X688Y2279D01*
X688Y2281D01*
X684Y2281D01*
X684Y2283D01*
X682Y2283D01*
X682Y2285D01*
X652Y2285D01*
G37*
D02*
G36*
X40Y2269D02*
X40Y2267D01*
X704Y2267D01*
X704Y2269D01*
X40Y2269D01*
G37*
D02*
G36*
X40Y2269D02*
X40Y2267D01*
X704Y2267D01*
X704Y2269D01*
X40Y2269D01*
G37*
D02*
G36*
X40Y2267D02*
X40Y2239D01*
X154Y2239D01*
X154Y2237D01*
X566Y2237D01*
X566Y2235D01*
X576Y2235D01*
X576Y2233D01*
X580Y2233D01*
X580Y2231D01*
X582Y2231D01*
X582Y2229D01*
X584Y2229D01*
X584Y2227D01*
X586Y2227D01*
X586Y2225D01*
X588Y2225D01*
X588Y2223D01*
X590Y2223D01*
X590Y2219D01*
X592Y2219D01*
X592Y2211D01*
X594Y2211D01*
X594Y2201D01*
X592Y2201D01*
X592Y2195D01*
X590Y2195D01*
X590Y2173D01*
X644Y2173D01*
X644Y2171D01*
X754Y2171D01*
X754Y2169D01*
X760Y2169D01*
X760Y2167D01*
X764Y2167D01*
X764Y2165D01*
X766Y2165D01*
X766Y2163D01*
X768Y2163D01*
X768Y2159D01*
X770Y2159D01*
X770Y2157D01*
X772Y2157D01*
X772Y2155D01*
X774Y2155D01*
X774Y2153D01*
X776Y2153D01*
X776Y2149D01*
X778Y2149D01*
X778Y2147D01*
X780Y2147D01*
X780Y2145D01*
X782Y2145D01*
X782Y2143D01*
X784Y2143D01*
X784Y2139D01*
X786Y2139D01*
X786Y2137D01*
X788Y2137D01*
X788Y2135D01*
X790Y2135D01*
X790Y2133D01*
X792Y2133D01*
X792Y2129D01*
X794Y2129D01*
X794Y2127D01*
X796Y2127D01*
X796Y2125D01*
X798Y2125D01*
X798Y2123D01*
X800Y2123D01*
X800Y2119D01*
X802Y2119D01*
X802Y2117D01*
X804Y2117D01*
X804Y2115D01*
X806Y2115D01*
X806Y2113D01*
X808Y2113D01*
X808Y2109D01*
X810Y2109D01*
X810Y2107D01*
X812Y2107D01*
X812Y2105D01*
X814Y2105D01*
X814Y2103D01*
X816Y2103D01*
X816Y2099D01*
X818Y2099D01*
X818Y2097D01*
X820Y2097D01*
X820Y2095D01*
X822Y2095D01*
X822Y2091D01*
X824Y2091D01*
X824Y2089D01*
X826Y2089D01*
X826Y2087D01*
X828Y2087D01*
X828Y2085D01*
X830Y2085D01*
X830Y2081D01*
X832Y2081D01*
X832Y2079D01*
X834Y2079D01*
X834Y2077D01*
X836Y2077D01*
X836Y2075D01*
X838Y2075D01*
X838Y2071D01*
X840Y2071D01*
X840Y2069D01*
X842Y2069D01*
X842Y2067D01*
X844Y2067D01*
X844Y2065D01*
X846Y2065D01*
X846Y2061D01*
X848Y2061D01*
X848Y2059D01*
X850Y2059D01*
X850Y2057D01*
X852Y2057D01*
X852Y2055D01*
X854Y2055D01*
X854Y2051D01*
X856Y2051D01*
X856Y2049D01*
X858Y2049D01*
X858Y2047D01*
X878Y2047D01*
X878Y2067D01*
X876Y2067D01*
X876Y2069D01*
X874Y2069D01*
X874Y2073D01*
X872Y2073D01*
X872Y2075D01*
X870Y2075D01*
X870Y2077D01*
X868Y2077D01*
X868Y2079D01*
X866Y2079D01*
X866Y2081D01*
X864Y2081D01*
X864Y2083D01*
X862Y2083D01*
X862Y2085D01*
X860Y2085D01*
X860Y2087D01*
X858Y2087D01*
X858Y2089D01*
X856Y2089D01*
X856Y2091D01*
X854Y2091D01*
X854Y2095D01*
X852Y2095D01*
X852Y2097D01*
X850Y2097D01*
X850Y2099D01*
X848Y2099D01*
X848Y2101D01*
X846Y2101D01*
X846Y2103D01*
X844Y2103D01*
X844Y2105D01*
X842Y2105D01*
X842Y2107D01*
X840Y2107D01*
X840Y2109D01*
X838Y2109D01*
X838Y2111D01*
X836Y2111D01*
X836Y2115D01*
X834Y2115D01*
X834Y2117D01*
X832Y2117D01*
X832Y2119D01*
X830Y2119D01*
X830Y2121D01*
X828Y2121D01*
X828Y2123D01*
X826Y2123D01*
X826Y2125D01*
X824Y2125D01*
X824Y2127D01*
X822Y2127D01*
X822Y2129D01*
X820Y2129D01*
X820Y2131D01*
X818Y2131D01*
X818Y2133D01*
X816Y2133D01*
X816Y2137D01*
X814Y2137D01*
X814Y2139D01*
X812Y2139D01*
X812Y2141D01*
X810Y2141D01*
X810Y2143D01*
X808Y2143D01*
X808Y2145D01*
X806Y2145D01*
X806Y2147D01*
X804Y2147D01*
X804Y2149D01*
X802Y2149D01*
X802Y2151D01*
X800Y2151D01*
X800Y2153D01*
X798Y2153D01*
X798Y2157D01*
X796Y2157D01*
X796Y2159D01*
X794Y2159D01*
X794Y2161D01*
X792Y2161D01*
X792Y2163D01*
X790Y2163D01*
X790Y2165D01*
X788Y2165D01*
X788Y2167D01*
X786Y2167D01*
X786Y2169D01*
X784Y2169D01*
X784Y2171D01*
X782Y2171D01*
X782Y2173D01*
X780Y2173D01*
X780Y2175D01*
X778Y2175D01*
X778Y2179D01*
X776Y2179D01*
X776Y2181D01*
X774Y2181D01*
X774Y2183D01*
X772Y2183D01*
X772Y2185D01*
X770Y2185D01*
X770Y2187D01*
X768Y2187D01*
X768Y2189D01*
X766Y2189D01*
X766Y2191D01*
X764Y2191D01*
X764Y2195D01*
X762Y2195D01*
X762Y2197D01*
X760Y2197D01*
X760Y2199D01*
X758Y2199D01*
X758Y2201D01*
X756Y2201D01*
X756Y2203D01*
X754Y2203D01*
X754Y2207D01*
X752Y2207D01*
X752Y2209D01*
X750Y2209D01*
X750Y2211D01*
X748Y2211D01*
X748Y2213D01*
X746Y2213D01*
X746Y2217D01*
X744Y2217D01*
X744Y2219D01*
X742Y2219D01*
X742Y2221D01*
X740Y2221D01*
X740Y2223D01*
X738Y2223D01*
X738Y2227D01*
X736Y2227D01*
X736Y2229D01*
X734Y2229D01*
X734Y2231D01*
X732Y2231D01*
X732Y2233D01*
X730Y2233D01*
X730Y2235D01*
X728Y2235D01*
X728Y2239D01*
X726Y2239D01*
X726Y2241D01*
X724Y2241D01*
X724Y2243D01*
X722Y2243D01*
X722Y2245D01*
X720Y2245D01*
X720Y2249D01*
X718Y2249D01*
X718Y2251D01*
X716Y2251D01*
X716Y2253D01*
X714Y2253D01*
X714Y2255D01*
X712Y2255D01*
X712Y2259D01*
X710Y2259D01*
X710Y2261D01*
X708Y2261D01*
X708Y2263D01*
X706Y2263D01*
X706Y2265D01*
X704Y2265D01*
X704Y2267D01*
X40Y2267D01*
G37*
D02*
G36*
X40Y2239D02*
X40Y2179D01*
X146Y2179D01*
X146Y2181D01*
X136Y2181D01*
X136Y2183D01*
X132Y2183D01*
X132Y2185D01*
X130Y2185D01*
X130Y2187D01*
X126Y2187D01*
X126Y2189D01*
X124Y2189D01*
X124Y2193D01*
X122Y2193D01*
X122Y2195D01*
X120Y2195D01*
X120Y2201D01*
X118Y2201D01*
X118Y2219D01*
X120Y2219D01*
X120Y2223D01*
X122Y2223D01*
X122Y2227D01*
X124Y2227D01*
X124Y2229D01*
X126Y2229D01*
X126Y2231D01*
X128Y2231D01*
X128Y2233D01*
X130Y2233D01*
X130Y2235D01*
X134Y2235D01*
X134Y2237D01*
X140Y2237D01*
X140Y2239D01*
X40Y2239D01*
G37*
D02*
G36*
X160Y2237D02*
X160Y2235D01*
X164Y2235D01*
X164Y2233D01*
X166Y2233D01*
X166Y2231D01*
X364Y2231D01*
X364Y2229D01*
X546Y2229D01*
X546Y2231D01*
X548Y2231D01*
X548Y2233D01*
X552Y2233D01*
X552Y2235D01*
X560Y2235D01*
X560Y2237D01*
X160Y2237D01*
G37*
D02*
G36*
X166Y2187D02*
X166Y2185D01*
X162Y2185D01*
X162Y2183D01*
X158Y2183D01*
X158Y2181D01*
X150Y2181D01*
X150Y2179D01*
X368Y2179D01*
X368Y2185D01*
X362Y2185D01*
X362Y2187D01*
X166Y2187D01*
G37*
D02*
G36*
X40Y2179D02*
X40Y2177D01*
X368Y2177D01*
X368Y2179D01*
X40Y2179D01*
G37*
D02*
G36*
X40Y2179D02*
X40Y2177D01*
X368Y2177D01*
X368Y2179D01*
X40Y2179D01*
G37*
D02*
G36*
X40Y2177D02*
X40Y2137D01*
X304Y2137D01*
X304Y2135D01*
X312Y2135D01*
X312Y2133D01*
X316Y2133D01*
X316Y2131D01*
X318Y2131D01*
X318Y2129D01*
X334Y2129D01*
X334Y2127D01*
X366Y2127D01*
X366Y2151D01*
X364Y2151D01*
X364Y2157D01*
X366Y2157D01*
X366Y2165D01*
X368Y2165D01*
X368Y2177D01*
X40Y2177D01*
G37*
D02*
G36*
X40Y2137D02*
X40Y2087D01*
X244Y2087D01*
X244Y2085D01*
X272Y2085D01*
X272Y2101D01*
X270Y2101D01*
X270Y2113D01*
X272Y2113D01*
X272Y2119D01*
X274Y2119D01*
X274Y2123D01*
X276Y2123D01*
X276Y2125D01*
X278Y2125D01*
X278Y2127D01*
X280Y2127D01*
X280Y2129D01*
X282Y2129D01*
X282Y2131D01*
X284Y2131D01*
X284Y2133D01*
X288Y2133D01*
X288Y2135D01*
X296Y2135D01*
X296Y2137D01*
X40Y2137D01*
G37*
D02*
G36*
X1678Y2127D02*
X1678Y2105D01*
X1680Y2105D01*
X1680Y2093D01*
X1678Y2093D01*
X1678Y2087D01*
X1676Y2087D01*
X1676Y2083D01*
X1674Y2083D01*
X1674Y2079D01*
X1672Y2079D01*
X1672Y2077D01*
X1670Y2077D01*
X1670Y2075D01*
X1666Y2075D01*
X1666Y2073D01*
X1664Y2073D01*
X1664Y2071D01*
X1658Y2071D01*
X1658Y2069D01*
X1728Y2069D01*
X1728Y2127D01*
X1678Y2127D01*
G37*
D02*
G36*
X40Y2087D02*
X40Y2019D01*
X190Y2019D01*
X190Y2017D01*
X194Y2017D01*
X194Y2015D01*
X198Y2015D01*
X198Y2013D01*
X226Y2013D01*
X226Y2033D01*
X222Y2033D01*
X222Y2035D01*
X220Y2035D01*
X220Y2037D01*
X218Y2037D01*
X218Y2041D01*
X216Y2041D01*
X216Y2043D01*
X214Y2043D01*
X214Y2049D01*
X212Y2049D01*
X212Y2063D01*
X214Y2063D01*
X214Y2069D01*
X216Y2069D01*
X216Y2073D01*
X218Y2073D01*
X218Y2075D01*
X220Y2075D01*
X220Y2077D01*
X222Y2077D01*
X222Y2079D01*
X224Y2079D01*
X224Y2081D01*
X226Y2081D01*
X226Y2083D01*
X230Y2083D01*
X230Y2085D01*
X238Y2085D01*
X238Y2087D01*
X40Y2087D01*
G37*
D02*
G36*
X1416Y2077D02*
X1416Y2073D01*
X1414Y2073D01*
X1414Y2069D01*
X1642Y2069D01*
X1642Y2071D01*
X1636Y2071D01*
X1636Y2073D01*
X1634Y2073D01*
X1634Y2075D01*
X1630Y2075D01*
X1630Y2077D01*
X1416Y2077D01*
G37*
D02*
G36*
X1414Y2069D02*
X1414Y2067D01*
X1728Y2067D01*
X1728Y2069D01*
X1414Y2069D01*
G37*
D02*
G36*
X1414Y2069D02*
X1414Y2067D01*
X1728Y2067D01*
X1728Y2069D01*
X1414Y2069D01*
G37*
D02*
G36*
X1414Y2067D02*
X1414Y2065D01*
X1412Y2065D01*
X1412Y2059D01*
X1410Y2059D01*
X1410Y2053D01*
X1408Y2053D01*
X1408Y2047D01*
X1480Y2047D01*
X1480Y2045D01*
X1486Y2045D01*
X1486Y2043D01*
X1492Y2043D01*
X1492Y2041D01*
X1494Y2041D01*
X1494Y2039D01*
X1498Y2039D01*
X1498Y2037D01*
X1500Y2037D01*
X1500Y2035D01*
X1502Y2035D01*
X1502Y2033D01*
X1504Y2033D01*
X1504Y2031D01*
X1506Y2031D01*
X1506Y2029D01*
X1508Y2029D01*
X1508Y2027D01*
X1610Y2027D01*
X1610Y2025D01*
X1614Y2025D01*
X1614Y2023D01*
X1618Y2023D01*
X1618Y2021D01*
X1620Y2021D01*
X1620Y2019D01*
X1622Y2019D01*
X1622Y2017D01*
X1624Y2017D01*
X1624Y2015D01*
X1626Y2015D01*
X1626Y2011D01*
X1628Y2011D01*
X1628Y2005D01*
X1630Y2005D01*
X1630Y1993D01*
X1628Y1993D01*
X1628Y1987D01*
X1626Y1987D01*
X1626Y1983D01*
X1624Y1983D01*
X1624Y1979D01*
X1622Y1979D01*
X1622Y1977D01*
X1620Y1977D01*
X1620Y1975D01*
X1740Y1975D01*
X1740Y1977D01*
X1736Y1977D01*
X1736Y1979D01*
X1732Y1979D01*
X1732Y1981D01*
X1730Y1981D01*
X1730Y1983D01*
X1728Y1983D01*
X1728Y1985D01*
X1726Y1985D01*
X1726Y1989D01*
X1724Y1989D01*
X1724Y1991D01*
X1722Y1991D01*
X1722Y1999D01*
X1720Y1999D01*
X1720Y2009D01*
X1722Y2009D01*
X1722Y2017D01*
X1724Y2017D01*
X1724Y2019D01*
X1726Y2019D01*
X1726Y2023D01*
X1728Y2023D01*
X1728Y2067D01*
X1414Y2067D01*
G37*
D02*
G36*
X1408Y2047D02*
X1408Y2027D01*
X1410Y2027D01*
X1410Y2025D01*
X1430Y2025D01*
X1430Y2029D01*
X1432Y2029D01*
X1432Y2031D01*
X1434Y2031D01*
X1434Y2033D01*
X1436Y2033D01*
X1436Y2035D01*
X1438Y2035D01*
X1438Y2037D01*
X1440Y2037D01*
X1440Y2039D01*
X1444Y2039D01*
X1444Y2041D01*
X1448Y2041D01*
X1448Y2043D01*
X1452Y2043D01*
X1452Y2045D01*
X1458Y2045D01*
X1458Y2047D01*
X1408Y2047D01*
G37*
D02*
G36*
X1510Y2027D02*
X1510Y2023D01*
X1512Y2023D01*
X1512Y2021D01*
X1582Y2021D01*
X1582Y2023D01*
X1586Y2023D01*
X1586Y2025D01*
X1590Y2025D01*
X1590Y2027D01*
X1510Y2027D01*
G37*
D02*
G36*
X40Y2019D02*
X40Y1961D01*
X172Y1961D01*
X172Y1963D01*
X166Y1963D01*
X166Y1965D01*
X164Y1965D01*
X164Y1967D01*
X160Y1967D01*
X160Y1969D01*
X158Y1969D01*
X158Y1973D01*
X156Y1973D01*
X156Y1975D01*
X154Y1975D01*
X154Y1979D01*
X152Y1979D01*
X152Y1989D01*
X150Y1989D01*
X150Y1991D01*
X152Y1991D01*
X152Y2001D01*
X154Y2001D01*
X154Y2005D01*
X156Y2005D01*
X156Y2007D01*
X158Y2007D01*
X158Y2011D01*
X160Y2011D01*
X160Y2013D01*
X164Y2013D01*
X164Y2015D01*
X166Y2015D01*
X166Y2017D01*
X172Y2017D01*
X172Y2019D01*
X40Y2019D01*
G37*
D02*
G36*
X1764Y1979D02*
X1764Y1977D01*
X1760Y1977D01*
X1760Y1975D01*
X1790Y1975D01*
X1790Y1977D01*
X1786Y1977D01*
X1786Y1979D01*
X1764Y1979D01*
G37*
D02*
G36*
X1814Y1979D02*
X1814Y1977D01*
X1810Y1977D01*
X1810Y1975D01*
X1840Y1975D01*
X1840Y1977D01*
X1836Y1977D01*
X1836Y1979D01*
X1814Y1979D01*
G37*
D02*
G36*
X1864Y1979D02*
X1864Y1977D01*
X1860Y1977D01*
X1860Y1975D01*
X1890Y1975D01*
X1890Y1977D01*
X1886Y1977D01*
X1886Y1979D01*
X1864Y1979D01*
G37*
D02*
G36*
X1914Y1979D02*
X1914Y1977D01*
X1910Y1977D01*
X1910Y1975D01*
X1940Y1975D01*
X1940Y1977D01*
X1936Y1977D01*
X1936Y1979D01*
X1914Y1979D01*
G37*
D02*
G36*
X1512Y1977D02*
X1512Y1973D01*
X1510Y1973D01*
X1510Y1969D01*
X1592Y1969D01*
X1592Y1971D01*
X1586Y1971D01*
X1586Y1973D01*
X1584Y1973D01*
X1584Y1975D01*
X1580Y1975D01*
X1580Y1977D01*
X1512Y1977D01*
G37*
D02*
G36*
X462Y1975D02*
X462Y1973D01*
X368Y1973D01*
X368Y1971D01*
X274Y1971D01*
X274Y1969D01*
X200Y1969D01*
X200Y1967D01*
X198Y1967D01*
X198Y1965D01*
X194Y1965D01*
X194Y1963D01*
X190Y1963D01*
X190Y1961D01*
X536Y1961D01*
X536Y1963D01*
X534Y1963D01*
X534Y1965D01*
X532Y1965D01*
X532Y1969D01*
X530Y1969D01*
X530Y1971D01*
X528Y1971D01*
X528Y1975D01*
X462Y1975D01*
G37*
D02*
G36*
X1616Y1975D02*
X1616Y1973D01*
X2006Y1973D01*
X2006Y1975D01*
X1616Y1975D01*
G37*
D02*
G36*
X1616Y1975D02*
X1616Y1973D01*
X2006Y1973D01*
X2006Y1975D01*
X1616Y1975D01*
G37*
D02*
G36*
X1616Y1975D02*
X1616Y1973D01*
X2006Y1973D01*
X2006Y1975D01*
X1616Y1975D01*
G37*
D02*
G36*
X1616Y1975D02*
X1616Y1973D01*
X2006Y1973D01*
X2006Y1975D01*
X1616Y1975D01*
G37*
D02*
G36*
X1616Y1975D02*
X1616Y1973D01*
X2006Y1973D01*
X2006Y1975D01*
X1616Y1975D01*
G37*
D02*
G36*
X1616Y1975D02*
X1616Y1973D01*
X2006Y1973D01*
X2006Y1975D01*
X1616Y1975D01*
G37*
D02*
G36*
X1614Y1973D02*
X1614Y1971D01*
X1608Y1971D01*
X1608Y1969D01*
X2006Y1969D01*
X2006Y1973D01*
X1614Y1973D01*
G37*
D02*
G36*
X1508Y1969D02*
X1508Y1967D01*
X2006Y1967D01*
X2006Y1969D01*
X1508Y1969D01*
G37*
D02*
G36*
X1508Y1969D02*
X1508Y1967D01*
X2006Y1967D01*
X2006Y1969D01*
X1508Y1969D01*
G37*
D02*
G36*
X1506Y1967D02*
X1506Y1965D01*
X1504Y1965D01*
X1504Y1963D01*
X1502Y1963D01*
X1502Y1961D01*
X1500Y1961D01*
X1500Y1959D01*
X1498Y1959D01*
X1498Y1937D01*
X1500Y1937D01*
X1500Y1935D01*
X1502Y1935D01*
X1502Y1933D01*
X1504Y1933D01*
X1504Y1931D01*
X1506Y1931D01*
X1506Y1929D01*
X1508Y1929D01*
X1508Y1927D01*
X1510Y1927D01*
X1510Y1923D01*
X1512Y1923D01*
X1512Y1921D01*
X1514Y1921D01*
X1514Y1917D01*
X1516Y1917D01*
X1516Y1909D01*
X1518Y1909D01*
X1518Y1887D01*
X1516Y1887D01*
X1516Y1881D01*
X1514Y1881D01*
X1514Y1877D01*
X1512Y1877D01*
X1512Y1873D01*
X1510Y1873D01*
X1510Y1869D01*
X1508Y1869D01*
X1508Y1867D01*
X1506Y1867D01*
X1506Y1865D01*
X1504Y1865D01*
X1504Y1863D01*
X1502Y1863D01*
X1502Y1861D01*
X1500Y1861D01*
X1500Y1859D01*
X1498Y1859D01*
X1498Y1857D01*
X1494Y1857D01*
X1494Y1855D01*
X1490Y1855D01*
X1490Y1853D01*
X1484Y1853D01*
X1484Y1851D01*
X1476Y1851D01*
X1476Y1849D01*
X2006Y1849D01*
X2006Y1869D01*
X1992Y1869D01*
X1992Y1871D01*
X1986Y1871D01*
X1986Y1873D01*
X1984Y1873D01*
X1984Y1875D01*
X1980Y1875D01*
X1980Y1877D01*
X1978Y1877D01*
X1978Y1879D01*
X1976Y1879D01*
X1976Y1883D01*
X1974Y1883D01*
X1974Y1887D01*
X1972Y1887D01*
X1972Y1893D01*
X1970Y1893D01*
X1970Y1905D01*
X1972Y1905D01*
X1972Y1911D01*
X1974Y1911D01*
X1974Y1915D01*
X1976Y1915D01*
X1976Y1917D01*
X1978Y1917D01*
X1978Y1919D01*
X1980Y1919D01*
X1980Y1921D01*
X1982Y1921D01*
X1982Y1923D01*
X1986Y1923D01*
X1986Y1925D01*
X1990Y1925D01*
X1990Y1927D01*
X2006Y1927D01*
X2006Y1967D01*
X1506Y1967D01*
G37*
D02*
G36*
X40Y1961D02*
X40Y1959D01*
X540Y1959D01*
X540Y1961D01*
X40Y1961D01*
G37*
D02*
G36*
X40Y1961D02*
X40Y1959D01*
X540Y1959D01*
X540Y1961D01*
X40Y1961D01*
G37*
D02*
G36*
X40Y1959D02*
X40Y1927D01*
X510Y1927D01*
X510Y1925D01*
X530Y1925D01*
X530Y1929D01*
X532Y1929D01*
X532Y1931D01*
X534Y1931D01*
X534Y1933D01*
X536Y1933D01*
X536Y1935D01*
X538Y1935D01*
X538Y1937D01*
X540Y1937D01*
X540Y1939D01*
X542Y1939D01*
X542Y1959D01*
X40Y1959D01*
G37*
D02*
G36*
X40Y1927D02*
X40Y1869D01*
X492Y1869D01*
X492Y1871D01*
X486Y1871D01*
X486Y1873D01*
X484Y1873D01*
X484Y1875D01*
X480Y1875D01*
X480Y1877D01*
X478Y1877D01*
X478Y1879D01*
X476Y1879D01*
X476Y1883D01*
X474Y1883D01*
X474Y1887D01*
X472Y1887D01*
X472Y1893D01*
X470Y1893D01*
X470Y1905D01*
X472Y1905D01*
X472Y1911D01*
X474Y1911D01*
X474Y1915D01*
X476Y1915D01*
X476Y1917D01*
X478Y1917D01*
X478Y1919D01*
X480Y1919D01*
X480Y1921D01*
X482Y1921D01*
X482Y1923D01*
X486Y1923D01*
X486Y1925D01*
X490Y1925D01*
X490Y1927D01*
X40Y1927D01*
G37*
D02*
G36*
X508Y1871D02*
X508Y1869D01*
X530Y1869D01*
X530Y1871D01*
X508Y1871D01*
G37*
D02*
G36*
X1010Y1871D02*
X1010Y1869D01*
X1008Y1869D01*
X1008Y1867D01*
X1006Y1867D01*
X1006Y1865D01*
X1004Y1865D01*
X1004Y1863D01*
X1002Y1863D01*
X1002Y1861D01*
X1000Y1861D01*
X1000Y1859D01*
X998Y1859D01*
X998Y1857D01*
X994Y1857D01*
X994Y1855D01*
X990Y1855D01*
X990Y1853D01*
X984Y1853D01*
X984Y1851D01*
X976Y1851D01*
X976Y1849D01*
X952Y1849D01*
X952Y1847D01*
X950Y1847D01*
X950Y1843D01*
X948Y1843D01*
X948Y1841D01*
X946Y1841D01*
X946Y1839D01*
X944Y1839D01*
X944Y1837D01*
X942Y1837D01*
X942Y1835D01*
X940Y1835D01*
X940Y1833D01*
X938Y1833D01*
X938Y1831D01*
X936Y1831D01*
X936Y1829D01*
X934Y1829D01*
X934Y1827D01*
X932Y1827D01*
X932Y1825D01*
X930Y1825D01*
X930Y1823D01*
X928Y1823D01*
X928Y1821D01*
X926Y1821D01*
X926Y1819D01*
X924Y1819D01*
X924Y1815D01*
X922Y1815D01*
X922Y1813D01*
X920Y1813D01*
X920Y1811D01*
X918Y1811D01*
X918Y1809D01*
X916Y1809D01*
X916Y1807D01*
X914Y1807D01*
X914Y1805D01*
X912Y1805D01*
X912Y1803D01*
X910Y1803D01*
X910Y1801D01*
X908Y1801D01*
X908Y1799D01*
X906Y1799D01*
X906Y1797D01*
X904Y1797D01*
X904Y1795D01*
X902Y1795D01*
X902Y1793D01*
X900Y1793D01*
X900Y1789D01*
X898Y1789D01*
X898Y1787D01*
X896Y1787D01*
X896Y1785D01*
X894Y1785D01*
X894Y1783D01*
X892Y1783D01*
X892Y1781D01*
X890Y1781D01*
X890Y1779D01*
X888Y1779D01*
X888Y1777D01*
X886Y1777D01*
X886Y1775D01*
X884Y1775D01*
X884Y1773D01*
X882Y1773D01*
X882Y1771D01*
X880Y1771D01*
X880Y1769D01*
X878Y1769D01*
X878Y1767D01*
X876Y1767D01*
X876Y1765D01*
X874Y1765D01*
X874Y1761D01*
X872Y1761D01*
X872Y1759D01*
X870Y1759D01*
X870Y1757D01*
X868Y1757D01*
X868Y1755D01*
X866Y1755D01*
X866Y1753D01*
X864Y1753D01*
X864Y1751D01*
X862Y1751D01*
X862Y1749D01*
X860Y1749D01*
X860Y1747D01*
X858Y1747D01*
X858Y1745D01*
X856Y1745D01*
X856Y1743D01*
X854Y1743D01*
X854Y1741D01*
X852Y1741D01*
X852Y1739D01*
X850Y1739D01*
X850Y1737D01*
X848Y1737D01*
X848Y1733D01*
X1024Y1733D01*
X1024Y1735D01*
X1020Y1735D01*
X1020Y1737D01*
X1016Y1737D01*
X1016Y1739D01*
X1014Y1739D01*
X1014Y1741D01*
X1012Y1741D01*
X1012Y1743D01*
X1010Y1743D01*
X1010Y1745D01*
X1008Y1745D01*
X1008Y1749D01*
X1006Y1749D01*
X1006Y1755D01*
X1004Y1755D01*
X1004Y1771D01*
X1006Y1771D01*
X1006Y1775D01*
X1008Y1775D01*
X1008Y1779D01*
X1010Y1779D01*
X1010Y1781D01*
X1012Y1781D01*
X1012Y1783D01*
X1014Y1783D01*
X1014Y1785D01*
X1016Y1785D01*
X1016Y1787D01*
X1018Y1787D01*
X1018Y1795D01*
X1020Y1795D01*
X1020Y1801D01*
X1022Y1801D01*
X1022Y1809D01*
X1024Y1809D01*
X1024Y1817D01*
X1026Y1817D01*
X1026Y1825D01*
X1028Y1825D01*
X1028Y1831D01*
X1030Y1831D01*
X1030Y1839D01*
X1032Y1839D01*
X1032Y1869D01*
X1030Y1869D01*
X1030Y1871D01*
X1010Y1871D01*
G37*
D02*
G36*
X1110Y1871D02*
X1110Y1869D01*
X1108Y1869D01*
X1108Y1867D01*
X1106Y1867D01*
X1106Y1865D01*
X1104Y1865D01*
X1104Y1863D01*
X1102Y1863D01*
X1102Y1861D01*
X1100Y1861D01*
X1100Y1859D01*
X1098Y1859D01*
X1098Y1857D01*
X1094Y1857D01*
X1094Y1855D01*
X1090Y1855D01*
X1090Y1853D01*
X1084Y1853D01*
X1084Y1851D01*
X1080Y1851D01*
X1080Y1849D01*
X1078Y1849D01*
X1078Y1841D01*
X1076Y1841D01*
X1076Y1833D01*
X1074Y1833D01*
X1074Y1825D01*
X1072Y1825D01*
X1072Y1819D01*
X1070Y1819D01*
X1070Y1811D01*
X1068Y1811D01*
X1068Y1803D01*
X1066Y1803D01*
X1066Y1795D01*
X1064Y1795D01*
X1064Y1789D01*
X1062Y1789D01*
X1062Y1751D01*
X1060Y1751D01*
X1060Y1747D01*
X1058Y1747D01*
X1058Y1745D01*
X1056Y1745D01*
X1056Y1743D01*
X1054Y1743D01*
X1054Y1741D01*
X1052Y1741D01*
X1052Y1739D01*
X1050Y1739D01*
X1050Y1737D01*
X1046Y1737D01*
X1046Y1735D01*
X1042Y1735D01*
X1042Y1733D01*
X1176Y1733D01*
X1176Y1737D01*
X1174Y1737D01*
X1174Y1749D01*
X1172Y1749D01*
X1172Y1761D01*
X1170Y1761D01*
X1170Y1773D01*
X1168Y1773D01*
X1168Y1783D01*
X1166Y1783D01*
X1166Y1795D01*
X1164Y1795D01*
X1164Y1807D01*
X1162Y1807D01*
X1162Y1819D01*
X1160Y1819D01*
X1160Y1829D01*
X1158Y1829D01*
X1158Y1841D01*
X1156Y1841D01*
X1156Y1851D01*
X1154Y1851D01*
X1154Y1853D01*
X1148Y1853D01*
X1148Y1855D01*
X1146Y1855D01*
X1146Y1857D01*
X1142Y1857D01*
X1142Y1859D01*
X1140Y1859D01*
X1140Y1861D01*
X1136Y1861D01*
X1136Y1863D01*
X1134Y1863D01*
X1134Y1865D01*
X1132Y1865D01*
X1132Y1869D01*
X1130Y1869D01*
X1130Y1871D01*
X1110Y1871D01*
G37*
D02*
G36*
X1410Y1871D02*
X1410Y1869D01*
X1408Y1869D01*
X1408Y1849D01*
X1462Y1849D01*
X1462Y1851D01*
X1454Y1851D01*
X1454Y1853D01*
X1448Y1853D01*
X1448Y1855D01*
X1446Y1855D01*
X1446Y1857D01*
X1442Y1857D01*
X1442Y1859D01*
X1440Y1859D01*
X1440Y1861D01*
X1436Y1861D01*
X1436Y1863D01*
X1434Y1863D01*
X1434Y1865D01*
X1432Y1865D01*
X1432Y1869D01*
X1430Y1869D01*
X1430Y1871D01*
X1410Y1871D01*
G37*
D02*
G36*
X40Y1869D02*
X40Y1867D01*
X532Y1867D01*
X532Y1869D01*
X40Y1869D01*
G37*
D02*
G36*
X40Y1869D02*
X40Y1867D01*
X532Y1867D01*
X532Y1869D01*
X40Y1869D01*
G37*
D02*
G36*
X40Y1867D02*
X40Y1849D01*
X562Y1849D01*
X562Y1851D01*
X554Y1851D01*
X554Y1853D01*
X548Y1853D01*
X548Y1855D01*
X546Y1855D01*
X546Y1857D01*
X542Y1857D01*
X542Y1859D01*
X540Y1859D01*
X540Y1861D01*
X536Y1861D01*
X536Y1863D01*
X534Y1863D01*
X534Y1865D01*
X532Y1865D01*
X532Y1867D01*
X40Y1867D01*
G37*
D02*
G36*
X594Y1857D02*
X594Y1855D01*
X590Y1855D01*
X590Y1853D01*
X584Y1853D01*
X584Y1851D01*
X576Y1851D01*
X576Y1849D01*
X610Y1849D01*
X610Y1853D01*
X612Y1853D01*
X612Y1855D01*
X614Y1855D01*
X614Y1857D01*
X594Y1857D01*
G37*
D02*
G36*
X40Y1849D02*
X40Y1847D01*
X608Y1847D01*
X608Y1849D01*
X40Y1849D01*
G37*
D02*
G36*
X40Y1849D02*
X40Y1847D01*
X608Y1847D01*
X608Y1849D01*
X40Y1849D01*
G37*
D02*
G36*
X1408Y1849D02*
X1408Y1847D01*
X2006Y1847D01*
X2006Y1849D01*
X1408Y1849D01*
G37*
D02*
G36*
X1408Y1849D02*
X1408Y1847D01*
X2006Y1847D01*
X2006Y1849D01*
X1408Y1849D01*
G37*
D02*
G36*
X40Y1847D02*
X40Y1827D01*
X60Y1827D01*
X60Y1825D01*
X64Y1825D01*
X64Y1823D01*
X68Y1823D01*
X68Y1821D01*
X590Y1821D01*
X590Y1823D01*
X592Y1823D01*
X592Y1827D01*
X594Y1827D01*
X594Y1829D01*
X596Y1829D01*
X596Y1833D01*
X598Y1833D01*
X598Y1835D01*
X600Y1835D01*
X600Y1839D01*
X602Y1839D01*
X602Y1841D01*
X604Y1841D01*
X604Y1845D01*
X606Y1845D01*
X606Y1847D01*
X40Y1847D01*
G37*
D02*
G36*
X1408Y1847D02*
X1408Y1845D01*
X1410Y1845D01*
X1410Y1837D01*
X1412Y1837D01*
X1412Y1833D01*
X1960Y1833D01*
X1960Y1831D01*
X1964Y1831D01*
X1964Y1829D01*
X1968Y1829D01*
X1968Y1827D01*
X1970Y1827D01*
X1970Y1825D01*
X1972Y1825D01*
X1972Y1823D01*
X1974Y1823D01*
X1974Y1819D01*
X1976Y1819D01*
X1976Y1817D01*
X1978Y1817D01*
X1978Y1809D01*
X1980Y1809D01*
X1980Y1799D01*
X1978Y1799D01*
X1978Y1791D01*
X1976Y1791D01*
X1976Y1789D01*
X1974Y1789D01*
X1974Y1785D01*
X1972Y1785D01*
X1972Y1649D01*
X1970Y1649D01*
X1970Y1453D01*
X1968Y1453D01*
X1968Y1449D01*
X1966Y1449D01*
X1966Y1445D01*
X1964Y1445D01*
X1964Y1443D01*
X1962Y1443D01*
X1962Y1441D01*
X1958Y1441D01*
X1958Y1439D01*
X1952Y1439D01*
X1952Y1437D01*
X2006Y1437D01*
X2006Y1847D01*
X1408Y1847D01*
G37*
D02*
G36*
X1412Y1833D02*
X1412Y1831D01*
X1414Y1831D01*
X1414Y1827D01*
X1710Y1827D01*
X1710Y1825D01*
X1730Y1825D01*
X1730Y1827D01*
X1732Y1827D01*
X1732Y1829D01*
X1736Y1829D01*
X1736Y1831D01*
X1740Y1831D01*
X1740Y1833D01*
X1412Y1833D01*
G37*
D02*
G36*
X1760Y1833D02*
X1760Y1831D01*
X1764Y1831D01*
X1764Y1829D01*
X1786Y1829D01*
X1786Y1831D01*
X1790Y1831D01*
X1790Y1833D01*
X1760Y1833D01*
G37*
D02*
G36*
X1810Y1833D02*
X1810Y1831D01*
X1814Y1831D01*
X1814Y1829D01*
X1836Y1829D01*
X1836Y1831D01*
X1840Y1831D01*
X1840Y1833D01*
X1810Y1833D01*
G37*
D02*
G36*
X1860Y1833D02*
X1860Y1831D01*
X1864Y1831D01*
X1864Y1829D01*
X1886Y1829D01*
X1886Y1831D01*
X1890Y1831D01*
X1890Y1833D01*
X1860Y1833D01*
G37*
D02*
G36*
X1910Y1833D02*
X1910Y1831D01*
X1914Y1831D01*
X1914Y1829D01*
X1936Y1829D01*
X1936Y1831D01*
X1940Y1831D01*
X1940Y1833D01*
X1910Y1833D01*
G37*
D02*
G36*
X1414Y1827D02*
X1414Y1825D01*
X1416Y1825D01*
X1416Y1821D01*
X1682Y1821D01*
X1682Y1823D01*
X1686Y1823D01*
X1686Y1825D01*
X1690Y1825D01*
X1690Y1827D01*
X1414Y1827D01*
G37*
D02*
G36*
X70Y1777D02*
X70Y1775D01*
X66Y1775D01*
X66Y1773D01*
X64Y1773D01*
X64Y1771D01*
X58Y1771D01*
X58Y1769D01*
X40Y1769D01*
X40Y1719D01*
X342Y1719D01*
X342Y1721D01*
X336Y1721D01*
X336Y1723D01*
X334Y1723D01*
X334Y1725D01*
X330Y1725D01*
X330Y1727D01*
X328Y1727D01*
X328Y1729D01*
X326Y1729D01*
X326Y1733D01*
X324Y1733D01*
X324Y1737D01*
X322Y1737D01*
X322Y1743D01*
X320Y1743D01*
X320Y1755D01*
X322Y1755D01*
X322Y1777D01*
X70Y1777D01*
G37*
D02*
G36*
X846Y1733D02*
X846Y1731D01*
X1176Y1731D01*
X1176Y1733D01*
X846Y1733D01*
G37*
D02*
G36*
X846Y1733D02*
X846Y1731D01*
X1176Y1731D01*
X1176Y1733D01*
X846Y1733D01*
G37*
D02*
G36*
X844Y1731D02*
X844Y1729D01*
X842Y1729D01*
X842Y1727D01*
X840Y1727D01*
X840Y1725D01*
X838Y1725D01*
X838Y1723D01*
X836Y1723D01*
X836Y1721D01*
X834Y1721D01*
X834Y1719D01*
X832Y1719D01*
X832Y1717D01*
X830Y1717D01*
X830Y1715D01*
X828Y1715D01*
X828Y1713D01*
X826Y1713D01*
X826Y1711D01*
X824Y1711D01*
X824Y1709D01*
X822Y1709D01*
X822Y1705D01*
X820Y1705D01*
X820Y1703D01*
X818Y1703D01*
X818Y1701D01*
X816Y1701D01*
X816Y1699D01*
X814Y1699D01*
X814Y1697D01*
X812Y1697D01*
X812Y1695D01*
X810Y1695D01*
X810Y1693D01*
X808Y1693D01*
X808Y1691D01*
X806Y1691D01*
X806Y1689D01*
X804Y1689D01*
X804Y1687D01*
X802Y1687D01*
X802Y1685D01*
X800Y1685D01*
X800Y1683D01*
X798Y1683D01*
X798Y1679D01*
X796Y1679D01*
X796Y1677D01*
X794Y1677D01*
X794Y1675D01*
X792Y1675D01*
X792Y1673D01*
X790Y1673D01*
X790Y1671D01*
X788Y1671D01*
X788Y1669D01*
X786Y1669D01*
X786Y1667D01*
X784Y1667D01*
X784Y1665D01*
X782Y1665D01*
X782Y1663D01*
X780Y1663D01*
X780Y1661D01*
X778Y1661D01*
X778Y1659D01*
X776Y1659D01*
X776Y1657D01*
X774Y1657D01*
X774Y1655D01*
X772Y1655D01*
X772Y1653D01*
X984Y1653D01*
X984Y1651D01*
X1100Y1651D01*
X1100Y1649D01*
X1104Y1649D01*
X1104Y1647D01*
X1108Y1647D01*
X1108Y1645D01*
X1110Y1645D01*
X1110Y1643D01*
X1112Y1643D01*
X1112Y1641D01*
X1114Y1641D01*
X1114Y1639D01*
X1116Y1639D01*
X1116Y1635D01*
X1118Y1635D01*
X1118Y1633D01*
X1122Y1633D01*
X1122Y1631D01*
X1128Y1631D01*
X1128Y1629D01*
X1132Y1629D01*
X1132Y1627D01*
X1136Y1627D01*
X1136Y1625D01*
X1142Y1625D01*
X1142Y1623D01*
X1146Y1623D01*
X1146Y1621D01*
X1150Y1621D01*
X1150Y1619D01*
X1156Y1619D01*
X1156Y1617D01*
X1160Y1617D01*
X1160Y1615D01*
X1164Y1615D01*
X1164Y1613D01*
X1168Y1613D01*
X1168Y1611D01*
X1188Y1611D01*
X1188Y1629D01*
X1190Y1629D01*
X1190Y1657D01*
X1188Y1657D01*
X1188Y1669D01*
X1186Y1669D01*
X1186Y1681D01*
X1184Y1681D01*
X1184Y1691D01*
X1182Y1691D01*
X1182Y1703D01*
X1180Y1703D01*
X1180Y1715D01*
X1178Y1715D01*
X1178Y1727D01*
X1176Y1727D01*
X1176Y1731D01*
X844Y1731D01*
G37*
D02*
G36*
X370Y1727D02*
X370Y1725D01*
X366Y1725D01*
X366Y1723D01*
X364Y1723D01*
X364Y1721D01*
X358Y1721D01*
X358Y1719D01*
X422Y1719D01*
X422Y1727D01*
X370Y1727D01*
G37*
D02*
G36*
X40Y1719D02*
X40Y1717D01*
X422Y1717D01*
X422Y1719D01*
X40Y1719D01*
G37*
D02*
G36*
X40Y1719D02*
X40Y1717D01*
X422Y1717D01*
X422Y1719D01*
X40Y1719D01*
G37*
D02*
G36*
X40Y1717D02*
X40Y1683D01*
X146Y1683D01*
X146Y1681D01*
X150Y1681D01*
X150Y1679D01*
X154Y1679D01*
X154Y1677D01*
X156Y1677D01*
X156Y1675D01*
X294Y1675D01*
X294Y1673D01*
X422Y1673D01*
X422Y1693D01*
X420Y1693D01*
X420Y1705D01*
X422Y1705D01*
X422Y1717D01*
X40Y1717D01*
G37*
D02*
G36*
X40Y1683D02*
X40Y1625D01*
X126Y1625D01*
X126Y1627D01*
X122Y1627D01*
X122Y1629D01*
X118Y1629D01*
X118Y1631D01*
X116Y1631D01*
X116Y1633D01*
X114Y1633D01*
X114Y1635D01*
X112Y1635D01*
X112Y1639D01*
X110Y1639D01*
X110Y1641D01*
X108Y1641D01*
X108Y1649D01*
X106Y1649D01*
X106Y1659D01*
X108Y1659D01*
X108Y1665D01*
X110Y1665D01*
X110Y1669D01*
X112Y1669D01*
X112Y1673D01*
X114Y1673D01*
X114Y1675D01*
X116Y1675D01*
X116Y1677D01*
X118Y1677D01*
X118Y1679D01*
X122Y1679D01*
X122Y1681D01*
X128Y1681D01*
X128Y1683D01*
X40Y1683D01*
G37*
D02*
G36*
X772Y1653D02*
X772Y1651D01*
X770Y1651D01*
X770Y1649D01*
X768Y1649D01*
X768Y1647D01*
X766Y1647D01*
X766Y1641D01*
X764Y1641D01*
X764Y1635D01*
X762Y1635D01*
X762Y1631D01*
X760Y1631D01*
X760Y1629D01*
X758Y1629D01*
X758Y1625D01*
X756Y1625D01*
X756Y1623D01*
X752Y1623D01*
X752Y1621D01*
X748Y1621D01*
X748Y1619D01*
X744Y1619D01*
X744Y1617D01*
X788Y1617D01*
X788Y1633D01*
X790Y1633D01*
X790Y1637D01*
X792Y1637D01*
X792Y1641D01*
X794Y1641D01*
X794Y1643D01*
X796Y1643D01*
X796Y1645D01*
X798Y1645D01*
X798Y1647D01*
X800Y1647D01*
X800Y1649D01*
X804Y1649D01*
X804Y1651D01*
X810Y1651D01*
X810Y1653D01*
X772Y1653D01*
G37*
D02*
G36*
X824Y1653D02*
X824Y1651D01*
X830Y1651D01*
X830Y1649D01*
X832Y1649D01*
X832Y1647D01*
X836Y1647D01*
X836Y1645D01*
X838Y1645D01*
X838Y1643D01*
X840Y1643D01*
X840Y1641D01*
X842Y1641D01*
X842Y1637D01*
X844Y1637D01*
X844Y1631D01*
X846Y1631D01*
X846Y1623D01*
X848Y1623D01*
X848Y1621D01*
X850Y1621D01*
X850Y1619D01*
X852Y1619D01*
X852Y1617D01*
X854Y1617D01*
X854Y1615D01*
X856Y1615D01*
X856Y1613D01*
X858Y1613D01*
X858Y1611D01*
X860Y1611D01*
X860Y1609D01*
X862Y1609D01*
X862Y1607D01*
X864Y1607D01*
X864Y1605D01*
X866Y1605D01*
X866Y1603D01*
X868Y1603D01*
X868Y1601D01*
X870Y1601D01*
X870Y1599D01*
X872Y1599D01*
X872Y1597D01*
X874Y1597D01*
X874Y1595D01*
X876Y1595D01*
X876Y1593D01*
X878Y1593D01*
X878Y1591D01*
X880Y1591D01*
X880Y1589D01*
X882Y1589D01*
X882Y1587D01*
X884Y1587D01*
X884Y1585D01*
X886Y1585D01*
X886Y1583D01*
X908Y1583D01*
X908Y1585D01*
X910Y1585D01*
X910Y1587D01*
X912Y1587D01*
X912Y1589D01*
X914Y1589D01*
X914Y1591D01*
X916Y1591D01*
X916Y1593D01*
X918Y1593D01*
X918Y1595D01*
X920Y1595D01*
X920Y1597D01*
X922Y1597D01*
X922Y1599D01*
X924Y1599D01*
X924Y1601D01*
X926Y1601D01*
X926Y1603D01*
X928Y1603D01*
X928Y1605D01*
X930Y1605D01*
X930Y1609D01*
X932Y1609D01*
X932Y1611D01*
X934Y1611D01*
X934Y1613D01*
X936Y1613D01*
X936Y1615D01*
X938Y1615D01*
X938Y1617D01*
X940Y1617D01*
X940Y1619D01*
X942Y1619D01*
X942Y1621D01*
X944Y1621D01*
X944Y1623D01*
X946Y1623D01*
X946Y1627D01*
X948Y1627D01*
X948Y1635D01*
X950Y1635D01*
X950Y1639D01*
X952Y1639D01*
X952Y1641D01*
X954Y1641D01*
X954Y1643D01*
X956Y1643D01*
X956Y1645D01*
X958Y1645D01*
X958Y1647D01*
X960Y1647D01*
X960Y1649D01*
X964Y1649D01*
X964Y1651D01*
X970Y1651D01*
X970Y1653D01*
X824Y1653D01*
G37*
D02*
G36*
X990Y1651D02*
X990Y1649D01*
X992Y1649D01*
X992Y1647D01*
X996Y1647D01*
X996Y1645D01*
X998Y1645D01*
X998Y1643D01*
X1000Y1643D01*
X1000Y1639D01*
X1002Y1639D01*
X1002Y1637D01*
X1004Y1637D01*
X1004Y1631D01*
X1006Y1631D01*
X1006Y1619D01*
X1008Y1619D01*
X1008Y1615D01*
X1010Y1615D01*
X1010Y1613D01*
X1012Y1613D01*
X1012Y1609D01*
X1014Y1609D01*
X1014Y1607D01*
X1016Y1607D01*
X1016Y1603D01*
X1018Y1603D01*
X1018Y1601D01*
X1020Y1601D01*
X1020Y1599D01*
X1022Y1599D01*
X1022Y1595D01*
X1024Y1595D01*
X1024Y1593D01*
X1026Y1593D01*
X1026Y1589D01*
X1028Y1589D01*
X1028Y1587D01*
X1030Y1587D01*
X1030Y1583D01*
X1032Y1583D01*
X1032Y1581D01*
X1034Y1581D01*
X1034Y1579D01*
X1036Y1579D01*
X1036Y1575D01*
X1038Y1575D01*
X1038Y1573D01*
X1040Y1573D01*
X1040Y1569D01*
X1042Y1569D01*
X1042Y1567D01*
X1044Y1567D01*
X1044Y1565D01*
X1046Y1565D01*
X1046Y1561D01*
X1048Y1561D01*
X1048Y1559D01*
X1050Y1559D01*
X1050Y1555D01*
X1052Y1555D01*
X1052Y1553D01*
X1054Y1553D01*
X1054Y1549D01*
X1056Y1549D01*
X1056Y1547D01*
X1058Y1547D01*
X1058Y1545D01*
X1060Y1545D01*
X1060Y1541D01*
X1062Y1541D01*
X1062Y1539D01*
X1064Y1539D01*
X1064Y1535D01*
X1066Y1535D01*
X1066Y1533D01*
X1068Y1533D01*
X1068Y1531D01*
X1070Y1531D01*
X1070Y1527D01*
X1072Y1527D01*
X1072Y1525D01*
X1074Y1525D01*
X1074Y1521D01*
X1076Y1521D01*
X1076Y1519D01*
X1078Y1519D01*
X1078Y1515D01*
X1080Y1515D01*
X1080Y1513D01*
X1082Y1513D01*
X1082Y1511D01*
X1084Y1511D01*
X1084Y1507D01*
X1086Y1507D01*
X1086Y1505D01*
X1088Y1505D01*
X1088Y1501D01*
X1090Y1501D01*
X1090Y1499D01*
X1092Y1499D01*
X1092Y1495D01*
X1224Y1495D01*
X1224Y1493D01*
X1230Y1493D01*
X1230Y1491D01*
X1234Y1491D01*
X1234Y1489D01*
X1236Y1489D01*
X1236Y1487D01*
X1348Y1487D01*
X1348Y1485D01*
X1612Y1485D01*
X1612Y1483D01*
X1784Y1483D01*
X1784Y1507D01*
X1782Y1507D01*
X1782Y1519D01*
X1784Y1519D01*
X1784Y1543D01*
X1528Y1543D01*
X1528Y1545D01*
X1212Y1545D01*
X1212Y1547D01*
X1206Y1547D01*
X1206Y1549D01*
X1202Y1549D01*
X1202Y1551D01*
X1196Y1551D01*
X1196Y1553D01*
X1192Y1553D01*
X1192Y1555D01*
X1188Y1555D01*
X1188Y1557D01*
X1182Y1557D01*
X1182Y1559D01*
X1178Y1559D01*
X1178Y1561D01*
X1174Y1561D01*
X1174Y1563D01*
X1170Y1563D01*
X1170Y1565D01*
X1164Y1565D01*
X1164Y1567D01*
X1160Y1567D01*
X1160Y1569D01*
X1156Y1569D01*
X1156Y1571D01*
X1150Y1571D01*
X1150Y1573D01*
X1146Y1573D01*
X1146Y1575D01*
X1142Y1575D01*
X1142Y1577D01*
X1136Y1577D01*
X1136Y1579D01*
X1132Y1579D01*
X1132Y1581D01*
X1128Y1581D01*
X1128Y1583D01*
X1122Y1583D01*
X1122Y1585D01*
X1118Y1585D01*
X1118Y1587D01*
X1114Y1587D01*
X1114Y1589D01*
X1108Y1589D01*
X1108Y1591D01*
X1104Y1591D01*
X1104Y1593D01*
X1080Y1593D01*
X1080Y1595D01*
X1076Y1595D01*
X1076Y1597D01*
X1074Y1597D01*
X1074Y1599D01*
X1070Y1599D01*
X1070Y1601D01*
X1068Y1601D01*
X1068Y1605D01*
X1066Y1605D01*
X1066Y1607D01*
X1064Y1607D01*
X1064Y1611D01*
X1062Y1611D01*
X1062Y1633D01*
X1064Y1633D01*
X1064Y1637D01*
X1066Y1637D01*
X1066Y1639D01*
X1068Y1639D01*
X1068Y1641D01*
X1070Y1641D01*
X1070Y1643D01*
X1072Y1643D01*
X1072Y1645D01*
X1074Y1645D01*
X1074Y1647D01*
X1078Y1647D01*
X1078Y1649D01*
X1082Y1649D01*
X1082Y1651D01*
X990Y1651D01*
G37*
D02*
G36*
X154Y1631D02*
X154Y1629D01*
X150Y1629D01*
X150Y1627D01*
X146Y1627D01*
X146Y1625D01*
X626Y1625D01*
X626Y1627D01*
X458Y1627D01*
X458Y1629D01*
X292Y1629D01*
X292Y1631D01*
X154Y1631D01*
G37*
D02*
G36*
X40Y1625D02*
X40Y1623D01*
X718Y1623D01*
X718Y1625D01*
X40Y1625D01*
G37*
D02*
G36*
X40Y1625D02*
X40Y1623D01*
X718Y1623D01*
X718Y1625D01*
X40Y1625D01*
G37*
D02*
G36*
X40Y1623D02*
X40Y1617D01*
X730Y1617D01*
X730Y1619D01*
X724Y1619D01*
X724Y1621D01*
X720Y1621D01*
X720Y1623D01*
X40Y1623D01*
G37*
D02*
G36*
X40Y1617D02*
X40Y1615D01*
X788Y1615D01*
X788Y1617D01*
X40Y1617D01*
G37*
D02*
G36*
X40Y1617D02*
X40Y1615D01*
X788Y1615D01*
X788Y1617D01*
X40Y1617D01*
G37*
D02*
G36*
X40Y1615D02*
X40Y1569D01*
X102Y1569D01*
X102Y1567D01*
X106Y1567D01*
X106Y1565D01*
X690Y1565D01*
X690Y1563D01*
X700Y1563D01*
X700Y1561D01*
X704Y1561D01*
X704Y1559D01*
X706Y1559D01*
X706Y1557D01*
X710Y1557D01*
X710Y1555D01*
X712Y1555D01*
X712Y1551D01*
X714Y1551D01*
X714Y1549D01*
X716Y1549D01*
X716Y1543D01*
X718Y1543D01*
X718Y1525D01*
X716Y1525D01*
X716Y1521D01*
X714Y1521D01*
X714Y1517D01*
X712Y1517D01*
X712Y1515D01*
X710Y1515D01*
X710Y1513D01*
X708Y1513D01*
X708Y1511D01*
X894Y1511D01*
X894Y1513D01*
X886Y1513D01*
X886Y1515D01*
X882Y1515D01*
X882Y1517D01*
X880Y1517D01*
X880Y1519D01*
X876Y1519D01*
X876Y1521D01*
X874Y1521D01*
X874Y1525D01*
X872Y1525D01*
X872Y1527D01*
X870Y1527D01*
X870Y1533D01*
X868Y1533D01*
X868Y1541D01*
X866Y1541D01*
X866Y1543D01*
X864Y1543D01*
X864Y1545D01*
X862Y1545D01*
X862Y1547D01*
X860Y1547D01*
X860Y1549D01*
X858Y1549D01*
X858Y1551D01*
X856Y1551D01*
X856Y1553D01*
X854Y1553D01*
X854Y1555D01*
X852Y1555D01*
X852Y1557D01*
X850Y1557D01*
X850Y1559D01*
X848Y1559D01*
X848Y1561D01*
X846Y1561D01*
X846Y1563D01*
X844Y1563D01*
X844Y1565D01*
X842Y1565D01*
X842Y1567D01*
X840Y1567D01*
X840Y1569D01*
X838Y1569D01*
X838Y1571D01*
X836Y1571D01*
X836Y1573D01*
X834Y1573D01*
X834Y1575D01*
X832Y1575D01*
X832Y1577D01*
X830Y1577D01*
X830Y1579D01*
X828Y1579D01*
X828Y1581D01*
X826Y1581D01*
X826Y1583D01*
X824Y1583D01*
X824Y1585D01*
X822Y1585D01*
X822Y1587D01*
X820Y1587D01*
X820Y1589D01*
X818Y1589D01*
X818Y1591D01*
X816Y1591D01*
X816Y1593D01*
X814Y1593D01*
X814Y1595D01*
X806Y1595D01*
X806Y1597D01*
X802Y1597D01*
X802Y1599D01*
X798Y1599D01*
X798Y1601D01*
X796Y1601D01*
X796Y1603D01*
X794Y1603D01*
X794Y1605D01*
X792Y1605D01*
X792Y1609D01*
X790Y1609D01*
X790Y1613D01*
X788Y1613D01*
X788Y1615D01*
X40Y1615D01*
G37*
D02*
G36*
X962Y1577D02*
X962Y1575D01*
X960Y1575D01*
X960Y1573D01*
X958Y1573D01*
X958Y1571D01*
X956Y1571D01*
X956Y1569D01*
X954Y1569D01*
X954Y1567D01*
X952Y1567D01*
X952Y1565D01*
X950Y1565D01*
X950Y1563D01*
X948Y1563D01*
X948Y1561D01*
X946Y1561D01*
X946Y1559D01*
X944Y1559D01*
X944Y1557D01*
X942Y1557D01*
X942Y1555D01*
X940Y1555D01*
X940Y1553D01*
X938Y1553D01*
X938Y1551D01*
X936Y1551D01*
X936Y1549D01*
X934Y1549D01*
X934Y1547D01*
X932Y1547D01*
X932Y1545D01*
X930Y1545D01*
X930Y1543D01*
X928Y1543D01*
X928Y1541D01*
X926Y1541D01*
X926Y1531D01*
X924Y1531D01*
X924Y1527D01*
X922Y1527D01*
X922Y1523D01*
X920Y1523D01*
X920Y1521D01*
X918Y1521D01*
X918Y1519D01*
X916Y1519D01*
X916Y1517D01*
X912Y1517D01*
X912Y1515D01*
X908Y1515D01*
X908Y1513D01*
X900Y1513D01*
X900Y1511D01*
X1028Y1511D01*
X1028Y1513D01*
X1026Y1513D01*
X1026Y1517D01*
X1024Y1517D01*
X1024Y1519D01*
X1022Y1519D01*
X1022Y1521D01*
X1020Y1521D01*
X1020Y1525D01*
X1018Y1525D01*
X1018Y1527D01*
X1016Y1527D01*
X1016Y1531D01*
X1014Y1531D01*
X1014Y1533D01*
X1012Y1533D01*
X1012Y1535D01*
X1010Y1535D01*
X1010Y1539D01*
X1008Y1539D01*
X1008Y1541D01*
X1006Y1541D01*
X1006Y1545D01*
X1004Y1545D01*
X1004Y1547D01*
X1002Y1547D01*
X1002Y1551D01*
X1000Y1551D01*
X1000Y1553D01*
X998Y1553D01*
X998Y1555D01*
X996Y1555D01*
X996Y1559D01*
X994Y1559D01*
X994Y1561D01*
X992Y1561D01*
X992Y1565D01*
X990Y1565D01*
X990Y1567D01*
X988Y1567D01*
X988Y1571D01*
X986Y1571D01*
X986Y1573D01*
X984Y1573D01*
X984Y1575D01*
X982Y1575D01*
X982Y1577D01*
X962Y1577D01*
G37*
D02*
G36*
X40Y1569D02*
X40Y1511D01*
X82Y1511D01*
X82Y1513D01*
X78Y1513D01*
X78Y1515D01*
X74Y1515D01*
X74Y1517D01*
X72Y1517D01*
X72Y1519D01*
X70Y1519D01*
X70Y1521D01*
X68Y1521D01*
X68Y1523D01*
X66Y1523D01*
X66Y1527D01*
X64Y1527D01*
X64Y1533D01*
X62Y1533D01*
X62Y1547D01*
X64Y1547D01*
X64Y1553D01*
X66Y1553D01*
X66Y1557D01*
X68Y1557D01*
X68Y1559D01*
X70Y1559D01*
X70Y1561D01*
X72Y1561D01*
X72Y1563D01*
X74Y1563D01*
X74Y1565D01*
X78Y1565D01*
X78Y1567D01*
X82Y1567D01*
X82Y1569D01*
X40Y1569D01*
G37*
D02*
G36*
X108Y1565D02*
X108Y1563D01*
X112Y1563D01*
X112Y1561D01*
X308Y1561D01*
X308Y1559D01*
X522Y1559D01*
X522Y1557D01*
X672Y1557D01*
X672Y1559D01*
X674Y1559D01*
X674Y1561D01*
X678Y1561D01*
X678Y1563D01*
X688Y1563D01*
X688Y1565D01*
X108Y1565D01*
G37*
D02*
G36*
X108Y1517D02*
X108Y1515D01*
X106Y1515D01*
X106Y1513D01*
X102Y1513D01*
X102Y1511D01*
X670Y1511D01*
X670Y1513D01*
X522Y1513D01*
X522Y1515D01*
X306Y1515D01*
X306Y1517D01*
X108Y1517D01*
G37*
D02*
G36*
X40Y1511D02*
X40Y1509D01*
X672Y1509D01*
X672Y1511D01*
X40Y1511D01*
G37*
D02*
G36*
X40Y1511D02*
X40Y1509D01*
X672Y1509D01*
X672Y1511D01*
X40Y1511D01*
G37*
D02*
G36*
X706Y1511D02*
X706Y1509D01*
X1030Y1509D01*
X1030Y1511D01*
X706Y1511D01*
G37*
D02*
G36*
X706Y1511D02*
X706Y1509D01*
X1030Y1509D01*
X1030Y1511D01*
X706Y1511D01*
G37*
D02*
G36*
X40Y1509D02*
X40Y1505D01*
X682Y1505D01*
X682Y1507D01*
X676Y1507D01*
X676Y1509D01*
X40Y1509D01*
G37*
D02*
G36*
X702Y1509D02*
X702Y1507D01*
X696Y1507D01*
X696Y1505D01*
X1032Y1505D01*
X1032Y1507D01*
X1030Y1507D01*
X1030Y1509D01*
X702Y1509D01*
G37*
D02*
G36*
X40Y1505D02*
X40Y1503D01*
X1034Y1503D01*
X1034Y1505D01*
X40Y1505D01*
G37*
D02*
G36*
X40Y1505D02*
X40Y1503D01*
X1034Y1503D01*
X1034Y1505D01*
X40Y1505D01*
G37*
D02*
G36*
X40Y1503D02*
X40Y1495D01*
X978Y1495D01*
X978Y1493D01*
X986Y1493D01*
X986Y1491D01*
X990Y1491D01*
X990Y1489D01*
X994Y1489D01*
X994Y1487D01*
X996Y1487D01*
X996Y1485D01*
X998Y1485D01*
X998Y1481D01*
X1000Y1481D01*
X1000Y1479D01*
X1002Y1479D01*
X1002Y1475D01*
X1004Y1475D01*
X1004Y1455D01*
X1002Y1455D01*
X1002Y1451D01*
X1000Y1451D01*
X1000Y1447D01*
X998Y1447D01*
X998Y1445D01*
X996Y1445D01*
X996Y1443D01*
X994Y1443D01*
X994Y1441D01*
X992Y1441D01*
X992Y1439D01*
X988Y1439D01*
X988Y1437D01*
X982Y1437D01*
X982Y1435D01*
X1082Y1435D01*
X1082Y1437D01*
X1076Y1437D01*
X1076Y1439D01*
X1072Y1439D01*
X1072Y1441D01*
X1070Y1441D01*
X1070Y1443D01*
X1066Y1443D01*
X1066Y1447D01*
X1064Y1447D01*
X1064Y1449D01*
X1062Y1449D01*
X1062Y1453D01*
X1060Y1453D01*
X1060Y1459D01*
X1058Y1459D01*
X1058Y1471D01*
X1056Y1471D01*
X1056Y1473D01*
X1054Y1473D01*
X1054Y1477D01*
X1052Y1477D01*
X1052Y1479D01*
X1050Y1479D01*
X1050Y1483D01*
X1048Y1483D01*
X1048Y1485D01*
X1046Y1485D01*
X1046Y1487D01*
X1044Y1487D01*
X1044Y1491D01*
X1042Y1491D01*
X1042Y1493D01*
X1040Y1493D01*
X1040Y1497D01*
X1038Y1497D01*
X1038Y1499D01*
X1036Y1499D01*
X1036Y1501D01*
X1034Y1501D01*
X1034Y1503D01*
X40Y1503D01*
G37*
D02*
G36*
X40Y1495D02*
X40Y1435D01*
X806Y1435D01*
X806Y1437D01*
X802Y1437D01*
X802Y1439D01*
X798Y1439D01*
X798Y1441D01*
X796Y1441D01*
X796Y1443D01*
X792Y1443D01*
X792Y1447D01*
X790Y1447D01*
X790Y1449D01*
X788Y1449D01*
X788Y1453D01*
X786Y1453D01*
X786Y1459D01*
X784Y1459D01*
X784Y1471D01*
X786Y1471D01*
X786Y1477D01*
X788Y1477D01*
X788Y1481D01*
X790Y1481D01*
X790Y1483D01*
X792Y1483D01*
X792Y1485D01*
X794Y1485D01*
X794Y1487D01*
X796Y1487D01*
X796Y1489D01*
X798Y1489D01*
X798Y1491D01*
X802Y1491D01*
X802Y1493D01*
X810Y1493D01*
X810Y1495D01*
X40Y1495D01*
G37*
D02*
G36*
X818Y1495D02*
X818Y1493D01*
X826Y1493D01*
X826Y1491D01*
X830Y1491D01*
X830Y1489D01*
X832Y1489D01*
X832Y1487D01*
X834Y1487D01*
X834Y1485D01*
X836Y1485D01*
X836Y1483D01*
X838Y1483D01*
X838Y1481D01*
X840Y1481D01*
X840Y1477D01*
X842Y1477D01*
X842Y1469D01*
X844Y1469D01*
X844Y1459D01*
X842Y1459D01*
X842Y1453D01*
X840Y1453D01*
X840Y1449D01*
X838Y1449D01*
X838Y1447D01*
X836Y1447D01*
X836Y1443D01*
X832Y1443D01*
X832Y1441D01*
X830Y1441D01*
X830Y1439D01*
X826Y1439D01*
X826Y1437D01*
X820Y1437D01*
X820Y1435D01*
X968Y1435D01*
X968Y1437D01*
X962Y1437D01*
X962Y1439D01*
X958Y1439D01*
X958Y1441D01*
X956Y1441D01*
X956Y1443D01*
X954Y1443D01*
X954Y1445D01*
X952Y1445D01*
X952Y1447D01*
X950Y1447D01*
X950Y1451D01*
X948Y1451D01*
X948Y1455D01*
X946Y1455D01*
X946Y1475D01*
X948Y1475D01*
X948Y1479D01*
X950Y1479D01*
X950Y1481D01*
X952Y1481D01*
X952Y1485D01*
X954Y1485D01*
X954Y1487D01*
X956Y1487D01*
X956Y1489D01*
X960Y1489D01*
X960Y1491D01*
X964Y1491D01*
X964Y1493D01*
X972Y1493D01*
X972Y1495D01*
X818Y1495D01*
G37*
D02*
G36*
X1094Y1495D02*
X1094Y1493D01*
X1100Y1493D01*
X1100Y1491D01*
X1104Y1491D01*
X1104Y1489D01*
X1106Y1489D01*
X1106Y1487D01*
X1200Y1487D01*
X1200Y1489D01*
X1202Y1489D01*
X1202Y1491D01*
X1206Y1491D01*
X1206Y1493D01*
X1212Y1493D01*
X1212Y1495D01*
X1094Y1495D01*
G37*
D02*
G36*
X1106Y1443D02*
X1106Y1441D01*
X1104Y1441D01*
X1104Y1439D01*
X1100Y1439D01*
X1100Y1437D01*
X1094Y1437D01*
X1094Y1435D01*
X1212Y1435D01*
X1212Y1437D01*
X1206Y1437D01*
X1206Y1439D01*
X1202Y1439D01*
X1202Y1441D01*
X1200Y1441D01*
X1200Y1443D01*
X1106Y1443D01*
G37*
D02*
G36*
X1236Y1443D02*
X1236Y1441D01*
X1234Y1441D01*
X1234Y1439D01*
X1230Y1439D01*
X1230Y1437D01*
X1874Y1437D01*
X1874Y1439D01*
X1612Y1439D01*
X1612Y1441D01*
X1350Y1441D01*
X1350Y1443D01*
X1236Y1443D01*
G37*
D02*
G36*
X1224Y1437D02*
X1224Y1435D01*
X2006Y1435D01*
X2006Y1437D01*
X1224Y1437D01*
G37*
D02*
G36*
X1224Y1437D02*
X1224Y1435D01*
X2006Y1435D01*
X2006Y1437D01*
X1224Y1437D01*
G37*
D02*
G36*
X40Y1435D02*
X40Y1433D01*
X2006Y1433D01*
X2006Y1435D01*
X40Y1435D01*
G37*
D02*
G36*
X40Y1435D02*
X40Y1433D01*
X2006Y1433D01*
X2006Y1435D01*
X40Y1435D01*
G37*
D02*
G36*
X40Y1435D02*
X40Y1433D01*
X2006Y1433D01*
X2006Y1435D01*
X40Y1435D01*
G37*
D02*
G36*
X40Y1435D02*
X40Y1433D01*
X2006Y1433D01*
X2006Y1435D01*
X40Y1435D01*
G37*
D02*
G36*
X40Y1435D02*
X40Y1433D01*
X2006Y1433D01*
X2006Y1435D01*
X40Y1435D01*
G37*
D02*
G36*
X40Y1433D02*
X40Y1409D01*
X1962Y1409D01*
X1962Y1311D01*
X2006Y1311D01*
X2006Y1433D01*
X40Y1433D01*
G37*
D02*
G36*
X40Y1409D02*
X40Y1381D01*
X192Y1381D01*
X192Y1379D01*
X198Y1379D01*
X198Y1377D01*
X200Y1377D01*
X200Y1375D01*
X542Y1375D01*
X542Y1377D01*
X908Y1377D01*
X908Y1379D01*
X1274Y1379D01*
X1274Y1381D01*
X1478Y1381D01*
X1478Y1409D01*
X40Y1409D01*
G37*
D02*
G36*
X1634Y1409D02*
X1634Y1311D01*
X1804Y1311D01*
X1804Y1409D01*
X1634Y1409D01*
G37*
D02*
G36*
X40Y1381D02*
X40Y1323D01*
X174Y1323D01*
X174Y1325D01*
X170Y1325D01*
X170Y1327D01*
X166Y1327D01*
X166Y1329D01*
X164Y1329D01*
X164Y1331D01*
X162Y1331D01*
X162Y1333D01*
X160Y1333D01*
X160Y1335D01*
X158Y1335D01*
X158Y1339D01*
X156Y1339D01*
X156Y1343D01*
X154Y1343D01*
X154Y1361D01*
X156Y1361D01*
X156Y1365D01*
X158Y1365D01*
X158Y1369D01*
X160Y1369D01*
X160Y1371D01*
X162Y1371D01*
X162Y1373D01*
X164Y1373D01*
X164Y1375D01*
X166Y1375D01*
X166Y1377D01*
X170Y1377D01*
X170Y1379D01*
X174Y1379D01*
X174Y1381D01*
X40Y1381D01*
G37*
D02*
G36*
X1276Y1337D02*
X1276Y1335D01*
X910Y1335D01*
X910Y1333D01*
X546Y1333D01*
X546Y1331D01*
X204Y1331D01*
X204Y1329D01*
X200Y1329D01*
X200Y1327D01*
X198Y1327D01*
X198Y1325D01*
X192Y1325D01*
X192Y1323D01*
X1478Y1323D01*
X1478Y1337D01*
X1276Y1337D01*
G37*
D02*
G36*
X40Y1323D02*
X40Y1321D01*
X1478Y1321D01*
X1478Y1323D01*
X40Y1323D01*
G37*
D02*
G36*
X40Y1323D02*
X40Y1321D01*
X1478Y1321D01*
X1478Y1323D01*
X40Y1323D01*
G37*
D02*
G36*
X40Y1321D02*
X40Y1293D01*
X1040Y1293D01*
X1040Y1291D01*
X1046Y1291D01*
X1046Y1289D01*
X1050Y1289D01*
X1050Y1287D01*
X1054Y1287D01*
X1054Y1285D01*
X1056Y1285D01*
X1056Y1283D01*
X1058Y1283D01*
X1058Y1281D01*
X1062Y1281D01*
X1062Y1277D01*
X1064Y1277D01*
X1064Y1275D01*
X1066Y1275D01*
X1066Y1273D01*
X1068Y1273D01*
X1068Y1269D01*
X1070Y1269D01*
X1070Y1265D01*
X1072Y1265D01*
X1072Y1259D01*
X1074Y1259D01*
X1074Y1249D01*
X1076Y1249D01*
X1076Y1245D01*
X1560Y1245D01*
X1560Y1247D01*
X1554Y1247D01*
X1554Y1249D01*
X1552Y1249D01*
X1552Y1251D01*
X1548Y1251D01*
X1548Y1253D01*
X1546Y1253D01*
X1546Y1255D01*
X1544Y1255D01*
X1544Y1259D01*
X1542Y1259D01*
X1542Y1265D01*
X1540Y1265D01*
X1540Y1277D01*
X1542Y1277D01*
X1542Y1283D01*
X1544Y1283D01*
X1544Y1285D01*
X1546Y1285D01*
X1546Y1289D01*
X1548Y1289D01*
X1548Y1291D01*
X1552Y1291D01*
X1552Y1311D01*
X1478Y1311D01*
X1478Y1321D01*
X40Y1321D01*
G37*
D02*
G36*
X1580Y1311D02*
X1580Y1309D01*
X2006Y1309D01*
X2006Y1311D01*
X1580Y1311D01*
G37*
D02*
G36*
X1580Y1311D02*
X1580Y1309D01*
X2006Y1309D01*
X2006Y1311D01*
X1580Y1311D01*
G37*
D02*
G36*
X1580Y1309D02*
X1580Y1291D01*
X1582Y1291D01*
X1582Y1289D01*
X1584Y1289D01*
X1584Y1287D01*
X1586Y1287D01*
X1586Y1285D01*
X1588Y1285D01*
X1588Y1281D01*
X1590Y1281D01*
X1590Y1275D01*
X1592Y1275D01*
X1592Y1267D01*
X1590Y1267D01*
X1590Y1261D01*
X1588Y1261D01*
X1588Y1257D01*
X1586Y1257D01*
X1586Y1255D01*
X1584Y1255D01*
X1584Y1251D01*
X1580Y1251D01*
X1580Y1249D01*
X1576Y1249D01*
X1576Y1247D01*
X1572Y1247D01*
X1572Y1245D01*
X2006Y1245D01*
X2006Y1309D01*
X1580Y1309D01*
G37*
D02*
G36*
X40Y1293D02*
X40Y1199D01*
X1018Y1199D01*
X1018Y1201D01*
X1012Y1201D01*
X1012Y1203D01*
X1008Y1203D01*
X1008Y1205D01*
X1004Y1205D01*
X1004Y1207D01*
X1000Y1207D01*
X1000Y1209D01*
X998Y1209D01*
X998Y1211D01*
X996Y1211D01*
X996Y1213D01*
X994Y1213D01*
X994Y1215D01*
X992Y1215D01*
X992Y1217D01*
X990Y1217D01*
X990Y1219D01*
X988Y1219D01*
X988Y1223D01*
X986Y1223D01*
X986Y1227D01*
X984Y1227D01*
X984Y1231D01*
X982Y1231D01*
X982Y1239D01*
X980Y1239D01*
X980Y1253D01*
X982Y1253D01*
X982Y1261D01*
X984Y1261D01*
X984Y1267D01*
X986Y1267D01*
X986Y1271D01*
X988Y1271D01*
X988Y1273D01*
X990Y1273D01*
X990Y1277D01*
X992Y1277D01*
X992Y1279D01*
X994Y1279D01*
X994Y1281D01*
X996Y1281D01*
X996Y1283D01*
X1000Y1283D01*
X1000Y1285D01*
X1002Y1285D01*
X1002Y1287D01*
X1006Y1287D01*
X1006Y1289D01*
X1010Y1289D01*
X1010Y1291D01*
X1016Y1291D01*
X1016Y1293D01*
X40Y1293D01*
G37*
D02*
G36*
X1076Y1245D02*
X1076Y1243D01*
X2006Y1243D01*
X2006Y1245D01*
X1076Y1245D01*
G37*
D02*
G36*
X1076Y1245D02*
X1076Y1243D01*
X2006Y1243D01*
X2006Y1245D01*
X1076Y1245D01*
G37*
D02*
G36*
X1074Y1243D02*
X1074Y1233D01*
X1072Y1233D01*
X1072Y1227D01*
X1070Y1227D01*
X1070Y1223D01*
X1068Y1223D01*
X1068Y1221D01*
X1066Y1221D01*
X1066Y1217D01*
X1064Y1217D01*
X1064Y1215D01*
X1062Y1215D01*
X1062Y1213D01*
X1060Y1213D01*
X1060Y1211D01*
X1058Y1211D01*
X1058Y1209D01*
X1056Y1209D01*
X1056Y1207D01*
X1052Y1207D01*
X1052Y1205D01*
X1048Y1205D01*
X1048Y1203D01*
X1044Y1203D01*
X1044Y1201D01*
X1036Y1201D01*
X1036Y1199D01*
X2006Y1199D01*
X2006Y1243D01*
X1074Y1243D01*
G37*
D02*
G36*
X40Y1199D02*
X40Y1197D01*
X2006Y1197D01*
X2006Y1199D01*
X40Y1199D01*
G37*
D02*
G36*
X40Y1199D02*
X40Y1197D01*
X2006Y1197D01*
X2006Y1199D01*
X40Y1199D01*
G37*
D02*
G36*
X40Y1197D02*
X40Y633D01*
X260Y633D01*
X260Y631D01*
X264Y631D01*
X264Y629D01*
X268Y629D01*
X268Y627D01*
X270Y627D01*
X270Y625D01*
X272Y625D01*
X272Y623D01*
X274Y623D01*
X274Y619D01*
X276Y619D01*
X276Y617D01*
X280Y617D01*
X280Y615D01*
X286Y615D01*
X286Y613D01*
X290Y613D01*
X290Y611D01*
X296Y611D01*
X296Y609D01*
X302Y609D01*
X302Y607D01*
X306Y607D01*
X306Y605D01*
X312Y605D01*
X312Y603D01*
X318Y603D01*
X318Y601D01*
X322Y601D01*
X322Y599D01*
X328Y599D01*
X328Y597D01*
X334Y597D01*
X334Y595D01*
X338Y595D01*
X338Y593D01*
X344Y593D01*
X344Y591D01*
X350Y591D01*
X350Y589D01*
X354Y589D01*
X354Y587D01*
X360Y587D01*
X360Y585D01*
X366Y585D01*
X366Y583D01*
X370Y583D01*
X370Y581D01*
X376Y581D01*
X376Y579D01*
X382Y579D01*
X382Y577D01*
X386Y577D01*
X386Y575D01*
X392Y575D01*
X392Y573D01*
X396Y573D01*
X396Y571D01*
X402Y571D01*
X402Y569D01*
X408Y569D01*
X408Y567D01*
X412Y567D01*
X412Y565D01*
X418Y565D01*
X418Y563D01*
X424Y563D01*
X424Y561D01*
X428Y561D01*
X428Y559D01*
X434Y559D01*
X434Y557D01*
X440Y557D01*
X440Y555D01*
X444Y555D01*
X444Y553D01*
X450Y553D01*
X450Y551D01*
X456Y551D01*
X456Y549D01*
X460Y549D01*
X460Y547D01*
X466Y547D01*
X466Y545D01*
X472Y545D01*
X472Y543D01*
X476Y543D01*
X476Y541D01*
X482Y541D01*
X482Y539D01*
X488Y539D01*
X488Y537D01*
X492Y537D01*
X492Y535D01*
X498Y535D01*
X498Y533D01*
X502Y533D01*
X502Y531D01*
X508Y531D01*
X508Y529D01*
X514Y529D01*
X514Y527D01*
X518Y527D01*
X518Y525D01*
X524Y525D01*
X524Y523D01*
X530Y523D01*
X530Y521D01*
X534Y521D01*
X534Y519D01*
X540Y519D01*
X540Y517D01*
X546Y517D01*
X546Y515D01*
X550Y515D01*
X550Y513D01*
X556Y513D01*
X556Y511D01*
X562Y511D01*
X562Y509D01*
X566Y509D01*
X566Y507D01*
X572Y507D01*
X572Y505D01*
X578Y505D01*
X578Y503D01*
X582Y503D01*
X582Y501D01*
X588Y501D01*
X588Y499D01*
X594Y499D01*
X594Y497D01*
X598Y497D01*
X598Y495D01*
X604Y495D01*
X604Y493D01*
X608Y493D01*
X608Y491D01*
X614Y491D01*
X614Y489D01*
X1032Y489D01*
X1032Y487D01*
X1042Y487D01*
X1042Y485D01*
X1048Y485D01*
X1048Y483D01*
X1050Y483D01*
X1050Y481D01*
X1054Y481D01*
X1054Y479D01*
X1056Y479D01*
X1056Y477D01*
X1060Y477D01*
X1060Y475D01*
X1062Y475D01*
X1062Y473D01*
X1064Y473D01*
X1064Y469D01*
X1476Y469D01*
X1476Y467D01*
X1482Y467D01*
X1482Y465D01*
X1484Y465D01*
X1484Y463D01*
X1488Y463D01*
X1488Y461D01*
X1490Y461D01*
X1490Y457D01*
X1492Y457D01*
X1492Y455D01*
X1494Y455D01*
X1494Y451D01*
X1496Y451D01*
X1496Y443D01*
X1498Y443D01*
X1498Y437D01*
X1496Y437D01*
X1496Y429D01*
X1494Y429D01*
X1494Y425D01*
X1492Y425D01*
X1492Y423D01*
X1490Y423D01*
X1490Y419D01*
X1488Y419D01*
X1488Y401D01*
X1886Y401D01*
X1886Y399D01*
X1898Y399D01*
X1898Y397D01*
X1906Y397D01*
X1906Y395D01*
X1912Y395D01*
X1912Y393D01*
X1918Y393D01*
X1918Y391D01*
X1922Y391D01*
X1922Y389D01*
X1926Y389D01*
X1926Y387D01*
X1930Y387D01*
X1930Y385D01*
X1932Y385D01*
X1932Y383D01*
X1936Y383D01*
X1936Y381D01*
X1938Y381D01*
X1938Y379D01*
X1942Y379D01*
X1942Y377D01*
X1944Y377D01*
X1944Y375D01*
X1946Y375D01*
X1946Y373D01*
X1948Y373D01*
X1948Y371D01*
X1950Y371D01*
X1950Y369D01*
X1952Y369D01*
X1952Y367D01*
X1954Y367D01*
X1954Y365D01*
X1956Y365D01*
X1956Y363D01*
X1958Y363D01*
X1958Y361D01*
X1960Y361D01*
X1960Y359D01*
X1962Y359D01*
X1962Y355D01*
X1964Y355D01*
X1964Y353D01*
X1966Y353D01*
X1966Y349D01*
X1968Y349D01*
X1968Y347D01*
X1970Y347D01*
X1970Y343D01*
X1972Y343D01*
X1972Y339D01*
X1974Y339D01*
X1974Y335D01*
X1976Y335D01*
X1976Y329D01*
X1978Y329D01*
X1978Y323D01*
X1980Y323D01*
X1980Y315D01*
X1982Y315D01*
X1982Y301D01*
X1984Y301D01*
X1984Y283D01*
X1982Y283D01*
X1982Y269D01*
X1980Y269D01*
X1980Y261D01*
X1978Y261D01*
X1978Y255D01*
X1976Y255D01*
X1976Y249D01*
X1974Y249D01*
X1974Y245D01*
X1972Y245D01*
X1972Y241D01*
X1970Y241D01*
X1970Y239D01*
X1968Y239D01*
X1968Y235D01*
X1966Y235D01*
X1966Y217D01*
X2006Y217D01*
X2006Y1197D01*
X40Y1197D01*
G37*
D02*
G36*
X40Y633D02*
X40Y437D01*
X298Y437D01*
X298Y435D01*
X308Y435D01*
X308Y433D01*
X312Y433D01*
X312Y431D01*
X314Y431D01*
X314Y429D01*
X318Y429D01*
X318Y425D01*
X320Y425D01*
X320Y423D01*
X322Y423D01*
X322Y421D01*
X324Y421D01*
X324Y415D01*
X326Y415D01*
X326Y401D01*
X580Y401D01*
X580Y399D01*
X596Y399D01*
X596Y397D01*
X604Y397D01*
X604Y395D01*
X610Y395D01*
X610Y393D01*
X616Y393D01*
X616Y391D01*
X620Y391D01*
X620Y389D01*
X624Y389D01*
X624Y387D01*
X628Y387D01*
X628Y385D01*
X630Y385D01*
X630Y383D01*
X634Y383D01*
X634Y381D01*
X636Y381D01*
X636Y379D01*
X640Y379D01*
X640Y377D01*
X642Y377D01*
X642Y375D01*
X644Y375D01*
X644Y373D01*
X646Y373D01*
X646Y371D01*
X650Y371D01*
X650Y369D01*
X652Y369D01*
X652Y367D01*
X672Y367D01*
X672Y369D01*
X670Y369D01*
X670Y371D01*
X668Y371D01*
X668Y375D01*
X666Y375D01*
X666Y385D01*
X664Y385D01*
X664Y389D01*
X666Y389D01*
X666Y397D01*
X668Y397D01*
X668Y401D01*
X670Y401D01*
X670Y423D01*
X664Y423D01*
X664Y425D01*
X660Y425D01*
X660Y427D01*
X654Y427D01*
X654Y429D01*
X648Y429D01*
X648Y431D01*
X644Y431D01*
X644Y433D01*
X638Y433D01*
X638Y435D01*
X632Y435D01*
X632Y437D01*
X628Y437D01*
X628Y439D01*
X622Y439D01*
X622Y441D01*
X616Y441D01*
X616Y443D01*
X612Y443D01*
X612Y445D01*
X606Y445D01*
X606Y447D01*
X600Y447D01*
X600Y449D01*
X596Y449D01*
X596Y451D01*
X590Y451D01*
X590Y453D01*
X584Y453D01*
X584Y455D01*
X580Y455D01*
X580Y457D01*
X574Y457D01*
X574Y459D01*
X570Y459D01*
X570Y461D01*
X564Y461D01*
X564Y463D01*
X558Y463D01*
X558Y465D01*
X554Y465D01*
X554Y467D01*
X548Y467D01*
X548Y469D01*
X542Y469D01*
X542Y471D01*
X538Y471D01*
X538Y473D01*
X532Y473D01*
X532Y475D01*
X526Y475D01*
X526Y477D01*
X522Y477D01*
X522Y479D01*
X516Y479D01*
X516Y481D01*
X510Y481D01*
X510Y483D01*
X506Y483D01*
X506Y485D01*
X500Y485D01*
X500Y487D01*
X494Y487D01*
X494Y489D01*
X490Y489D01*
X490Y491D01*
X484Y491D01*
X484Y493D01*
X478Y493D01*
X478Y495D01*
X474Y495D01*
X474Y497D01*
X468Y497D01*
X468Y499D01*
X464Y499D01*
X464Y501D01*
X458Y501D01*
X458Y503D01*
X452Y503D01*
X452Y505D01*
X448Y505D01*
X448Y507D01*
X442Y507D01*
X442Y509D01*
X436Y509D01*
X436Y511D01*
X432Y511D01*
X432Y513D01*
X426Y513D01*
X426Y515D01*
X420Y515D01*
X420Y517D01*
X416Y517D01*
X416Y519D01*
X410Y519D01*
X410Y521D01*
X404Y521D01*
X404Y523D01*
X400Y523D01*
X400Y525D01*
X394Y525D01*
X394Y527D01*
X388Y527D01*
X388Y529D01*
X384Y529D01*
X384Y531D01*
X378Y531D01*
X378Y533D01*
X372Y533D01*
X372Y535D01*
X368Y535D01*
X368Y537D01*
X362Y537D01*
X362Y539D01*
X356Y539D01*
X356Y541D01*
X352Y541D01*
X352Y543D01*
X346Y543D01*
X346Y545D01*
X342Y545D01*
X342Y547D01*
X336Y547D01*
X336Y549D01*
X330Y549D01*
X330Y551D01*
X326Y551D01*
X326Y553D01*
X320Y553D01*
X320Y555D01*
X314Y555D01*
X314Y557D01*
X310Y557D01*
X310Y559D01*
X304Y559D01*
X304Y561D01*
X298Y561D01*
X298Y563D01*
X294Y563D01*
X294Y565D01*
X288Y565D01*
X288Y567D01*
X282Y567D01*
X282Y569D01*
X278Y569D01*
X278Y571D01*
X272Y571D01*
X272Y573D01*
X266Y573D01*
X266Y575D01*
X240Y575D01*
X240Y577D01*
X236Y577D01*
X236Y579D01*
X232Y579D01*
X232Y581D01*
X230Y581D01*
X230Y583D01*
X228Y583D01*
X228Y585D01*
X226Y585D01*
X226Y589D01*
X224Y589D01*
X224Y591D01*
X222Y591D01*
X222Y599D01*
X220Y599D01*
X220Y609D01*
X222Y609D01*
X222Y617D01*
X224Y617D01*
X224Y619D01*
X226Y619D01*
X226Y623D01*
X228Y623D01*
X228Y625D01*
X230Y625D01*
X230Y627D01*
X232Y627D01*
X232Y629D01*
X236Y629D01*
X236Y631D01*
X240Y631D01*
X240Y633D01*
X40Y633D01*
G37*
D02*
G36*
X620Y489D02*
X620Y487D01*
X624Y487D01*
X624Y485D01*
X630Y485D01*
X630Y483D01*
X636Y483D01*
X636Y481D01*
X640Y481D01*
X640Y479D01*
X646Y479D01*
X646Y477D01*
X652Y477D01*
X652Y475D01*
X656Y475D01*
X656Y473D01*
X662Y473D01*
X662Y471D01*
X668Y471D01*
X668Y469D01*
X672Y469D01*
X672Y467D01*
X678Y467D01*
X678Y465D01*
X684Y465D01*
X684Y463D01*
X688Y463D01*
X688Y461D01*
X694Y461D01*
X694Y459D01*
X700Y459D01*
X700Y457D01*
X704Y457D01*
X704Y455D01*
X710Y455D01*
X710Y453D01*
X716Y453D01*
X716Y451D01*
X720Y451D01*
X720Y449D01*
X726Y449D01*
X726Y447D01*
X730Y447D01*
X730Y445D01*
X736Y445D01*
X736Y443D01*
X742Y443D01*
X742Y441D01*
X746Y441D01*
X746Y439D01*
X752Y439D01*
X752Y437D01*
X758Y437D01*
X758Y435D01*
X762Y435D01*
X762Y433D01*
X768Y433D01*
X768Y431D01*
X774Y431D01*
X774Y429D01*
X778Y429D01*
X778Y427D01*
X784Y427D01*
X784Y425D01*
X790Y425D01*
X790Y423D01*
X794Y423D01*
X794Y421D01*
X800Y421D01*
X800Y419D01*
X806Y419D01*
X806Y417D01*
X810Y417D01*
X810Y415D01*
X816Y415D01*
X816Y413D01*
X822Y413D01*
X822Y411D01*
X826Y411D01*
X826Y409D01*
X832Y409D01*
X832Y407D01*
X836Y407D01*
X836Y405D01*
X842Y405D01*
X842Y403D01*
X848Y403D01*
X848Y401D01*
X852Y401D01*
X852Y399D01*
X858Y399D01*
X858Y397D01*
X864Y397D01*
X864Y395D01*
X868Y395D01*
X868Y393D01*
X874Y393D01*
X874Y391D01*
X880Y391D01*
X880Y389D01*
X884Y389D01*
X884Y387D01*
X890Y387D01*
X890Y385D01*
X916Y385D01*
X916Y383D01*
X920Y383D01*
X920Y381D01*
X924Y381D01*
X924Y379D01*
X926Y379D01*
X926Y377D01*
X928Y377D01*
X928Y375D01*
X930Y375D01*
X930Y373D01*
X932Y373D01*
X932Y371D01*
X952Y371D01*
X952Y373D01*
X954Y373D01*
X954Y375D01*
X956Y375D01*
X956Y377D01*
X960Y377D01*
X960Y379D01*
X962Y379D01*
X962Y381D01*
X964Y381D01*
X964Y383D01*
X968Y383D01*
X968Y385D01*
X972Y385D01*
X972Y387D01*
X976Y387D01*
X976Y389D01*
X980Y389D01*
X980Y391D01*
X984Y391D01*
X984Y393D01*
X990Y393D01*
X990Y413D01*
X988Y413D01*
X988Y417D01*
X986Y417D01*
X986Y421D01*
X984Y421D01*
X984Y427D01*
X982Y427D01*
X982Y435D01*
X980Y435D01*
X980Y447D01*
X982Y447D01*
X982Y455D01*
X984Y455D01*
X984Y461D01*
X986Y461D01*
X986Y465D01*
X988Y465D01*
X988Y467D01*
X990Y467D01*
X990Y471D01*
X992Y471D01*
X992Y473D01*
X994Y473D01*
X994Y475D01*
X996Y475D01*
X996Y477D01*
X998Y477D01*
X998Y479D01*
X1002Y479D01*
X1002Y481D01*
X1004Y481D01*
X1004Y483D01*
X1008Y483D01*
X1008Y485D01*
X1014Y485D01*
X1014Y487D01*
X1022Y487D01*
X1022Y489D01*
X620Y489D01*
G37*
D02*
G36*
X1066Y469D02*
X1066Y467D01*
X1068Y467D01*
X1068Y463D01*
X1450Y463D01*
X1450Y465D01*
X1454Y465D01*
X1454Y467D01*
X1458Y467D01*
X1458Y469D01*
X1066Y469D01*
G37*
D02*
G36*
X56Y437D02*
X56Y435D01*
X62Y435D01*
X62Y433D01*
X66Y433D01*
X66Y431D01*
X68Y431D01*
X68Y429D01*
X70Y429D01*
X70Y427D01*
X72Y427D01*
X72Y425D01*
X74Y425D01*
X74Y421D01*
X76Y421D01*
X76Y417D01*
X78Y417D01*
X78Y401D01*
X180Y401D01*
X180Y399D01*
X196Y399D01*
X196Y397D01*
X204Y397D01*
X204Y395D01*
X210Y395D01*
X210Y393D01*
X216Y393D01*
X216Y391D01*
X220Y391D01*
X220Y389D01*
X224Y389D01*
X224Y387D01*
X228Y387D01*
X228Y385D01*
X230Y385D01*
X230Y383D01*
X234Y383D01*
X234Y381D01*
X236Y381D01*
X236Y379D01*
X240Y379D01*
X240Y377D01*
X242Y377D01*
X242Y375D01*
X244Y375D01*
X244Y373D01*
X246Y373D01*
X246Y371D01*
X250Y371D01*
X250Y369D01*
X252Y369D01*
X252Y367D01*
X254Y367D01*
X254Y363D01*
X256Y363D01*
X256Y361D01*
X276Y361D01*
X276Y387D01*
X274Y387D01*
X274Y389D01*
X272Y389D01*
X272Y393D01*
X270Y393D01*
X270Y397D01*
X268Y397D01*
X268Y417D01*
X270Y417D01*
X270Y421D01*
X272Y421D01*
X272Y423D01*
X274Y423D01*
X274Y427D01*
X276Y427D01*
X276Y429D01*
X280Y429D01*
X280Y431D01*
X282Y431D01*
X282Y433D01*
X286Y433D01*
X286Y435D01*
X296Y435D01*
X296Y437D01*
X56Y437D01*
G37*
D02*
G36*
X78Y401D02*
X78Y399D01*
X76Y399D01*
X76Y395D01*
X74Y395D01*
X74Y391D01*
X72Y391D01*
X72Y389D01*
X70Y389D01*
X70Y359D01*
X90Y359D01*
X90Y361D01*
X92Y361D01*
X92Y363D01*
X94Y363D01*
X94Y365D01*
X96Y365D01*
X96Y369D01*
X100Y369D01*
X100Y371D01*
X102Y371D01*
X102Y373D01*
X104Y373D01*
X104Y375D01*
X106Y375D01*
X106Y377D01*
X108Y377D01*
X108Y379D01*
X112Y379D01*
X112Y381D01*
X114Y381D01*
X114Y383D01*
X118Y383D01*
X118Y385D01*
X120Y385D01*
X120Y387D01*
X124Y387D01*
X124Y389D01*
X128Y389D01*
X128Y391D01*
X132Y391D01*
X132Y393D01*
X138Y393D01*
X138Y395D01*
X144Y395D01*
X144Y397D01*
X152Y397D01*
X152Y399D01*
X168Y399D01*
X168Y401D01*
X78Y401D01*
G37*
D02*
G36*
X326Y401D02*
X326Y397D01*
X324Y397D01*
X324Y393D01*
X322Y393D01*
X322Y389D01*
X462Y389D01*
X462Y387D01*
X466Y387D01*
X466Y385D01*
X470Y385D01*
X470Y383D01*
X472Y383D01*
X472Y381D01*
X476Y381D01*
X476Y377D01*
X478Y377D01*
X478Y375D01*
X480Y375D01*
X480Y371D01*
X502Y371D01*
X502Y373D01*
X504Y373D01*
X504Y375D01*
X506Y375D01*
X506Y377D01*
X508Y377D01*
X508Y379D01*
X512Y379D01*
X512Y381D01*
X514Y381D01*
X514Y383D01*
X518Y383D01*
X518Y385D01*
X520Y385D01*
X520Y387D01*
X524Y387D01*
X524Y389D01*
X528Y389D01*
X528Y391D01*
X532Y391D01*
X532Y393D01*
X538Y393D01*
X538Y395D01*
X544Y395D01*
X544Y397D01*
X552Y397D01*
X552Y399D01*
X568Y399D01*
X568Y401D01*
X326Y401D01*
G37*
D02*
G36*
X1488Y401D02*
X1488Y399D01*
X1496Y399D01*
X1496Y397D01*
X1504Y397D01*
X1504Y395D01*
X1512Y395D01*
X1512Y393D01*
X1516Y393D01*
X1516Y391D01*
X1520Y391D01*
X1520Y389D01*
X1524Y389D01*
X1524Y387D01*
X1528Y387D01*
X1528Y385D01*
X1532Y385D01*
X1532Y383D01*
X1536Y383D01*
X1536Y381D01*
X1538Y381D01*
X1538Y379D01*
X1540Y379D01*
X1540Y377D01*
X1544Y377D01*
X1544Y375D01*
X1546Y375D01*
X1546Y373D01*
X1548Y373D01*
X1548Y371D01*
X1550Y371D01*
X1550Y369D01*
X1552Y369D01*
X1552Y367D01*
X1554Y367D01*
X1554Y365D01*
X1556Y365D01*
X1556Y363D01*
X1558Y363D01*
X1558Y361D01*
X1560Y361D01*
X1560Y357D01*
X1562Y357D01*
X1562Y355D01*
X1564Y355D01*
X1564Y353D01*
X1566Y353D01*
X1566Y349D01*
X1568Y349D01*
X1568Y345D01*
X1570Y345D01*
X1570Y343D01*
X1572Y343D01*
X1572Y337D01*
X1574Y337D01*
X1574Y333D01*
X1660Y333D01*
X1660Y331D01*
X1664Y331D01*
X1664Y329D01*
X1668Y329D01*
X1668Y327D01*
X1670Y327D01*
X1670Y325D01*
X1672Y325D01*
X1672Y323D01*
X1674Y323D01*
X1674Y319D01*
X1676Y319D01*
X1676Y317D01*
X1678Y317D01*
X1678Y309D01*
X1680Y309D01*
X1680Y299D01*
X1678Y299D01*
X1678Y291D01*
X1676Y291D01*
X1676Y289D01*
X1674Y289D01*
X1674Y285D01*
X1672Y285D01*
X1672Y267D01*
X1706Y267D01*
X1706Y265D01*
X1712Y265D01*
X1712Y263D01*
X1716Y263D01*
X1716Y261D01*
X1718Y261D01*
X1718Y259D01*
X1720Y259D01*
X1720Y257D01*
X1722Y257D01*
X1722Y255D01*
X1724Y255D01*
X1724Y251D01*
X1726Y251D01*
X1726Y247D01*
X1728Y247D01*
X1728Y217D01*
X1784Y217D01*
X1784Y235D01*
X1782Y235D01*
X1782Y239D01*
X1780Y239D01*
X1780Y243D01*
X1778Y243D01*
X1778Y247D01*
X1776Y247D01*
X1776Y251D01*
X1774Y251D01*
X1774Y257D01*
X1772Y257D01*
X1772Y263D01*
X1770Y263D01*
X1770Y271D01*
X1768Y271D01*
X1768Y287D01*
X1766Y287D01*
X1766Y299D01*
X1768Y299D01*
X1768Y313D01*
X1770Y313D01*
X1770Y321D01*
X1772Y321D01*
X1772Y329D01*
X1774Y329D01*
X1774Y333D01*
X1776Y333D01*
X1776Y339D01*
X1778Y339D01*
X1778Y343D01*
X1780Y343D01*
X1780Y345D01*
X1782Y345D01*
X1782Y349D01*
X1784Y349D01*
X1784Y353D01*
X1786Y353D01*
X1786Y355D01*
X1788Y355D01*
X1788Y357D01*
X1790Y357D01*
X1790Y361D01*
X1792Y361D01*
X1792Y363D01*
X1794Y363D01*
X1794Y365D01*
X1796Y365D01*
X1796Y367D01*
X1798Y367D01*
X1798Y369D01*
X1800Y369D01*
X1800Y371D01*
X1802Y371D01*
X1802Y373D01*
X1804Y373D01*
X1804Y375D01*
X1806Y375D01*
X1806Y377D01*
X1810Y377D01*
X1810Y379D01*
X1812Y379D01*
X1812Y381D01*
X1814Y381D01*
X1814Y383D01*
X1818Y383D01*
X1818Y385D01*
X1822Y385D01*
X1822Y387D01*
X1824Y387D01*
X1824Y389D01*
X1828Y389D01*
X1828Y391D01*
X1832Y391D01*
X1832Y393D01*
X1838Y393D01*
X1838Y395D01*
X1844Y395D01*
X1844Y397D01*
X1852Y397D01*
X1852Y399D01*
X1864Y399D01*
X1864Y401D01*
X1488Y401D01*
G37*
D02*
G36*
X320Y389D02*
X320Y385D01*
X350Y385D01*
X350Y383D01*
X360Y383D01*
X360Y381D01*
X364Y381D01*
X364Y379D01*
X366Y379D01*
X366Y377D01*
X370Y377D01*
X370Y373D01*
X372Y373D01*
X372Y371D01*
X374Y371D01*
X374Y369D01*
X376Y369D01*
X376Y363D01*
X378Y363D01*
X378Y345D01*
X376Y345D01*
X376Y341D01*
X374Y341D01*
X374Y337D01*
X372Y337D01*
X372Y335D01*
X370Y335D01*
X370Y331D01*
X408Y331D01*
X408Y329D01*
X432Y329D01*
X432Y341D01*
X430Y341D01*
X430Y343D01*
X428Y343D01*
X428Y347D01*
X426Y347D01*
X426Y353D01*
X424Y353D01*
X424Y367D01*
X426Y367D01*
X426Y373D01*
X428Y373D01*
X428Y375D01*
X430Y375D01*
X430Y379D01*
X432Y379D01*
X432Y381D01*
X434Y381D01*
X434Y383D01*
X438Y383D01*
X438Y385D01*
X440Y385D01*
X440Y387D01*
X446Y387D01*
X446Y389D01*
X320Y389D01*
G37*
D02*
G36*
X320Y385D02*
X320Y383D01*
X348Y383D01*
X348Y385D01*
X320Y385D01*
G37*
D02*
G36*
X1576Y333D02*
X1576Y329D01*
X1578Y329D01*
X1578Y323D01*
X1580Y323D01*
X1580Y315D01*
X1582Y315D01*
X1582Y299D01*
X1584Y299D01*
X1584Y283D01*
X1582Y283D01*
X1582Y269D01*
X1580Y269D01*
X1580Y261D01*
X1578Y261D01*
X1578Y255D01*
X1576Y255D01*
X1576Y249D01*
X1574Y249D01*
X1574Y245D01*
X1572Y245D01*
X1572Y241D01*
X1570Y241D01*
X1570Y239D01*
X1568Y239D01*
X1568Y235D01*
X1566Y235D01*
X1566Y217D01*
X1628Y217D01*
X1628Y285D01*
X1626Y285D01*
X1626Y289D01*
X1624Y289D01*
X1624Y291D01*
X1622Y291D01*
X1622Y299D01*
X1620Y299D01*
X1620Y309D01*
X1622Y309D01*
X1622Y317D01*
X1624Y317D01*
X1624Y319D01*
X1626Y319D01*
X1626Y323D01*
X1628Y323D01*
X1628Y325D01*
X1630Y325D01*
X1630Y327D01*
X1632Y327D01*
X1632Y329D01*
X1636Y329D01*
X1636Y331D01*
X1640Y331D01*
X1640Y333D01*
X1576Y333D01*
G37*
D02*
G36*
X370Y331D02*
X370Y329D01*
X394Y329D01*
X394Y331D01*
X370Y331D01*
G37*
D02*
G36*
X1672Y267D02*
X1672Y265D01*
X1692Y265D01*
X1692Y267D01*
X1672Y267D01*
G37*
D02*
G36*
X1906Y1545D02*
X1906Y1543D01*
X1830Y1543D01*
X1830Y1523D01*
X1832Y1523D01*
X1832Y1519D01*
X1834Y1519D01*
X1834Y1509D01*
X1832Y1509D01*
X1832Y1503D01*
X1830Y1503D01*
X1830Y1483D01*
X1876Y1483D01*
X1876Y1481D01*
X1926Y1481D01*
X1926Y1545D01*
X1906Y1545D01*
G37*
D02*
G36*
X1068Y419D02*
X1068Y415D01*
X1066Y415D01*
X1066Y393D01*
X1152Y393D01*
X1152Y391D01*
X1160Y391D01*
X1160Y389D01*
X1164Y389D01*
X1164Y387D01*
X1166Y387D01*
X1166Y385D01*
X1168Y385D01*
X1168Y383D01*
X1170Y383D01*
X1170Y381D01*
X1172Y381D01*
X1172Y379D01*
X1174Y379D01*
X1174Y375D01*
X1176Y375D01*
X1176Y367D01*
X1178Y367D01*
X1178Y359D01*
X1176Y359D01*
X1176Y349D01*
X1208Y349D01*
X1208Y347D01*
X1212Y347D01*
X1212Y345D01*
X1216Y345D01*
X1216Y343D01*
X1218Y343D01*
X1218Y341D01*
X1220Y341D01*
X1220Y339D01*
X1222Y339D01*
X1222Y337D01*
X1224Y337D01*
X1224Y333D01*
X1226Y333D01*
X1226Y329D01*
X1228Y329D01*
X1228Y309D01*
X1260Y309D01*
X1260Y307D01*
X1264Y307D01*
X1264Y305D01*
X1268Y305D01*
X1268Y303D01*
X1270Y303D01*
X1270Y301D01*
X1272Y301D01*
X1272Y299D01*
X1274Y299D01*
X1274Y295D01*
X1276Y295D01*
X1276Y293D01*
X1278Y293D01*
X1278Y285D01*
X1280Y285D01*
X1280Y267D01*
X1308Y267D01*
X1308Y265D01*
X1314Y265D01*
X1314Y263D01*
X1318Y263D01*
X1318Y261D01*
X1320Y261D01*
X1320Y259D01*
X1322Y259D01*
X1322Y257D01*
X1324Y257D01*
X1324Y255D01*
X1326Y255D01*
X1326Y251D01*
X1328Y251D01*
X1328Y247D01*
X1330Y247D01*
X1330Y217D01*
X1384Y217D01*
X1384Y235D01*
X1382Y235D01*
X1382Y239D01*
X1380Y239D01*
X1380Y241D01*
X1378Y241D01*
X1378Y245D01*
X1376Y245D01*
X1376Y251D01*
X1374Y251D01*
X1374Y255D01*
X1372Y255D01*
X1372Y261D01*
X1370Y261D01*
X1370Y269D01*
X1368Y269D01*
X1368Y285D01*
X1366Y285D01*
X1366Y299D01*
X1368Y299D01*
X1368Y315D01*
X1370Y315D01*
X1370Y323D01*
X1372Y323D01*
X1372Y329D01*
X1374Y329D01*
X1374Y333D01*
X1376Y333D01*
X1376Y337D01*
X1378Y337D01*
X1378Y343D01*
X1380Y343D01*
X1380Y345D01*
X1382Y345D01*
X1382Y349D01*
X1384Y349D01*
X1384Y353D01*
X1386Y353D01*
X1386Y355D01*
X1388Y355D01*
X1388Y357D01*
X1390Y357D01*
X1390Y361D01*
X1392Y361D01*
X1392Y363D01*
X1394Y363D01*
X1394Y365D01*
X1396Y365D01*
X1396Y367D01*
X1398Y367D01*
X1398Y369D01*
X1400Y369D01*
X1400Y371D01*
X1402Y371D01*
X1402Y373D01*
X1404Y373D01*
X1404Y375D01*
X1406Y375D01*
X1406Y377D01*
X1410Y377D01*
X1410Y379D01*
X1412Y379D01*
X1412Y381D01*
X1414Y381D01*
X1414Y383D01*
X1418Y383D01*
X1418Y385D01*
X1422Y385D01*
X1422Y387D01*
X1426Y387D01*
X1426Y389D01*
X1430Y389D01*
X1430Y391D01*
X1434Y391D01*
X1434Y393D01*
X1440Y393D01*
X1440Y395D01*
X1446Y395D01*
X1446Y397D01*
X1450Y397D01*
X1450Y417D01*
X1448Y417D01*
X1448Y419D01*
X1068Y419D01*
G37*
D02*
G36*
X1066Y393D02*
X1066Y391D01*
X1070Y391D01*
X1070Y389D01*
X1074Y389D01*
X1074Y387D01*
X1078Y387D01*
X1078Y385D01*
X1082Y385D01*
X1082Y383D01*
X1086Y383D01*
X1086Y381D01*
X1088Y381D01*
X1088Y379D01*
X1090Y379D01*
X1090Y377D01*
X1094Y377D01*
X1094Y375D01*
X1096Y375D01*
X1096Y373D01*
X1098Y373D01*
X1098Y371D01*
X1100Y371D01*
X1100Y369D01*
X1120Y369D01*
X1120Y375D01*
X1122Y375D01*
X1122Y379D01*
X1124Y379D01*
X1124Y381D01*
X1126Y381D01*
X1126Y385D01*
X1130Y385D01*
X1130Y387D01*
X1132Y387D01*
X1132Y389D01*
X1136Y389D01*
X1136Y391D01*
X1142Y391D01*
X1142Y393D01*
X1066Y393D01*
G37*
D02*
G36*
X768Y377D02*
X768Y365D01*
X770Y365D01*
X770Y363D01*
X772Y363D01*
X772Y361D01*
X774Y361D01*
X774Y357D01*
X776Y357D01*
X776Y351D01*
X778Y351D01*
X778Y335D01*
X806Y335D01*
X806Y333D01*
X814Y333D01*
X814Y331D01*
X816Y331D01*
X816Y329D01*
X820Y329D01*
X820Y327D01*
X822Y327D01*
X822Y325D01*
X824Y325D01*
X824Y321D01*
X826Y321D01*
X826Y319D01*
X828Y319D01*
X828Y313D01*
X830Y313D01*
X830Y291D01*
X860Y291D01*
X860Y289D01*
X866Y289D01*
X866Y287D01*
X868Y287D01*
X868Y285D01*
X870Y285D01*
X870Y283D01*
X872Y283D01*
X872Y281D01*
X874Y281D01*
X874Y279D01*
X876Y279D01*
X876Y277D01*
X878Y277D01*
X878Y271D01*
X880Y271D01*
X880Y251D01*
X878Y251D01*
X878Y247D01*
X876Y247D01*
X876Y245D01*
X874Y245D01*
X874Y217D01*
X934Y217D01*
X934Y235D01*
X932Y235D01*
X932Y239D01*
X930Y239D01*
X930Y241D01*
X928Y241D01*
X928Y245D01*
X926Y245D01*
X926Y249D01*
X924Y249D01*
X924Y255D01*
X922Y255D01*
X922Y261D01*
X920Y261D01*
X920Y269D01*
X918Y269D01*
X918Y285D01*
X916Y285D01*
X916Y299D01*
X918Y299D01*
X918Y327D01*
X898Y327D01*
X898Y329D01*
X892Y329D01*
X892Y331D01*
X890Y331D01*
X890Y333D01*
X886Y333D01*
X886Y335D01*
X884Y335D01*
X884Y339D01*
X882Y339D01*
X882Y341D01*
X880Y341D01*
X880Y343D01*
X876Y343D01*
X876Y345D01*
X872Y345D01*
X872Y347D01*
X866Y347D01*
X866Y349D01*
X860Y349D01*
X860Y351D01*
X856Y351D01*
X856Y353D01*
X850Y353D01*
X850Y355D01*
X844Y355D01*
X844Y357D01*
X840Y357D01*
X840Y359D01*
X834Y359D01*
X834Y361D01*
X828Y361D01*
X828Y363D01*
X824Y363D01*
X824Y365D01*
X818Y365D01*
X818Y367D01*
X812Y367D01*
X812Y369D01*
X808Y369D01*
X808Y371D01*
X802Y371D01*
X802Y373D01*
X798Y373D01*
X798Y375D01*
X792Y375D01*
X792Y377D01*
X768Y377D01*
G37*
D02*
G36*
X1004Y1225D02*
X1047Y1225D01*
X1047Y1199D01*
X1004Y1199D01*
X1004Y1225D01*
G37*
D02*
G36*
X976Y1271D02*
X1000Y1271D01*
X1000Y1228D01*
X976Y1228D01*
X976Y1271D01*
G37*
D02*
G36*
X1050Y1271D02*
X1076Y1271D01*
X1076Y1228D01*
X1050Y1228D01*
X1050Y1271D01*
G37*
D02*
G36*
X1842Y1361D02*
X1917Y1361D01*
X1917Y1311D01*
X1842Y1311D01*
X1842Y1361D01*
G37*
D02*
G36*
X1800Y1384D02*
X1878Y1384D01*
X1878Y1339D01*
X1800Y1339D01*
X1800Y1384D01*
G37*
D02*
G36*
X1880Y1384D02*
X1962Y1384D01*
X1962Y1339D01*
X1880Y1339D01*
X1880Y1384D01*
G37*
D02*
G36*
X1985Y1931D02*
X2010Y1931D01*
X2010Y1907D01*
X1985Y1907D01*
X1985Y1931D01*
G37*
D02*
G36*
X1985Y1893D02*
X2010Y1893D01*
X2010Y1869D01*
X1985Y1869D01*
X1985Y1893D01*
G37*
D02*
G36*
X2004Y1912D02*
X2024Y1912D01*
X2024Y1887D01*
X2004Y1887D01*
X2004Y1912D01*
G37*
D02*
G36*
X1820Y405D02*
X1923Y405D01*
X1923Y375D01*
X1820Y375D01*
X1820Y405D01*
G37*
D02*
G36*
X1820Y2809D02*
X1923Y2809D01*
X1923Y2783D01*
X1820Y2783D01*
X1820Y2809D01*
G37*
D02*
G36*
X1820Y2625D02*
X1923Y2625D01*
X1923Y2593D01*
X1820Y2593D01*
X1820Y2625D01*
G37*
D02*
G36*
X1950Y2755D02*
X1984Y2755D01*
X1984Y2652D01*
X1950Y2652D01*
X1950Y2755D01*
G37*
D02*
G36*
X1821Y109D02*
X1922Y109D01*
X1922Y5D01*
X1821Y5D01*
X1821Y109D01*
G37*
D02*
G36*
X1735Y221D02*
X1760Y221D01*
X1760Y113D01*
X1735Y113D01*
X1735Y221D01*
G37*
D02*
G36*
X1735Y111D02*
X1760Y111D01*
X1760Y7D01*
X1735Y7D01*
X1735Y111D01*
G37*
D02*
G36*
X1985Y221D02*
X2010Y221D01*
X2010Y113D01*
X1985Y113D01*
X1985Y221D01*
G37*
D02*
G36*
X1985Y111D02*
X2010Y111D01*
X2010Y7D01*
X1985Y7D01*
X1985Y111D01*
G37*
D02*
G36*
X1998Y163D02*
X2024Y163D01*
X2024Y60D01*
X1998Y60D01*
X1998Y163D01*
G37*
D02*
G04 End of Copper1*
M02*