; NON-PLATED HOLES START AT T1
; THROUGH (PLATED) HOLES START AT T100
M48
INCH
T1C0.039370
T100C0.038000
T101C0.035433
T102C0.051181
T103C0.157480
T104C0.015748
T105C0.023622
%
T1
X017500Y023850
X008998Y023851
X013500Y023850
X003746Y023844
X000917Y023850
T100
X013694Y018982
X009694Y018982
X007694Y018982
X014694Y019982
X010694Y018982
X006694Y018982
X012694Y019982
X008694Y019982
X011694Y019982
X005694Y019982
X014694Y018982
X012694Y018982
X008694Y018982
X011694Y018982
X013694Y019982
X009694Y019982
X005694Y018982
X007694Y019982
X010694Y019982
X006694Y019982
T101
X015316Y013905
X017875Y013905
T102
X010277Y004631
X010277Y012686
T103
X001740Y002918
X018751Y002920
X010250Y027010
X001750Y027010
X010250Y002918
X018750Y027010
X005740Y002918
X014750Y027010
X014750Y002918
X005750Y027010
T104
X001833Y013938
X010222Y021760
X008512Y002618
X019000Y020038
X016988Y002371
X004537Y003594
X001805Y019899
X019500Y020038
X008531Y017673
X007992Y023419
X001361Y016538
X009061Y003563
X016500Y020982
X020000Y018982
X017500Y018038
X011477Y003628
X013659Y017124
X010333Y017621
X005817Y016482
X002999Y021066
X013055Y021510
X010880Y014980
X008006Y003050
X002969Y004063
X017500Y020038
X011472Y022982
X003487Y003544
X000999Y022982
X004006Y003013
X013144Y016668
X000499Y017983
X001472Y022094
X002416Y020566
X006944Y003865
X017000Y017983
X006888Y015344
X002499Y006038
X018000Y018038
X019500Y023419
X005638Y022066
X018500Y018038
X006999Y023066
X018000Y020038
X012500Y021982
X009749Y014980
X018500Y020038
X009177Y022988
X000916Y015399
X016500Y003038
X012000Y022482
X013011Y002371
X003499Y017482
X000487Y004075
X008138Y014980
X003944Y021538
X009763Y016566
X004999Y018982
X012177Y014982
X011988Y003198
X019000Y018038
X008972Y015746
X012500Y002801
X014675Y004621
X008166Y016566
X016000Y019982
X019500Y018038
X010907Y016550
X007487Y003433
X004499Y016982
X012175Y016547
T105
X007499Y026117
X008499Y026117
X006993Y026117
X007993Y026117
X016993Y026117
X011499Y026117
X012499Y026117
X003499Y026117
X004499Y026117
X002993Y026117
X011993Y026117
X000500Y026117
X012993Y026117
X003993Y026117
X016499Y026117
T00
M30
