G04 MADE WITH FRITZING*
G04 WWW.FRITZING.ORG*
G04 DOUBLE SIDED*
G04 HOLES PLATED*
G04 CONTOUR ON CENTER OF CONTOUR VECTOR*
%ASAXBY*%
%FSLAX23Y23*%
%MOIN*%
%OFA0B0*%
%SFA1.0B1.0*%
%ADD10C,0.084000*%
%ADD11C,0.084803*%
%ADD12C,0.049370*%
%ADD13C,0.206850*%
%ADD14C,0.088000*%
%ADD15R,0.049370X0.206850*%
%ADD16R,0.001000X0.001000*%
%LNMASK0*%
G90*
G70*
G54D10*
X1788Y1391D03*
X1532Y1391D03*
G54D11*
X1028Y463D03*
X1028Y1269D03*
G54D12*
X1699Y237D03*
X1650Y304D03*
X1301Y237D03*
X1250Y280D03*
X1199Y320D03*
X1148Y363D03*
X694Y387D03*
X749Y343D03*
X801Y305D03*
X851Y262D03*
X49Y408D03*
X297Y406D03*
X349Y354D03*
X401Y301D03*
X454Y359D03*
X183Y1394D03*
G54D13*
X175Y2701D03*
X575Y2701D03*
X1025Y2701D03*
X1475Y2701D03*
X1875Y2701D03*
X1875Y292D03*
X1475Y292D03*
X1025Y292D03*
X574Y292D03*
X174Y292D03*
G54D14*
X1469Y1998D03*
X1369Y1998D03*
X1269Y1998D03*
X1169Y1998D03*
X1069Y1998D03*
X969Y1998D03*
X869Y1998D03*
X769Y1998D03*
X669Y1998D03*
X569Y1998D03*
X1469Y1998D03*
X1369Y1998D03*
X1269Y1998D03*
X1169Y1998D03*
X1069Y1998D03*
X969Y1998D03*
X869Y1998D03*
X769Y1998D03*
X669Y1998D03*
X569Y1998D03*
X569Y1898D03*
X669Y1898D03*
X769Y1898D03*
X869Y1898D03*
X969Y1898D03*
X1069Y1898D03*
X1169Y1898D03*
X1269Y1898D03*
X1369Y1898D03*
X1469Y1898D03*
G54D12*
X2000Y1898D03*
X1600Y1998D03*
X1650Y2098D03*
X1700Y1798D03*
X181Y1990D03*
X500Y1898D03*
X50Y1798D03*
X300Y2107D03*
X350Y1748D03*
X450Y1698D03*
X1306Y2151D03*
X1366Y1712D03*
X1750Y2004D03*
X1750Y1804D03*
X394Y2154D03*
X1250Y2198D03*
X1314Y1667D03*
X1800Y2004D03*
X1800Y1804D03*
X906Y356D03*
X250Y604D03*
X242Y2057D03*
X1200Y2248D03*
X1218Y1655D03*
X1850Y1804D03*
X1850Y2004D03*
X1147Y2298D03*
X1091Y1655D03*
X1900Y1804D03*
X1900Y2004D03*
X700Y2307D03*
X92Y1540D03*
X564Y2207D03*
X100Y2298D03*
X147Y2209D03*
X136Y1654D03*
X800Y2354D03*
X1950Y2354D03*
X817Y1657D03*
X1950Y2004D03*
X1950Y1804D03*
X976Y1657D03*
X1088Y1498D03*
X897Y1575D03*
X814Y1498D03*
X975Y1498D03*
X1022Y2176D03*
X933Y2301D03*
X1033Y1762D03*
X1468Y462D03*
X1218Y1498D03*
X689Y1534D03*
X582Y1648D03*
X853Y1767D03*
G54D15*
X2000Y109D03*
X2000Y2518D03*
X1750Y109D03*
X1750Y2518D03*
X1700Y109D03*
X1700Y2518D03*
X1650Y109D03*
X1650Y2518D03*
X1600Y109D03*
X1600Y2518D03*
X1350Y109D03*
X1350Y2518D03*
X1300Y109D03*
X1300Y2518D03*
X1250Y109D03*
X1250Y2518D03*
X1200Y109D03*
X1200Y2518D03*
X1150Y109D03*
X1150Y2518D03*
X900Y109D03*
X900Y2518D03*
X850Y109D03*
X850Y2518D03*
X800Y109D03*
X800Y2518D03*
X750Y109D03*
X750Y2518D03*
X700Y109D03*
X700Y2518D03*
X450Y109D03*
X450Y2518D03*
X400Y109D03*
X400Y2518D03*
X350Y109D03*
X350Y2518D03*
X300Y109D03*
X300Y2518D03*
X50Y109D03*
X50Y2518D03*
G54D16*
X1470Y2801D02*
X1478Y2801D01*
X160Y2800D02*
X187Y2800D01*
X560Y2800D02*
X587Y2800D01*
X1011Y2800D02*
X1038Y2800D01*
X1460Y2800D02*
X1489Y2800D01*
X1865Y2800D02*
X1884Y2800D01*
X155Y2799D02*
X193Y2799D01*
X555Y2799D02*
X593Y2799D01*
X1006Y2799D02*
X1044Y2799D01*
X1455Y2799D02*
X1494Y2799D01*
X1858Y2799D02*
X1891Y2799D01*
X150Y2798D02*
X197Y2798D01*
X550Y2798D02*
X597Y2798D01*
X1001Y2798D02*
X1048Y2798D01*
X1450Y2798D02*
X1498Y2798D01*
X1853Y2798D02*
X1896Y2798D01*
X147Y2797D02*
X201Y2797D01*
X547Y2797D02*
X601Y2797D01*
X998Y2797D02*
X1052Y2797D01*
X1447Y2797D02*
X1502Y2797D01*
X1849Y2797D02*
X1900Y2797D01*
X144Y2796D02*
X204Y2796D01*
X543Y2796D02*
X604Y2796D01*
X995Y2796D02*
X1055Y2796D01*
X1444Y2796D02*
X1505Y2796D01*
X1846Y2796D02*
X1904Y2796D01*
X141Y2795D02*
X207Y2795D01*
X541Y2795D02*
X607Y2795D01*
X992Y2795D02*
X1058Y2795D01*
X1441Y2795D02*
X1508Y2795D01*
X1843Y2795D02*
X1906Y2795D01*
X138Y2794D02*
X210Y2794D01*
X538Y2794D02*
X610Y2794D01*
X989Y2794D02*
X1061Y2794D01*
X1438Y2794D02*
X1510Y2794D01*
X1840Y2794D02*
X1909Y2794D01*
X135Y2793D02*
X212Y2793D01*
X535Y2793D02*
X612Y2793D01*
X986Y2793D02*
X1063Y2793D01*
X1436Y2793D02*
X1513Y2793D01*
X1838Y2793D02*
X1912Y2793D01*
X133Y2792D02*
X214Y2792D01*
X533Y2792D02*
X614Y2792D01*
X984Y2792D02*
X1065Y2792D01*
X1434Y2792D02*
X1515Y2792D01*
X1835Y2792D02*
X1914Y2792D01*
X131Y2791D02*
X216Y2791D01*
X531Y2791D02*
X616Y2791D01*
X982Y2791D02*
X1067Y2791D01*
X1431Y2791D02*
X1517Y2791D01*
X1833Y2791D02*
X1916Y2791D01*
X129Y2790D02*
X219Y2790D01*
X529Y2790D02*
X618Y2790D01*
X980Y2790D02*
X1070Y2790D01*
X1429Y2790D02*
X1519Y2790D01*
X1831Y2790D02*
X1918Y2790D01*
X127Y2789D02*
X221Y2789D01*
X527Y2789D02*
X621Y2789D01*
X978Y2789D02*
X1072Y2789D01*
X1427Y2789D02*
X1521Y2789D01*
X1829Y2789D02*
X1920Y2789D01*
X125Y2788D02*
X222Y2788D01*
X525Y2788D02*
X622Y2788D01*
X976Y2788D02*
X1073Y2788D01*
X1426Y2788D02*
X1523Y2788D01*
X1827Y2788D02*
X1922Y2788D01*
X124Y2787D02*
X224Y2787D01*
X524Y2787D02*
X624Y2787D01*
X975Y2787D02*
X1075Y2787D01*
X1424Y2787D02*
X1525Y2787D01*
X1825Y2787D02*
X1924Y2787D01*
X122Y2786D02*
X226Y2786D01*
X522Y2786D02*
X626Y2786D01*
X973Y2786D02*
X1077Y2786D01*
X1422Y2786D02*
X1526Y2786D01*
X1824Y2786D02*
X1926Y2786D01*
X120Y2785D02*
X227Y2785D01*
X520Y2785D02*
X627Y2785D01*
X971Y2785D02*
X1078Y2785D01*
X1421Y2785D02*
X1528Y2785D01*
X1822Y2785D02*
X1927Y2785D01*
X119Y2784D02*
X229Y2784D01*
X519Y2784D02*
X629Y2784D01*
X970Y2784D02*
X1080Y2784D01*
X1419Y2784D02*
X1530Y2784D01*
X1820Y2784D02*
X1929Y2784D01*
X117Y2783D02*
X230Y2783D01*
X517Y2783D02*
X630Y2783D01*
X968Y2783D02*
X1081Y2783D01*
X1418Y2783D02*
X1531Y2783D01*
X1819Y2783D02*
X1930Y2783D01*
X116Y2782D02*
X232Y2782D01*
X516Y2782D02*
X632Y2782D01*
X967Y2782D02*
X1083Y2782D01*
X1416Y2782D02*
X1532Y2782D01*
X1818Y2782D02*
X1932Y2782D01*
X115Y2781D02*
X233Y2781D01*
X515Y2781D02*
X633Y2781D01*
X966Y2781D02*
X1084Y2781D01*
X1415Y2781D02*
X1534Y2781D01*
X1816Y2781D02*
X1933Y2781D01*
X113Y2780D02*
X234Y2780D01*
X513Y2780D02*
X634Y2780D01*
X964Y2780D02*
X1085Y2780D01*
X1414Y2780D02*
X1535Y2780D01*
X1815Y2780D02*
X1935Y2780D01*
X112Y2779D02*
X236Y2779D01*
X512Y2779D02*
X636Y2779D01*
X963Y2779D02*
X1087Y2779D01*
X1412Y2779D02*
X1536Y2779D01*
X1814Y2779D02*
X1936Y2779D01*
X111Y2778D02*
X237Y2778D01*
X511Y2778D02*
X637Y2778D01*
X962Y2778D02*
X1088Y2778D01*
X1411Y2778D02*
X1538Y2778D01*
X1812Y2778D02*
X1937Y2778D01*
X110Y2777D02*
X238Y2777D01*
X510Y2777D02*
X638Y2777D01*
X961Y2777D02*
X1089Y2777D01*
X1410Y2777D02*
X1539Y2777D01*
X1811Y2777D02*
X1938Y2777D01*
X108Y2776D02*
X239Y2776D01*
X508Y2776D02*
X639Y2776D01*
X959Y2776D02*
X1090Y2776D01*
X1409Y2776D02*
X1540Y2776D01*
X1810Y2776D02*
X1939Y2776D01*
X107Y2775D02*
X172Y2775D01*
X176Y2775D02*
X240Y2775D01*
X507Y2775D02*
X572Y2775D01*
X576Y2775D02*
X640Y2775D01*
X958Y2775D02*
X1023Y2775D01*
X1027Y2775D02*
X1091Y2775D01*
X1408Y2775D02*
X1470Y2775D01*
X1479Y2775D02*
X1541Y2775D01*
X1809Y2775D02*
X1941Y2775D01*
X106Y2774D02*
X161Y2774D01*
X187Y2774D02*
X241Y2774D01*
X506Y2774D02*
X561Y2774D01*
X587Y2774D02*
X641Y2774D01*
X957Y2774D02*
X1012Y2774D01*
X1038Y2774D02*
X1092Y2774D01*
X1407Y2774D02*
X1461Y2774D01*
X1488Y2774D02*
X1542Y2774D01*
X1808Y2774D02*
X1865Y2774D01*
X1884Y2774D02*
X1942Y2774D01*
X105Y2773D02*
X156Y2773D01*
X192Y2773D02*
X243Y2773D01*
X505Y2773D02*
X556Y2773D01*
X592Y2773D02*
X642Y2773D01*
X956Y2773D02*
X1007Y2773D01*
X1043Y2773D02*
X1094Y2773D01*
X1406Y2773D02*
X1456Y2773D01*
X1493Y2773D02*
X1543Y2773D01*
X1807Y2773D02*
X1859Y2773D01*
X1890Y2773D02*
X1943Y2773D01*
X104Y2772D02*
X152Y2772D01*
X196Y2772D02*
X244Y2772D01*
X504Y2772D02*
X552Y2772D01*
X596Y2772D02*
X644Y2772D01*
X955Y2772D02*
X1003Y2772D01*
X1047Y2772D02*
X1095Y2772D01*
X1404Y2772D02*
X1452Y2772D01*
X1497Y2772D02*
X1544Y2772D01*
X1805Y2772D02*
X1855Y2772D01*
X1894Y2772D02*
X1944Y2772D01*
X103Y2771D02*
X149Y2771D01*
X199Y2771D02*
X245Y2771D01*
X503Y2771D02*
X549Y2771D01*
X599Y2771D02*
X644Y2771D01*
X954Y2771D02*
X1000Y2771D01*
X1050Y2771D02*
X1096Y2771D01*
X1404Y2771D02*
X1449Y2771D01*
X1499Y2771D02*
X1545Y2771D01*
X1804Y2771D02*
X1851Y2771D01*
X1898Y2771D02*
X1945Y2771D01*
X102Y2770D02*
X146Y2770D01*
X201Y2770D02*
X245Y2770D01*
X502Y2770D02*
X546Y2770D01*
X601Y2770D02*
X645Y2770D01*
X953Y2770D02*
X997Y2770D01*
X1052Y2770D02*
X1096Y2770D01*
X1403Y2770D02*
X1447Y2770D01*
X1502Y2770D02*
X1546Y2770D01*
X1804Y2770D02*
X1849Y2770D01*
X1901Y2770D02*
X1946Y2770D01*
X101Y2769D02*
X144Y2769D01*
X204Y2769D02*
X246Y2769D01*
X501Y2769D02*
X544Y2769D01*
X604Y2769D02*
X646Y2769D01*
X952Y2769D02*
X995Y2769D01*
X1055Y2769D02*
X1097Y2769D01*
X1402Y2769D02*
X1444Y2769D01*
X1505Y2769D02*
X1547Y2769D01*
X1803Y2769D02*
X1846Y2769D01*
X1904Y2769D02*
X1947Y2769D01*
X100Y2768D02*
X142Y2768D01*
X206Y2768D02*
X247Y2768D01*
X500Y2768D02*
X542Y2768D01*
X606Y2768D02*
X647Y2768D01*
X951Y2768D02*
X993Y2768D01*
X1057Y2768D02*
X1098Y2768D01*
X1401Y2768D02*
X1442Y2768D01*
X1507Y2768D02*
X1548Y2768D01*
X1802Y2768D02*
X1844Y2768D01*
X1906Y2768D02*
X1948Y2768D01*
X99Y2767D02*
X140Y2767D01*
X208Y2767D02*
X248Y2767D01*
X499Y2767D02*
X540Y2767D01*
X608Y2767D02*
X648Y2767D01*
X950Y2767D02*
X991Y2767D01*
X1059Y2767D02*
X1099Y2767D01*
X1400Y2767D02*
X1440Y2767D01*
X1509Y2767D02*
X1549Y2767D01*
X1801Y2767D02*
X1842Y2767D01*
X1908Y2767D02*
X1949Y2767D01*
X99Y2766D02*
X138Y2766D01*
X210Y2766D02*
X249Y2766D01*
X499Y2766D02*
X538Y2766D01*
X610Y2766D02*
X649Y2766D01*
X950Y2766D02*
X989Y2766D01*
X1061Y2766D02*
X1100Y2766D01*
X1399Y2766D02*
X1438Y2766D01*
X1511Y2766D02*
X1550Y2766D01*
X1800Y2766D02*
X1839Y2766D01*
X1910Y2766D02*
X1949Y2766D01*
X98Y2765D02*
X136Y2765D01*
X212Y2765D02*
X250Y2765D01*
X498Y2765D02*
X536Y2765D01*
X611Y2765D02*
X650Y2765D01*
X949Y2765D02*
X987Y2765D01*
X1063Y2765D02*
X1101Y2765D01*
X1398Y2765D02*
X1436Y2765D01*
X1512Y2765D02*
X1551Y2765D01*
X1799Y2765D02*
X1838Y2765D01*
X1912Y2765D02*
X1950Y2765D01*
X97Y2764D02*
X134Y2764D01*
X213Y2764D02*
X251Y2764D01*
X497Y2764D02*
X534Y2764D01*
X613Y2764D02*
X651Y2764D01*
X948Y2764D02*
X985Y2764D01*
X1064Y2764D02*
X1102Y2764D01*
X1397Y2764D02*
X1435Y2764D01*
X1514Y2764D02*
X1551Y2764D01*
X1798Y2764D02*
X1836Y2764D01*
X1913Y2764D02*
X1951Y2764D01*
X96Y2763D02*
X133Y2763D01*
X215Y2763D02*
X251Y2763D01*
X496Y2763D02*
X533Y2763D01*
X615Y2763D02*
X651Y2763D01*
X947Y2763D02*
X984Y2763D01*
X1066Y2763D02*
X1103Y2763D01*
X1397Y2763D02*
X1433Y2763D01*
X1516Y2763D02*
X1552Y2763D01*
X1797Y2763D02*
X1835Y2763D01*
X1915Y2763D02*
X1952Y2763D01*
X95Y2762D02*
X131Y2762D01*
X216Y2762D02*
X252Y2762D01*
X495Y2762D02*
X531Y2762D01*
X616Y2762D02*
X652Y2762D01*
X946Y2762D02*
X982Y2762D01*
X1067Y2762D02*
X1103Y2762D01*
X1396Y2762D02*
X1432Y2762D01*
X1517Y2762D02*
X1553Y2762D01*
X1797Y2762D02*
X1833Y2762D01*
X1916Y2762D02*
X1953Y2762D01*
X95Y2761D02*
X130Y2761D01*
X218Y2761D02*
X253Y2761D01*
X495Y2761D02*
X530Y2761D01*
X618Y2761D02*
X653Y2761D01*
X946Y2761D02*
X981Y2761D01*
X1069Y2761D02*
X1104Y2761D01*
X1395Y2761D02*
X1430Y2761D01*
X1518Y2761D02*
X1554Y2761D01*
X1796Y2761D02*
X1832Y2761D01*
X1918Y2761D02*
X1953Y2761D01*
X94Y2760D02*
X129Y2760D01*
X219Y2760D02*
X254Y2760D01*
X494Y2760D02*
X529Y2760D01*
X619Y2760D02*
X654Y2760D01*
X945Y2760D02*
X980Y2760D01*
X1070Y2760D02*
X1105Y2760D01*
X1394Y2760D02*
X1429Y2760D01*
X1520Y2760D02*
X1554Y2760D01*
X1795Y2760D02*
X1830Y2760D01*
X1919Y2760D02*
X1954Y2760D01*
X93Y2759D02*
X127Y2759D01*
X220Y2759D02*
X254Y2759D01*
X493Y2759D02*
X527Y2759D01*
X620Y2759D02*
X654Y2759D01*
X944Y2759D02*
X978Y2759D01*
X1071Y2759D02*
X1105Y2759D01*
X1394Y2759D02*
X1428Y2759D01*
X1521Y2759D02*
X1555Y2759D01*
X1794Y2759D02*
X1829Y2759D01*
X1920Y2759D02*
X1955Y2759D01*
X92Y2758D02*
X126Y2758D01*
X222Y2758D02*
X255Y2758D01*
X492Y2758D02*
X526Y2758D01*
X621Y2758D02*
X655Y2758D01*
X943Y2758D02*
X977Y2758D01*
X1073Y2758D02*
X1106Y2758D01*
X1393Y2758D02*
X1427Y2758D01*
X1522Y2758D02*
X1556Y2758D01*
X1794Y2758D02*
X1828Y2758D01*
X1922Y2758D02*
X1956Y2758D01*
X92Y2757D02*
X125Y2757D01*
X223Y2757D02*
X256Y2757D01*
X492Y2757D02*
X525Y2757D01*
X623Y2757D02*
X656Y2757D01*
X943Y2757D02*
X976Y2757D01*
X1074Y2757D02*
X1107Y2757D01*
X1392Y2757D02*
X1425Y2757D01*
X1523Y2757D02*
X1557Y2757D01*
X1793Y2757D02*
X1826Y2757D01*
X1923Y2757D02*
X1956Y2757D01*
X91Y2756D02*
X124Y2756D01*
X224Y2756D02*
X257Y2756D01*
X491Y2756D02*
X524Y2756D01*
X624Y2756D02*
X657Y2756D01*
X942Y2756D02*
X975Y2756D01*
X1075Y2756D02*
X1108Y2756D01*
X1392Y2756D02*
X1424Y2756D01*
X1524Y2756D02*
X1557Y2756D01*
X1792Y2756D02*
X1825Y2756D01*
X1924Y2756D02*
X1957Y2756D01*
X90Y2755D02*
X123Y2755D01*
X225Y2755D02*
X257Y2755D01*
X490Y2755D02*
X523Y2755D01*
X625Y2755D02*
X657Y2755D01*
X942Y2755D02*
X974Y2755D01*
X1076Y2755D02*
X1108Y2755D01*
X1391Y2755D02*
X1423Y2755D01*
X1525Y2755D02*
X1558Y2755D01*
X1792Y2755D02*
X1824Y2755D01*
X1925Y2755D02*
X1958Y2755D01*
X90Y2754D02*
X122Y2754D01*
X226Y2754D02*
X258Y2754D01*
X490Y2754D02*
X522Y2754D01*
X626Y2754D02*
X658Y2754D01*
X941Y2754D02*
X973Y2754D01*
X1077Y2754D02*
X1109Y2754D01*
X1390Y2754D02*
X1422Y2754D01*
X1527Y2754D02*
X1558Y2754D01*
X1791Y2754D02*
X1823Y2754D01*
X1926Y2754D02*
X1958Y2754D01*
X89Y2753D02*
X121Y2753D01*
X227Y2753D02*
X258Y2753D01*
X489Y2753D02*
X521Y2753D01*
X627Y2753D02*
X658Y2753D01*
X940Y2753D02*
X972Y2753D01*
X1078Y2753D02*
X1109Y2753D01*
X1390Y2753D02*
X1421Y2753D01*
X1528Y2753D02*
X1559Y2753D01*
X1790Y2753D02*
X1822Y2753D01*
X1927Y2753D02*
X1959Y2753D01*
X89Y2752D02*
X120Y2752D01*
X228Y2752D02*
X259Y2752D01*
X489Y2752D02*
X520Y2752D01*
X628Y2752D02*
X659Y2752D01*
X940Y2752D02*
X971Y2752D01*
X1079Y2752D02*
X1110Y2752D01*
X1389Y2752D02*
X1420Y2752D01*
X1528Y2752D02*
X1560Y2752D01*
X1790Y2752D02*
X1821Y2752D01*
X1928Y2752D02*
X1959Y2752D01*
X88Y2751D02*
X119Y2751D01*
X229Y2751D02*
X260Y2751D01*
X488Y2751D02*
X519Y2751D01*
X629Y2751D02*
X660Y2751D01*
X939Y2751D02*
X970Y2751D01*
X1080Y2751D02*
X1111Y2751D01*
X1389Y2751D02*
X1419Y2751D01*
X1529Y2751D02*
X1560Y2751D01*
X1789Y2751D02*
X1820Y2751D01*
X1929Y2751D02*
X1960Y2751D01*
X87Y2750D02*
X118Y2750D01*
X230Y2750D02*
X260Y2750D01*
X487Y2750D02*
X518Y2750D01*
X630Y2750D02*
X660Y2750D01*
X938Y2750D02*
X969Y2750D01*
X1081Y2750D02*
X1111Y2750D01*
X1388Y2750D02*
X1418Y2750D01*
X1530Y2750D02*
X1561Y2750D01*
X1789Y2750D02*
X1819Y2750D01*
X1930Y2750D02*
X1961Y2750D01*
X87Y2749D02*
X117Y2749D01*
X231Y2749D02*
X261Y2749D01*
X487Y2749D02*
X517Y2749D01*
X631Y2749D02*
X661Y2749D01*
X938Y2749D02*
X968Y2749D01*
X1082Y2749D02*
X1112Y2749D01*
X1387Y2749D02*
X1417Y2749D01*
X1531Y2749D02*
X1561Y2749D01*
X1788Y2749D02*
X1818Y2749D01*
X1931Y2749D02*
X1961Y2749D01*
X86Y2748D02*
X116Y2748D01*
X231Y2748D02*
X261Y2748D01*
X486Y2748D02*
X516Y2748D01*
X631Y2748D02*
X661Y2748D01*
X937Y2748D02*
X967Y2748D01*
X1082Y2748D02*
X1112Y2748D01*
X1387Y2748D02*
X1417Y2748D01*
X1532Y2748D02*
X1562Y2748D01*
X1787Y2748D02*
X1818Y2748D01*
X1932Y2748D02*
X1962Y2748D01*
X86Y2747D02*
X115Y2747D01*
X232Y2747D02*
X262Y2747D01*
X486Y2747D02*
X515Y2747D01*
X632Y2747D02*
X662Y2747D01*
X937Y2747D02*
X966Y2747D01*
X1083Y2747D02*
X1113Y2747D01*
X1386Y2747D02*
X1416Y2747D01*
X1533Y2747D02*
X1562Y2747D01*
X1787Y2747D02*
X1817Y2747D01*
X1933Y2747D02*
X1962Y2747D01*
X85Y2746D02*
X115Y2746D01*
X233Y2746D02*
X262Y2746D01*
X485Y2746D02*
X515Y2746D01*
X633Y2746D02*
X662Y2746D01*
X936Y2746D02*
X966Y2746D01*
X1084Y2746D02*
X1113Y2746D01*
X1386Y2746D02*
X1415Y2746D01*
X1534Y2746D02*
X1563Y2746D01*
X1787Y2746D02*
X1816Y2746D01*
X1933Y2746D02*
X1963Y2746D01*
X85Y2745D02*
X114Y2745D01*
X234Y2745D02*
X263Y2745D01*
X485Y2745D02*
X514Y2745D01*
X634Y2745D02*
X663Y2745D01*
X936Y2745D02*
X965Y2745D01*
X1085Y2745D02*
X1114Y2745D01*
X1385Y2745D02*
X1414Y2745D01*
X1534Y2745D02*
X1563Y2745D01*
X1786Y2745D02*
X1815Y2745D01*
X1934Y2745D02*
X1963Y2745D01*
X84Y2744D02*
X113Y2744D01*
X234Y2744D02*
X263Y2744D01*
X484Y2744D02*
X513Y2744D01*
X634Y2744D02*
X663Y2744D01*
X935Y2744D02*
X964Y2744D01*
X1085Y2744D02*
X1114Y2744D01*
X1385Y2744D02*
X1414Y2744D01*
X1535Y2744D02*
X1564Y2744D01*
X1786Y2744D02*
X1814Y2744D01*
X1935Y2744D02*
X1964Y2744D01*
X84Y2743D02*
X112Y2743D01*
X235Y2743D02*
X264Y2743D01*
X484Y2743D02*
X512Y2743D01*
X635Y2743D02*
X664Y2743D01*
X935Y2743D02*
X963Y2743D01*
X1086Y2743D02*
X1115Y2743D01*
X1384Y2743D02*
X1413Y2743D01*
X1536Y2743D02*
X1564Y2743D01*
X1785Y2743D02*
X1814Y2743D01*
X1936Y2743D02*
X1964Y2743D01*
X83Y2742D02*
X112Y2742D01*
X236Y2742D02*
X264Y2742D01*
X483Y2742D02*
X512Y2742D01*
X636Y2742D02*
X664Y2742D01*
X934Y2742D02*
X963Y2742D01*
X1087Y2742D02*
X1115Y2742D01*
X1384Y2742D02*
X1412Y2742D01*
X1536Y2742D02*
X1565Y2742D01*
X1785Y2742D02*
X1813Y2742D01*
X1936Y2742D02*
X1965Y2742D01*
X83Y2741D02*
X111Y2741D01*
X236Y2741D02*
X265Y2741D01*
X483Y2741D02*
X511Y2741D01*
X636Y2741D02*
X665Y2741D01*
X934Y2741D02*
X962Y2741D01*
X1088Y2741D02*
X1116Y2741D01*
X1383Y2741D02*
X1412Y2741D01*
X1537Y2741D02*
X1565Y2741D01*
X1784Y2741D02*
X1812Y2741D01*
X1937Y2741D02*
X1965Y2741D01*
X83Y2740D02*
X111Y2740D01*
X237Y2740D02*
X265Y2740D01*
X482Y2740D02*
X510Y2740D01*
X637Y2740D02*
X665Y2740D01*
X934Y2740D02*
X962Y2740D01*
X1088Y2740D02*
X1116Y2740D01*
X1383Y2740D02*
X1411Y2740D01*
X1538Y2740D02*
X1566Y2740D01*
X1784Y2740D02*
X1812Y2740D01*
X1938Y2740D02*
X1966Y2740D01*
X82Y2739D02*
X110Y2739D01*
X238Y2739D02*
X265Y2739D01*
X482Y2739D02*
X510Y2739D01*
X638Y2739D02*
X665Y2739D01*
X933Y2739D02*
X961Y2739D01*
X1089Y2739D02*
X1116Y2739D01*
X1383Y2739D02*
X1410Y2739D01*
X1538Y2739D02*
X1566Y2739D01*
X1783Y2739D02*
X1811Y2739D01*
X1938Y2739D02*
X1966Y2739D01*
X82Y2738D02*
X109Y2738D01*
X238Y2738D02*
X266Y2738D01*
X482Y2738D02*
X509Y2738D01*
X638Y2738D02*
X666Y2738D01*
X933Y2738D02*
X960Y2738D01*
X1089Y2738D02*
X1117Y2738D01*
X1382Y2738D02*
X1410Y2738D01*
X1539Y2738D02*
X1566Y2738D01*
X1783Y2738D02*
X1810Y2738D01*
X1939Y2738D02*
X1966Y2738D01*
X81Y2737D02*
X109Y2737D01*
X239Y2737D02*
X266Y2737D01*
X481Y2737D02*
X509Y2737D01*
X639Y2737D02*
X666Y2737D01*
X932Y2737D02*
X960Y2737D01*
X1090Y2737D02*
X1117Y2737D01*
X1382Y2737D02*
X1409Y2737D01*
X1540Y2737D02*
X1567Y2737D01*
X1782Y2737D02*
X1810Y2737D01*
X1939Y2737D02*
X1967Y2737D01*
X81Y2736D02*
X108Y2736D01*
X239Y2736D02*
X267Y2736D01*
X481Y2736D02*
X508Y2736D01*
X639Y2736D02*
X667Y2736D01*
X932Y2736D02*
X959Y2736D01*
X1091Y2736D02*
X1118Y2736D01*
X1382Y2736D02*
X1409Y2736D01*
X1540Y2736D02*
X1567Y2736D01*
X1782Y2736D02*
X1809Y2736D01*
X1940Y2736D02*
X1967Y2736D01*
X81Y2735D02*
X108Y2735D01*
X240Y2735D02*
X267Y2735D01*
X481Y2735D02*
X508Y2735D01*
X640Y2735D02*
X667Y2735D01*
X932Y2735D02*
X959Y2735D01*
X1091Y2735D02*
X1118Y2735D01*
X1381Y2735D02*
X1408Y2735D01*
X1541Y2735D02*
X1567Y2735D01*
X1782Y2735D02*
X1809Y2735D01*
X1941Y2735D02*
X1968Y2735D01*
X80Y2734D02*
X107Y2734D01*
X240Y2734D02*
X267Y2734D01*
X480Y2734D02*
X507Y2734D01*
X640Y2734D02*
X667Y2734D01*
X931Y2734D02*
X958Y2734D01*
X1091Y2734D02*
X1118Y2734D01*
X1381Y2734D02*
X1408Y2734D01*
X1541Y2734D02*
X1568Y2734D01*
X1781Y2734D02*
X1808Y2734D01*
X1941Y2734D02*
X1968Y2734D01*
X80Y2733D02*
X107Y2733D01*
X241Y2733D02*
X268Y2733D01*
X480Y2733D02*
X507Y2733D01*
X641Y2733D02*
X668Y2733D01*
X931Y2733D02*
X958Y2733D01*
X1092Y2733D02*
X1119Y2733D01*
X1380Y2733D02*
X1407Y2733D01*
X1541Y2733D02*
X1568Y2733D01*
X1781Y2733D02*
X1808Y2733D01*
X1942Y2733D02*
X1968Y2733D01*
X80Y2732D02*
X106Y2732D01*
X241Y2732D02*
X268Y2732D01*
X480Y2732D02*
X506Y2732D01*
X641Y2732D02*
X668Y2732D01*
X931Y2732D02*
X957Y2732D01*
X1092Y2732D02*
X1119Y2732D01*
X1380Y2732D02*
X1407Y2732D01*
X1542Y2732D02*
X1569Y2732D01*
X1781Y2732D02*
X1807Y2732D01*
X1942Y2732D02*
X1969Y2732D01*
X79Y2731D02*
X106Y2731D01*
X242Y2731D02*
X268Y2731D01*
X479Y2731D02*
X506Y2731D01*
X642Y2731D02*
X668Y2731D01*
X930Y2731D02*
X957Y2731D01*
X1093Y2731D02*
X1119Y2731D01*
X1380Y2731D02*
X1406Y2731D01*
X1542Y2731D02*
X1569Y2731D01*
X1780Y2731D02*
X1807Y2731D01*
X1943Y2731D02*
X1969Y2731D01*
X79Y2730D02*
X105Y2730D01*
X242Y2730D02*
X269Y2730D01*
X479Y2730D02*
X505Y2730D01*
X642Y2730D02*
X669Y2730D01*
X930Y2730D02*
X956Y2730D01*
X1093Y2730D02*
X1120Y2730D01*
X1379Y2730D02*
X1406Y2730D01*
X1543Y2730D02*
X1569Y2730D01*
X1780Y2730D02*
X1806Y2730D01*
X1943Y2730D02*
X1969Y2730D01*
X79Y2729D02*
X105Y2729D01*
X243Y2729D02*
X269Y2729D01*
X479Y2729D02*
X505Y2729D01*
X643Y2729D02*
X669Y2729D01*
X930Y2729D02*
X956Y2729D01*
X1094Y2729D02*
X1120Y2729D01*
X1379Y2729D02*
X1405Y2729D01*
X1543Y2729D02*
X1570Y2729D01*
X1780Y2729D02*
X1806Y2729D01*
X1943Y2729D02*
X1970Y2729D01*
X78Y2728D02*
X105Y2728D01*
X243Y2728D02*
X269Y2728D01*
X478Y2728D02*
X504Y2728D01*
X643Y2728D02*
X669Y2728D01*
X929Y2728D02*
X956Y2728D01*
X1094Y2728D02*
X1120Y2728D01*
X1379Y2728D02*
X1405Y2728D01*
X1544Y2728D02*
X1570Y2728D01*
X1779Y2728D02*
X1806Y2728D01*
X1944Y2728D02*
X1970Y2728D01*
X78Y2727D02*
X104Y2727D01*
X243Y2727D02*
X270Y2727D01*
X478Y2727D02*
X504Y2727D01*
X643Y2727D02*
X670Y2727D01*
X929Y2727D02*
X955Y2727D01*
X1094Y2727D02*
X1121Y2727D01*
X1379Y2727D02*
X1405Y2727D01*
X1544Y2727D02*
X1570Y2727D01*
X1779Y2727D02*
X1805Y2727D01*
X1944Y2727D02*
X1970Y2727D01*
X78Y2726D02*
X104Y2726D01*
X244Y2726D02*
X270Y2726D01*
X478Y2726D02*
X504Y2726D01*
X644Y2726D02*
X670Y2726D01*
X929Y2726D02*
X955Y2726D01*
X1095Y2726D02*
X1121Y2726D01*
X1378Y2726D02*
X1404Y2726D01*
X1544Y2726D02*
X1570Y2726D01*
X1779Y2726D02*
X1805Y2726D01*
X1945Y2726D02*
X1971Y2726D01*
X78Y2725D02*
X103Y2725D01*
X244Y2725D02*
X270Y2725D01*
X478Y2725D02*
X503Y2725D01*
X644Y2725D02*
X670Y2725D01*
X929Y2725D02*
X954Y2725D01*
X1095Y2725D02*
X1121Y2725D01*
X1378Y2725D02*
X1404Y2725D01*
X1545Y2725D02*
X1571Y2725D01*
X1779Y2725D02*
X1804Y2725D01*
X1945Y2725D02*
X1971Y2725D01*
X77Y2724D02*
X103Y2724D01*
X245Y2724D02*
X270Y2724D01*
X477Y2724D02*
X503Y2724D01*
X645Y2724D02*
X670Y2724D01*
X928Y2724D02*
X954Y2724D01*
X1096Y2724D02*
X1121Y2724D01*
X1378Y2724D02*
X1404Y2724D01*
X1545Y2724D02*
X1571Y2724D01*
X1778Y2724D02*
X1804Y2724D01*
X1945Y2724D02*
X1971Y2724D01*
X77Y2723D02*
X103Y2723D01*
X245Y2723D02*
X271Y2723D01*
X477Y2723D02*
X503Y2723D01*
X645Y2723D02*
X670Y2723D01*
X928Y2723D02*
X954Y2723D01*
X1096Y2723D02*
X1122Y2723D01*
X1378Y2723D02*
X1403Y2723D01*
X1545Y2723D02*
X1571Y2723D01*
X1778Y2723D02*
X1804Y2723D01*
X1946Y2723D02*
X1971Y2723D01*
X77Y2722D02*
X102Y2722D01*
X245Y2722D02*
X271Y2722D01*
X477Y2722D02*
X502Y2722D01*
X645Y2722D02*
X671Y2722D01*
X928Y2722D02*
X954Y2722D01*
X1096Y2722D02*
X1122Y2722D01*
X1377Y2722D02*
X1403Y2722D01*
X1546Y2722D02*
X1571Y2722D01*
X1778Y2722D02*
X1803Y2722D01*
X1946Y2722D02*
X1971Y2722D01*
X77Y2721D02*
X102Y2721D01*
X245Y2721D02*
X271Y2721D01*
X477Y2721D02*
X502Y2721D01*
X645Y2721D02*
X671Y2721D01*
X928Y2721D02*
X953Y2721D01*
X1096Y2721D02*
X1122Y2721D01*
X1377Y2721D02*
X1403Y2721D01*
X1546Y2721D02*
X1572Y2721D01*
X1778Y2721D02*
X1803Y2721D01*
X1946Y2721D02*
X1972Y2721D01*
X76Y2720D02*
X102Y2720D01*
X246Y2720D02*
X271Y2720D01*
X476Y2720D02*
X502Y2720D01*
X646Y2720D02*
X671Y2720D01*
X927Y2720D02*
X953Y2720D01*
X1097Y2720D02*
X1122Y2720D01*
X1377Y2720D02*
X1402Y2720D01*
X1546Y2720D02*
X1572Y2720D01*
X1777Y2720D02*
X1803Y2720D01*
X1946Y2720D02*
X1972Y2720D01*
X76Y2719D02*
X102Y2719D01*
X246Y2719D02*
X271Y2719D01*
X476Y2719D02*
X502Y2719D01*
X646Y2719D02*
X671Y2719D01*
X927Y2719D02*
X953Y2719D01*
X1097Y2719D02*
X1122Y2719D01*
X1377Y2719D02*
X1402Y2719D01*
X1546Y2719D02*
X1572Y2719D01*
X1777Y2719D02*
X1803Y2719D01*
X1947Y2719D02*
X1972Y2719D01*
X76Y2718D02*
X101Y2718D01*
X246Y2718D02*
X272Y2718D01*
X476Y2718D02*
X501Y2718D01*
X646Y2718D02*
X671Y2718D01*
X927Y2718D02*
X952Y2718D01*
X1097Y2718D02*
X1123Y2718D01*
X1377Y2718D02*
X1402Y2718D01*
X1547Y2718D02*
X1572Y2718D01*
X1777Y2718D02*
X1802Y2718D01*
X1947Y2718D02*
X1972Y2718D01*
X76Y2717D02*
X101Y2717D01*
X246Y2717D02*
X272Y2717D01*
X476Y2717D02*
X501Y2717D01*
X646Y2717D02*
X672Y2717D01*
X927Y2717D02*
X952Y2717D01*
X1097Y2717D02*
X1123Y2717D01*
X1376Y2717D02*
X1402Y2717D01*
X1547Y2717D02*
X1572Y2717D01*
X1777Y2717D02*
X1802Y2717D01*
X1947Y2717D02*
X1972Y2717D01*
X76Y2716D02*
X101Y2716D01*
X247Y2716D02*
X272Y2716D01*
X476Y2716D02*
X501Y2716D01*
X647Y2716D02*
X672Y2716D01*
X927Y2716D02*
X952Y2716D01*
X1098Y2716D02*
X1123Y2716D01*
X1376Y2716D02*
X1401Y2716D01*
X1547Y2716D02*
X1572Y2716D01*
X1777Y2716D02*
X1802Y2716D01*
X1947Y2716D02*
X1973Y2716D01*
X76Y2715D02*
X101Y2715D01*
X247Y2715D02*
X272Y2715D01*
X476Y2715D02*
X501Y2715D01*
X647Y2715D02*
X672Y2715D01*
X927Y2715D02*
X952Y2715D01*
X1098Y2715D02*
X1123Y2715D01*
X1376Y2715D02*
X1401Y2715D01*
X1547Y2715D02*
X1573Y2715D01*
X1777Y2715D02*
X1802Y2715D01*
X1948Y2715D02*
X1973Y2715D01*
X76Y2714D02*
X101Y2714D01*
X247Y2714D02*
X272Y2714D01*
X475Y2714D02*
X501Y2714D01*
X647Y2714D02*
X672Y2714D01*
X927Y2714D02*
X952Y2714D01*
X1098Y2714D02*
X1123Y2714D01*
X1376Y2714D02*
X1401Y2714D01*
X1547Y2714D02*
X1573Y2714D01*
X1776Y2714D02*
X1802Y2714D01*
X1948Y2714D02*
X1973Y2714D01*
X75Y2713D02*
X101Y2713D01*
X247Y2713D02*
X272Y2713D01*
X475Y2713D02*
X501Y2713D01*
X647Y2713D02*
X672Y2713D01*
X926Y2713D02*
X952Y2713D01*
X1098Y2713D02*
X1123Y2713D01*
X1376Y2713D02*
X1401Y2713D01*
X1548Y2713D02*
X1573Y2713D01*
X1776Y2713D02*
X1801Y2713D01*
X1948Y2713D02*
X1973Y2713D01*
X75Y2712D02*
X100Y2712D01*
X247Y2712D02*
X272Y2712D01*
X475Y2712D02*
X500Y2712D01*
X647Y2712D02*
X672Y2712D01*
X926Y2712D02*
X951Y2712D01*
X1098Y2712D02*
X1123Y2712D01*
X1376Y2712D02*
X1401Y2712D01*
X1548Y2712D02*
X1573Y2712D01*
X1776Y2712D02*
X1801Y2712D01*
X1948Y2712D02*
X1973Y2712D01*
X75Y2711D02*
X100Y2711D01*
X247Y2711D02*
X272Y2711D01*
X475Y2711D02*
X500Y2711D01*
X647Y2711D02*
X672Y2711D01*
X926Y2711D02*
X951Y2711D01*
X1098Y2711D02*
X1124Y2711D01*
X1376Y2711D02*
X1401Y2711D01*
X1548Y2711D02*
X1573Y2711D01*
X1776Y2711D02*
X1801Y2711D01*
X1948Y2711D02*
X1973Y2711D01*
X75Y2710D02*
X100Y2710D01*
X248Y2710D02*
X273Y2710D01*
X475Y2710D02*
X500Y2710D01*
X647Y2710D02*
X673Y2710D01*
X926Y2710D02*
X951Y2710D01*
X1099Y2710D02*
X1124Y2710D01*
X1376Y2710D02*
X1401Y2710D01*
X1548Y2710D02*
X1573Y2710D01*
X1776Y2710D02*
X1801Y2710D01*
X1948Y2710D02*
X1973Y2710D01*
X75Y2709D02*
X100Y2709D01*
X248Y2709D02*
X273Y2709D01*
X475Y2709D02*
X500Y2709D01*
X648Y2709D02*
X673Y2709D01*
X926Y2709D02*
X951Y2709D01*
X1099Y2709D02*
X1124Y2709D01*
X1375Y2709D02*
X1400Y2709D01*
X1548Y2709D02*
X1573Y2709D01*
X1776Y2709D02*
X1801Y2709D01*
X1948Y2709D02*
X1973Y2709D01*
X75Y2708D02*
X100Y2708D01*
X248Y2708D02*
X273Y2708D01*
X475Y2708D02*
X500Y2708D01*
X648Y2708D02*
X673Y2708D01*
X926Y2708D02*
X951Y2708D01*
X1099Y2708D02*
X1124Y2708D01*
X1375Y2708D02*
X1400Y2708D01*
X1548Y2708D02*
X1573Y2708D01*
X1776Y2708D02*
X1801Y2708D01*
X1949Y2708D02*
X1974Y2708D01*
X75Y2707D02*
X100Y2707D01*
X248Y2707D02*
X273Y2707D01*
X475Y2707D02*
X500Y2707D01*
X648Y2707D02*
X673Y2707D01*
X926Y2707D02*
X951Y2707D01*
X1099Y2707D02*
X1124Y2707D01*
X1375Y2707D02*
X1400Y2707D01*
X1548Y2707D02*
X1573Y2707D01*
X1776Y2707D02*
X1801Y2707D01*
X1949Y2707D02*
X1974Y2707D01*
X75Y2706D02*
X100Y2706D01*
X248Y2706D02*
X273Y2706D01*
X475Y2706D02*
X500Y2706D01*
X648Y2706D02*
X673Y2706D01*
X926Y2706D02*
X951Y2706D01*
X1099Y2706D02*
X1124Y2706D01*
X1375Y2706D02*
X1400Y2706D01*
X1548Y2706D02*
X1574Y2706D01*
X1776Y2706D02*
X1801Y2706D01*
X1949Y2706D02*
X1974Y2706D01*
X75Y2705D02*
X100Y2705D01*
X248Y2705D02*
X273Y2705D01*
X475Y2705D02*
X500Y2705D01*
X648Y2705D02*
X673Y2705D01*
X926Y2705D02*
X951Y2705D01*
X1099Y2705D02*
X1124Y2705D01*
X1375Y2705D02*
X1400Y2705D01*
X1548Y2705D02*
X1574Y2705D01*
X1776Y2705D02*
X1801Y2705D01*
X1949Y2705D02*
X1974Y2705D01*
X75Y2704D02*
X100Y2704D01*
X248Y2704D02*
X273Y2704D01*
X475Y2704D02*
X500Y2704D01*
X648Y2704D02*
X673Y2704D01*
X926Y2704D02*
X951Y2704D01*
X1099Y2704D02*
X1124Y2704D01*
X1375Y2704D02*
X1400Y2704D01*
X1548Y2704D02*
X1574Y2704D01*
X1776Y2704D02*
X1801Y2704D01*
X1949Y2704D02*
X1974Y2704D01*
X75Y2703D02*
X100Y2703D01*
X248Y2703D02*
X273Y2703D01*
X475Y2703D02*
X500Y2703D01*
X648Y2703D02*
X673Y2703D01*
X926Y2703D02*
X951Y2703D01*
X1099Y2703D02*
X1124Y2703D01*
X1375Y2703D02*
X1400Y2703D01*
X1548Y2703D02*
X1574Y2703D01*
X1776Y2703D02*
X1801Y2703D01*
X1949Y2703D02*
X1974Y2703D01*
X75Y2702D02*
X100Y2702D01*
X248Y2702D02*
X273Y2702D01*
X475Y2702D02*
X500Y2702D01*
X648Y2702D02*
X673Y2702D01*
X926Y2702D02*
X951Y2702D01*
X1099Y2702D02*
X1124Y2702D01*
X1375Y2702D02*
X1400Y2702D01*
X1549Y2702D02*
X1574Y2702D01*
X1776Y2702D02*
X1800Y2702D01*
X1949Y2702D02*
X1974Y2702D01*
X75Y2701D02*
X100Y2701D01*
X248Y2701D02*
X273Y2701D01*
X475Y2701D02*
X500Y2701D01*
X648Y2701D02*
X673Y2701D01*
X926Y2701D02*
X951Y2701D01*
X1099Y2701D02*
X1124Y2701D01*
X1375Y2701D02*
X1400Y2701D01*
X1549Y2701D02*
X1574Y2701D01*
X1776Y2701D02*
X1800Y2701D01*
X1949Y2701D02*
X1974Y2701D01*
X75Y2700D02*
X100Y2700D01*
X248Y2700D02*
X273Y2700D01*
X475Y2700D02*
X500Y2700D01*
X648Y2700D02*
X673Y2700D01*
X926Y2700D02*
X951Y2700D01*
X1099Y2700D02*
X1124Y2700D01*
X1375Y2700D02*
X1400Y2700D01*
X1548Y2700D02*
X1574Y2700D01*
X1776Y2700D02*
X1800Y2700D01*
X1949Y2700D02*
X1974Y2700D01*
X75Y2699D02*
X100Y2699D01*
X248Y2699D02*
X273Y2699D01*
X475Y2699D02*
X500Y2699D01*
X648Y2699D02*
X673Y2699D01*
X926Y2699D02*
X951Y2699D01*
X1099Y2699D02*
X1124Y2699D01*
X1375Y2699D02*
X1400Y2699D01*
X1548Y2699D02*
X1574Y2699D01*
X1776Y2699D02*
X1801Y2699D01*
X1949Y2699D02*
X1974Y2699D01*
X75Y2698D02*
X100Y2698D01*
X248Y2698D02*
X273Y2698D01*
X475Y2698D02*
X500Y2698D01*
X648Y2698D02*
X673Y2698D01*
X926Y2698D02*
X951Y2698D01*
X1099Y2698D02*
X1124Y2698D01*
X1375Y2698D02*
X1400Y2698D01*
X1548Y2698D02*
X1574Y2698D01*
X1776Y2698D02*
X1801Y2698D01*
X1949Y2698D02*
X1974Y2698D01*
X75Y2697D02*
X100Y2697D01*
X248Y2697D02*
X273Y2697D01*
X475Y2697D02*
X500Y2697D01*
X648Y2697D02*
X673Y2697D01*
X926Y2697D02*
X951Y2697D01*
X1099Y2697D02*
X1124Y2697D01*
X1375Y2697D02*
X1400Y2697D01*
X1548Y2697D02*
X1574Y2697D01*
X1776Y2697D02*
X1801Y2697D01*
X1949Y2697D02*
X1974Y2697D01*
X75Y2696D02*
X100Y2696D01*
X248Y2696D02*
X273Y2696D01*
X475Y2696D02*
X500Y2696D01*
X648Y2696D02*
X673Y2696D01*
X926Y2696D02*
X951Y2696D01*
X1099Y2696D02*
X1124Y2696D01*
X1375Y2696D02*
X1400Y2696D01*
X1548Y2696D02*
X1574Y2696D01*
X1776Y2696D02*
X1801Y2696D01*
X1949Y2696D02*
X1974Y2696D01*
X75Y2695D02*
X100Y2695D01*
X248Y2695D02*
X273Y2695D01*
X475Y2695D02*
X500Y2695D01*
X648Y2695D02*
X673Y2695D01*
X926Y2695D02*
X951Y2695D01*
X1099Y2695D02*
X1124Y2695D01*
X1375Y2695D02*
X1400Y2695D01*
X1548Y2695D02*
X1574Y2695D01*
X1776Y2695D02*
X1801Y2695D01*
X1949Y2695D02*
X1974Y2695D01*
X75Y2694D02*
X100Y2694D01*
X248Y2694D02*
X273Y2694D01*
X475Y2694D02*
X500Y2694D01*
X648Y2694D02*
X673Y2694D01*
X926Y2694D02*
X951Y2694D01*
X1099Y2694D02*
X1124Y2694D01*
X1375Y2694D02*
X1400Y2694D01*
X1548Y2694D02*
X1574Y2694D01*
X1776Y2694D02*
X1801Y2694D01*
X1949Y2694D02*
X1974Y2694D01*
X75Y2693D02*
X100Y2693D01*
X248Y2693D02*
X273Y2693D01*
X475Y2693D02*
X500Y2693D01*
X648Y2693D02*
X673Y2693D01*
X926Y2693D02*
X951Y2693D01*
X1099Y2693D02*
X1124Y2693D01*
X1375Y2693D02*
X1401Y2693D01*
X1548Y2693D02*
X1574Y2693D01*
X1776Y2693D02*
X1801Y2693D01*
X1948Y2693D02*
X1974Y2693D01*
X75Y2692D02*
X100Y2692D01*
X247Y2692D02*
X273Y2692D01*
X475Y2692D02*
X500Y2692D01*
X647Y2692D02*
X673Y2692D01*
X926Y2692D02*
X951Y2692D01*
X1098Y2692D02*
X1124Y2692D01*
X1375Y2692D02*
X1401Y2692D01*
X1548Y2692D02*
X1574Y2692D01*
X1776Y2692D02*
X1801Y2692D01*
X1948Y2692D02*
X1974Y2692D01*
X75Y2691D02*
X100Y2691D01*
X247Y2691D02*
X273Y2691D01*
X475Y2691D02*
X500Y2691D01*
X647Y2691D02*
X673Y2691D01*
X926Y2691D02*
X951Y2691D01*
X1098Y2691D02*
X1124Y2691D01*
X1375Y2691D02*
X1401Y2691D01*
X1548Y2691D02*
X1574Y2691D01*
X1776Y2691D02*
X1801Y2691D01*
X1948Y2691D02*
X1974Y2691D01*
X75Y2690D02*
X101Y2690D01*
X247Y2690D02*
X273Y2690D01*
X475Y2690D02*
X500Y2690D01*
X647Y2690D02*
X673Y2690D01*
X926Y2690D02*
X952Y2690D01*
X1098Y2690D02*
X1124Y2690D01*
X1375Y2690D02*
X1401Y2690D01*
X1548Y2690D02*
X1574Y2690D01*
X1776Y2690D02*
X1801Y2690D01*
X1948Y2690D02*
X1974Y2690D01*
X75Y2689D02*
X101Y2689D01*
X247Y2689D02*
X273Y2689D01*
X475Y2689D02*
X501Y2689D01*
X647Y2689D02*
X673Y2689D01*
X926Y2689D02*
X952Y2689D01*
X1098Y2689D02*
X1124Y2689D01*
X1375Y2689D02*
X1401Y2689D01*
X1547Y2689D02*
X1574Y2689D01*
X1776Y2689D02*
X1801Y2689D01*
X1948Y2689D02*
X1974Y2689D01*
X75Y2688D02*
X101Y2688D01*
X247Y2688D02*
X273Y2688D01*
X475Y2688D02*
X501Y2688D01*
X647Y2688D02*
X673Y2688D01*
X926Y2688D02*
X952Y2688D01*
X1098Y2688D02*
X1124Y2688D01*
X1375Y2688D02*
X1401Y2688D01*
X1547Y2688D02*
X1574Y2688D01*
X1776Y2688D02*
X1802Y2688D01*
X1948Y2688D02*
X1974Y2688D01*
X75Y2687D02*
X101Y2687D01*
X247Y2687D02*
X273Y2687D01*
X475Y2687D02*
X501Y2687D01*
X647Y2687D02*
X673Y2687D01*
X926Y2687D02*
X952Y2687D01*
X1098Y2687D02*
X1124Y2687D01*
X1375Y2687D02*
X1401Y2687D01*
X1547Y2687D02*
X1574Y2687D01*
X1776Y2687D02*
X1802Y2687D01*
X1948Y2687D02*
X1974Y2687D01*
X75Y2686D02*
X101Y2686D01*
X246Y2686D02*
X273Y2686D01*
X475Y2686D02*
X501Y2686D01*
X646Y2686D02*
X673Y2686D01*
X926Y2686D02*
X952Y2686D01*
X1097Y2686D02*
X1124Y2686D01*
X1375Y2686D02*
X1402Y2686D01*
X1547Y2686D02*
X1574Y2686D01*
X1776Y2686D02*
X1802Y2686D01*
X1947Y2686D02*
X1974Y2686D01*
X75Y2685D02*
X101Y2685D01*
X246Y2685D02*
X273Y2685D01*
X475Y2685D02*
X501Y2685D01*
X646Y2685D02*
X673Y2685D01*
X926Y2685D02*
X952Y2685D01*
X1097Y2685D02*
X1124Y2685D01*
X1375Y2685D02*
X1402Y2685D01*
X1547Y2685D02*
X1574Y2685D01*
X1776Y2685D02*
X1802Y2685D01*
X1947Y2685D02*
X1974Y2685D01*
X75Y2684D02*
X102Y2684D01*
X246Y2684D02*
X273Y2684D01*
X475Y2684D02*
X502Y2684D01*
X646Y2684D02*
X673Y2684D01*
X926Y2684D02*
X953Y2684D01*
X1097Y2684D02*
X1124Y2684D01*
X1375Y2684D02*
X1402Y2684D01*
X1546Y2684D02*
X1574Y2684D01*
X1776Y2684D02*
X1802Y2684D01*
X1947Y2684D02*
X1974Y2684D01*
X75Y2683D02*
X102Y2683D01*
X246Y2683D02*
X273Y2683D01*
X475Y2683D02*
X502Y2683D01*
X646Y2683D02*
X673Y2683D01*
X926Y2683D02*
X953Y2683D01*
X1097Y2683D02*
X1124Y2683D01*
X1375Y2683D02*
X1402Y2683D01*
X1546Y2683D02*
X1574Y2683D01*
X1776Y2683D02*
X1803Y2683D01*
X1947Y2683D02*
X1974Y2683D01*
X75Y2682D02*
X102Y2682D01*
X245Y2682D02*
X273Y2682D01*
X475Y2682D02*
X502Y2682D01*
X645Y2682D02*
X673Y2682D01*
X926Y2682D02*
X953Y2682D01*
X1096Y2682D02*
X1124Y2682D01*
X1375Y2682D02*
X1403Y2682D01*
X1546Y2682D02*
X1574Y2682D01*
X1776Y2682D02*
X1803Y2682D01*
X1946Y2682D02*
X1974Y2682D01*
X75Y2681D02*
X102Y2681D01*
X245Y2681D02*
X273Y2681D01*
X475Y2681D02*
X502Y2681D01*
X645Y2681D02*
X673Y2681D01*
X926Y2681D02*
X953Y2681D01*
X1096Y2681D02*
X1124Y2681D01*
X1375Y2681D02*
X1403Y2681D01*
X1546Y2681D02*
X1574Y2681D01*
X1776Y2681D02*
X1803Y2681D01*
X1946Y2681D02*
X1974Y2681D01*
X75Y2680D02*
X103Y2680D01*
X245Y2680D02*
X273Y2680D01*
X475Y2680D02*
X503Y2680D01*
X645Y2680D02*
X673Y2680D01*
X926Y2680D02*
X954Y2680D01*
X1096Y2680D02*
X1124Y2680D01*
X1375Y2680D02*
X1403Y2680D01*
X1545Y2680D02*
X1574Y2680D01*
X1776Y2680D02*
X1803Y2680D01*
X1946Y2680D02*
X1974Y2680D01*
X75Y2679D02*
X103Y2679D01*
X245Y2679D02*
X273Y2679D01*
X475Y2679D02*
X503Y2679D01*
X645Y2679D02*
X673Y2679D01*
X926Y2679D02*
X954Y2679D01*
X1096Y2679D02*
X1124Y2679D01*
X1375Y2679D02*
X1404Y2679D01*
X1545Y2679D02*
X1574Y2679D01*
X1776Y2679D02*
X1804Y2679D01*
X1946Y2679D02*
X1974Y2679D01*
X75Y2678D02*
X103Y2678D01*
X244Y2678D02*
X273Y2678D01*
X475Y2678D02*
X503Y2678D01*
X644Y2678D02*
X673Y2678D01*
X926Y2678D02*
X954Y2678D01*
X1095Y2678D02*
X1124Y2678D01*
X1375Y2678D02*
X1404Y2678D01*
X1545Y2678D02*
X1574Y2678D01*
X1776Y2678D02*
X1804Y2678D01*
X1945Y2678D02*
X1974Y2678D01*
X75Y2677D02*
X104Y2677D01*
X244Y2677D02*
X273Y2677D01*
X475Y2677D02*
X504Y2677D01*
X644Y2677D02*
X673Y2677D01*
X926Y2677D02*
X955Y2677D01*
X1095Y2677D02*
X1124Y2677D01*
X1375Y2677D02*
X1404Y2677D01*
X1544Y2677D02*
X1574Y2677D01*
X1776Y2677D02*
X1804Y2677D01*
X1945Y2677D02*
X1974Y2677D01*
X75Y2676D02*
X104Y2676D01*
X244Y2676D02*
X273Y2676D01*
X475Y2676D02*
X504Y2676D01*
X644Y2676D02*
X673Y2676D01*
X926Y2676D02*
X955Y2676D01*
X1095Y2676D02*
X1124Y2676D01*
X1375Y2676D02*
X1405Y2676D01*
X1544Y2676D02*
X1574Y2676D01*
X1776Y2676D02*
X1805Y2676D01*
X1945Y2676D02*
X1974Y2676D01*
X75Y2675D02*
X104Y2675D01*
X243Y2675D02*
X273Y2675D01*
X475Y2675D02*
X504Y2675D01*
X643Y2675D02*
X673Y2675D01*
X926Y2675D02*
X955Y2675D01*
X1094Y2675D02*
X1124Y2675D01*
X1375Y2675D02*
X1405Y2675D01*
X1544Y2675D02*
X1574Y2675D01*
X1776Y2675D02*
X1805Y2675D01*
X1944Y2675D02*
X1974Y2675D01*
X75Y2674D02*
X105Y2674D01*
X243Y2674D02*
X273Y2674D01*
X475Y2674D02*
X505Y2674D01*
X643Y2674D02*
X673Y2674D01*
X926Y2674D02*
X956Y2674D01*
X1094Y2674D02*
X1124Y2674D01*
X1375Y2674D02*
X1405Y2674D01*
X1543Y2674D02*
X1574Y2674D01*
X1776Y2674D02*
X1805Y2674D01*
X1944Y2674D02*
X1974Y2674D01*
X75Y2673D02*
X105Y2673D01*
X242Y2673D02*
X273Y2673D01*
X475Y2673D02*
X505Y2673D01*
X642Y2673D02*
X673Y2673D01*
X926Y2673D02*
X956Y2673D01*
X1093Y2673D02*
X1124Y2673D01*
X1375Y2673D02*
X1406Y2673D01*
X1543Y2673D02*
X1574Y2673D01*
X1776Y2673D02*
X1806Y2673D01*
X1943Y2673D02*
X1974Y2673D01*
X75Y2672D02*
X106Y2672D01*
X242Y2672D02*
X273Y2672D01*
X475Y2672D02*
X506Y2672D01*
X642Y2672D02*
X673Y2672D01*
X926Y2672D02*
X957Y2672D01*
X1093Y2672D02*
X1124Y2672D01*
X1375Y2672D02*
X1406Y2672D01*
X1542Y2672D02*
X1574Y2672D01*
X1776Y2672D02*
X1806Y2672D01*
X1943Y2672D02*
X1974Y2672D01*
X75Y2671D02*
X106Y2671D01*
X242Y2671D02*
X273Y2671D01*
X475Y2671D02*
X506Y2671D01*
X641Y2671D02*
X673Y2671D01*
X926Y2671D02*
X957Y2671D01*
X1093Y2671D02*
X1124Y2671D01*
X1375Y2671D02*
X1407Y2671D01*
X1542Y2671D02*
X1574Y2671D01*
X1776Y2671D02*
X1807Y2671D01*
X1943Y2671D02*
X1974Y2671D01*
X75Y2670D02*
X107Y2670D01*
X241Y2670D02*
X273Y2670D01*
X475Y2670D02*
X507Y2670D01*
X641Y2670D02*
X673Y2670D01*
X926Y2670D02*
X958Y2670D01*
X1092Y2670D02*
X1124Y2670D01*
X1375Y2670D02*
X1407Y2670D01*
X1542Y2670D02*
X1574Y2670D01*
X1776Y2670D02*
X1807Y2670D01*
X1942Y2670D02*
X1974Y2670D01*
X75Y2669D02*
X107Y2669D01*
X241Y2669D02*
X273Y2669D01*
X475Y2669D02*
X507Y2669D01*
X641Y2669D02*
X673Y2669D01*
X926Y2669D02*
X958Y2669D01*
X1092Y2669D02*
X1124Y2669D01*
X1375Y2669D02*
X1408Y2669D01*
X1541Y2669D02*
X1574Y2669D01*
X1776Y2669D02*
X1808Y2669D01*
X1942Y2669D02*
X1974Y2669D01*
X75Y2668D02*
X108Y2668D01*
X240Y2668D02*
X273Y2668D01*
X475Y2668D02*
X507Y2668D01*
X640Y2668D02*
X673Y2668D01*
X926Y2668D02*
X959Y2668D01*
X1091Y2668D02*
X1124Y2668D01*
X1375Y2668D02*
X1408Y2668D01*
X1541Y2668D02*
X1574Y2668D01*
X1776Y2668D02*
X1808Y2668D01*
X1941Y2668D02*
X1974Y2668D01*
X75Y2667D02*
X108Y2667D01*
X240Y2667D02*
X273Y2667D01*
X475Y2667D02*
X508Y2667D01*
X640Y2667D02*
X673Y2667D01*
X926Y2667D02*
X959Y2667D01*
X1091Y2667D02*
X1124Y2667D01*
X1375Y2667D02*
X1409Y2667D01*
X1540Y2667D02*
X1574Y2667D01*
X1776Y2667D02*
X1809Y2667D01*
X1941Y2667D02*
X1974Y2667D01*
X75Y2666D02*
X109Y2666D01*
X239Y2666D02*
X273Y2666D01*
X475Y2666D02*
X508Y2666D01*
X639Y2666D02*
X673Y2666D01*
X926Y2666D02*
X960Y2666D01*
X1090Y2666D02*
X1124Y2666D01*
X1375Y2666D02*
X1409Y2666D01*
X1540Y2666D02*
X1574Y2666D01*
X1776Y2666D02*
X1809Y2666D01*
X1940Y2666D02*
X1974Y2666D01*
X75Y2665D02*
X109Y2665D01*
X238Y2665D02*
X273Y2665D01*
X475Y2665D02*
X509Y2665D01*
X638Y2665D02*
X673Y2665D01*
X926Y2665D02*
X960Y2665D01*
X1089Y2665D02*
X1124Y2665D01*
X1375Y2665D02*
X1410Y2665D01*
X1539Y2665D02*
X1574Y2665D01*
X1776Y2665D02*
X1810Y2665D01*
X1940Y2665D02*
X1974Y2665D01*
X75Y2664D02*
X110Y2664D01*
X238Y2664D02*
X273Y2664D01*
X475Y2664D02*
X510Y2664D01*
X638Y2664D02*
X673Y2664D01*
X926Y2664D02*
X961Y2664D01*
X1089Y2664D02*
X1124Y2664D01*
X1375Y2664D02*
X1410Y2664D01*
X1538Y2664D02*
X1574Y2664D01*
X1776Y2664D02*
X1810Y2664D01*
X1939Y2664D02*
X1974Y2664D01*
X75Y2663D02*
X110Y2663D01*
X237Y2663D02*
X273Y2663D01*
X475Y2663D02*
X510Y2663D01*
X637Y2663D02*
X673Y2663D01*
X926Y2663D02*
X961Y2663D01*
X1088Y2663D02*
X1124Y2663D01*
X1375Y2663D02*
X1411Y2663D01*
X1538Y2663D02*
X1574Y2663D01*
X1776Y2663D02*
X1811Y2663D01*
X1938Y2663D02*
X1974Y2663D01*
X75Y2662D02*
X111Y2662D01*
X237Y2662D02*
X273Y2662D01*
X475Y2662D02*
X511Y2662D01*
X637Y2662D02*
X673Y2662D01*
X926Y2662D02*
X962Y2662D01*
X1088Y2662D02*
X1124Y2662D01*
X1375Y2662D02*
X1412Y2662D01*
X1537Y2662D02*
X1574Y2662D01*
X1776Y2662D02*
X1812Y2662D01*
X1938Y2662D02*
X1974Y2662D01*
X75Y2661D02*
X112Y2661D01*
X236Y2661D02*
X273Y2661D01*
X475Y2661D02*
X512Y2661D01*
X636Y2661D02*
X673Y2661D01*
X926Y2661D02*
X963Y2661D01*
X1087Y2661D02*
X1124Y2661D01*
X1375Y2661D02*
X1412Y2661D01*
X1536Y2661D02*
X1574Y2661D01*
X1776Y2661D02*
X1812Y2661D01*
X1937Y2661D02*
X1974Y2661D01*
X75Y2660D02*
X112Y2660D01*
X235Y2660D02*
X273Y2660D01*
X475Y2660D02*
X512Y2660D01*
X635Y2660D02*
X673Y2660D01*
X926Y2660D02*
X963Y2660D01*
X1086Y2660D02*
X1124Y2660D01*
X1375Y2660D02*
X1413Y2660D01*
X1536Y2660D02*
X1574Y2660D01*
X1776Y2660D02*
X1813Y2660D01*
X1937Y2660D02*
X1974Y2660D01*
X75Y2659D02*
X113Y2659D01*
X235Y2659D02*
X273Y2659D01*
X475Y2659D02*
X513Y2659D01*
X635Y2659D02*
X673Y2659D01*
X926Y2659D02*
X964Y2659D01*
X1086Y2659D02*
X1124Y2659D01*
X1375Y2659D02*
X1414Y2659D01*
X1535Y2659D02*
X1574Y2659D01*
X1776Y2659D02*
X1813Y2659D01*
X1936Y2659D02*
X1974Y2659D01*
X75Y2658D02*
X114Y2658D01*
X234Y2658D02*
X273Y2658D01*
X475Y2658D02*
X514Y2658D01*
X634Y2658D02*
X673Y2658D01*
X926Y2658D02*
X965Y2658D01*
X1085Y2658D02*
X1124Y2658D01*
X1375Y2658D02*
X1414Y2658D01*
X1534Y2658D02*
X1574Y2658D01*
X1776Y2658D02*
X1814Y2658D01*
X1935Y2658D02*
X1974Y2658D01*
X75Y2657D02*
X114Y2657D01*
X233Y2657D02*
X273Y2657D01*
X475Y2657D02*
X514Y2657D01*
X633Y2657D02*
X673Y2657D01*
X926Y2657D02*
X965Y2657D01*
X1084Y2657D02*
X1124Y2657D01*
X1375Y2657D02*
X1415Y2657D01*
X1534Y2657D02*
X1574Y2657D01*
X1776Y2657D02*
X1815Y2657D01*
X1934Y2657D02*
X1974Y2657D01*
X75Y2656D02*
X115Y2656D01*
X232Y2656D02*
X273Y2656D01*
X475Y2656D02*
X515Y2656D01*
X632Y2656D02*
X673Y2656D01*
X926Y2656D02*
X966Y2656D01*
X1083Y2656D02*
X1124Y2656D01*
X1375Y2656D02*
X1416Y2656D01*
X1533Y2656D02*
X1574Y2656D01*
X1776Y2656D02*
X1816Y2656D01*
X1934Y2656D02*
X1974Y2656D01*
X75Y2655D02*
X116Y2655D01*
X232Y2655D02*
X273Y2655D01*
X475Y2655D02*
X516Y2655D01*
X632Y2655D02*
X673Y2655D01*
X926Y2655D02*
X967Y2655D01*
X1083Y2655D02*
X1124Y2655D01*
X1375Y2655D02*
X1417Y2655D01*
X1532Y2655D02*
X1574Y2655D01*
X1776Y2655D02*
X1816Y2655D01*
X1933Y2655D02*
X1974Y2655D01*
X75Y2654D02*
X117Y2654D01*
X231Y2654D02*
X273Y2654D01*
X475Y2654D02*
X517Y2654D01*
X631Y2654D02*
X673Y2654D01*
X926Y2654D02*
X968Y2654D01*
X1082Y2654D02*
X1124Y2654D01*
X1375Y2654D02*
X1417Y2654D01*
X1531Y2654D02*
X1574Y2654D01*
X1776Y2654D02*
X1817Y2654D01*
X1932Y2654D02*
X1974Y2654D01*
X75Y2653D02*
X118Y2653D01*
X230Y2653D02*
X273Y2653D01*
X475Y2653D02*
X518Y2653D01*
X630Y2653D02*
X673Y2653D01*
X926Y2653D02*
X969Y2653D01*
X1081Y2653D02*
X1124Y2653D01*
X1375Y2653D02*
X1418Y2653D01*
X1530Y2653D02*
X1574Y2653D01*
X1776Y2653D02*
X1818Y2653D01*
X1931Y2653D02*
X1974Y2653D01*
X75Y2652D02*
X119Y2652D01*
X229Y2652D02*
X273Y2652D01*
X475Y2652D02*
X519Y2652D01*
X629Y2652D02*
X673Y2652D01*
X926Y2652D02*
X970Y2652D01*
X1080Y2652D02*
X1124Y2652D01*
X1375Y2652D02*
X1419Y2652D01*
X1529Y2652D02*
X1574Y2652D01*
X1776Y2652D02*
X1819Y2652D01*
X1930Y2652D02*
X1974Y2652D01*
X75Y2651D02*
X120Y2651D01*
X228Y2651D02*
X273Y2651D01*
X475Y2651D02*
X520Y2651D01*
X628Y2651D02*
X673Y2651D01*
X926Y2651D02*
X971Y2651D01*
X1079Y2651D02*
X1124Y2651D01*
X1375Y2651D02*
X1420Y2651D01*
X1528Y2651D02*
X1574Y2651D01*
X1776Y2651D02*
X1820Y2651D01*
X1929Y2651D02*
X1974Y2651D01*
X75Y2650D02*
X120Y2650D01*
X227Y2650D02*
X273Y2650D01*
X475Y2650D02*
X520Y2650D01*
X627Y2650D02*
X673Y2650D01*
X926Y2650D02*
X971Y2650D01*
X1078Y2650D02*
X1124Y2650D01*
X1375Y2650D02*
X1421Y2650D01*
X1528Y2650D02*
X1574Y2650D01*
X1776Y2650D02*
X1821Y2650D01*
X1928Y2650D02*
X1974Y2650D01*
X75Y2649D02*
X121Y2649D01*
X226Y2649D02*
X273Y2649D01*
X475Y2649D02*
X521Y2649D01*
X626Y2649D02*
X673Y2649D01*
X926Y2649D02*
X972Y2649D01*
X1077Y2649D02*
X1124Y2649D01*
X1375Y2649D02*
X1422Y2649D01*
X1527Y2649D02*
X1574Y2649D01*
X1776Y2649D02*
X1822Y2649D01*
X1928Y2649D02*
X1974Y2649D01*
X75Y2648D02*
X123Y2648D01*
X225Y2648D02*
X273Y2648D01*
X475Y2648D02*
X522Y2648D01*
X625Y2648D02*
X673Y2648D01*
X926Y2648D02*
X974Y2648D01*
X1076Y2648D02*
X1124Y2648D01*
X1375Y2648D02*
X1423Y2648D01*
X1525Y2648D02*
X1574Y2648D01*
X1776Y2648D02*
X1823Y2648D01*
X1927Y2648D02*
X1974Y2648D01*
X75Y2647D02*
X124Y2647D01*
X224Y2647D02*
X273Y2647D01*
X475Y2647D02*
X524Y2647D01*
X624Y2647D02*
X673Y2647D01*
X926Y2647D02*
X975Y2647D01*
X1075Y2647D02*
X1124Y2647D01*
X1375Y2647D02*
X1424Y2647D01*
X1524Y2647D02*
X1574Y2647D01*
X1776Y2647D02*
X1824Y2647D01*
X1925Y2647D02*
X1974Y2647D01*
X75Y2646D02*
X125Y2646D01*
X223Y2646D02*
X273Y2646D01*
X475Y2646D02*
X525Y2646D01*
X623Y2646D02*
X673Y2646D01*
X926Y2646D02*
X976Y2646D01*
X1074Y2646D02*
X1124Y2646D01*
X1375Y2646D02*
X1425Y2646D01*
X1523Y2646D02*
X1574Y2646D01*
X1776Y2646D02*
X1825Y2646D01*
X1924Y2646D02*
X1974Y2646D01*
X75Y2645D02*
X126Y2645D01*
X222Y2645D02*
X273Y2645D01*
X475Y2645D02*
X526Y2645D01*
X622Y2645D02*
X673Y2645D01*
X926Y2645D02*
X977Y2645D01*
X1073Y2645D02*
X1124Y2645D01*
X1375Y2645D02*
X1426Y2645D01*
X1522Y2645D02*
X1574Y2645D01*
X1776Y2645D02*
X1826Y2645D01*
X1923Y2645D02*
X1974Y2645D01*
X75Y2644D02*
X127Y2644D01*
X221Y2644D02*
X273Y2644D01*
X475Y2644D02*
X527Y2644D01*
X621Y2644D02*
X673Y2644D01*
X926Y2644D02*
X978Y2644D01*
X1072Y2644D02*
X1124Y2644D01*
X1375Y2644D02*
X1428Y2644D01*
X1521Y2644D02*
X1574Y2644D01*
X1776Y2644D02*
X1827Y2644D01*
X1922Y2644D02*
X1974Y2644D01*
X75Y2643D02*
X128Y2643D01*
X219Y2643D02*
X273Y2643D01*
X475Y2643D02*
X528Y2643D01*
X619Y2643D02*
X673Y2643D01*
X926Y2643D02*
X979Y2643D01*
X1070Y2643D02*
X1124Y2643D01*
X1375Y2643D02*
X1429Y2643D01*
X1520Y2643D02*
X1574Y2643D01*
X1776Y2643D02*
X1829Y2643D01*
X1921Y2643D02*
X1974Y2643D01*
X75Y2642D02*
X130Y2642D01*
X218Y2642D02*
X273Y2642D01*
X475Y2642D02*
X530Y2642D01*
X618Y2642D02*
X673Y2642D01*
X926Y2642D02*
X981Y2642D01*
X1069Y2642D02*
X1124Y2642D01*
X1375Y2642D02*
X1430Y2642D01*
X1518Y2642D02*
X1574Y2642D01*
X1776Y2642D02*
X1830Y2642D01*
X1919Y2642D02*
X1974Y2642D01*
X75Y2641D02*
X131Y2641D01*
X217Y2641D02*
X273Y2641D01*
X475Y2641D02*
X531Y2641D01*
X617Y2641D02*
X673Y2641D01*
X926Y2641D02*
X982Y2641D01*
X1068Y2641D02*
X1124Y2641D01*
X1375Y2641D02*
X1432Y2641D01*
X1517Y2641D02*
X1574Y2641D01*
X1776Y2641D02*
X1831Y2641D01*
X1918Y2641D02*
X1974Y2641D01*
X75Y2640D02*
X132Y2640D01*
X215Y2640D02*
X273Y2640D01*
X475Y2640D02*
X532Y2640D01*
X615Y2640D02*
X673Y2640D01*
X926Y2640D02*
X983Y2640D01*
X1066Y2640D02*
X1124Y2640D01*
X1375Y2640D02*
X1433Y2640D01*
X1516Y2640D02*
X1574Y2640D01*
X1776Y2640D02*
X1833Y2640D01*
X1917Y2640D02*
X1974Y2640D01*
X75Y2639D02*
X134Y2639D01*
X214Y2639D02*
X273Y2639D01*
X475Y2639D02*
X534Y2639D01*
X614Y2639D02*
X673Y2639D01*
X926Y2639D02*
X985Y2639D01*
X1065Y2639D02*
X1124Y2639D01*
X1375Y2639D02*
X1435Y2639D01*
X1514Y2639D02*
X1574Y2639D01*
X1776Y2639D02*
X1834Y2639D01*
X1915Y2639D02*
X1974Y2639D01*
X75Y2638D02*
X136Y2638D01*
X212Y2638D02*
X273Y2638D01*
X475Y2638D02*
X536Y2638D01*
X612Y2638D02*
X673Y2638D01*
X926Y2638D02*
X987Y2638D01*
X1063Y2638D02*
X1124Y2638D01*
X1375Y2638D02*
X1436Y2638D01*
X1512Y2638D02*
X1574Y2638D01*
X1776Y2638D02*
X1836Y2638D01*
X1914Y2638D02*
X1974Y2638D01*
X75Y2637D02*
X137Y2637D01*
X210Y2637D02*
X273Y2637D01*
X475Y2637D02*
X537Y2637D01*
X610Y2637D02*
X673Y2637D01*
X926Y2637D02*
X988Y2637D01*
X1061Y2637D02*
X1124Y2637D01*
X1375Y2637D02*
X1438Y2637D01*
X1511Y2637D02*
X1574Y2637D01*
X1776Y2637D02*
X1837Y2637D01*
X1912Y2637D02*
X1974Y2637D01*
X75Y2636D02*
X139Y2636D01*
X209Y2636D02*
X273Y2636D01*
X475Y2636D02*
X539Y2636D01*
X608Y2636D02*
X673Y2636D01*
X926Y2636D02*
X990Y2636D01*
X1060Y2636D02*
X1124Y2636D01*
X1375Y2636D02*
X1440Y2636D01*
X1509Y2636D02*
X1574Y2636D01*
X1776Y2636D02*
X1839Y2636D01*
X1910Y2636D02*
X1974Y2636D01*
X75Y2635D02*
X141Y2635D01*
X206Y2635D02*
X273Y2635D01*
X475Y2635D02*
X541Y2635D01*
X606Y2635D02*
X673Y2635D01*
X926Y2635D02*
X992Y2635D01*
X1057Y2635D02*
X1124Y2635D01*
X1375Y2635D02*
X1442Y2635D01*
X1507Y2635D02*
X1574Y2635D01*
X1776Y2635D02*
X1841Y2635D01*
X1908Y2635D02*
X1974Y2635D01*
X75Y2634D02*
X143Y2634D01*
X204Y2634D02*
X273Y2634D01*
X475Y2634D02*
X543Y2634D01*
X604Y2634D02*
X673Y2634D01*
X926Y2634D02*
X994Y2634D01*
X1055Y2634D02*
X1124Y2634D01*
X1375Y2634D02*
X1444Y2634D01*
X1505Y2634D02*
X1574Y2634D01*
X1776Y2634D02*
X1843Y2634D01*
X1906Y2634D02*
X1974Y2634D01*
X75Y2633D02*
X146Y2633D01*
X202Y2633D02*
X273Y2633D01*
X475Y2633D02*
X545Y2633D01*
X602Y2633D02*
X673Y2633D01*
X926Y2633D02*
X997Y2633D01*
X1053Y2633D02*
X1124Y2633D01*
X1375Y2633D02*
X1446Y2633D01*
X1502Y2633D02*
X1574Y2633D01*
X1776Y2633D02*
X1845Y2633D01*
X1904Y2633D02*
X1974Y2633D01*
X75Y2632D02*
X148Y2632D01*
X199Y2632D02*
X273Y2632D01*
X475Y2632D02*
X548Y2632D01*
X599Y2632D02*
X673Y2632D01*
X926Y2632D02*
X999Y2632D01*
X1050Y2632D02*
X1124Y2632D01*
X1375Y2632D02*
X1449Y2632D01*
X1500Y2632D02*
X1574Y2632D01*
X1776Y2632D02*
X1848Y2632D01*
X1902Y2632D02*
X1974Y2632D01*
X75Y2631D02*
X151Y2631D01*
X197Y2631D02*
X273Y2631D01*
X475Y2631D02*
X551Y2631D01*
X597Y2631D02*
X673Y2631D01*
X926Y2631D02*
X1002Y2631D01*
X1048Y2631D02*
X1124Y2631D01*
X1375Y2631D02*
X1452Y2631D01*
X1497Y2631D02*
X1574Y2631D01*
X1776Y2631D02*
X1850Y2631D01*
X1899Y2631D02*
X1974Y2631D01*
X75Y2630D02*
X155Y2630D01*
X193Y2630D02*
X273Y2630D01*
X475Y2630D02*
X555Y2630D01*
X593Y2630D02*
X673Y2630D01*
X926Y2630D02*
X1006Y2630D01*
X1044Y2630D02*
X1124Y2630D01*
X1375Y2630D02*
X1456Y2630D01*
X1493Y2630D02*
X1574Y2630D01*
X1776Y2630D02*
X1854Y2630D01*
X1896Y2630D02*
X1974Y2630D01*
X75Y2629D02*
X159Y2629D01*
X189Y2629D02*
X273Y2629D01*
X475Y2629D02*
X559Y2629D01*
X588Y2629D02*
X673Y2629D01*
X926Y2629D02*
X1010Y2629D01*
X1040Y2629D02*
X1124Y2629D01*
X1375Y2629D02*
X1460Y2629D01*
X1488Y2629D02*
X1574Y2629D01*
X1776Y2629D02*
X1858Y2629D01*
X1892Y2629D02*
X1974Y2629D01*
X75Y2628D02*
X166Y2628D01*
X182Y2628D02*
X273Y2628D01*
X475Y2628D02*
X566Y2628D01*
X582Y2628D02*
X673Y2628D01*
X926Y2628D02*
X1017Y2628D01*
X1033Y2628D02*
X1124Y2628D01*
X1375Y2628D02*
X1469Y2628D01*
X1480Y2628D02*
X1574Y2628D01*
X1776Y2628D02*
X1863Y2628D01*
X1886Y2628D02*
X1974Y2628D01*
X75Y2627D02*
X273Y2627D01*
X475Y2627D02*
X673Y2627D01*
X926Y2627D02*
X1124Y2627D01*
X1375Y2627D02*
X1574Y2627D01*
X1776Y2627D02*
X1974Y2627D01*
X75Y2626D02*
X273Y2626D01*
X475Y2626D02*
X673Y2626D01*
X926Y2626D02*
X1124Y2626D01*
X1375Y2626D02*
X1574Y2626D01*
X1776Y2626D02*
X1974Y2626D01*
X75Y2625D02*
X273Y2625D01*
X475Y2625D02*
X673Y2625D01*
X926Y2625D02*
X1124Y2625D01*
X1375Y2625D02*
X1574Y2625D01*
X1776Y2625D02*
X1974Y2625D01*
X75Y2624D02*
X273Y2624D01*
X475Y2624D02*
X673Y2624D01*
X926Y2624D02*
X1124Y2624D01*
X1375Y2624D02*
X1574Y2624D01*
X1776Y2624D02*
X1974Y2624D01*
X75Y2623D02*
X273Y2623D01*
X475Y2623D02*
X673Y2623D01*
X926Y2623D02*
X1124Y2623D01*
X1375Y2623D02*
X1574Y2623D01*
X1776Y2623D02*
X1974Y2623D01*
X75Y2622D02*
X273Y2622D01*
X475Y2622D02*
X673Y2622D01*
X926Y2622D02*
X1124Y2622D01*
X1375Y2622D02*
X1574Y2622D01*
X1776Y2622D02*
X1974Y2622D01*
X75Y2621D02*
X273Y2621D01*
X475Y2621D02*
X673Y2621D01*
X926Y2621D02*
X1124Y2621D01*
X1375Y2621D02*
X1574Y2621D01*
X1776Y2621D02*
X1974Y2621D01*
X75Y2620D02*
X273Y2620D01*
X475Y2620D02*
X673Y2620D01*
X926Y2620D02*
X1124Y2620D01*
X1375Y2620D02*
X1574Y2620D01*
X1776Y2620D02*
X1974Y2620D01*
X75Y2619D02*
X273Y2619D01*
X475Y2619D02*
X673Y2619D01*
X926Y2619D02*
X1124Y2619D01*
X1375Y2619D02*
X1574Y2619D01*
X1776Y2619D02*
X1974Y2619D01*
X75Y2618D02*
X273Y2618D01*
X475Y2618D02*
X673Y2618D01*
X926Y2618D02*
X1124Y2618D01*
X1375Y2618D02*
X1574Y2618D01*
X1776Y2618D02*
X1974Y2618D01*
X75Y2617D02*
X273Y2617D01*
X475Y2617D02*
X673Y2617D01*
X926Y2617D02*
X1124Y2617D01*
X1375Y2617D02*
X1574Y2617D01*
X1776Y2617D02*
X1974Y2617D01*
X75Y2616D02*
X273Y2616D01*
X475Y2616D02*
X673Y2616D01*
X926Y2616D02*
X1124Y2616D01*
X1375Y2616D02*
X1574Y2616D01*
X1776Y2616D02*
X1974Y2616D01*
X75Y2615D02*
X273Y2615D01*
X475Y2615D02*
X673Y2615D01*
X926Y2615D02*
X1124Y2615D01*
X1375Y2615D02*
X1574Y2615D01*
X1776Y2615D02*
X1974Y2615D01*
X75Y2614D02*
X273Y2614D01*
X475Y2614D02*
X673Y2614D01*
X926Y2614D02*
X1124Y2614D01*
X1375Y2614D02*
X1574Y2614D01*
X1776Y2614D02*
X1974Y2614D01*
X75Y2613D02*
X273Y2613D01*
X475Y2613D02*
X673Y2613D01*
X926Y2613D02*
X1124Y2613D01*
X1375Y2613D02*
X1574Y2613D01*
X1776Y2613D02*
X1974Y2613D01*
X75Y2612D02*
X273Y2612D01*
X475Y2612D02*
X673Y2612D01*
X926Y2612D02*
X1124Y2612D01*
X1375Y2612D02*
X1574Y2612D01*
X1776Y2612D02*
X1974Y2612D01*
X75Y2611D02*
X273Y2611D01*
X475Y2611D02*
X673Y2611D01*
X926Y2611D02*
X1124Y2611D01*
X1375Y2611D02*
X1574Y2611D01*
X1776Y2611D02*
X1974Y2611D01*
X75Y2610D02*
X273Y2610D01*
X475Y2610D02*
X673Y2610D01*
X926Y2610D02*
X1124Y2610D01*
X1375Y2610D02*
X1574Y2610D01*
X1776Y2610D02*
X1974Y2610D01*
X75Y2609D02*
X273Y2609D01*
X475Y2609D02*
X673Y2609D01*
X926Y2609D02*
X1124Y2609D01*
X1375Y2609D02*
X1574Y2609D01*
X1776Y2609D02*
X1974Y2609D01*
X75Y2608D02*
X273Y2608D01*
X475Y2608D02*
X673Y2608D01*
X926Y2608D02*
X1124Y2608D01*
X1375Y2608D02*
X1574Y2608D01*
X1776Y2608D02*
X1974Y2608D01*
X75Y2607D02*
X273Y2607D01*
X475Y2607D02*
X673Y2607D01*
X926Y2607D02*
X1124Y2607D01*
X1375Y2607D02*
X1574Y2607D01*
X1776Y2607D02*
X1974Y2607D01*
X75Y2606D02*
X273Y2606D01*
X475Y2606D02*
X673Y2606D01*
X926Y2606D02*
X1124Y2606D01*
X1375Y2606D02*
X1574Y2606D01*
X1776Y2606D02*
X1974Y2606D01*
X75Y2605D02*
X273Y2605D01*
X475Y2605D02*
X673Y2605D01*
X926Y2605D02*
X1124Y2605D01*
X1375Y2605D02*
X1574Y2605D01*
X1776Y2605D02*
X1974Y2605D01*
X75Y2604D02*
X273Y2604D01*
X475Y2604D02*
X673Y2604D01*
X926Y2604D02*
X1124Y2604D01*
X1375Y2604D02*
X1574Y2604D01*
X1776Y2604D02*
X1974Y2604D01*
X75Y2603D02*
X273Y2603D01*
X475Y2603D02*
X673Y2603D01*
X926Y2603D02*
X1124Y2603D01*
X1375Y2603D02*
X1574Y2603D01*
X1776Y2603D02*
X1974Y2603D01*
X75Y2602D02*
X273Y2602D01*
X475Y2602D02*
X673Y2602D01*
X926Y2602D02*
X1124Y2602D01*
X1375Y2602D02*
X1574Y2602D01*
X1776Y2602D02*
X1974Y2602D01*
X75Y2601D02*
X273Y2601D01*
X475Y2601D02*
X673Y2601D01*
X926Y2601D02*
X1124Y2601D01*
X1375Y2601D02*
X1574Y2601D01*
X1776Y2601D02*
X1974Y2601D01*
X75Y2600D02*
X273Y2600D01*
X475Y2600D02*
X673Y2600D01*
X926Y2600D02*
X1124Y2600D01*
X1375Y2600D02*
X1574Y2600D01*
X1776Y2600D02*
X1974Y2600D01*
X75Y2599D02*
X273Y2599D01*
X475Y2599D02*
X673Y2599D01*
X926Y2599D02*
X1124Y2599D01*
X1375Y2599D02*
X1574Y2599D01*
X1776Y2599D02*
X1974Y2599D01*
X75Y2598D02*
X273Y2598D01*
X475Y2598D02*
X673Y2598D01*
X926Y2598D02*
X1124Y2598D01*
X1375Y2598D02*
X1574Y2598D01*
X1776Y2598D02*
X1974Y2598D01*
X75Y2597D02*
X273Y2597D01*
X475Y2597D02*
X673Y2597D01*
X926Y2597D02*
X1124Y2597D01*
X1375Y2597D02*
X1574Y2597D01*
X1776Y2597D02*
X1974Y2597D01*
X75Y2596D02*
X273Y2596D01*
X475Y2596D02*
X673Y2596D01*
X926Y2596D02*
X1124Y2596D01*
X1375Y2596D02*
X1574Y2596D01*
X1776Y2596D02*
X1974Y2596D01*
X75Y2595D02*
X273Y2595D01*
X475Y2595D02*
X673Y2595D01*
X926Y2595D02*
X1124Y2595D01*
X1375Y2595D02*
X1574Y2595D01*
X1776Y2595D02*
X1974Y2595D01*
X75Y2594D02*
X273Y2594D01*
X475Y2594D02*
X673Y2594D01*
X926Y2594D02*
X1124Y2594D01*
X1375Y2594D02*
X1574Y2594D01*
X1776Y2594D02*
X1974Y2594D01*
X75Y2593D02*
X273Y2593D01*
X475Y2593D02*
X673Y2593D01*
X926Y2593D02*
X1124Y2593D01*
X1375Y2593D02*
X1574Y2593D01*
X1776Y2593D02*
X1974Y2593D01*
X75Y2592D02*
X273Y2592D01*
X475Y2592D02*
X673Y2592D01*
X926Y2592D02*
X1124Y2592D01*
X1375Y2592D02*
X1574Y2592D01*
X1776Y2592D02*
X1974Y2592D01*
X75Y2591D02*
X273Y2591D01*
X475Y2591D02*
X673Y2591D01*
X926Y2591D02*
X1124Y2591D01*
X1375Y2591D02*
X1574Y2591D01*
X1776Y2591D02*
X1974Y2591D01*
X75Y2590D02*
X273Y2590D01*
X475Y2590D02*
X673Y2590D01*
X926Y2590D02*
X1124Y2590D01*
X1375Y2590D02*
X1574Y2590D01*
X1776Y2590D02*
X1974Y2590D01*
X75Y2589D02*
X273Y2589D01*
X475Y2589D02*
X673Y2589D01*
X926Y2589D02*
X1124Y2589D01*
X1375Y2589D02*
X1574Y2589D01*
X1776Y2589D02*
X1974Y2589D01*
X75Y2588D02*
X273Y2588D01*
X475Y2588D02*
X673Y2588D01*
X926Y2588D02*
X1124Y2588D01*
X1375Y2588D02*
X1574Y2588D01*
X1776Y2588D02*
X1974Y2588D01*
X75Y2587D02*
X273Y2587D01*
X475Y2587D02*
X673Y2587D01*
X926Y2587D02*
X1124Y2587D01*
X1375Y2587D02*
X1574Y2587D01*
X1776Y2587D02*
X1974Y2587D01*
X75Y2586D02*
X273Y2586D01*
X475Y2586D02*
X673Y2586D01*
X926Y2586D02*
X1124Y2586D01*
X1375Y2586D02*
X1574Y2586D01*
X1776Y2586D02*
X1974Y2586D01*
X75Y2585D02*
X273Y2585D01*
X475Y2585D02*
X673Y2585D01*
X926Y2585D02*
X1124Y2585D01*
X1375Y2585D02*
X1574Y2585D01*
X1776Y2585D02*
X1974Y2585D01*
X75Y2584D02*
X273Y2584D01*
X475Y2584D02*
X673Y2584D01*
X926Y2584D02*
X1124Y2584D01*
X1375Y2584D02*
X1574Y2584D01*
X1776Y2584D02*
X1974Y2584D01*
X75Y2583D02*
X273Y2583D01*
X475Y2583D02*
X673Y2583D01*
X926Y2583D02*
X1124Y2583D01*
X1375Y2583D02*
X1574Y2583D01*
X1776Y2583D02*
X1974Y2583D01*
X75Y2582D02*
X273Y2582D01*
X475Y2582D02*
X673Y2582D01*
X926Y2582D02*
X1124Y2582D01*
X1375Y2582D02*
X1574Y2582D01*
X1776Y2582D02*
X1974Y2582D01*
X75Y2581D02*
X273Y2581D01*
X475Y2581D02*
X673Y2581D01*
X926Y2581D02*
X1124Y2581D01*
X1375Y2581D02*
X1574Y2581D01*
X1776Y2581D02*
X1974Y2581D01*
X75Y2580D02*
X273Y2580D01*
X475Y2580D02*
X673Y2580D01*
X926Y2580D02*
X1124Y2580D01*
X1375Y2580D02*
X1574Y2580D01*
X1776Y2580D02*
X1974Y2580D01*
X75Y2579D02*
X273Y2579D01*
X475Y2579D02*
X673Y2579D01*
X926Y2579D02*
X1124Y2579D01*
X1375Y2579D02*
X1574Y2579D01*
X1776Y2579D02*
X1974Y2579D01*
X75Y2578D02*
X273Y2578D01*
X475Y2578D02*
X673Y2578D01*
X926Y2578D02*
X1124Y2578D01*
X1375Y2578D02*
X1574Y2578D01*
X1776Y2578D02*
X1974Y2578D01*
X75Y2577D02*
X273Y2577D01*
X475Y2577D02*
X673Y2577D01*
X926Y2577D02*
X1124Y2577D01*
X1375Y2577D02*
X1574Y2577D01*
X1776Y2577D02*
X1974Y2577D01*
X75Y2576D02*
X273Y2576D01*
X475Y2576D02*
X673Y2576D01*
X926Y2576D02*
X1124Y2576D01*
X1375Y2576D02*
X1574Y2576D01*
X1776Y2576D02*
X1974Y2576D01*
X75Y2575D02*
X273Y2575D01*
X475Y2575D02*
X673Y2575D01*
X926Y2575D02*
X1124Y2575D01*
X1375Y2575D02*
X1574Y2575D01*
X1776Y2575D02*
X1974Y2575D01*
X75Y2574D02*
X273Y2574D01*
X475Y2574D02*
X673Y2574D01*
X926Y2574D02*
X1124Y2574D01*
X1375Y2574D02*
X1574Y2574D01*
X1776Y2574D02*
X1974Y2574D01*
X75Y2573D02*
X273Y2573D01*
X475Y2573D02*
X673Y2573D01*
X926Y2573D02*
X1124Y2573D01*
X1375Y2573D02*
X1574Y2573D01*
X1776Y2573D02*
X1974Y2573D01*
X75Y2572D02*
X273Y2572D01*
X475Y2572D02*
X673Y2572D01*
X926Y2572D02*
X1124Y2572D01*
X1375Y2572D02*
X1574Y2572D01*
X1776Y2572D02*
X1974Y2572D01*
X75Y2571D02*
X273Y2571D01*
X475Y2571D02*
X673Y2571D01*
X926Y2571D02*
X1124Y2571D01*
X1375Y2571D02*
X1574Y2571D01*
X1776Y2571D02*
X1974Y2571D01*
X75Y2570D02*
X273Y2570D01*
X475Y2570D02*
X673Y2570D01*
X926Y2570D02*
X1124Y2570D01*
X1375Y2570D02*
X1574Y2570D01*
X1776Y2570D02*
X1974Y2570D01*
X75Y2569D02*
X273Y2569D01*
X475Y2569D02*
X673Y2569D01*
X926Y2569D02*
X1124Y2569D01*
X1375Y2569D02*
X1574Y2569D01*
X1776Y2569D02*
X1974Y2569D01*
X75Y2568D02*
X273Y2568D01*
X475Y2568D02*
X673Y2568D01*
X926Y2568D02*
X1124Y2568D01*
X1375Y2568D02*
X1574Y2568D01*
X1776Y2568D02*
X1974Y2568D01*
X75Y2567D02*
X273Y2567D01*
X475Y2567D02*
X673Y2567D01*
X926Y2567D02*
X1124Y2567D01*
X1375Y2567D02*
X1574Y2567D01*
X1776Y2567D02*
X1974Y2567D01*
X75Y2566D02*
X273Y2566D01*
X475Y2566D02*
X673Y2566D01*
X926Y2566D02*
X1124Y2566D01*
X1375Y2566D02*
X1574Y2566D01*
X1776Y2566D02*
X1974Y2566D01*
X75Y2565D02*
X273Y2565D01*
X475Y2565D02*
X673Y2565D01*
X926Y2565D02*
X1124Y2565D01*
X1375Y2565D02*
X1574Y2565D01*
X1776Y2565D02*
X1974Y2565D01*
X75Y2564D02*
X273Y2564D01*
X475Y2564D02*
X673Y2564D01*
X926Y2564D02*
X1124Y2564D01*
X1375Y2564D02*
X1574Y2564D01*
X1776Y2564D02*
X1974Y2564D01*
X75Y2563D02*
X273Y2563D01*
X475Y2563D02*
X673Y2563D01*
X926Y2563D02*
X1124Y2563D01*
X1375Y2563D02*
X1574Y2563D01*
X1776Y2563D02*
X1974Y2563D01*
X75Y2562D02*
X273Y2562D01*
X475Y2562D02*
X673Y2562D01*
X926Y2562D02*
X1124Y2562D01*
X1375Y2562D02*
X1574Y2562D01*
X1776Y2562D02*
X1974Y2562D01*
X75Y2561D02*
X273Y2561D01*
X475Y2561D02*
X673Y2561D01*
X926Y2561D02*
X1124Y2561D01*
X1375Y2561D02*
X1574Y2561D01*
X1776Y2561D02*
X1974Y2561D01*
X75Y2560D02*
X273Y2560D01*
X475Y2560D02*
X673Y2560D01*
X926Y2560D02*
X1124Y2560D01*
X1375Y2560D02*
X1574Y2560D01*
X1776Y2560D02*
X1974Y2560D01*
X75Y2559D02*
X273Y2559D01*
X475Y2559D02*
X673Y2559D01*
X926Y2559D02*
X1124Y2559D01*
X1375Y2559D02*
X1574Y2559D01*
X1776Y2559D02*
X1974Y2559D01*
X75Y2558D02*
X273Y2558D01*
X475Y2558D02*
X673Y2558D01*
X926Y2558D02*
X1124Y2558D01*
X1375Y2558D02*
X1574Y2558D01*
X1776Y2558D02*
X1974Y2558D01*
X75Y2557D02*
X273Y2557D01*
X475Y2557D02*
X673Y2557D01*
X926Y2557D02*
X1124Y2557D01*
X1375Y2557D02*
X1574Y2557D01*
X1776Y2557D02*
X1974Y2557D01*
X75Y2556D02*
X273Y2556D01*
X475Y2556D02*
X673Y2556D01*
X926Y2556D02*
X1124Y2556D01*
X1375Y2556D02*
X1574Y2556D01*
X1776Y2556D02*
X1974Y2556D01*
X75Y2555D02*
X273Y2555D01*
X475Y2555D02*
X673Y2555D01*
X926Y2555D02*
X1124Y2555D01*
X1375Y2555D02*
X1574Y2555D01*
X1776Y2555D02*
X1974Y2555D01*
X75Y2554D02*
X273Y2554D01*
X475Y2554D02*
X673Y2554D01*
X926Y2554D02*
X1124Y2554D01*
X1375Y2554D02*
X1574Y2554D01*
X1776Y2554D02*
X1974Y2554D01*
X75Y2553D02*
X273Y2553D01*
X475Y2553D02*
X673Y2553D01*
X926Y2553D02*
X1124Y2553D01*
X1375Y2553D02*
X1574Y2553D01*
X1776Y2553D02*
X1974Y2553D01*
X75Y2552D02*
X273Y2552D01*
X475Y2552D02*
X673Y2552D01*
X926Y2552D02*
X1124Y2552D01*
X1375Y2552D02*
X1574Y2552D01*
X1776Y2552D02*
X1974Y2552D01*
X75Y2551D02*
X273Y2551D01*
X475Y2551D02*
X673Y2551D01*
X926Y2551D02*
X1124Y2551D01*
X1375Y2551D02*
X1574Y2551D01*
X1776Y2551D02*
X1974Y2551D01*
X75Y2550D02*
X273Y2550D01*
X475Y2550D02*
X673Y2550D01*
X926Y2550D02*
X1124Y2550D01*
X1375Y2550D02*
X1574Y2550D01*
X1776Y2550D02*
X1974Y2550D01*
X75Y2549D02*
X273Y2549D01*
X475Y2549D02*
X673Y2549D01*
X926Y2549D02*
X1124Y2549D01*
X1375Y2549D02*
X1574Y2549D01*
X1776Y2549D02*
X1974Y2549D01*
X75Y2548D02*
X273Y2548D01*
X475Y2548D02*
X673Y2548D01*
X926Y2548D02*
X1124Y2548D01*
X1375Y2548D02*
X1574Y2548D01*
X1776Y2548D02*
X1974Y2548D01*
X75Y2547D02*
X273Y2547D01*
X475Y2547D02*
X673Y2547D01*
X926Y2547D02*
X1124Y2547D01*
X1375Y2547D02*
X1574Y2547D01*
X1776Y2547D02*
X1974Y2547D01*
X75Y2546D02*
X273Y2546D01*
X475Y2546D02*
X673Y2546D01*
X926Y2546D02*
X1124Y2546D01*
X1375Y2546D02*
X1574Y2546D01*
X1776Y2546D02*
X1974Y2546D01*
X75Y2545D02*
X273Y2545D01*
X475Y2545D02*
X673Y2545D01*
X926Y2545D02*
X1124Y2545D01*
X1375Y2545D02*
X1574Y2545D01*
X1776Y2545D02*
X1974Y2545D01*
X75Y2544D02*
X273Y2544D01*
X475Y2544D02*
X673Y2544D01*
X926Y2544D02*
X1124Y2544D01*
X1375Y2544D02*
X1574Y2544D01*
X1776Y2544D02*
X1974Y2544D01*
X75Y2543D02*
X273Y2543D01*
X475Y2543D02*
X673Y2543D01*
X926Y2543D02*
X1124Y2543D01*
X1375Y2543D02*
X1574Y2543D01*
X1776Y2543D02*
X1974Y2543D01*
X75Y2542D02*
X273Y2542D01*
X475Y2542D02*
X673Y2542D01*
X926Y2542D02*
X1124Y2542D01*
X1375Y2542D02*
X1574Y2542D01*
X1776Y2542D02*
X1974Y2542D01*
X75Y2541D02*
X273Y2541D01*
X475Y2541D02*
X673Y2541D01*
X926Y2541D02*
X1124Y2541D01*
X1375Y2541D02*
X1574Y2541D01*
X1776Y2541D02*
X1974Y2541D01*
X75Y2540D02*
X273Y2540D01*
X475Y2540D02*
X673Y2540D01*
X926Y2540D02*
X1124Y2540D01*
X1375Y2540D02*
X1574Y2540D01*
X1776Y2540D02*
X1974Y2540D01*
X75Y2539D02*
X273Y2539D01*
X475Y2539D02*
X673Y2539D01*
X926Y2539D02*
X1124Y2539D01*
X1375Y2539D02*
X1574Y2539D01*
X1776Y2539D02*
X1974Y2539D01*
X75Y2538D02*
X273Y2538D01*
X475Y2538D02*
X673Y2538D01*
X926Y2538D02*
X1124Y2538D01*
X1375Y2538D02*
X1574Y2538D01*
X1776Y2538D02*
X1974Y2538D01*
X75Y2537D02*
X273Y2537D01*
X475Y2537D02*
X673Y2537D01*
X926Y2537D02*
X1124Y2537D01*
X1375Y2537D02*
X1574Y2537D01*
X1776Y2537D02*
X1974Y2537D01*
X75Y2536D02*
X273Y2536D01*
X475Y2536D02*
X673Y2536D01*
X926Y2536D02*
X1124Y2536D01*
X1375Y2536D02*
X1574Y2536D01*
X1776Y2536D02*
X1974Y2536D01*
X75Y2535D02*
X273Y2535D01*
X475Y2535D02*
X673Y2535D01*
X926Y2535D02*
X1124Y2535D01*
X1375Y2535D02*
X1574Y2535D01*
X1776Y2535D02*
X1974Y2535D01*
X75Y2534D02*
X273Y2534D01*
X475Y2534D02*
X673Y2534D01*
X926Y2534D02*
X1124Y2534D01*
X1375Y2534D02*
X1574Y2534D01*
X1776Y2534D02*
X1974Y2534D01*
X75Y2533D02*
X273Y2533D01*
X475Y2533D02*
X673Y2533D01*
X926Y2533D02*
X1124Y2533D01*
X1375Y2533D02*
X1574Y2533D01*
X1776Y2533D02*
X1974Y2533D01*
X75Y2532D02*
X273Y2532D01*
X475Y2532D02*
X673Y2532D01*
X926Y2532D02*
X1124Y2532D01*
X1375Y2532D02*
X1574Y2532D01*
X1776Y2532D02*
X1974Y2532D01*
X75Y2531D02*
X273Y2531D01*
X475Y2531D02*
X673Y2531D01*
X926Y2531D02*
X1124Y2531D01*
X1375Y2531D02*
X1574Y2531D01*
X1776Y2531D02*
X1974Y2531D01*
X75Y2530D02*
X273Y2530D01*
X475Y2530D02*
X673Y2530D01*
X926Y2530D02*
X1124Y2530D01*
X1375Y2530D02*
X1574Y2530D01*
X1776Y2530D02*
X1974Y2530D01*
X75Y2529D02*
X273Y2529D01*
X475Y2529D02*
X673Y2529D01*
X926Y2529D02*
X1124Y2529D01*
X1375Y2529D02*
X1574Y2529D01*
X1776Y2529D02*
X1974Y2529D01*
X75Y2528D02*
X273Y2528D01*
X475Y2528D02*
X673Y2528D01*
X926Y2528D02*
X1124Y2528D01*
X1375Y2528D02*
X1574Y2528D01*
X1776Y2528D02*
X1974Y2528D01*
X75Y2527D02*
X273Y2527D01*
X475Y2527D02*
X673Y2527D01*
X926Y2527D02*
X1124Y2527D01*
X1375Y2527D02*
X1574Y2527D01*
X1776Y2527D02*
X1974Y2527D01*
X75Y2526D02*
X273Y2526D01*
X475Y2526D02*
X673Y2526D01*
X926Y2526D02*
X1124Y2526D01*
X1375Y2526D02*
X1574Y2526D01*
X1776Y2526D02*
X1974Y2526D01*
X75Y2525D02*
X273Y2525D01*
X475Y2525D02*
X673Y2525D01*
X926Y2525D02*
X1124Y2525D01*
X1375Y2525D02*
X1574Y2525D01*
X1776Y2525D02*
X1974Y2525D01*
X75Y2524D02*
X273Y2524D01*
X475Y2524D02*
X673Y2524D01*
X926Y2524D02*
X1124Y2524D01*
X1375Y2524D02*
X1574Y2524D01*
X1776Y2524D02*
X1974Y2524D01*
X75Y2523D02*
X273Y2523D01*
X475Y2523D02*
X673Y2523D01*
X926Y2523D02*
X1124Y2523D01*
X1375Y2523D02*
X1574Y2523D01*
X1776Y2523D02*
X1974Y2523D01*
X75Y2522D02*
X273Y2522D01*
X475Y2522D02*
X673Y2522D01*
X926Y2522D02*
X1124Y2522D01*
X1375Y2522D02*
X1574Y2522D01*
X1776Y2522D02*
X1974Y2522D01*
X75Y2521D02*
X273Y2521D01*
X475Y2521D02*
X673Y2521D01*
X926Y2521D02*
X1124Y2521D01*
X1375Y2521D02*
X1574Y2521D01*
X1776Y2521D02*
X1974Y2521D01*
X75Y2520D02*
X273Y2520D01*
X475Y2520D02*
X673Y2520D01*
X926Y2520D02*
X1124Y2520D01*
X1375Y2520D02*
X1574Y2520D01*
X1776Y2520D02*
X1974Y2520D01*
X75Y2519D02*
X273Y2519D01*
X475Y2519D02*
X673Y2519D01*
X926Y2519D02*
X1124Y2519D01*
X1375Y2519D02*
X1574Y2519D01*
X1776Y2519D02*
X1974Y2519D01*
X75Y2518D02*
X273Y2518D01*
X475Y2518D02*
X673Y2518D01*
X926Y2518D02*
X1124Y2518D01*
X1375Y2518D02*
X1574Y2518D01*
X1776Y2518D02*
X1974Y2518D01*
X75Y2517D02*
X273Y2517D01*
X475Y2517D02*
X673Y2517D01*
X926Y2517D02*
X1124Y2517D01*
X1375Y2517D02*
X1574Y2517D01*
X1776Y2517D02*
X1974Y2517D01*
X75Y2516D02*
X273Y2516D01*
X475Y2516D02*
X673Y2516D01*
X926Y2516D02*
X1124Y2516D01*
X1375Y2516D02*
X1574Y2516D01*
X1776Y2516D02*
X1974Y2516D01*
X75Y2515D02*
X273Y2515D01*
X475Y2515D02*
X673Y2515D01*
X926Y2515D02*
X1124Y2515D01*
X1375Y2515D02*
X1574Y2515D01*
X1776Y2515D02*
X1974Y2515D01*
X75Y2514D02*
X273Y2514D01*
X475Y2514D02*
X673Y2514D01*
X926Y2514D02*
X1124Y2514D01*
X1375Y2514D02*
X1574Y2514D01*
X1776Y2514D02*
X1974Y2514D01*
X75Y2513D02*
X273Y2513D01*
X475Y2513D02*
X673Y2513D01*
X926Y2513D02*
X1124Y2513D01*
X1375Y2513D02*
X1574Y2513D01*
X1776Y2513D02*
X1974Y2513D01*
X75Y2512D02*
X273Y2512D01*
X475Y2512D02*
X673Y2512D01*
X926Y2512D02*
X1124Y2512D01*
X1375Y2512D02*
X1574Y2512D01*
X1776Y2512D02*
X1974Y2512D01*
X75Y2511D02*
X273Y2511D01*
X475Y2511D02*
X673Y2511D01*
X926Y2511D02*
X1124Y2511D01*
X1375Y2511D02*
X1574Y2511D01*
X1776Y2511D02*
X1974Y2511D01*
X75Y2510D02*
X273Y2510D01*
X475Y2510D02*
X673Y2510D01*
X926Y2510D02*
X1124Y2510D01*
X1375Y2510D02*
X1574Y2510D01*
X1776Y2510D02*
X1974Y2510D01*
X75Y2509D02*
X273Y2509D01*
X475Y2509D02*
X673Y2509D01*
X926Y2509D02*
X1124Y2509D01*
X1375Y2509D02*
X1574Y2509D01*
X1776Y2509D02*
X1974Y2509D01*
X75Y2508D02*
X273Y2508D01*
X475Y2508D02*
X673Y2508D01*
X926Y2508D02*
X1124Y2508D01*
X1375Y2508D02*
X1574Y2508D01*
X1776Y2508D02*
X1974Y2508D01*
X75Y2507D02*
X273Y2507D01*
X475Y2507D02*
X673Y2507D01*
X926Y2507D02*
X1124Y2507D01*
X1375Y2507D02*
X1574Y2507D01*
X1776Y2507D02*
X1974Y2507D01*
X75Y2506D02*
X273Y2506D01*
X475Y2506D02*
X673Y2506D01*
X926Y2506D02*
X1124Y2506D01*
X1375Y2506D02*
X1574Y2506D01*
X1776Y2506D02*
X1974Y2506D01*
X75Y2505D02*
X273Y2505D01*
X475Y2505D02*
X673Y2505D01*
X926Y2505D02*
X1124Y2505D01*
X1375Y2505D02*
X1574Y2505D01*
X1776Y2505D02*
X1974Y2505D01*
X75Y2504D02*
X273Y2504D01*
X475Y2504D02*
X673Y2504D01*
X926Y2504D02*
X1124Y2504D01*
X1375Y2504D02*
X1574Y2504D01*
X1776Y2504D02*
X1974Y2504D01*
X75Y2503D02*
X273Y2503D01*
X475Y2503D02*
X673Y2503D01*
X926Y2503D02*
X1124Y2503D01*
X1375Y2503D02*
X1574Y2503D01*
X1776Y2503D02*
X1974Y2503D01*
X75Y2502D02*
X273Y2502D01*
X475Y2502D02*
X673Y2502D01*
X926Y2502D02*
X1124Y2502D01*
X1375Y2502D02*
X1574Y2502D01*
X1776Y2502D02*
X1974Y2502D01*
X75Y2501D02*
X273Y2501D01*
X475Y2501D02*
X673Y2501D01*
X926Y2501D02*
X1124Y2501D01*
X1375Y2501D02*
X1574Y2501D01*
X1776Y2501D02*
X1974Y2501D01*
X75Y2500D02*
X273Y2500D01*
X475Y2500D02*
X673Y2500D01*
X926Y2500D02*
X1124Y2500D01*
X1375Y2500D02*
X1574Y2500D01*
X1776Y2500D02*
X1974Y2500D01*
X75Y2499D02*
X273Y2499D01*
X475Y2499D02*
X673Y2499D01*
X926Y2499D02*
X1124Y2499D01*
X1375Y2499D02*
X1574Y2499D01*
X1776Y2499D02*
X1974Y2499D01*
X75Y2498D02*
X273Y2498D01*
X475Y2498D02*
X673Y2498D01*
X926Y2498D02*
X1124Y2498D01*
X1375Y2498D02*
X1574Y2498D01*
X1776Y2498D02*
X1974Y2498D01*
X75Y2497D02*
X273Y2497D01*
X475Y2497D02*
X673Y2497D01*
X926Y2497D02*
X1124Y2497D01*
X1375Y2497D02*
X1574Y2497D01*
X1776Y2497D02*
X1974Y2497D01*
X75Y2496D02*
X273Y2496D01*
X475Y2496D02*
X673Y2496D01*
X926Y2496D02*
X1124Y2496D01*
X1375Y2496D02*
X1574Y2496D01*
X1776Y2496D02*
X1974Y2496D01*
X75Y2495D02*
X273Y2495D01*
X475Y2495D02*
X673Y2495D01*
X926Y2495D02*
X1124Y2495D01*
X1375Y2495D02*
X1574Y2495D01*
X1776Y2495D02*
X1974Y2495D01*
X75Y2494D02*
X273Y2494D01*
X475Y2494D02*
X673Y2494D01*
X926Y2494D02*
X1124Y2494D01*
X1375Y2494D02*
X1574Y2494D01*
X1776Y2494D02*
X1974Y2494D01*
X75Y2493D02*
X273Y2493D01*
X475Y2493D02*
X673Y2493D01*
X926Y2493D02*
X1124Y2493D01*
X1375Y2493D02*
X1574Y2493D01*
X1776Y2493D02*
X1974Y2493D01*
X75Y2492D02*
X273Y2492D01*
X475Y2492D02*
X673Y2492D01*
X926Y2492D02*
X1124Y2492D01*
X1375Y2492D02*
X1574Y2492D01*
X1776Y2492D02*
X1974Y2492D01*
X75Y2491D02*
X273Y2491D01*
X475Y2491D02*
X673Y2491D01*
X926Y2491D02*
X1124Y2491D01*
X1375Y2491D02*
X1574Y2491D01*
X1776Y2491D02*
X1974Y2491D01*
X75Y2490D02*
X273Y2490D01*
X475Y2490D02*
X673Y2490D01*
X926Y2490D02*
X1124Y2490D01*
X1375Y2490D02*
X1574Y2490D01*
X1776Y2490D02*
X1974Y2490D01*
X75Y2489D02*
X273Y2489D01*
X475Y2489D02*
X673Y2489D01*
X926Y2489D02*
X1124Y2489D01*
X1375Y2489D02*
X1574Y2489D01*
X1776Y2489D02*
X1974Y2489D01*
X75Y2488D02*
X273Y2488D01*
X475Y2488D02*
X673Y2488D01*
X926Y2488D02*
X1124Y2488D01*
X1375Y2488D02*
X1574Y2488D01*
X1776Y2488D02*
X1974Y2488D01*
X75Y2487D02*
X273Y2487D01*
X475Y2487D02*
X673Y2487D01*
X926Y2487D02*
X1124Y2487D01*
X1375Y2487D02*
X1574Y2487D01*
X1776Y2487D02*
X1974Y2487D01*
X75Y2486D02*
X273Y2486D01*
X475Y2486D02*
X673Y2486D01*
X926Y2486D02*
X1124Y2486D01*
X1375Y2486D02*
X1574Y2486D01*
X1776Y2486D02*
X1974Y2486D01*
X75Y2485D02*
X273Y2485D01*
X475Y2485D02*
X673Y2485D01*
X926Y2485D02*
X1124Y2485D01*
X1375Y2485D02*
X1574Y2485D01*
X1776Y2485D02*
X1974Y2485D01*
X75Y2484D02*
X273Y2484D01*
X475Y2484D02*
X673Y2484D01*
X926Y2484D02*
X1124Y2484D01*
X1375Y2484D02*
X1574Y2484D01*
X1776Y2484D02*
X1974Y2484D01*
X75Y2483D02*
X273Y2483D01*
X475Y2483D02*
X673Y2483D01*
X926Y2483D02*
X1124Y2483D01*
X1375Y2483D02*
X1574Y2483D01*
X1776Y2483D02*
X1974Y2483D01*
X75Y2482D02*
X273Y2482D01*
X475Y2482D02*
X673Y2482D01*
X926Y2482D02*
X1124Y2482D01*
X1375Y2482D02*
X1574Y2482D01*
X1776Y2482D02*
X1974Y2482D01*
X75Y2481D02*
X273Y2481D01*
X475Y2481D02*
X673Y2481D01*
X926Y2481D02*
X1124Y2481D01*
X1375Y2481D02*
X1574Y2481D01*
X1776Y2481D02*
X1974Y2481D01*
X75Y2480D02*
X273Y2480D01*
X475Y2480D02*
X673Y2480D01*
X926Y2480D02*
X1124Y2480D01*
X1375Y2480D02*
X1574Y2480D01*
X1776Y2480D02*
X1974Y2480D01*
X75Y2479D02*
X273Y2479D01*
X475Y2479D02*
X673Y2479D01*
X926Y2479D02*
X1124Y2479D01*
X1375Y2479D02*
X1574Y2479D01*
X1776Y2479D02*
X1974Y2479D01*
X75Y2478D02*
X273Y2478D01*
X475Y2478D02*
X673Y2478D01*
X926Y2478D02*
X1124Y2478D01*
X1375Y2478D02*
X1574Y2478D01*
X1776Y2478D02*
X1974Y2478D01*
X75Y2477D02*
X273Y2477D01*
X475Y2477D02*
X673Y2477D01*
X926Y2477D02*
X1124Y2477D01*
X1375Y2477D02*
X1574Y2477D01*
X1776Y2477D02*
X1974Y2477D01*
X75Y2476D02*
X273Y2476D01*
X475Y2476D02*
X673Y2476D01*
X926Y2476D02*
X1124Y2476D01*
X1375Y2476D02*
X1574Y2476D01*
X1776Y2476D02*
X1974Y2476D01*
X75Y2475D02*
X273Y2475D01*
X475Y2475D02*
X673Y2475D01*
X926Y2475D02*
X1124Y2475D01*
X1375Y2475D02*
X1574Y2475D01*
X1776Y2475D02*
X1974Y2475D01*
X75Y2474D02*
X273Y2474D01*
X475Y2474D02*
X673Y2474D01*
X926Y2474D02*
X1124Y2474D01*
X1375Y2474D02*
X1574Y2474D01*
X1776Y2474D02*
X1974Y2474D01*
X75Y2473D02*
X273Y2473D01*
X475Y2473D02*
X673Y2473D01*
X926Y2473D02*
X1124Y2473D01*
X1375Y2473D02*
X1574Y2473D01*
X1776Y2473D02*
X1974Y2473D01*
X75Y2472D02*
X273Y2472D01*
X475Y2472D02*
X673Y2472D01*
X926Y2472D02*
X1124Y2472D01*
X1375Y2472D02*
X1574Y2472D01*
X1776Y2472D02*
X1974Y2472D01*
X75Y2471D02*
X273Y2471D01*
X475Y2471D02*
X673Y2471D01*
X926Y2471D02*
X1124Y2471D01*
X1375Y2471D02*
X1574Y2471D01*
X1776Y2471D02*
X1974Y2471D01*
X75Y2470D02*
X273Y2470D01*
X475Y2470D02*
X673Y2470D01*
X926Y2470D02*
X1124Y2470D01*
X1375Y2470D02*
X1574Y2470D01*
X1776Y2470D02*
X1974Y2470D01*
X75Y2469D02*
X273Y2469D01*
X475Y2469D02*
X673Y2469D01*
X926Y2469D02*
X1124Y2469D01*
X1375Y2469D02*
X1574Y2469D01*
X1776Y2469D02*
X1974Y2469D01*
X75Y2468D02*
X273Y2468D01*
X475Y2468D02*
X673Y2468D01*
X926Y2468D02*
X1124Y2468D01*
X1375Y2468D02*
X1574Y2468D01*
X1776Y2468D02*
X1974Y2468D01*
X75Y2467D02*
X273Y2467D01*
X475Y2467D02*
X673Y2467D01*
X926Y2467D02*
X1124Y2467D01*
X1375Y2467D02*
X1574Y2467D01*
X1776Y2467D02*
X1974Y2467D01*
X75Y2466D02*
X273Y2466D01*
X475Y2466D02*
X673Y2466D01*
X926Y2466D02*
X1124Y2466D01*
X1375Y2466D02*
X1574Y2466D01*
X1776Y2466D02*
X1974Y2466D01*
X75Y2465D02*
X273Y2465D01*
X475Y2465D02*
X673Y2465D01*
X926Y2465D02*
X1124Y2465D01*
X1375Y2465D02*
X1574Y2465D01*
X1776Y2465D02*
X1974Y2465D01*
X75Y2464D02*
X273Y2464D01*
X475Y2464D02*
X673Y2464D01*
X926Y2464D02*
X1124Y2464D01*
X1375Y2464D02*
X1574Y2464D01*
X1776Y2464D02*
X1974Y2464D01*
X75Y2463D02*
X273Y2463D01*
X475Y2463D02*
X673Y2463D01*
X926Y2463D02*
X1124Y2463D01*
X1375Y2463D02*
X1574Y2463D01*
X1776Y2463D02*
X1974Y2463D01*
X75Y2462D02*
X273Y2462D01*
X475Y2462D02*
X673Y2462D01*
X926Y2462D02*
X1124Y2462D01*
X1375Y2462D02*
X1574Y2462D01*
X1776Y2462D02*
X1974Y2462D01*
X75Y2461D02*
X273Y2461D01*
X475Y2461D02*
X673Y2461D01*
X926Y2461D02*
X1124Y2461D01*
X1375Y2461D02*
X1574Y2461D01*
X1776Y2461D02*
X1974Y2461D01*
X75Y2460D02*
X273Y2460D01*
X475Y2460D02*
X673Y2460D01*
X926Y2460D02*
X1124Y2460D01*
X1375Y2460D02*
X1574Y2460D01*
X1776Y2460D02*
X1974Y2460D01*
X75Y2459D02*
X273Y2459D01*
X475Y2459D02*
X673Y2459D01*
X926Y2459D02*
X1124Y2459D01*
X1375Y2459D02*
X1574Y2459D01*
X1776Y2459D02*
X1974Y2459D01*
X75Y2458D02*
X273Y2458D01*
X475Y2458D02*
X673Y2458D01*
X926Y2458D02*
X1124Y2458D01*
X1375Y2458D02*
X1574Y2458D01*
X1776Y2458D02*
X1974Y2458D01*
X75Y2457D02*
X273Y2457D01*
X475Y2457D02*
X673Y2457D01*
X926Y2457D02*
X1124Y2457D01*
X1375Y2457D02*
X1574Y2457D01*
X1776Y2457D02*
X1974Y2457D01*
X75Y2456D02*
X273Y2456D01*
X475Y2456D02*
X673Y2456D01*
X926Y2456D02*
X1124Y2456D01*
X1375Y2456D02*
X1574Y2456D01*
X1776Y2456D02*
X1974Y2456D01*
X75Y2455D02*
X273Y2455D01*
X475Y2455D02*
X673Y2455D01*
X926Y2455D02*
X1124Y2455D01*
X1375Y2455D02*
X1574Y2455D01*
X1776Y2455D02*
X1974Y2455D01*
X75Y2454D02*
X273Y2454D01*
X475Y2454D02*
X673Y2454D01*
X926Y2454D02*
X1124Y2454D01*
X1375Y2454D02*
X1574Y2454D01*
X1776Y2454D02*
X1974Y2454D01*
X75Y2453D02*
X273Y2453D01*
X475Y2453D02*
X673Y2453D01*
X926Y2453D02*
X1124Y2453D01*
X1375Y2453D02*
X1574Y2453D01*
X1776Y2453D02*
X1974Y2453D01*
X75Y2452D02*
X273Y2452D01*
X475Y2452D02*
X673Y2452D01*
X926Y2452D02*
X1124Y2452D01*
X1375Y2452D02*
X1574Y2452D01*
X1776Y2452D02*
X1974Y2452D01*
X75Y2451D02*
X273Y2451D01*
X475Y2451D02*
X673Y2451D01*
X926Y2451D02*
X1124Y2451D01*
X1375Y2451D02*
X1574Y2451D01*
X1776Y2451D02*
X1974Y2451D01*
X75Y2450D02*
X273Y2450D01*
X475Y2450D02*
X673Y2450D01*
X926Y2450D02*
X1124Y2450D01*
X1375Y2450D02*
X1574Y2450D01*
X1776Y2450D02*
X1974Y2450D01*
X75Y2449D02*
X273Y2449D01*
X475Y2449D02*
X673Y2449D01*
X926Y2449D02*
X1124Y2449D01*
X1375Y2449D02*
X1574Y2449D01*
X1776Y2449D02*
X1974Y2449D01*
X75Y2448D02*
X273Y2448D01*
X475Y2448D02*
X673Y2448D01*
X926Y2448D02*
X1124Y2448D01*
X1375Y2448D02*
X1574Y2448D01*
X1776Y2448D02*
X1974Y2448D01*
X75Y2447D02*
X273Y2447D01*
X475Y2447D02*
X673Y2447D01*
X926Y2447D02*
X1124Y2447D01*
X1375Y2447D02*
X1574Y2447D01*
X1776Y2447D02*
X1974Y2447D01*
X75Y2446D02*
X273Y2446D01*
X475Y2446D02*
X673Y2446D01*
X926Y2446D02*
X1124Y2446D01*
X1375Y2446D02*
X1574Y2446D01*
X1776Y2446D02*
X1974Y2446D01*
X75Y2445D02*
X273Y2445D01*
X475Y2445D02*
X673Y2445D01*
X926Y2445D02*
X1124Y2445D01*
X1375Y2445D02*
X1574Y2445D01*
X1776Y2445D02*
X1974Y2445D01*
X75Y2444D02*
X273Y2444D01*
X475Y2444D02*
X673Y2444D01*
X926Y2444D02*
X1124Y2444D01*
X1375Y2444D02*
X1574Y2444D01*
X1776Y2444D02*
X1974Y2444D01*
X75Y2443D02*
X273Y2443D01*
X475Y2443D02*
X673Y2443D01*
X926Y2443D02*
X1124Y2443D01*
X1375Y2443D02*
X1574Y2443D01*
X1776Y2443D02*
X1974Y2443D01*
X75Y2442D02*
X273Y2442D01*
X475Y2442D02*
X673Y2442D01*
X926Y2442D02*
X1124Y2442D01*
X1375Y2442D02*
X1574Y2442D01*
X1776Y2442D02*
X1974Y2442D01*
X75Y2441D02*
X273Y2441D01*
X475Y2441D02*
X673Y2441D01*
X926Y2441D02*
X1124Y2441D01*
X1375Y2441D02*
X1574Y2441D01*
X1776Y2441D02*
X1974Y2441D01*
X75Y2440D02*
X273Y2440D01*
X475Y2440D02*
X673Y2440D01*
X926Y2440D02*
X1124Y2440D01*
X1375Y2440D02*
X1574Y2440D01*
X1776Y2440D02*
X1974Y2440D01*
X75Y2439D02*
X273Y2439D01*
X475Y2439D02*
X673Y2439D01*
X926Y2439D02*
X1124Y2439D01*
X1375Y2439D02*
X1574Y2439D01*
X1776Y2439D02*
X1974Y2439D01*
X75Y2438D02*
X273Y2438D01*
X475Y2438D02*
X673Y2438D01*
X926Y2438D02*
X1124Y2438D01*
X1375Y2438D02*
X1574Y2438D01*
X1776Y2438D02*
X1974Y2438D01*
X75Y2437D02*
X273Y2437D01*
X475Y2437D02*
X673Y2437D01*
X926Y2437D02*
X1124Y2437D01*
X1375Y2437D02*
X1574Y2437D01*
X1776Y2437D02*
X1974Y2437D01*
X75Y2436D02*
X273Y2436D01*
X475Y2436D02*
X673Y2436D01*
X926Y2436D02*
X1124Y2436D01*
X1375Y2436D02*
X1574Y2436D01*
X1776Y2436D02*
X1974Y2436D01*
X75Y2435D02*
X273Y2435D01*
X475Y2435D02*
X673Y2435D01*
X926Y2435D02*
X1124Y2435D01*
X1375Y2435D02*
X1574Y2435D01*
X1776Y2435D02*
X1974Y2435D01*
X75Y2434D02*
X273Y2434D01*
X475Y2434D02*
X673Y2434D01*
X926Y2434D02*
X1124Y2434D01*
X1375Y2434D02*
X1574Y2434D01*
X1776Y2434D02*
X1974Y2434D01*
X75Y2433D02*
X273Y2433D01*
X475Y2433D02*
X673Y2433D01*
X926Y2433D02*
X1124Y2433D01*
X1375Y2433D02*
X1574Y2433D01*
X1776Y2433D02*
X1974Y2433D01*
X75Y2432D02*
X273Y2432D01*
X475Y2432D02*
X673Y2432D01*
X926Y2432D02*
X1124Y2432D01*
X1375Y2432D02*
X1574Y2432D01*
X1776Y2432D02*
X1974Y2432D01*
X75Y2431D02*
X273Y2431D01*
X475Y2431D02*
X673Y2431D01*
X926Y2431D02*
X1124Y2431D01*
X1375Y2431D02*
X1574Y2431D01*
X1776Y2431D02*
X1974Y2431D01*
X75Y2430D02*
X273Y2430D01*
X475Y2430D02*
X673Y2430D01*
X926Y2430D02*
X1124Y2430D01*
X1375Y2430D02*
X1574Y2430D01*
X1776Y2430D02*
X1974Y2430D01*
X75Y2429D02*
X273Y2429D01*
X475Y2429D02*
X673Y2429D01*
X926Y2429D02*
X1124Y2429D01*
X1375Y2429D02*
X1574Y2429D01*
X1776Y2429D02*
X1974Y2429D01*
X75Y2428D02*
X273Y2428D01*
X475Y2428D02*
X673Y2428D01*
X926Y2428D02*
X1124Y2428D01*
X1375Y2428D02*
X1574Y2428D01*
X1776Y2428D02*
X1974Y2428D01*
X75Y2427D02*
X273Y2427D01*
X475Y2427D02*
X673Y2427D01*
X926Y2427D02*
X1124Y2427D01*
X1375Y2427D02*
X1574Y2427D01*
X1776Y2427D02*
X1974Y2427D01*
X75Y2426D02*
X273Y2426D01*
X475Y2426D02*
X673Y2426D01*
X926Y2426D02*
X1124Y2426D01*
X1375Y2426D02*
X1574Y2426D01*
X1776Y2426D02*
X1974Y2426D01*
X75Y2425D02*
X273Y2425D01*
X475Y2425D02*
X673Y2425D01*
X926Y2425D02*
X1124Y2425D01*
X1375Y2425D02*
X1574Y2425D01*
X1776Y2425D02*
X1974Y2425D01*
X75Y2424D02*
X273Y2424D01*
X475Y2424D02*
X673Y2424D01*
X926Y2424D02*
X1124Y2424D01*
X1375Y2424D02*
X1574Y2424D01*
X1776Y2424D02*
X1974Y2424D01*
X75Y2423D02*
X273Y2423D01*
X475Y2423D02*
X673Y2423D01*
X926Y2423D02*
X1124Y2423D01*
X1375Y2423D02*
X1574Y2423D01*
X1776Y2423D02*
X1974Y2423D01*
X75Y2422D02*
X273Y2422D01*
X475Y2422D02*
X673Y2422D01*
X926Y2422D02*
X1124Y2422D01*
X1375Y2422D02*
X1574Y2422D01*
X1776Y2422D02*
X1974Y2422D01*
X75Y2421D02*
X273Y2421D01*
X475Y2421D02*
X673Y2421D01*
X926Y2421D02*
X1124Y2421D01*
X1376Y2421D02*
X1573Y2421D01*
X1776Y2421D02*
X1974Y2421D01*
X168Y393D02*
X180Y393D01*
X566Y393D02*
X581Y393D01*
X1019Y393D02*
X1031Y393D01*
X1467Y393D02*
X1482Y393D01*
X1863Y393D02*
X1886Y393D01*
X159Y392D02*
X189Y392D01*
X558Y392D02*
X589Y392D01*
X1010Y392D02*
X1040Y392D01*
X1459Y392D02*
X1490Y392D01*
X1857Y392D02*
X1892Y392D01*
X154Y391D02*
X194Y391D01*
X553Y391D02*
X595Y391D01*
X1005Y391D02*
X1045Y391D01*
X1454Y391D02*
X1495Y391D01*
X1852Y391D02*
X1897Y391D01*
X149Y390D02*
X198Y390D01*
X549Y390D02*
X599Y390D01*
X1000Y390D02*
X1049Y390D01*
X1449Y390D02*
X1499Y390D01*
X1848Y390D02*
X1901Y390D01*
X146Y389D02*
X202Y389D01*
X545Y389D02*
X602Y389D01*
X997Y389D02*
X1053Y389D01*
X1446Y389D02*
X1503Y389D01*
X1845Y389D02*
X1904Y389D01*
X143Y388D02*
X205Y388D01*
X542Y388D02*
X605Y388D01*
X994Y388D02*
X1056Y388D01*
X1443Y388D02*
X1506Y388D01*
X1842Y388D02*
X1907Y388D01*
X140Y387D02*
X208Y387D01*
X540Y387D02*
X608Y387D01*
X991Y387D02*
X1059Y387D01*
X1440Y387D02*
X1508Y387D01*
X1840Y387D02*
X1910Y387D01*
X137Y386D02*
X210Y386D01*
X537Y386D02*
X611Y386D01*
X988Y386D02*
X1061Y386D01*
X1438Y386D02*
X1511Y386D01*
X1837Y386D02*
X1912Y386D01*
X135Y385D02*
X213Y385D01*
X535Y385D02*
X613Y385D01*
X986Y385D02*
X1064Y385D01*
X1435Y385D02*
X1514Y385D01*
X1835Y385D02*
X1915Y385D01*
X133Y384D02*
X215Y384D01*
X533Y384D02*
X615Y384D01*
X984Y384D02*
X1066Y384D01*
X1433Y384D02*
X1516Y384D01*
X1833Y384D02*
X1917Y384D01*
X131Y383D02*
X217Y383D01*
X530Y383D02*
X617Y383D01*
X982Y383D02*
X1068Y383D01*
X1431Y383D02*
X1518Y383D01*
X1831Y383D02*
X1919Y383D01*
X129Y382D02*
X219Y382D01*
X528Y382D02*
X619Y382D01*
X980Y382D02*
X1070Y382D01*
X1429Y382D02*
X1520Y382D01*
X1828Y382D02*
X1921Y382D01*
X127Y381D02*
X221Y381D01*
X526Y381D02*
X621Y381D01*
X978Y381D02*
X1072Y381D01*
X1427Y381D02*
X1522Y381D01*
X1827Y381D02*
X1923Y381D01*
X125Y380D02*
X223Y380D01*
X525Y380D02*
X623Y380D01*
X976Y380D02*
X1074Y380D01*
X1425Y380D02*
X1523Y380D01*
X1825Y380D02*
X1924Y380D01*
X123Y379D02*
X224Y379D01*
X523Y379D02*
X624Y379D01*
X974Y379D02*
X1075Y379D01*
X1424Y379D02*
X1525Y379D01*
X1823Y379D02*
X1926Y379D01*
X122Y378D02*
X226Y378D01*
X521Y378D02*
X626Y378D01*
X973Y378D02*
X1077Y378D01*
X1422Y378D02*
X1527Y378D01*
X1822Y378D02*
X1928Y378D01*
X120Y377D02*
X228Y377D01*
X520Y377D02*
X628Y377D01*
X971Y377D02*
X1079Y377D01*
X1420Y377D02*
X1528Y377D01*
X1820Y377D02*
X1929Y377D01*
X118Y376D02*
X229Y376D01*
X518Y376D02*
X629Y376D01*
X969Y376D02*
X1080Y376D01*
X1419Y376D02*
X1530Y376D01*
X1819Y376D02*
X1931Y376D01*
X117Y375D02*
X231Y375D01*
X517Y375D02*
X631Y375D01*
X968Y375D02*
X1082Y375D01*
X1417Y375D02*
X1531Y375D01*
X1817Y375D02*
X1932Y375D01*
X116Y374D02*
X232Y374D01*
X515Y374D02*
X632Y374D01*
X967Y374D02*
X1083Y374D01*
X1416Y374D02*
X1533Y374D01*
X1816Y374D02*
X1933Y374D01*
X114Y373D02*
X233Y373D01*
X514Y373D02*
X633Y373D01*
X965Y373D02*
X1084Y373D01*
X1415Y373D02*
X1534Y373D01*
X1815Y373D02*
X1935Y373D01*
X113Y372D02*
X235Y372D01*
X513Y372D02*
X635Y372D01*
X964Y372D02*
X1086Y372D01*
X1413Y372D02*
X1535Y372D01*
X1813Y372D02*
X1936Y372D01*
X112Y371D02*
X236Y371D01*
X511Y371D02*
X636Y371D01*
X963Y371D02*
X1087Y371D01*
X1412Y371D02*
X1537Y371D01*
X1812Y371D02*
X1937Y371D01*
X110Y370D02*
X237Y370D01*
X510Y370D02*
X637Y370D01*
X961Y370D02*
X1088Y370D01*
X1411Y370D02*
X1538Y370D01*
X1811Y370D02*
X1939Y370D01*
X109Y369D02*
X238Y369D01*
X509Y369D02*
X638Y369D01*
X960Y369D02*
X1089Y369D01*
X1410Y369D02*
X1539Y369D01*
X1810Y369D02*
X1940Y369D01*
X108Y368D02*
X239Y368D01*
X508Y368D02*
X640Y368D01*
X959Y368D02*
X1090Y368D01*
X1409Y368D02*
X1540Y368D01*
X1809Y368D02*
X1941Y368D01*
X107Y367D02*
X167Y367D01*
X181Y367D02*
X241Y367D01*
X507Y367D02*
X565Y367D01*
X582Y367D02*
X641Y367D01*
X958Y367D02*
X1018Y367D01*
X1032Y367D02*
X1092Y367D01*
X1407Y367D02*
X1466Y367D01*
X1483Y367D02*
X1541Y367D01*
X1807Y367D02*
X1864Y367D01*
X1886Y367D02*
X1942Y367D01*
X106Y366D02*
X159Y366D01*
X188Y366D02*
X242Y366D01*
X506Y366D02*
X559Y366D01*
X589Y366D02*
X642Y366D01*
X957Y366D02*
X1010Y366D01*
X1039Y366D02*
X1093Y366D01*
X1406Y366D02*
X1459Y366D01*
X1490Y366D02*
X1542Y366D01*
X1806Y366D02*
X1858Y366D01*
X1891Y366D02*
X1943Y366D01*
X105Y365D02*
X155Y365D01*
X193Y365D02*
X243Y365D01*
X505Y365D02*
X555Y365D01*
X593Y365D02*
X643Y365D01*
X956Y365D02*
X1006Y365D01*
X1044Y365D02*
X1094Y365D01*
X1405Y365D02*
X1455Y365D01*
X1494Y365D02*
X1543Y365D01*
X1805Y365D02*
X1854Y365D01*
X1895Y365D02*
X1944Y365D01*
X104Y364D02*
X151Y364D01*
X196Y364D02*
X244Y364D01*
X504Y364D02*
X551Y364D01*
X597Y364D02*
X644Y364D01*
X955Y364D02*
X1002Y364D01*
X1047Y364D02*
X1095Y364D01*
X1404Y364D02*
X1451Y364D01*
X1497Y364D02*
X1544Y364D01*
X1804Y364D02*
X1851Y364D01*
X1899Y364D02*
X1945Y364D01*
X103Y363D02*
X148Y363D01*
X199Y363D02*
X245Y363D01*
X503Y363D02*
X548Y363D01*
X600Y363D02*
X645Y363D01*
X954Y363D02*
X999Y363D01*
X1050Y363D02*
X1096Y363D01*
X1403Y363D02*
X1449Y363D01*
X1500Y363D02*
X1545Y363D01*
X1803Y363D02*
X1848Y363D01*
X1901Y363D02*
X1946Y363D01*
X102Y362D02*
X146Y362D01*
X202Y362D02*
X246Y362D01*
X502Y362D02*
X545Y362D01*
X602Y362D02*
X646Y362D01*
X953Y362D02*
X997Y362D01*
X1053Y362D02*
X1097Y362D01*
X1402Y362D02*
X1446Y362D01*
X1503Y362D02*
X1546Y362D01*
X1802Y362D02*
X1845Y362D01*
X1904Y362D02*
X1947Y362D01*
X101Y361D02*
X143Y361D01*
X204Y361D02*
X247Y361D01*
X501Y361D02*
X543Y361D01*
X605Y361D02*
X647Y361D01*
X952Y361D02*
X994Y361D01*
X1055Y361D02*
X1098Y361D01*
X1401Y361D02*
X1444Y361D01*
X1505Y361D02*
X1547Y361D01*
X1801Y361D02*
X1843Y361D01*
X1906Y361D02*
X1948Y361D01*
X100Y360D02*
X141Y360D01*
X206Y360D02*
X247Y360D01*
X500Y360D02*
X541Y360D01*
X607Y360D02*
X648Y360D01*
X951Y360D02*
X992Y360D01*
X1057Y360D02*
X1098Y360D01*
X1401Y360D02*
X1442Y360D01*
X1507Y360D02*
X1548Y360D01*
X1801Y360D02*
X1841Y360D01*
X1908Y360D02*
X1949Y360D01*
X99Y359D02*
X139Y359D01*
X208Y359D02*
X248Y359D01*
X499Y359D02*
X539Y359D01*
X609Y359D02*
X648Y359D01*
X950Y359D02*
X990Y359D01*
X1059Y359D02*
X1099Y359D01*
X1400Y359D02*
X1439Y359D01*
X1509Y359D02*
X1549Y359D01*
X1800Y359D02*
X1839Y359D01*
X1910Y359D02*
X1950Y359D01*
X98Y358D02*
X137Y358D01*
X210Y358D02*
X249Y358D01*
X498Y358D02*
X537Y358D01*
X610Y358D02*
X649Y358D01*
X949Y358D02*
X988Y358D01*
X1061Y358D02*
X1100Y358D01*
X1399Y358D02*
X1438Y358D01*
X1511Y358D02*
X1550Y358D01*
X1799Y358D02*
X1837Y358D01*
X1912Y358D02*
X1951Y358D01*
X97Y357D02*
X136Y357D01*
X212Y357D02*
X250Y357D01*
X497Y357D02*
X535Y357D01*
X612Y357D02*
X650Y357D01*
X948Y357D02*
X987Y357D01*
X1063Y357D02*
X1101Y357D01*
X1398Y357D02*
X1436Y357D01*
X1513Y357D02*
X1551Y357D01*
X1798Y357D02*
X1836Y357D01*
X1914Y357D02*
X1951Y357D01*
X97Y356D02*
X134Y356D01*
X214Y356D02*
X251Y356D01*
X497Y356D02*
X534Y356D01*
X614Y356D02*
X651Y356D01*
X948Y356D02*
X985Y356D01*
X1065Y356D02*
X1102Y356D01*
X1397Y356D02*
X1434Y356D01*
X1514Y356D02*
X1552Y356D01*
X1797Y356D02*
X1834Y356D01*
X1915Y356D02*
X1952Y356D01*
X96Y355D02*
X132Y355D01*
X215Y355D02*
X252Y355D01*
X496Y355D02*
X532Y355D01*
X615Y355D02*
X652Y355D01*
X947Y355D02*
X983Y355D01*
X1066Y355D02*
X1103Y355D01*
X1396Y355D02*
X1433Y355D01*
X1516Y355D02*
X1552Y355D01*
X1796Y355D02*
X1833Y355D01*
X1917Y355D02*
X1953Y355D01*
X95Y354D02*
X131Y354D01*
X217Y354D02*
X252Y354D01*
X495Y354D02*
X531Y354D01*
X617Y354D02*
X652Y354D01*
X946Y354D02*
X982Y354D01*
X1068Y354D02*
X1103Y354D01*
X1396Y354D02*
X1431Y354D01*
X1517Y354D02*
X1553Y354D01*
X1796Y354D02*
X1831Y354D01*
X1918Y354D02*
X1954Y354D01*
X94Y353D02*
X130Y353D01*
X218Y353D02*
X253Y353D01*
X494Y353D02*
X530Y353D01*
X618Y353D02*
X653Y353D01*
X945Y353D02*
X981Y353D01*
X1069Y353D02*
X1104Y353D01*
X1395Y353D02*
X1430Y353D01*
X1519Y353D02*
X1554Y353D01*
X1795Y353D02*
X1830Y353D01*
X1919Y353D02*
X1954Y353D01*
X94Y352D02*
X128Y352D01*
X219Y352D02*
X254Y352D01*
X494Y352D02*
X528Y352D01*
X619Y352D02*
X654Y352D01*
X945Y352D02*
X979Y352D01*
X1070Y352D02*
X1105Y352D01*
X1394Y352D02*
X1429Y352D01*
X1520Y352D02*
X1554Y352D01*
X1794Y352D02*
X1829Y352D01*
X1921Y352D02*
X1955Y352D01*
X93Y351D02*
X127Y351D01*
X221Y351D02*
X255Y351D01*
X493Y351D02*
X527Y351D01*
X621Y351D02*
X655Y351D01*
X944Y351D02*
X978Y351D01*
X1072Y351D02*
X1106Y351D01*
X1393Y351D02*
X1427Y351D01*
X1521Y351D02*
X1555Y351D01*
X1793Y351D02*
X1827Y351D01*
X1922Y351D02*
X1956Y351D01*
X92Y350D02*
X126Y350D01*
X222Y350D02*
X255Y350D01*
X492Y350D02*
X526Y350D01*
X622Y350D02*
X655Y350D01*
X943Y350D02*
X977Y350D01*
X1073Y350D02*
X1106Y350D01*
X1393Y350D02*
X1426Y350D01*
X1522Y350D02*
X1556Y350D01*
X1793Y350D02*
X1826Y350D01*
X1923Y350D02*
X1957Y350D01*
X92Y349D02*
X125Y349D01*
X223Y349D02*
X256Y349D01*
X491Y349D02*
X525Y349D01*
X623Y349D02*
X656Y349D01*
X943Y349D02*
X976Y349D01*
X1074Y349D02*
X1107Y349D01*
X1392Y349D02*
X1425Y349D01*
X1524Y349D02*
X1557Y349D01*
X1792Y349D02*
X1825Y349D01*
X1924Y349D02*
X1957Y349D01*
X91Y348D02*
X124Y348D01*
X224Y348D02*
X257Y348D01*
X491Y348D02*
X523Y348D01*
X624Y348D02*
X657Y348D01*
X942Y348D02*
X975Y348D01*
X1075Y348D02*
X1108Y348D01*
X1391Y348D02*
X1424Y348D01*
X1525Y348D02*
X1557Y348D01*
X1792Y348D02*
X1824Y348D01*
X1925Y348D02*
X1958Y348D01*
X90Y347D02*
X123Y347D01*
X225Y347D02*
X257Y347D01*
X490Y347D02*
X522Y347D01*
X625Y347D02*
X657Y347D01*
X941Y347D02*
X974Y347D01*
X1076Y347D02*
X1108Y347D01*
X1391Y347D02*
X1423Y347D01*
X1526Y347D02*
X1558Y347D01*
X1791Y347D02*
X1823Y347D01*
X1926Y347D02*
X1958Y347D01*
X90Y346D02*
X121Y346D01*
X226Y346D02*
X258Y346D01*
X490Y346D02*
X521Y346D01*
X626Y346D02*
X658Y346D01*
X941Y346D02*
X972Y346D01*
X1077Y346D02*
X1109Y346D01*
X1390Y346D02*
X1422Y346D01*
X1527Y346D02*
X1558Y346D01*
X1790Y346D02*
X1822Y346D01*
X1928Y346D02*
X1959Y346D01*
X89Y345D02*
X121Y345D01*
X227Y345D02*
X259Y345D01*
X489Y345D02*
X520Y345D01*
X627Y345D02*
X659Y345D01*
X940Y345D02*
X972Y345D01*
X1078Y345D02*
X1110Y345D01*
X1390Y345D02*
X1421Y345D01*
X1528Y345D02*
X1559Y345D01*
X1790Y345D02*
X1821Y345D01*
X1928Y345D02*
X1960Y345D01*
X89Y344D02*
X120Y344D01*
X228Y344D02*
X259Y344D01*
X488Y344D02*
X519Y344D01*
X628Y344D02*
X659Y344D01*
X940Y344D02*
X971Y344D01*
X1079Y344D02*
X1110Y344D01*
X1389Y344D02*
X1420Y344D01*
X1529Y344D02*
X1560Y344D01*
X1789Y344D02*
X1820Y344D01*
X1929Y344D02*
X1960Y344D01*
X88Y343D02*
X119Y343D01*
X229Y343D02*
X260Y343D01*
X488Y343D02*
X519Y343D01*
X629Y343D02*
X660Y343D01*
X939Y343D02*
X970Y343D01*
X1080Y343D02*
X1111Y343D01*
X1388Y343D02*
X1419Y343D01*
X1530Y343D02*
X1560Y343D01*
X1788Y343D02*
X1819Y343D01*
X1930Y343D02*
X1961Y343D01*
X87Y342D02*
X118Y342D01*
X230Y342D02*
X260Y342D01*
X487Y342D02*
X518Y342D01*
X630Y342D02*
X660Y342D01*
X938Y342D02*
X969Y342D01*
X1081Y342D02*
X1111Y342D01*
X1388Y342D02*
X1418Y342D01*
X1530Y342D02*
X1561Y342D01*
X1788Y342D02*
X1818Y342D01*
X1931Y342D02*
X1961Y342D01*
X87Y341D02*
X117Y341D01*
X231Y341D02*
X261Y341D01*
X487Y341D02*
X517Y341D01*
X631Y341D02*
X661Y341D01*
X938Y341D02*
X968Y341D01*
X1082Y341D02*
X1112Y341D01*
X1387Y341D02*
X1417Y341D01*
X1531Y341D02*
X1561Y341D01*
X1787Y341D02*
X1817Y341D01*
X1932Y341D02*
X1962Y341D01*
X86Y340D02*
X116Y340D01*
X232Y340D02*
X261Y340D01*
X486Y340D02*
X516Y340D01*
X632Y340D02*
X661Y340D01*
X937Y340D02*
X967Y340D01*
X1083Y340D02*
X1112Y340D01*
X1387Y340D02*
X1416Y340D01*
X1532Y340D02*
X1562Y340D01*
X1787Y340D02*
X1817Y340D01*
X1933Y340D02*
X1962Y340D01*
X86Y339D02*
X115Y339D01*
X232Y339D02*
X262Y339D01*
X486Y339D02*
X515Y339D01*
X632Y339D02*
X662Y339D01*
X937Y339D02*
X966Y339D01*
X1083Y339D02*
X1113Y339D01*
X1386Y339D02*
X1416Y339D01*
X1533Y339D02*
X1562Y339D01*
X1786Y339D02*
X1816Y339D01*
X1934Y339D02*
X1963Y339D01*
X85Y338D02*
X115Y338D01*
X233Y338D02*
X262Y338D01*
X485Y338D02*
X514Y338D01*
X633Y338D02*
X662Y338D01*
X936Y338D02*
X966Y338D01*
X1084Y338D02*
X1113Y338D01*
X1386Y338D02*
X1415Y338D01*
X1534Y338D02*
X1563Y338D01*
X1786Y338D02*
X1815Y338D01*
X1934Y338D02*
X1963Y338D01*
X85Y337D02*
X114Y337D01*
X234Y337D02*
X263Y337D01*
X485Y337D02*
X514Y337D01*
X634Y337D02*
X663Y337D01*
X936Y337D02*
X965Y337D01*
X1085Y337D02*
X1114Y337D01*
X1385Y337D02*
X1414Y337D01*
X1534Y337D02*
X1563Y337D01*
X1785Y337D02*
X1814Y337D01*
X1935Y337D02*
X1964Y337D01*
X84Y336D02*
X113Y336D01*
X235Y336D02*
X263Y336D01*
X484Y336D02*
X513Y336D01*
X635Y336D02*
X663Y336D01*
X935Y336D02*
X964Y336D01*
X1086Y336D02*
X1114Y336D01*
X1385Y336D02*
X1413Y336D01*
X1535Y336D02*
X1564Y336D01*
X1785Y336D02*
X1813Y336D01*
X1936Y336D02*
X1964Y336D01*
X84Y335D02*
X112Y335D01*
X235Y335D02*
X264Y335D01*
X484Y335D02*
X512Y335D01*
X635Y335D02*
X664Y335D01*
X935Y335D02*
X963Y335D01*
X1086Y335D02*
X1115Y335D01*
X1384Y335D02*
X1413Y335D01*
X1536Y335D02*
X1564Y335D01*
X1784Y335D02*
X1813Y335D01*
X1937Y335D02*
X1965Y335D01*
X83Y334D02*
X112Y334D01*
X236Y334D02*
X264Y334D01*
X483Y334D02*
X511Y334D01*
X636Y334D02*
X664Y334D01*
X934Y334D02*
X963Y334D01*
X1087Y334D02*
X1115Y334D01*
X1384Y334D02*
X1412Y334D01*
X1537Y334D02*
X1565Y334D01*
X1784Y334D02*
X1812Y334D01*
X1937Y334D02*
X1965Y334D01*
X83Y333D02*
X111Y333D01*
X237Y333D02*
X265Y333D01*
X483Y333D02*
X511Y333D01*
X637Y333D02*
X665Y333D01*
X934Y333D02*
X962Y333D01*
X1088Y333D02*
X1116Y333D01*
X1383Y333D02*
X1411Y333D01*
X1537Y333D02*
X1565Y333D01*
X1784Y333D02*
X1812Y333D01*
X1938Y333D02*
X1966Y333D01*
X82Y332D02*
X110Y332D01*
X237Y332D02*
X265Y332D01*
X482Y332D02*
X510Y332D01*
X637Y332D02*
X665Y332D01*
X933Y332D02*
X961Y332D01*
X1088Y332D02*
X1116Y332D01*
X1383Y332D02*
X1411Y332D01*
X1538Y332D02*
X1566Y332D01*
X1783Y332D02*
X1811Y332D01*
X1938Y332D02*
X1966Y332D01*
X82Y331D02*
X110Y331D01*
X238Y331D02*
X266Y331D01*
X482Y331D02*
X510Y331D01*
X638Y331D02*
X666Y331D01*
X933Y331D02*
X961Y331D01*
X1089Y331D02*
X1117Y331D01*
X1383Y331D02*
X1410Y331D01*
X1538Y331D02*
X1566Y331D01*
X1783Y331D02*
X1810Y331D01*
X1939Y331D02*
X1967Y331D01*
X82Y330D02*
X109Y330D01*
X238Y330D02*
X266Y330D01*
X482Y330D02*
X509Y330D01*
X638Y330D02*
X666Y330D01*
X933Y330D02*
X960Y330D01*
X1089Y330D02*
X1117Y330D01*
X1382Y330D02*
X1410Y330D01*
X1539Y330D02*
X1566Y330D01*
X1782Y330D02*
X1810Y330D01*
X1940Y330D02*
X1967Y330D01*
X81Y329D02*
X109Y329D01*
X239Y329D02*
X266Y329D01*
X481Y329D02*
X508Y329D01*
X639Y329D02*
X666Y329D01*
X932Y329D02*
X960Y329D01*
X1090Y329D02*
X1117Y329D01*
X1382Y329D02*
X1409Y329D01*
X1540Y329D02*
X1567Y329D01*
X1782Y329D02*
X1809Y329D01*
X1940Y329D02*
X1967Y329D01*
X81Y328D02*
X108Y328D01*
X240Y328D02*
X267Y328D01*
X481Y328D02*
X508Y328D01*
X640Y328D02*
X667Y328D01*
X932Y328D02*
X959Y328D01*
X1091Y328D02*
X1118Y328D01*
X1381Y328D02*
X1408Y328D01*
X1540Y328D02*
X1567Y328D01*
X1782Y328D02*
X1809Y328D01*
X1941Y328D02*
X1968Y328D01*
X81Y327D02*
X108Y327D01*
X240Y327D02*
X267Y327D01*
X481Y327D02*
X507Y327D01*
X640Y327D02*
X667Y327D01*
X932Y327D02*
X959Y327D01*
X1091Y327D02*
X1118Y327D01*
X1381Y327D02*
X1408Y327D01*
X1541Y327D02*
X1568Y327D01*
X1781Y327D02*
X1808Y327D01*
X1941Y327D02*
X1968Y327D01*
X80Y326D02*
X107Y326D01*
X241Y326D02*
X267Y326D01*
X480Y326D02*
X507Y326D01*
X641Y326D02*
X667Y326D01*
X931Y326D02*
X958Y326D01*
X1092Y326D02*
X1118Y326D01*
X1381Y326D02*
X1408Y326D01*
X1541Y326D02*
X1568Y326D01*
X1781Y326D02*
X1808Y326D01*
X1942Y326D02*
X1968Y326D01*
X80Y325D02*
X107Y325D01*
X241Y325D02*
X268Y325D01*
X480Y325D02*
X506Y325D01*
X641Y325D02*
X668Y325D01*
X931Y325D02*
X958Y325D01*
X1092Y325D02*
X1119Y325D01*
X1380Y325D02*
X1407Y325D01*
X1542Y325D02*
X1568Y325D01*
X1781Y325D02*
X1807Y325D01*
X1942Y325D02*
X1969Y325D01*
X80Y324D02*
X106Y324D01*
X242Y324D02*
X268Y324D01*
X479Y324D02*
X506Y324D01*
X642Y324D02*
X668Y324D01*
X931Y324D02*
X957Y324D01*
X1093Y324D02*
X1119Y324D01*
X1380Y324D02*
X1407Y324D01*
X1542Y324D02*
X1569Y324D01*
X1780Y324D02*
X1807Y324D01*
X1943Y324D02*
X1969Y324D01*
X79Y323D02*
X106Y323D01*
X242Y323D02*
X268Y323D01*
X479Y323D02*
X506Y323D01*
X642Y323D02*
X668Y323D01*
X930Y323D02*
X957Y323D01*
X1093Y323D02*
X1119Y323D01*
X1380Y323D02*
X1406Y323D01*
X1543Y323D02*
X1569Y323D01*
X1780Y323D02*
X1806Y323D01*
X1943Y323D02*
X1969Y323D01*
X79Y322D02*
X105Y322D01*
X242Y322D02*
X269Y322D01*
X479Y322D02*
X505Y322D01*
X642Y322D02*
X669Y322D01*
X930Y322D02*
X956Y322D01*
X1093Y322D02*
X1120Y322D01*
X1379Y322D02*
X1406Y322D01*
X1543Y322D02*
X1569Y322D01*
X1780Y322D02*
X1806Y322D01*
X1943Y322D02*
X1970Y322D01*
X79Y321D02*
X105Y321D01*
X243Y321D02*
X269Y321D01*
X479Y321D02*
X505Y321D01*
X643Y321D02*
X669Y321D01*
X930Y321D02*
X956Y321D01*
X1094Y321D02*
X1120Y321D01*
X1379Y321D02*
X1405Y321D01*
X1543Y321D02*
X1570Y321D01*
X1779Y321D02*
X1805Y321D01*
X1944Y321D02*
X1970Y321D01*
X78Y320D02*
X104Y320D01*
X243Y320D02*
X269Y320D01*
X478Y320D02*
X504Y320D01*
X643Y320D02*
X669Y320D01*
X929Y320D02*
X955Y320D01*
X1094Y320D02*
X1120Y320D01*
X1379Y320D02*
X1405Y320D01*
X1544Y320D02*
X1570Y320D01*
X1779Y320D02*
X1805Y320D01*
X1944Y320D02*
X1970Y320D01*
X78Y319D02*
X104Y319D01*
X244Y319D02*
X270Y319D01*
X478Y319D02*
X504Y319D01*
X644Y319D02*
X670Y319D01*
X929Y319D02*
X955Y319D01*
X1095Y319D02*
X1121Y319D01*
X1378Y319D02*
X1405Y319D01*
X1544Y319D02*
X1570Y319D01*
X1779Y319D02*
X1805Y319D01*
X1945Y319D02*
X1971Y319D01*
X78Y318D02*
X104Y318D01*
X244Y318D02*
X270Y318D01*
X478Y318D02*
X504Y318D01*
X644Y318D02*
X670Y318D01*
X929Y318D02*
X955Y318D01*
X1095Y318D02*
X1121Y318D01*
X1378Y318D02*
X1404Y318D01*
X1544Y318D02*
X1570Y318D01*
X1778Y318D02*
X1804Y318D01*
X1945Y318D02*
X1971Y318D01*
X78Y317D02*
X103Y317D01*
X244Y317D02*
X270Y317D01*
X477Y317D02*
X503Y317D01*
X644Y317D02*
X670Y317D01*
X929Y317D02*
X954Y317D01*
X1095Y317D02*
X1121Y317D01*
X1378Y317D02*
X1404Y317D01*
X1545Y317D02*
X1571Y317D01*
X1778Y317D02*
X1804Y317D01*
X1945Y317D02*
X1971Y317D01*
X77Y316D02*
X103Y316D01*
X245Y316D02*
X270Y316D01*
X477Y316D02*
X503Y316D01*
X645Y316D02*
X670Y316D01*
X928Y316D02*
X954Y316D01*
X1096Y316D02*
X1121Y316D01*
X1378Y316D02*
X1403Y316D01*
X1545Y316D02*
X1571Y316D01*
X1778Y316D02*
X1804Y316D01*
X1946Y316D02*
X1971Y316D01*
X77Y315D02*
X103Y315D01*
X245Y315D02*
X271Y315D01*
X477Y315D02*
X503Y315D01*
X645Y315D02*
X671Y315D01*
X928Y315D02*
X954Y315D01*
X1096Y315D02*
X1122Y315D01*
X1378Y315D02*
X1403Y315D01*
X1545Y315D02*
X1571Y315D01*
X1778Y315D02*
X1803Y315D01*
X1946Y315D02*
X1972Y315D01*
X77Y314D02*
X102Y314D01*
X245Y314D02*
X271Y314D01*
X477Y314D02*
X502Y314D01*
X645Y314D02*
X671Y314D01*
X928Y314D02*
X953Y314D01*
X1096Y314D02*
X1122Y314D01*
X1377Y314D02*
X1403Y314D01*
X1546Y314D02*
X1571Y314D01*
X1778Y314D02*
X1803Y314D01*
X1946Y314D02*
X1972Y314D01*
X77Y313D02*
X102Y313D01*
X245Y313D02*
X271Y313D01*
X477Y313D02*
X502Y313D01*
X645Y313D02*
X671Y313D01*
X928Y313D02*
X953Y313D01*
X1096Y313D02*
X1122Y313D01*
X1377Y313D02*
X1403Y313D01*
X1546Y313D02*
X1572Y313D01*
X1777Y313D02*
X1803Y313D01*
X1946Y313D02*
X1972Y313D01*
X76Y312D02*
X102Y312D01*
X246Y312D02*
X271Y312D01*
X476Y312D02*
X502Y312D01*
X646Y312D02*
X671Y312D01*
X927Y312D02*
X953Y312D01*
X1097Y312D02*
X1122Y312D01*
X1377Y312D02*
X1402Y312D01*
X1546Y312D02*
X1572Y312D01*
X1777Y312D02*
X1803Y312D01*
X1947Y312D02*
X1972Y312D01*
X76Y311D02*
X102Y311D01*
X246Y311D02*
X271Y311D01*
X476Y311D02*
X502Y311D01*
X646Y311D02*
X671Y311D01*
X927Y311D02*
X953Y311D01*
X1097Y311D02*
X1122Y311D01*
X1377Y311D02*
X1402Y311D01*
X1547Y311D02*
X1572Y311D01*
X1777Y311D02*
X1802Y311D01*
X1947Y311D02*
X1972Y311D01*
X76Y310D02*
X101Y310D01*
X246Y310D02*
X272Y310D01*
X476Y310D02*
X501Y310D01*
X646Y310D02*
X672Y310D01*
X927Y310D02*
X952Y310D01*
X1097Y310D02*
X1123Y310D01*
X1377Y310D02*
X1402Y310D01*
X1547Y310D02*
X1572Y310D01*
X1777Y310D02*
X1802Y310D01*
X1947Y310D02*
X1973Y310D01*
X76Y309D02*
X101Y309D01*
X246Y309D02*
X272Y309D01*
X476Y309D02*
X501Y309D01*
X646Y309D02*
X672Y309D01*
X927Y309D02*
X952Y309D01*
X1097Y309D02*
X1123Y309D01*
X1376Y309D02*
X1402Y309D01*
X1547Y309D02*
X1572Y309D01*
X1777Y309D02*
X1802Y309D01*
X1947Y309D02*
X1973Y309D01*
X76Y308D02*
X101Y308D01*
X247Y308D02*
X272Y308D01*
X476Y308D02*
X501Y308D01*
X647Y308D02*
X672Y308D01*
X927Y308D02*
X952Y308D01*
X1098Y308D02*
X1123Y308D01*
X1376Y308D02*
X1401Y308D01*
X1547Y308D02*
X1572Y308D01*
X1777Y308D02*
X1802Y308D01*
X1948Y308D02*
X1973Y308D01*
X76Y307D02*
X101Y307D01*
X247Y307D02*
X272Y307D01*
X476Y307D02*
X501Y307D01*
X647Y307D02*
X672Y307D01*
X927Y307D02*
X952Y307D01*
X1098Y307D02*
X1123Y307D01*
X1376Y307D02*
X1401Y307D01*
X1547Y307D02*
X1573Y307D01*
X1776Y307D02*
X1802Y307D01*
X1948Y307D02*
X1973Y307D01*
X75Y306D02*
X101Y306D01*
X247Y306D02*
X272Y306D01*
X475Y306D02*
X501Y306D01*
X647Y306D02*
X672Y306D01*
X926Y306D02*
X952Y306D01*
X1098Y306D02*
X1123Y306D01*
X1376Y306D02*
X1401Y306D01*
X1547Y306D02*
X1573Y306D01*
X1776Y306D02*
X1801Y306D01*
X1948Y306D02*
X1973Y306D01*
X75Y305D02*
X101Y305D01*
X247Y305D02*
X272Y305D01*
X475Y305D02*
X500Y305D01*
X647Y305D02*
X672Y305D01*
X926Y305D02*
X952Y305D01*
X1098Y305D02*
X1123Y305D01*
X1376Y305D02*
X1401Y305D01*
X1548Y305D02*
X1573Y305D01*
X1776Y305D02*
X1801Y305D01*
X1948Y305D02*
X1973Y305D01*
X75Y304D02*
X100Y304D01*
X247Y304D02*
X272Y304D01*
X475Y304D02*
X500Y304D01*
X647Y304D02*
X672Y304D01*
X926Y304D02*
X951Y304D01*
X1098Y304D02*
X1123Y304D01*
X1376Y304D02*
X1401Y304D01*
X1548Y304D02*
X1573Y304D01*
X1776Y304D02*
X1801Y304D01*
X1948Y304D02*
X1973Y304D01*
X75Y303D02*
X100Y303D01*
X247Y303D02*
X273Y303D01*
X475Y303D02*
X500Y303D01*
X647Y303D02*
X672Y303D01*
X926Y303D02*
X951Y303D01*
X1098Y303D02*
X1124Y303D01*
X1376Y303D02*
X1401Y303D01*
X1548Y303D02*
X1573Y303D01*
X1776Y303D02*
X1801Y303D01*
X1948Y303D02*
X1973Y303D01*
X75Y302D02*
X100Y302D01*
X248Y302D02*
X273Y302D01*
X475Y302D02*
X500Y302D01*
X648Y302D02*
X673Y302D01*
X926Y302D02*
X951Y302D01*
X1099Y302D02*
X1124Y302D01*
X1376Y302D02*
X1401Y302D01*
X1548Y302D02*
X1573Y302D01*
X1776Y302D02*
X1801Y302D01*
X1948Y302D02*
X1973Y302D01*
X75Y301D02*
X100Y301D01*
X248Y301D02*
X273Y301D01*
X475Y301D02*
X500Y301D01*
X648Y301D02*
X673Y301D01*
X926Y301D02*
X951Y301D01*
X1099Y301D02*
X1124Y301D01*
X1375Y301D02*
X1400Y301D01*
X1548Y301D02*
X1573Y301D01*
X1776Y301D02*
X1801Y301D01*
X1949Y301D02*
X1974Y301D01*
X75Y300D02*
X100Y300D01*
X248Y300D02*
X273Y300D01*
X475Y300D02*
X500Y300D01*
X648Y300D02*
X673Y300D01*
X926Y300D02*
X951Y300D01*
X1099Y300D02*
X1124Y300D01*
X1375Y300D02*
X1400Y300D01*
X1548Y300D02*
X1573Y300D01*
X1776Y300D02*
X1801Y300D01*
X1949Y300D02*
X1974Y300D01*
X75Y299D02*
X100Y299D01*
X248Y299D02*
X273Y299D01*
X475Y299D02*
X500Y299D01*
X648Y299D02*
X673Y299D01*
X926Y299D02*
X951Y299D01*
X1099Y299D02*
X1124Y299D01*
X1375Y299D02*
X1400Y299D01*
X1548Y299D02*
X1573Y299D01*
X1776Y299D02*
X1801Y299D01*
X1949Y299D02*
X1974Y299D01*
X75Y298D02*
X100Y298D01*
X248Y298D02*
X273Y298D01*
X475Y298D02*
X500Y298D01*
X648Y298D02*
X673Y298D01*
X926Y298D02*
X951Y298D01*
X1099Y298D02*
X1124Y298D01*
X1375Y298D02*
X1400Y298D01*
X1548Y298D02*
X1574Y298D01*
X1776Y298D02*
X1801Y298D01*
X1949Y298D02*
X1974Y298D01*
X75Y297D02*
X100Y297D01*
X248Y297D02*
X273Y297D01*
X475Y297D02*
X500Y297D01*
X648Y297D02*
X673Y297D01*
X926Y297D02*
X951Y297D01*
X1099Y297D02*
X1124Y297D01*
X1375Y297D02*
X1400Y297D01*
X1548Y297D02*
X1574Y297D01*
X1776Y297D02*
X1801Y297D01*
X1949Y297D02*
X1974Y297D01*
X75Y296D02*
X100Y296D01*
X248Y296D02*
X273Y296D01*
X475Y296D02*
X500Y296D01*
X648Y296D02*
X673Y296D01*
X926Y296D02*
X951Y296D01*
X1099Y296D02*
X1124Y296D01*
X1375Y296D02*
X1400Y296D01*
X1548Y296D02*
X1574Y296D01*
X1776Y296D02*
X1801Y296D01*
X1949Y296D02*
X1974Y296D01*
X75Y295D02*
X100Y295D01*
X248Y295D02*
X273Y295D01*
X475Y295D02*
X500Y295D01*
X648Y295D02*
X673Y295D01*
X926Y295D02*
X951Y295D01*
X1099Y295D02*
X1124Y295D01*
X1375Y295D02*
X1400Y295D01*
X1548Y295D02*
X1574Y295D01*
X1776Y295D02*
X1800Y295D01*
X1949Y295D02*
X1974Y295D01*
X75Y294D02*
X100Y294D01*
X248Y294D02*
X273Y294D01*
X475Y294D02*
X500Y294D01*
X648Y294D02*
X673Y294D01*
X926Y294D02*
X951Y294D01*
X1099Y294D02*
X1124Y294D01*
X1375Y294D02*
X1400Y294D01*
X1549Y294D02*
X1574Y294D01*
X1776Y294D02*
X1800Y294D01*
X1949Y294D02*
X1974Y294D01*
X75Y293D02*
X100Y293D01*
X248Y293D02*
X273Y293D01*
X475Y293D02*
X500Y293D01*
X648Y293D02*
X673Y293D01*
X926Y293D02*
X951Y293D01*
X1099Y293D02*
X1124Y293D01*
X1375Y293D02*
X1400Y293D01*
X1549Y293D02*
X1574Y293D01*
X1776Y293D02*
X1800Y293D01*
X1949Y293D02*
X1974Y293D01*
X75Y292D02*
X100Y292D01*
X248Y292D02*
X273Y292D01*
X475Y292D02*
X500Y292D01*
X648Y292D02*
X673Y292D01*
X926Y292D02*
X951Y292D01*
X1099Y292D02*
X1124Y292D01*
X1375Y292D02*
X1400Y292D01*
X1548Y292D02*
X1574Y292D01*
X1776Y292D02*
X1801Y292D01*
X1949Y292D02*
X1974Y292D01*
X75Y291D02*
X100Y291D01*
X248Y291D02*
X273Y291D01*
X475Y291D02*
X500Y291D01*
X648Y291D02*
X673Y291D01*
X926Y291D02*
X951Y291D01*
X1099Y291D02*
X1124Y291D01*
X1375Y291D02*
X1400Y291D01*
X1548Y291D02*
X1574Y291D01*
X1776Y291D02*
X1801Y291D01*
X1949Y291D02*
X1974Y291D01*
X75Y290D02*
X100Y290D01*
X248Y290D02*
X273Y290D01*
X475Y290D02*
X500Y290D01*
X648Y290D02*
X673Y290D01*
X926Y290D02*
X951Y290D01*
X1099Y290D02*
X1124Y290D01*
X1375Y290D02*
X1400Y290D01*
X1548Y290D02*
X1574Y290D01*
X1776Y290D02*
X1801Y290D01*
X1949Y290D02*
X1974Y290D01*
X75Y289D02*
X100Y289D01*
X248Y289D02*
X273Y289D01*
X475Y289D02*
X500Y289D01*
X648Y289D02*
X673Y289D01*
X926Y289D02*
X951Y289D01*
X1099Y289D02*
X1124Y289D01*
X1375Y289D02*
X1400Y289D01*
X1548Y289D02*
X1574Y289D01*
X1776Y289D02*
X1801Y289D01*
X1949Y289D02*
X1974Y289D01*
X75Y288D02*
X100Y288D01*
X248Y288D02*
X273Y288D01*
X475Y288D02*
X500Y288D01*
X648Y288D02*
X673Y288D01*
X926Y288D02*
X951Y288D01*
X1099Y288D02*
X1124Y288D01*
X1375Y288D02*
X1400Y288D01*
X1548Y288D02*
X1574Y288D01*
X1776Y288D02*
X1801Y288D01*
X1949Y288D02*
X1974Y288D01*
X75Y287D02*
X100Y287D01*
X248Y287D02*
X273Y287D01*
X475Y287D02*
X500Y287D01*
X648Y287D02*
X673Y287D01*
X926Y287D02*
X951Y287D01*
X1099Y287D02*
X1124Y287D01*
X1375Y287D02*
X1400Y287D01*
X1548Y287D02*
X1574Y287D01*
X1776Y287D02*
X1801Y287D01*
X1949Y287D02*
X1974Y287D01*
X75Y286D02*
X100Y286D01*
X248Y286D02*
X273Y286D01*
X475Y286D02*
X500Y286D01*
X648Y286D02*
X673Y286D01*
X926Y286D02*
X951Y286D01*
X1099Y286D02*
X1124Y286D01*
X1375Y286D02*
X1400Y286D01*
X1548Y286D02*
X1574Y286D01*
X1776Y286D02*
X1801Y286D01*
X1948Y286D02*
X1974Y286D01*
X75Y285D02*
X100Y285D01*
X248Y285D02*
X273Y285D01*
X475Y285D02*
X500Y285D01*
X647Y285D02*
X673Y285D01*
X926Y285D02*
X951Y285D01*
X1099Y285D02*
X1124Y285D01*
X1375Y285D02*
X1401Y285D01*
X1548Y285D02*
X1574Y285D01*
X1776Y285D02*
X1801Y285D01*
X1948Y285D02*
X1974Y285D01*
X75Y284D02*
X100Y284D01*
X247Y284D02*
X273Y284D01*
X475Y284D02*
X500Y284D01*
X647Y284D02*
X673Y284D01*
X926Y284D02*
X951Y284D01*
X1098Y284D02*
X1124Y284D01*
X1375Y284D02*
X1401Y284D01*
X1548Y284D02*
X1574Y284D01*
X1776Y284D02*
X1801Y284D01*
X1948Y284D02*
X1974Y284D01*
X75Y283D02*
X100Y283D01*
X247Y283D02*
X273Y283D01*
X475Y283D02*
X500Y283D01*
X647Y283D02*
X673Y283D01*
X926Y283D02*
X951Y283D01*
X1098Y283D02*
X1124Y283D01*
X1375Y283D02*
X1401Y283D01*
X1548Y283D02*
X1574Y283D01*
X1776Y283D02*
X1801Y283D01*
X1948Y283D02*
X1974Y283D01*
X75Y282D02*
X101Y282D01*
X247Y282D02*
X273Y282D01*
X475Y282D02*
X501Y282D01*
X647Y282D02*
X673Y282D01*
X926Y282D02*
X952Y282D01*
X1098Y282D02*
X1124Y282D01*
X1375Y282D02*
X1401Y282D01*
X1548Y282D02*
X1574Y282D01*
X1776Y282D02*
X1801Y282D01*
X1948Y282D02*
X1974Y282D01*
X75Y281D02*
X101Y281D01*
X247Y281D02*
X273Y281D01*
X475Y281D02*
X501Y281D01*
X647Y281D02*
X673Y281D01*
X926Y281D02*
X952Y281D01*
X1098Y281D02*
X1124Y281D01*
X1375Y281D02*
X1401Y281D01*
X1547Y281D02*
X1574Y281D01*
X1776Y281D02*
X1802Y281D01*
X1948Y281D02*
X1974Y281D01*
X75Y280D02*
X101Y280D01*
X247Y280D02*
X273Y280D01*
X475Y280D02*
X501Y280D01*
X647Y280D02*
X673Y280D01*
X926Y280D02*
X952Y280D01*
X1098Y280D02*
X1124Y280D01*
X1375Y280D02*
X1401Y280D01*
X1547Y280D02*
X1574Y280D01*
X1776Y280D02*
X1802Y280D01*
X1948Y280D02*
X1974Y280D01*
X75Y279D02*
X101Y279D01*
X247Y279D02*
X273Y279D01*
X475Y279D02*
X501Y279D01*
X647Y279D02*
X673Y279D01*
X926Y279D02*
X952Y279D01*
X1098Y279D02*
X1124Y279D01*
X1375Y279D02*
X1402Y279D01*
X1547Y279D02*
X1574Y279D01*
X1776Y279D02*
X1802Y279D01*
X1947Y279D02*
X1974Y279D01*
X75Y278D02*
X101Y278D01*
X246Y278D02*
X273Y278D01*
X475Y278D02*
X501Y278D01*
X646Y278D02*
X673Y278D01*
X926Y278D02*
X952Y278D01*
X1097Y278D02*
X1124Y278D01*
X1375Y278D02*
X1402Y278D01*
X1547Y278D02*
X1574Y278D01*
X1776Y278D02*
X1802Y278D01*
X1947Y278D02*
X1974Y278D01*
X75Y277D02*
X101Y277D01*
X246Y277D02*
X273Y277D01*
X475Y277D02*
X501Y277D01*
X646Y277D02*
X673Y277D01*
X926Y277D02*
X952Y277D01*
X1097Y277D02*
X1124Y277D01*
X1375Y277D02*
X1402Y277D01*
X1547Y277D02*
X1574Y277D01*
X1776Y277D02*
X1802Y277D01*
X1947Y277D02*
X1974Y277D01*
X75Y276D02*
X102Y276D01*
X246Y276D02*
X273Y276D01*
X475Y276D02*
X502Y276D01*
X646Y276D02*
X673Y276D01*
X926Y276D02*
X953Y276D01*
X1097Y276D02*
X1124Y276D01*
X1375Y276D02*
X1402Y276D01*
X1546Y276D02*
X1574Y276D01*
X1776Y276D02*
X1803Y276D01*
X1947Y276D02*
X1974Y276D01*
X75Y275D02*
X102Y275D01*
X246Y275D02*
X273Y275D01*
X475Y275D02*
X502Y275D01*
X646Y275D02*
X673Y275D01*
X926Y275D02*
X953Y275D01*
X1097Y275D02*
X1124Y275D01*
X1375Y275D02*
X1403Y275D01*
X1546Y275D02*
X1574Y275D01*
X1776Y275D02*
X1803Y275D01*
X1946Y275D02*
X1974Y275D01*
X75Y274D02*
X102Y274D01*
X245Y274D02*
X273Y274D01*
X475Y274D02*
X502Y274D01*
X645Y274D02*
X673Y274D01*
X926Y274D02*
X953Y274D01*
X1096Y274D02*
X1124Y274D01*
X1375Y274D02*
X1403Y274D01*
X1546Y274D02*
X1574Y274D01*
X1776Y274D02*
X1803Y274D01*
X1946Y274D02*
X1974Y274D01*
X75Y273D02*
X102Y273D01*
X245Y273D02*
X273Y273D01*
X475Y273D02*
X502Y273D01*
X645Y273D02*
X673Y273D01*
X926Y273D02*
X953Y273D01*
X1096Y273D02*
X1124Y273D01*
X1375Y273D02*
X1403Y273D01*
X1546Y273D02*
X1574Y273D01*
X1776Y273D02*
X1803Y273D01*
X1946Y273D02*
X1974Y273D01*
X75Y272D02*
X103Y272D01*
X245Y272D02*
X273Y272D01*
X475Y272D02*
X503Y272D01*
X645Y272D02*
X673Y272D01*
X926Y272D02*
X954Y272D01*
X1096Y272D02*
X1124Y272D01*
X1375Y272D02*
X1403Y272D01*
X1545Y272D02*
X1574Y272D01*
X1776Y272D02*
X1804Y272D01*
X1946Y272D02*
X1974Y272D01*
X75Y271D02*
X103Y271D01*
X245Y271D02*
X273Y271D01*
X475Y271D02*
X503Y271D01*
X644Y271D02*
X673Y271D01*
X926Y271D02*
X954Y271D01*
X1096Y271D02*
X1124Y271D01*
X1375Y271D02*
X1404Y271D01*
X1545Y271D02*
X1574Y271D01*
X1776Y271D02*
X1804Y271D01*
X1945Y271D02*
X1974Y271D01*
X75Y270D02*
X103Y270D01*
X244Y270D02*
X273Y270D01*
X475Y270D02*
X503Y270D01*
X644Y270D02*
X673Y270D01*
X926Y270D02*
X954Y270D01*
X1095Y270D02*
X1124Y270D01*
X1375Y270D02*
X1404Y270D01*
X1545Y270D02*
X1574Y270D01*
X1776Y270D02*
X1804Y270D01*
X1945Y270D02*
X1974Y270D01*
X75Y269D02*
X104Y269D01*
X244Y269D02*
X273Y269D01*
X475Y269D02*
X504Y269D01*
X644Y269D02*
X673Y269D01*
X926Y269D02*
X955Y269D01*
X1095Y269D02*
X1124Y269D01*
X1375Y269D02*
X1404Y269D01*
X1544Y269D02*
X1574Y269D01*
X1776Y269D02*
X1805Y269D01*
X1945Y269D02*
X1974Y269D01*
X75Y268D02*
X104Y268D01*
X243Y268D02*
X273Y268D01*
X475Y268D02*
X504Y268D01*
X643Y268D02*
X673Y268D01*
X926Y268D02*
X955Y268D01*
X1094Y268D02*
X1124Y268D01*
X1375Y268D02*
X1405Y268D01*
X1544Y268D02*
X1574Y268D01*
X1776Y268D02*
X1805Y268D01*
X1944Y268D02*
X1974Y268D01*
X75Y267D02*
X105Y267D01*
X243Y267D02*
X273Y267D01*
X475Y267D02*
X505Y267D01*
X643Y267D02*
X673Y267D01*
X926Y267D02*
X956Y267D01*
X1094Y267D02*
X1124Y267D01*
X1375Y267D02*
X1405Y267D01*
X1544Y267D02*
X1574Y267D01*
X1776Y267D02*
X1806Y267D01*
X1944Y267D02*
X1974Y267D01*
X75Y266D02*
X105Y266D01*
X243Y266D02*
X273Y266D01*
X475Y266D02*
X505Y266D01*
X643Y266D02*
X673Y266D01*
X926Y266D02*
X956Y266D01*
X1094Y266D02*
X1124Y266D01*
X1375Y266D02*
X1405Y266D01*
X1543Y266D02*
X1574Y266D01*
X1776Y266D02*
X1806Y266D01*
X1943Y266D02*
X1974Y266D01*
X75Y265D02*
X105Y265D01*
X242Y265D02*
X273Y265D01*
X475Y265D02*
X505Y265D01*
X642Y265D02*
X673Y265D01*
X926Y265D02*
X956Y265D01*
X1093Y265D02*
X1124Y265D01*
X1375Y265D02*
X1406Y265D01*
X1543Y265D02*
X1574Y265D01*
X1776Y265D02*
X1806Y265D01*
X1943Y265D02*
X1974Y265D01*
X75Y264D02*
X106Y264D01*
X242Y264D02*
X273Y264D01*
X475Y264D02*
X506Y264D01*
X642Y264D02*
X673Y264D01*
X926Y264D02*
X957Y264D01*
X1093Y264D02*
X1124Y264D01*
X1375Y264D02*
X1406Y264D01*
X1542Y264D02*
X1574Y264D01*
X1776Y264D02*
X1807Y264D01*
X1943Y264D02*
X1974Y264D01*
X75Y263D02*
X106Y263D01*
X241Y263D02*
X273Y263D01*
X475Y263D02*
X506Y263D01*
X641Y263D02*
X673Y263D01*
X926Y263D02*
X957Y263D01*
X1092Y263D02*
X1124Y263D01*
X1375Y263D02*
X1407Y263D01*
X1542Y263D02*
X1574Y263D01*
X1776Y263D02*
X1807Y263D01*
X1942Y263D02*
X1974Y263D01*
X75Y262D02*
X107Y262D01*
X241Y262D02*
X273Y262D01*
X475Y262D02*
X507Y262D01*
X641Y262D02*
X673Y262D01*
X926Y262D02*
X958Y262D01*
X1092Y262D02*
X1124Y262D01*
X1375Y262D02*
X1407Y262D01*
X1541Y262D02*
X1574Y262D01*
X1776Y262D02*
X1808Y262D01*
X1942Y262D02*
X1974Y262D01*
X75Y261D02*
X107Y261D01*
X240Y261D02*
X273Y261D01*
X475Y261D02*
X507Y261D01*
X640Y261D02*
X673Y261D01*
X926Y261D02*
X958Y261D01*
X1091Y261D02*
X1124Y261D01*
X1375Y261D02*
X1408Y261D01*
X1541Y261D02*
X1574Y261D01*
X1776Y261D02*
X1808Y261D01*
X1941Y261D02*
X1974Y261D01*
X75Y260D02*
X108Y260D01*
X240Y260D02*
X273Y260D01*
X475Y260D02*
X508Y260D01*
X640Y260D02*
X673Y260D01*
X926Y260D02*
X959Y260D01*
X1091Y260D02*
X1124Y260D01*
X1375Y260D02*
X1408Y260D01*
X1540Y260D02*
X1574Y260D01*
X1776Y260D02*
X1809Y260D01*
X1941Y260D02*
X1974Y260D01*
X75Y259D02*
X108Y259D01*
X239Y259D02*
X273Y259D01*
X475Y259D02*
X508Y259D01*
X639Y259D02*
X673Y259D01*
X926Y259D02*
X959Y259D01*
X1091Y259D02*
X1124Y259D01*
X1375Y259D02*
X1409Y259D01*
X1540Y259D02*
X1574Y259D01*
X1776Y259D02*
X1809Y259D01*
X1940Y259D02*
X1974Y259D01*
X75Y258D02*
X109Y258D01*
X239Y258D02*
X273Y258D01*
X475Y258D02*
X509Y258D01*
X639Y258D02*
X673Y258D01*
X926Y258D02*
X960Y258D01*
X1090Y258D02*
X1124Y258D01*
X1375Y258D02*
X1409Y258D01*
X1539Y258D02*
X1574Y258D01*
X1776Y258D02*
X1810Y258D01*
X1940Y258D02*
X1974Y258D01*
X75Y257D02*
X109Y257D01*
X238Y257D02*
X273Y257D01*
X475Y257D02*
X509Y257D01*
X638Y257D02*
X673Y257D01*
X926Y257D02*
X960Y257D01*
X1089Y257D02*
X1124Y257D01*
X1375Y257D02*
X1410Y257D01*
X1539Y257D02*
X1574Y257D01*
X1776Y257D02*
X1810Y257D01*
X1939Y257D02*
X1974Y257D01*
X75Y256D02*
X110Y256D01*
X238Y256D02*
X273Y256D01*
X475Y256D02*
X510Y256D01*
X638Y256D02*
X673Y256D01*
X926Y256D02*
X961Y256D01*
X1089Y256D02*
X1124Y256D01*
X1375Y256D02*
X1410Y256D01*
X1538Y256D02*
X1574Y256D01*
X1776Y256D02*
X1811Y256D01*
X1938Y256D02*
X1974Y256D01*
X75Y255D02*
X111Y255D01*
X237Y255D02*
X273Y255D01*
X475Y255D02*
X511Y255D01*
X637Y255D02*
X673Y255D01*
X926Y255D02*
X962Y255D01*
X1088Y255D02*
X1124Y255D01*
X1375Y255D02*
X1411Y255D01*
X1538Y255D02*
X1574Y255D01*
X1776Y255D02*
X1812Y255D01*
X1938Y255D02*
X1974Y255D01*
X75Y254D02*
X111Y254D01*
X237Y254D02*
X273Y254D01*
X475Y254D02*
X511Y254D01*
X636Y254D02*
X673Y254D01*
X926Y254D02*
X962Y254D01*
X1088Y254D02*
X1124Y254D01*
X1375Y254D02*
X1412Y254D01*
X1537Y254D02*
X1574Y254D01*
X1776Y254D02*
X1812Y254D01*
X1937Y254D02*
X1974Y254D01*
X75Y253D02*
X112Y253D01*
X236Y253D02*
X273Y253D01*
X475Y253D02*
X512Y253D01*
X636Y253D02*
X673Y253D01*
X926Y253D02*
X963Y253D01*
X1087Y253D02*
X1124Y253D01*
X1375Y253D02*
X1412Y253D01*
X1536Y253D02*
X1574Y253D01*
X1776Y253D02*
X1813Y253D01*
X1936Y253D02*
X1974Y253D01*
X75Y252D02*
X112Y252D01*
X235Y252D02*
X273Y252D01*
X475Y252D02*
X512Y252D01*
X635Y252D02*
X673Y252D01*
X926Y252D02*
X963Y252D01*
X1086Y252D02*
X1124Y252D01*
X1375Y252D02*
X1413Y252D01*
X1536Y252D02*
X1574Y252D01*
X1776Y252D02*
X1814Y252D01*
X1936Y252D02*
X1974Y252D01*
X75Y251D02*
X113Y251D01*
X234Y251D02*
X273Y251D01*
X475Y251D02*
X513Y251D01*
X634Y251D02*
X673Y251D01*
X926Y251D02*
X964Y251D01*
X1085Y251D02*
X1124Y251D01*
X1375Y251D02*
X1414Y251D01*
X1535Y251D02*
X1574Y251D01*
X1776Y251D02*
X1814Y251D01*
X1935Y251D02*
X1974Y251D01*
X75Y250D02*
X114Y250D01*
X234Y250D02*
X273Y250D01*
X475Y250D02*
X514Y250D01*
X634Y250D02*
X673Y250D01*
X926Y250D02*
X965Y250D01*
X1085Y250D02*
X1124Y250D01*
X1375Y250D02*
X1415Y250D01*
X1534Y250D02*
X1574Y250D01*
X1776Y250D02*
X1815Y250D01*
X1934Y250D02*
X1974Y250D01*
X75Y249D02*
X115Y249D01*
X233Y249D02*
X273Y249D01*
X475Y249D02*
X515Y249D01*
X633Y249D02*
X673Y249D01*
X926Y249D02*
X966Y249D01*
X1084Y249D02*
X1124Y249D01*
X1375Y249D02*
X1415Y249D01*
X1533Y249D02*
X1574Y249D01*
X1776Y249D02*
X1816Y249D01*
X1933Y249D02*
X1974Y249D01*
X75Y248D02*
X115Y248D01*
X232Y248D02*
X273Y248D01*
X475Y248D02*
X515Y248D01*
X632Y248D02*
X673Y248D01*
X926Y248D02*
X966Y248D01*
X1083Y248D02*
X1124Y248D01*
X1375Y248D02*
X1416Y248D01*
X1533Y248D02*
X1574Y248D01*
X1776Y248D02*
X1817Y248D01*
X1933Y248D02*
X1974Y248D01*
X75Y247D02*
X116Y247D01*
X231Y247D02*
X273Y247D01*
X475Y247D02*
X516Y247D01*
X631Y247D02*
X673Y247D01*
X926Y247D02*
X967Y247D01*
X1082Y247D02*
X1124Y247D01*
X1375Y247D02*
X1417Y247D01*
X1532Y247D02*
X1574Y247D01*
X1776Y247D02*
X1817Y247D01*
X1932Y247D02*
X1974Y247D01*
X75Y246D02*
X117Y246D01*
X231Y246D02*
X273Y246D01*
X475Y246D02*
X517Y246D01*
X630Y246D02*
X673Y246D01*
X926Y246D02*
X968Y246D01*
X1082Y246D02*
X1124Y246D01*
X1375Y246D02*
X1418Y246D01*
X1531Y246D02*
X1574Y246D01*
X1776Y246D02*
X1818Y246D01*
X1931Y246D02*
X1974Y246D01*
X75Y245D02*
X118Y245D01*
X230Y245D02*
X273Y245D01*
X475Y245D02*
X518Y245D01*
X630Y245D02*
X673Y245D01*
X926Y245D02*
X969Y245D01*
X1081Y245D02*
X1124Y245D01*
X1375Y245D02*
X1419Y245D01*
X1530Y245D02*
X1574Y245D01*
X1776Y245D02*
X1819Y245D01*
X1930Y245D02*
X1974Y245D01*
X75Y244D02*
X119Y244D01*
X229Y244D02*
X273Y244D01*
X475Y244D02*
X519Y244D01*
X629Y244D02*
X673Y244D01*
X926Y244D02*
X970Y244D01*
X1080Y244D02*
X1124Y244D01*
X1375Y244D02*
X1419Y244D01*
X1529Y244D02*
X1574Y244D01*
X1776Y244D02*
X1820Y244D01*
X1929Y244D02*
X1974Y244D01*
X75Y243D02*
X120Y243D01*
X228Y243D02*
X273Y243D01*
X475Y243D02*
X520Y243D01*
X628Y243D02*
X673Y243D01*
X926Y243D02*
X971Y243D01*
X1079Y243D02*
X1124Y243D01*
X1375Y243D02*
X1420Y243D01*
X1528Y243D02*
X1574Y243D01*
X1776Y243D02*
X1821Y243D01*
X1928Y243D02*
X1974Y243D01*
X75Y242D02*
X121Y242D01*
X227Y242D02*
X273Y242D01*
X475Y242D02*
X521Y242D01*
X627Y242D02*
X673Y242D01*
X926Y242D02*
X972Y242D01*
X1078Y242D02*
X1124Y242D01*
X1375Y242D02*
X1421Y242D01*
X1527Y242D02*
X1574Y242D01*
X1776Y242D02*
X1822Y242D01*
X1927Y242D02*
X1974Y242D01*
X75Y241D02*
X122Y241D01*
X226Y241D02*
X273Y241D01*
X475Y241D02*
X522Y241D01*
X626Y241D02*
X673Y241D01*
X926Y241D02*
X973Y241D01*
X1077Y241D02*
X1124Y241D01*
X1375Y241D02*
X1422Y241D01*
X1526Y241D02*
X1574Y241D01*
X1776Y241D02*
X1823Y241D01*
X1926Y241D02*
X1974Y241D01*
X75Y240D02*
X123Y240D01*
X225Y240D02*
X273Y240D01*
X475Y240D02*
X523Y240D01*
X625Y240D02*
X673Y240D01*
X926Y240D02*
X974Y240D01*
X1076Y240D02*
X1124Y240D01*
X1375Y240D02*
X1423Y240D01*
X1525Y240D02*
X1574Y240D01*
X1776Y240D02*
X1824Y240D01*
X1925Y240D02*
X1974Y240D01*
X75Y239D02*
X124Y239D01*
X224Y239D02*
X273Y239D01*
X475Y239D02*
X524Y239D01*
X624Y239D02*
X673Y239D01*
X926Y239D02*
X975Y239D01*
X1075Y239D02*
X1124Y239D01*
X1375Y239D02*
X1425Y239D01*
X1524Y239D02*
X1574Y239D01*
X1776Y239D02*
X1825Y239D01*
X1924Y239D02*
X1974Y239D01*
X75Y238D02*
X125Y238D01*
X223Y238D02*
X273Y238D01*
X475Y238D02*
X525Y238D01*
X622Y238D02*
X673Y238D01*
X926Y238D02*
X976Y238D01*
X1074Y238D02*
X1124Y238D01*
X1375Y238D02*
X1426Y238D01*
X1523Y238D02*
X1574Y238D01*
X1776Y238D02*
X1826Y238D01*
X1923Y238D02*
X1974Y238D01*
X75Y237D02*
X126Y237D01*
X222Y237D02*
X273Y237D01*
X475Y237D02*
X526Y237D01*
X621Y237D02*
X673Y237D01*
X926Y237D02*
X977Y237D01*
X1073Y237D02*
X1124Y237D01*
X1375Y237D02*
X1427Y237D01*
X1522Y237D02*
X1574Y237D01*
X1776Y237D02*
X1828Y237D01*
X1922Y237D02*
X1974Y237D01*
X75Y236D02*
X127Y236D01*
X220Y236D02*
X273Y236D01*
X475Y236D02*
X527Y236D01*
X620Y236D02*
X673Y236D01*
X926Y236D02*
X978Y236D01*
X1071Y236D02*
X1124Y236D01*
X1375Y236D02*
X1428Y236D01*
X1521Y236D02*
X1574Y236D01*
X1776Y236D02*
X1829Y236D01*
X1920Y236D02*
X1974Y236D01*
X75Y235D02*
X129Y235D01*
X219Y235D02*
X273Y235D01*
X475Y235D02*
X529Y235D01*
X619Y235D02*
X673Y235D01*
X926Y235D02*
X980Y235D01*
X1070Y235D02*
X1124Y235D01*
X1375Y235D02*
X1429Y235D01*
X1519Y235D02*
X1574Y235D01*
X1776Y235D02*
X1830Y235D01*
X1919Y235D02*
X1974Y235D01*
X75Y234D02*
X130Y234D01*
X218Y234D02*
X273Y234D01*
X475Y234D02*
X530Y234D01*
X617Y234D02*
X673Y234D01*
X926Y234D02*
X981Y234D01*
X1069Y234D02*
X1124Y234D01*
X1375Y234D02*
X1431Y234D01*
X1518Y234D02*
X1574Y234D01*
X1776Y234D02*
X1831Y234D01*
X1918Y234D02*
X1974Y234D01*
X75Y233D02*
X131Y233D01*
X216Y233D02*
X273Y233D01*
X475Y233D02*
X531Y233D01*
X616Y233D02*
X673Y233D01*
X926Y233D02*
X982Y233D01*
X1067Y233D02*
X1124Y233D01*
X1375Y233D02*
X1432Y233D01*
X1517Y233D02*
X1574Y233D01*
X1776Y233D02*
X1833Y233D01*
X1917Y233D02*
X1974Y233D01*
X75Y232D02*
X133Y232D01*
X215Y232D02*
X273Y232D01*
X475Y232D02*
X533Y232D01*
X615Y232D02*
X673Y232D01*
X926Y232D02*
X984Y232D01*
X1066Y232D02*
X1124Y232D01*
X1375Y232D02*
X1433Y232D01*
X1515Y232D02*
X1574Y232D01*
X1776Y232D02*
X1834Y232D01*
X1915Y232D02*
X1974Y232D01*
X75Y231D02*
X134Y231D01*
X213Y231D02*
X273Y231D01*
X475Y231D02*
X535Y231D01*
X613Y231D02*
X673Y231D01*
X926Y231D02*
X985Y231D01*
X1064Y231D02*
X1124Y231D01*
X1375Y231D02*
X1435Y231D01*
X1514Y231D02*
X1574Y231D01*
X1776Y231D02*
X1836Y231D01*
X1913Y231D02*
X1974Y231D01*
X75Y230D02*
X136Y230D01*
X212Y230D02*
X273Y230D01*
X475Y230D02*
X536Y230D01*
X611Y230D02*
X673Y230D01*
X926Y230D02*
X987Y230D01*
X1063Y230D02*
X1124Y230D01*
X1375Y230D02*
X1437Y230D01*
X1512Y230D02*
X1574Y230D01*
X1776Y230D02*
X1838Y230D01*
X1912Y230D02*
X1974Y230D01*
X75Y229D02*
X138Y229D01*
X210Y229D02*
X273Y229D01*
X475Y229D02*
X538Y229D01*
X610Y229D02*
X673Y229D01*
X926Y229D02*
X989Y229D01*
X1061Y229D02*
X1124Y229D01*
X1375Y229D02*
X1438Y229D01*
X1510Y229D02*
X1574Y229D01*
X1776Y229D02*
X1839Y229D01*
X1910Y229D02*
X1974Y229D01*
X75Y228D02*
X140Y228D01*
X208Y228D02*
X273Y228D01*
X475Y228D02*
X540Y228D01*
X608Y228D02*
X673Y228D01*
X926Y228D02*
X991Y228D01*
X1059Y228D02*
X1124Y228D01*
X1375Y228D02*
X1440Y228D01*
X1508Y228D02*
X1574Y228D01*
X1776Y228D02*
X1841Y228D01*
X1908Y228D02*
X1974Y228D01*
X75Y227D02*
X142Y227D01*
X206Y227D02*
X273Y227D01*
X475Y227D02*
X542Y227D01*
X606Y227D02*
X673Y227D01*
X926Y227D02*
X993Y227D01*
X1057Y227D02*
X1124Y227D01*
X1375Y227D02*
X1442Y227D01*
X1506Y227D02*
X1574Y227D01*
X1776Y227D02*
X1844Y227D01*
X1906Y227D02*
X1974Y227D01*
X75Y226D02*
X144Y226D01*
X204Y226D02*
X273Y226D01*
X475Y226D02*
X544Y226D01*
X604Y226D02*
X673Y226D01*
X926Y226D02*
X995Y226D01*
X1055Y226D02*
X1124Y226D01*
X1375Y226D02*
X1444Y226D01*
X1504Y226D02*
X1574Y226D01*
X1776Y226D02*
X1846Y226D01*
X1904Y226D02*
X1974Y226D01*
X75Y225D02*
X146Y225D01*
X201Y225D02*
X273Y225D01*
X475Y225D02*
X546Y225D01*
X601Y225D02*
X673Y225D01*
X926Y225D02*
X997Y225D01*
X1052Y225D02*
X1124Y225D01*
X1375Y225D02*
X1447Y225D01*
X1502Y225D02*
X1574Y225D01*
X1776Y225D02*
X1848Y225D01*
X1901Y225D02*
X1974Y225D01*
X75Y224D02*
X149Y224D01*
X199Y224D02*
X273Y224D01*
X475Y224D02*
X549Y224D01*
X598Y224D02*
X673Y224D01*
X926Y224D02*
X1000Y224D01*
X1050Y224D02*
X1124Y224D01*
X1375Y224D02*
X1450Y224D01*
X1499Y224D02*
X1574Y224D01*
X1776Y224D02*
X1851Y224D01*
X1898Y224D02*
X1974Y224D01*
X75Y223D02*
X152Y223D01*
X196Y223D02*
X273Y223D01*
X475Y223D02*
X552Y223D01*
X595Y223D02*
X673Y223D01*
X926Y223D02*
X1003Y223D01*
X1047Y223D02*
X1124Y223D01*
X1375Y223D02*
X1453Y223D01*
X1496Y223D02*
X1574Y223D01*
X1776Y223D02*
X1855Y223D01*
X1895Y223D02*
X1974Y223D01*
X75Y222D02*
X156Y222D01*
X192Y222D02*
X273Y222D01*
X475Y222D02*
X556Y222D01*
X591Y222D02*
X673Y222D01*
X926Y222D02*
X1007Y222D01*
X1043Y222D02*
X1124Y222D01*
X1375Y222D02*
X1457Y222D01*
X1492Y222D02*
X1574Y222D01*
X1776Y222D02*
X1859Y222D01*
X1891Y222D02*
X1974Y222D01*
X75Y221D02*
X161Y221D01*
X187Y221D02*
X273Y221D01*
X475Y221D02*
X561Y221D01*
X586Y221D02*
X673Y221D01*
X926Y221D02*
X1012Y221D01*
X1038Y221D02*
X1124Y221D01*
X1375Y221D02*
X1462Y221D01*
X1487Y221D02*
X1574Y221D01*
X1776Y221D02*
X1865Y221D01*
X1884Y221D02*
X1974Y221D01*
X75Y220D02*
X171Y220D01*
X176Y220D02*
X273Y220D01*
X475Y220D02*
X673Y220D01*
X926Y220D02*
X1022Y220D01*
X1027Y220D02*
X1124Y220D01*
X1375Y220D02*
X1574Y220D01*
X1776Y220D02*
X1974Y220D01*
X75Y219D02*
X273Y219D01*
X475Y219D02*
X673Y219D01*
X926Y219D02*
X1124Y219D01*
X1375Y219D02*
X1574Y219D01*
X1776Y219D02*
X1974Y219D01*
X75Y218D02*
X273Y218D01*
X475Y218D02*
X673Y218D01*
X926Y218D02*
X1124Y218D01*
X1375Y218D02*
X1574Y218D01*
X1776Y218D02*
X1974Y218D01*
X75Y217D02*
X273Y217D01*
X475Y217D02*
X673Y217D01*
X926Y217D02*
X1124Y217D01*
X1375Y217D02*
X1574Y217D01*
X1776Y217D02*
X1974Y217D01*
X75Y216D02*
X273Y216D01*
X475Y216D02*
X673Y216D01*
X926Y216D02*
X1124Y216D01*
X1375Y216D02*
X1574Y216D01*
X1776Y216D02*
X1974Y216D01*
X75Y215D02*
X273Y215D01*
X475Y215D02*
X673Y215D01*
X926Y215D02*
X1124Y215D01*
X1375Y215D02*
X1574Y215D01*
X1776Y215D02*
X1974Y215D01*
X75Y214D02*
X273Y214D01*
X475Y214D02*
X673Y214D01*
X926Y214D02*
X1124Y214D01*
X1375Y214D02*
X1574Y214D01*
X1776Y214D02*
X1974Y214D01*
X75Y213D02*
X273Y213D01*
X475Y213D02*
X673Y213D01*
X926Y213D02*
X1124Y213D01*
X1375Y213D02*
X1574Y213D01*
X1776Y213D02*
X1974Y213D01*
X75Y212D02*
X273Y212D01*
X475Y212D02*
X673Y212D01*
X926Y212D02*
X1124Y212D01*
X1375Y212D02*
X1574Y212D01*
X1776Y212D02*
X1974Y212D01*
X75Y211D02*
X273Y211D01*
X475Y211D02*
X673Y211D01*
X926Y211D02*
X1124Y211D01*
X1375Y211D02*
X1574Y211D01*
X1776Y211D02*
X1974Y211D01*
X75Y210D02*
X273Y210D01*
X475Y210D02*
X673Y210D01*
X926Y210D02*
X1124Y210D01*
X1375Y210D02*
X1574Y210D01*
X1776Y210D02*
X1974Y210D01*
X75Y209D02*
X273Y209D01*
X475Y209D02*
X673Y209D01*
X926Y209D02*
X1124Y209D01*
X1375Y209D02*
X1574Y209D01*
X1776Y209D02*
X1974Y209D01*
X75Y208D02*
X273Y208D01*
X475Y208D02*
X673Y208D01*
X926Y208D02*
X1124Y208D01*
X1375Y208D02*
X1574Y208D01*
X1776Y208D02*
X1974Y208D01*
X75Y207D02*
X273Y207D01*
X475Y207D02*
X673Y207D01*
X926Y207D02*
X1124Y207D01*
X1375Y207D02*
X1574Y207D01*
X1776Y207D02*
X1974Y207D01*
X75Y206D02*
X273Y206D01*
X475Y206D02*
X673Y206D01*
X926Y206D02*
X1124Y206D01*
X1375Y206D02*
X1574Y206D01*
X1776Y206D02*
X1974Y206D01*
X75Y205D02*
X273Y205D01*
X475Y205D02*
X673Y205D01*
X926Y205D02*
X1124Y205D01*
X1375Y205D02*
X1574Y205D01*
X1776Y205D02*
X1974Y205D01*
X75Y204D02*
X273Y204D01*
X475Y204D02*
X673Y204D01*
X926Y204D02*
X1124Y204D01*
X1375Y204D02*
X1574Y204D01*
X1776Y204D02*
X1974Y204D01*
X75Y203D02*
X273Y203D01*
X475Y203D02*
X673Y203D01*
X926Y203D02*
X1124Y203D01*
X1375Y203D02*
X1574Y203D01*
X1776Y203D02*
X1974Y203D01*
X75Y202D02*
X273Y202D01*
X475Y202D02*
X673Y202D01*
X926Y202D02*
X1124Y202D01*
X1375Y202D02*
X1574Y202D01*
X1776Y202D02*
X1974Y202D01*
X75Y201D02*
X273Y201D01*
X475Y201D02*
X673Y201D01*
X926Y201D02*
X1124Y201D01*
X1375Y201D02*
X1574Y201D01*
X1776Y201D02*
X1974Y201D01*
X75Y200D02*
X273Y200D01*
X475Y200D02*
X673Y200D01*
X926Y200D02*
X1124Y200D01*
X1375Y200D02*
X1574Y200D01*
X1776Y200D02*
X1974Y200D01*
X75Y199D02*
X273Y199D01*
X475Y199D02*
X673Y199D01*
X926Y199D02*
X1124Y199D01*
X1375Y199D02*
X1574Y199D01*
X1776Y199D02*
X1974Y199D01*
X75Y198D02*
X273Y198D01*
X475Y198D02*
X673Y198D01*
X926Y198D02*
X1124Y198D01*
X1375Y198D02*
X1574Y198D01*
X1776Y198D02*
X1974Y198D01*
X75Y197D02*
X273Y197D01*
X475Y197D02*
X673Y197D01*
X926Y197D02*
X1124Y197D01*
X1375Y197D02*
X1574Y197D01*
X1776Y197D02*
X1974Y197D01*
X75Y196D02*
X273Y196D01*
X475Y196D02*
X673Y196D01*
X926Y196D02*
X1124Y196D01*
X1375Y196D02*
X1574Y196D01*
X1776Y196D02*
X1974Y196D01*
X75Y195D02*
X273Y195D01*
X475Y195D02*
X673Y195D01*
X926Y195D02*
X1124Y195D01*
X1375Y195D02*
X1574Y195D01*
X1776Y195D02*
X1974Y195D01*
X75Y194D02*
X273Y194D01*
X475Y194D02*
X673Y194D01*
X926Y194D02*
X1124Y194D01*
X1375Y194D02*
X1574Y194D01*
X1776Y194D02*
X1974Y194D01*
X75Y193D02*
X273Y193D01*
X475Y193D02*
X673Y193D01*
X926Y193D02*
X1124Y193D01*
X1375Y193D02*
X1574Y193D01*
X1776Y193D02*
X1974Y193D01*
X75Y192D02*
X273Y192D01*
X475Y192D02*
X673Y192D01*
X926Y192D02*
X1124Y192D01*
X1375Y192D02*
X1574Y192D01*
X1776Y192D02*
X1974Y192D01*
X75Y191D02*
X273Y191D01*
X475Y191D02*
X673Y191D01*
X926Y191D02*
X1124Y191D01*
X1375Y191D02*
X1574Y191D01*
X1776Y191D02*
X1974Y191D01*
X75Y190D02*
X273Y190D01*
X475Y190D02*
X673Y190D01*
X926Y190D02*
X1124Y190D01*
X1375Y190D02*
X1574Y190D01*
X1776Y190D02*
X1974Y190D01*
X75Y189D02*
X273Y189D01*
X475Y189D02*
X673Y189D01*
X926Y189D02*
X1124Y189D01*
X1375Y189D02*
X1574Y189D01*
X1776Y189D02*
X1974Y189D01*
X75Y188D02*
X273Y188D01*
X475Y188D02*
X673Y188D01*
X926Y188D02*
X1124Y188D01*
X1375Y188D02*
X1574Y188D01*
X1776Y188D02*
X1974Y188D01*
X75Y187D02*
X273Y187D01*
X475Y187D02*
X673Y187D01*
X926Y187D02*
X1124Y187D01*
X1375Y187D02*
X1574Y187D01*
X1776Y187D02*
X1974Y187D01*
X75Y186D02*
X273Y186D01*
X475Y186D02*
X673Y186D01*
X926Y186D02*
X1124Y186D01*
X1375Y186D02*
X1574Y186D01*
X1776Y186D02*
X1974Y186D01*
X75Y185D02*
X273Y185D01*
X475Y185D02*
X673Y185D01*
X926Y185D02*
X1124Y185D01*
X1375Y185D02*
X1574Y185D01*
X1776Y185D02*
X1974Y185D01*
X75Y184D02*
X273Y184D01*
X475Y184D02*
X673Y184D01*
X926Y184D02*
X1124Y184D01*
X1375Y184D02*
X1574Y184D01*
X1776Y184D02*
X1974Y184D01*
X75Y183D02*
X273Y183D01*
X475Y183D02*
X673Y183D01*
X926Y183D02*
X1124Y183D01*
X1375Y183D02*
X1574Y183D01*
X1776Y183D02*
X1974Y183D01*
X75Y182D02*
X273Y182D01*
X475Y182D02*
X673Y182D01*
X926Y182D02*
X1124Y182D01*
X1375Y182D02*
X1574Y182D01*
X1776Y182D02*
X1974Y182D01*
X75Y181D02*
X273Y181D01*
X475Y181D02*
X673Y181D01*
X926Y181D02*
X1124Y181D01*
X1375Y181D02*
X1574Y181D01*
X1776Y181D02*
X1974Y181D01*
X75Y180D02*
X273Y180D01*
X475Y180D02*
X673Y180D01*
X926Y180D02*
X1124Y180D01*
X1375Y180D02*
X1574Y180D01*
X1776Y180D02*
X1974Y180D01*
X75Y179D02*
X273Y179D01*
X475Y179D02*
X673Y179D01*
X926Y179D02*
X1124Y179D01*
X1375Y179D02*
X1574Y179D01*
X1776Y179D02*
X1974Y179D01*
X75Y178D02*
X273Y178D01*
X475Y178D02*
X673Y178D01*
X926Y178D02*
X1124Y178D01*
X1375Y178D02*
X1574Y178D01*
X1776Y178D02*
X1974Y178D01*
X75Y177D02*
X273Y177D01*
X475Y177D02*
X673Y177D01*
X926Y177D02*
X1124Y177D01*
X1375Y177D02*
X1574Y177D01*
X1776Y177D02*
X1974Y177D01*
X75Y176D02*
X273Y176D01*
X475Y176D02*
X673Y176D01*
X926Y176D02*
X1124Y176D01*
X1375Y176D02*
X1574Y176D01*
X1776Y176D02*
X1974Y176D01*
X75Y175D02*
X273Y175D01*
X475Y175D02*
X673Y175D01*
X926Y175D02*
X1124Y175D01*
X1375Y175D02*
X1574Y175D01*
X1776Y175D02*
X1974Y175D01*
X75Y174D02*
X273Y174D01*
X475Y174D02*
X673Y174D01*
X926Y174D02*
X1124Y174D01*
X1375Y174D02*
X1574Y174D01*
X1776Y174D02*
X1974Y174D01*
X75Y173D02*
X273Y173D01*
X475Y173D02*
X673Y173D01*
X926Y173D02*
X1124Y173D01*
X1375Y173D02*
X1574Y173D01*
X1776Y173D02*
X1974Y173D01*
X75Y172D02*
X273Y172D01*
X475Y172D02*
X673Y172D01*
X926Y172D02*
X1124Y172D01*
X1375Y172D02*
X1574Y172D01*
X1776Y172D02*
X1974Y172D01*
X75Y171D02*
X273Y171D01*
X475Y171D02*
X673Y171D01*
X926Y171D02*
X1124Y171D01*
X1375Y171D02*
X1574Y171D01*
X1776Y171D02*
X1974Y171D01*
X75Y170D02*
X273Y170D01*
X475Y170D02*
X673Y170D01*
X926Y170D02*
X1124Y170D01*
X1375Y170D02*
X1574Y170D01*
X1776Y170D02*
X1974Y170D01*
X75Y169D02*
X273Y169D01*
X475Y169D02*
X673Y169D01*
X926Y169D02*
X1124Y169D01*
X1375Y169D02*
X1574Y169D01*
X1776Y169D02*
X1974Y169D01*
X75Y168D02*
X273Y168D01*
X475Y168D02*
X673Y168D01*
X926Y168D02*
X1124Y168D01*
X1375Y168D02*
X1574Y168D01*
X1776Y168D02*
X1974Y168D01*
X75Y167D02*
X273Y167D01*
X475Y167D02*
X673Y167D01*
X926Y167D02*
X1124Y167D01*
X1375Y167D02*
X1574Y167D01*
X1776Y167D02*
X1974Y167D01*
X75Y166D02*
X273Y166D01*
X475Y166D02*
X673Y166D01*
X926Y166D02*
X1124Y166D01*
X1375Y166D02*
X1574Y166D01*
X1776Y166D02*
X1974Y166D01*
X75Y165D02*
X273Y165D01*
X475Y165D02*
X673Y165D01*
X926Y165D02*
X1124Y165D01*
X1375Y165D02*
X1574Y165D01*
X1776Y165D02*
X1974Y165D01*
X75Y164D02*
X273Y164D01*
X475Y164D02*
X673Y164D01*
X926Y164D02*
X1124Y164D01*
X1375Y164D02*
X1574Y164D01*
X1776Y164D02*
X1974Y164D01*
X75Y163D02*
X273Y163D01*
X475Y163D02*
X673Y163D01*
X926Y163D02*
X1124Y163D01*
X1375Y163D02*
X1574Y163D01*
X1776Y163D02*
X1974Y163D01*
X75Y162D02*
X273Y162D01*
X475Y162D02*
X673Y162D01*
X926Y162D02*
X1124Y162D01*
X1375Y162D02*
X1574Y162D01*
X1776Y162D02*
X1974Y162D01*
X75Y161D02*
X273Y161D01*
X475Y161D02*
X673Y161D01*
X926Y161D02*
X1124Y161D01*
X1375Y161D02*
X1574Y161D01*
X1776Y161D02*
X1974Y161D01*
X75Y160D02*
X273Y160D01*
X475Y160D02*
X673Y160D01*
X926Y160D02*
X1124Y160D01*
X1375Y160D02*
X1574Y160D01*
X1776Y160D02*
X1974Y160D01*
X75Y159D02*
X273Y159D01*
X475Y159D02*
X673Y159D01*
X926Y159D02*
X1124Y159D01*
X1375Y159D02*
X1574Y159D01*
X1776Y159D02*
X1974Y159D01*
X75Y158D02*
X273Y158D01*
X475Y158D02*
X673Y158D01*
X926Y158D02*
X1124Y158D01*
X1375Y158D02*
X1574Y158D01*
X1776Y158D02*
X1974Y158D01*
X75Y157D02*
X273Y157D01*
X475Y157D02*
X673Y157D01*
X926Y157D02*
X1124Y157D01*
X1375Y157D02*
X1574Y157D01*
X1776Y157D02*
X1974Y157D01*
X75Y156D02*
X273Y156D01*
X475Y156D02*
X673Y156D01*
X926Y156D02*
X1124Y156D01*
X1375Y156D02*
X1574Y156D01*
X1776Y156D02*
X1974Y156D01*
X75Y155D02*
X273Y155D01*
X475Y155D02*
X673Y155D01*
X926Y155D02*
X1124Y155D01*
X1375Y155D02*
X1574Y155D01*
X1776Y155D02*
X1974Y155D01*
X75Y154D02*
X273Y154D01*
X475Y154D02*
X673Y154D01*
X926Y154D02*
X1124Y154D01*
X1375Y154D02*
X1574Y154D01*
X1776Y154D02*
X1974Y154D01*
X75Y153D02*
X273Y153D01*
X475Y153D02*
X673Y153D01*
X926Y153D02*
X1124Y153D01*
X1375Y153D02*
X1574Y153D01*
X1776Y153D02*
X1974Y153D01*
X75Y152D02*
X273Y152D01*
X475Y152D02*
X673Y152D01*
X926Y152D02*
X1124Y152D01*
X1375Y152D02*
X1574Y152D01*
X1776Y152D02*
X1974Y152D01*
X75Y151D02*
X273Y151D01*
X475Y151D02*
X673Y151D01*
X926Y151D02*
X1124Y151D01*
X1375Y151D02*
X1574Y151D01*
X1776Y151D02*
X1974Y151D01*
X75Y150D02*
X273Y150D01*
X475Y150D02*
X673Y150D01*
X926Y150D02*
X1124Y150D01*
X1375Y150D02*
X1574Y150D01*
X1776Y150D02*
X1974Y150D01*
X75Y149D02*
X273Y149D01*
X475Y149D02*
X673Y149D01*
X926Y149D02*
X1124Y149D01*
X1375Y149D02*
X1574Y149D01*
X1776Y149D02*
X1974Y149D01*
X75Y148D02*
X273Y148D01*
X475Y148D02*
X673Y148D01*
X926Y148D02*
X1124Y148D01*
X1375Y148D02*
X1574Y148D01*
X1776Y148D02*
X1974Y148D01*
X75Y147D02*
X273Y147D01*
X475Y147D02*
X673Y147D01*
X926Y147D02*
X1124Y147D01*
X1375Y147D02*
X1574Y147D01*
X1776Y147D02*
X1974Y147D01*
X75Y146D02*
X273Y146D01*
X475Y146D02*
X673Y146D01*
X926Y146D02*
X1124Y146D01*
X1375Y146D02*
X1574Y146D01*
X1776Y146D02*
X1974Y146D01*
X75Y145D02*
X273Y145D01*
X475Y145D02*
X673Y145D01*
X926Y145D02*
X1124Y145D01*
X1375Y145D02*
X1574Y145D01*
X1776Y145D02*
X1974Y145D01*
X75Y144D02*
X273Y144D01*
X475Y144D02*
X673Y144D01*
X926Y144D02*
X1124Y144D01*
X1375Y144D02*
X1574Y144D01*
X1776Y144D02*
X1974Y144D01*
X75Y143D02*
X273Y143D01*
X475Y143D02*
X673Y143D01*
X926Y143D02*
X1124Y143D01*
X1375Y143D02*
X1574Y143D01*
X1776Y143D02*
X1974Y143D01*
X75Y142D02*
X273Y142D01*
X475Y142D02*
X673Y142D01*
X926Y142D02*
X1124Y142D01*
X1375Y142D02*
X1574Y142D01*
X1776Y142D02*
X1974Y142D01*
X75Y141D02*
X273Y141D01*
X475Y141D02*
X673Y141D01*
X926Y141D02*
X1124Y141D01*
X1375Y141D02*
X1574Y141D01*
X1776Y141D02*
X1974Y141D01*
X75Y140D02*
X273Y140D01*
X475Y140D02*
X673Y140D01*
X926Y140D02*
X1124Y140D01*
X1375Y140D02*
X1574Y140D01*
X1776Y140D02*
X1974Y140D01*
X75Y139D02*
X273Y139D01*
X475Y139D02*
X673Y139D01*
X926Y139D02*
X1124Y139D01*
X1375Y139D02*
X1574Y139D01*
X1776Y139D02*
X1974Y139D01*
X75Y138D02*
X273Y138D01*
X475Y138D02*
X673Y138D01*
X926Y138D02*
X1124Y138D01*
X1375Y138D02*
X1574Y138D01*
X1776Y138D02*
X1974Y138D01*
X75Y137D02*
X273Y137D01*
X475Y137D02*
X673Y137D01*
X926Y137D02*
X1124Y137D01*
X1375Y137D02*
X1574Y137D01*
X1776Y137D02*
X1974Y137D01*
X75Y136D02*
X273Y136D01*
X475Y136D02*
X673Y136D01*
X926Y136D02*
X1124Y136D01*
X1375Y136D02*
X1574Y136D01*
X1776Y136D02*
X1974Y136D01*
X75Y135D02*
X273Y135D01*
X475Y135D02*
X673Y135D01*
X926Y135D02*
X1124Y135D01*
X1375Y135D02*
X1574Y135D01*
X1776Y135D02*
X1974Y135D01*
X75Y134D02*
X273Y134D01*
X475Y134D02*
X673Y134D01*
X926Y134D02*
X1124Y134D01*
X1375Y134D02*
X1574Y134D01*
X1776Y134D02*
X1974Y134D01*
X75Y133D02*
X273Y133D01*
X475Y133D02*
X673Y133D01*
X926Y133D02*
X1124Y133D01*
X1375Y133D02*
X1574Y133D01*
X1776Y133D02*
X1974Y133D01*
X75Y132D02*
X273Y132D01*
X475Y132D02*
X673Y132D01*
X926Y132D02*
X1124Y132D01*
X1375Y132D02*
X1574Y132D01*
X1776Y132D02*
X1974Y132D01*
X75Y131D02*
X273Y131D01*
X475Y131D02*
X673Y131D01*
X926Y131D02*
X1124Y131D01*
X1375Y131D02*
X1574Y131D01*
X1776Y131D02*
X1974Y131D01*
X75Y130D02*
X273Y130D01*
X475Y130D02*
X673Y130D01*
X926Y130D02*
X1124Y130D01*
X1375Y130D02*
X1574Y130D01*
X1776Y130D02*
X1974Y130D01*
X75Y129D02*
X273Y129D01*
X475Y129D02*
X673Y129D01*
X926Y129D02*
X1124Y129D01*
X1375Y129D02*
X1574Y129D01*
X1776Y129D02*
X1974Y129D01*
X75Y128D02*
X273Y128D01*
X475Y128D02*
X673Y128D01*
X926Y128D02*
X1124Y128D01*
X1375Y128D02*
X1574Y128D01*
X1776Y128D02*
X1974Y128D01*
X75Y127D02*
X273Y127D01*
X475Y127D02*
X673Y127D01*
X926Y127D02*
X1124Y127D01*
X1375Y127D02*
X1574Y127D01*
X1776Y127D02*
X1974Y127D01*
X75Y126D02*
X273Y126D01*
X475Y126D02*
X673Y126D01*
X926Y126D02*
X1124Y126D01*
X1375Y126D02*
X1574Y126D01*
X1776Y126D02*
X1974Y126D01*
X75Y125D02*
X273Y125D01*
X475Y125D02*
X673Y125D01*
X926Y125D02*
X1124Y125D01*
X1375Y125D02*
X1574Y125D01*
X1776Y125D02*
X1974Y125D01*
X75Y124D02*
X273Y124D01*
X475Y124D02*
X673Y124D01*
X926Y124D02*
X1124Y124D01*
X1375Y124D02*
X1574Y124D01*
X1776Y124D02*
X1974Y124D01*
X75Y123D02*
X273Y123D01*
X475Y123D02*
X673Y123D01*
X926Y123D02*
X1124Y123D01*
X1375Y123D02*
X1574Y123D01*
X1776Y123D02*
X1974Y123D01*
X75Y122D02*
X273Y122D01*
X475Y122D02*
X673Y122D01*
X926Y122D02*
X1124Y122D01*
X1375Y122D02*
X1574Y122D01*
X1776Y122D02*
X1974Y122D01*
X75Y121D02*
X273Y121D01*
X475Y121D02*
X673Y121D01*
X926Y121D02*
X1124Y121D01*
X1375Y121D02*
X1574Y121D01*
X1776Y121D02*
X1974Y121D01*
X75Y120D02*
X273Y120D01*
X475Y120D02*
X673Y120D01*
X926Y120D02*
X1124Y120D01*
X1375Y120D02*
X1574Y120D01*
X1776Y120D02*
X1974Y120D01*
X75Y119D02*
X273Y119D01*
X475Y119D02*
X673Y119D01*
X926Y119D02*
X1124Y119D01*
X1375Y119D02*
X1574Y119D01*
X1776Y119D02*
X1974Y119D01*
X75Y118D02*
X273Y118D01*
X475Y118D02*
X673Y118D01*
X926Y118D02*
X1124Y118D01*
X1375Y118D02*
X1574Y118D01*
X1776Y118D02*
X1974Y118D01*
X75Y117D02*
X273Y117D01*
X475Y117D02*
X673Y117D01*
X926Y117D02*
X1124Y117D01*
X1375Y117D02*
X1574Y117D01*
X1776Y117D02*
X1974Y117D01*
X75Y116D02*
X273Y116D01*
X475Y116D02*
X673Y116D01*
X926Y116D02*
X1124Y116D01*
X1375Y116D02*
X1574Y116D01*
X1776Y116D02*
X1974Y116D01*
X75Y115D02*
X273Y115D01*
X475Y115D02*
X673Y115D01*
X926Y115D02*
X1124Y115D01*
X1375Y115D02*
X1574Y115D01*
X1776Y115D02*
X1974Y115D01*
X75Y114D02*
X273Y114D01*
X475Y114D02*
X673Y114D01*
X926Y114D02*
X1124Y114D01*
X1375Y114D02*
X1574Y114D01*
X1776Y114D02*
X1974Y114D01*
X75Y113D02*
X273Y113D01*
X475Y113D02*
X673Y113D01*
X926Y113D02*
X1124Y113D01*
X1375Y113D02*
X1574Y113D01*
X1776Y113D02*
X1974Y113D01*
X75Y112D02*
X273Y112D01*
X475Y112D02*
X673Y112D01*
X926Y112D02*
X1124Y112D01*
X1375Y112D02*
X1574Y112D01*
X1776Y112D02*
X1974Y112D01*
X75Y111D02*
X273Y111D01*
X475Y111D02*
X673Y111D01*
X926Y111D02*
X1124Y111D01*
X1375Y111D02*
X1574Y111D01*
X1776Y111D02*
X1974Y111D01*
X75Y110D02*
X273Y110D01*
X475Y110D02*
X673Y110D01*
X926Y110D02*
X1124Y110D01*
X1375Y110D02*
X1574Y110D01*
X1776Y110D02*
X1974Y110D01*
X75Y109D02*
X273Y109D01*
X475Y109D02*
X673Y109D01*
X926Y109D02*
X1124Y109D01*
X1375Y109D02*
X1574Y109D01*
X1776Y109D02*
X1974Y109D01*
X75Y108D02*
X273Y108D01*
X475Y108D02*
X673Y108D01*
X926Y108D02*
X1124Y108D01*
X1375Y108D02*
X1574Y108D01*
X1776Y108D02*
X1974Y108D01*
X75Y107D02*
X273Y107D01*
X475Y107D02*
X673Y107D01*
X926Y107D02*
X1124Y107D01*
X1375Y107D02*
X1574Y107D01*
X1776Y107D02*
X1974Y107D01*
X75Y106D02*
X273Y106D01*
X475Y106D02*
X673Y106D01*
X926Y106D02*
X1124Y106D01*
X1375Y106D02*
X1574Y106D01*
X1776Y106D02*
X1974Y106D01*
X75Y105D02*
X273Y105D01*
X475Y105D02*
X673Y105D01*
X926Y105D02*
X1124Y105D01*
X1375Y105D02*
X1574Y105D01*
X1776Y105D02*
X1974Y105D01*
X75Y104D02*
X273Y104D01*
X475Y104D02*
X673Y104D01*
X926Y104D02*
X1124Y104D01*
X1375Y104D02*
X1574Y104D01*
X1776Y104D02*
X1974Y104D01*
X75Y103D02*
X273Y103D01*
X475Y103D02*
X673Y103D01*
X926Y103D02*
X1124Y103D01*
X1375Y103D02*
X1574Y103D01*
X1776Y103D02*
X1974Y103D01*
X75Y102D02*
X273Y102D01*
X475Y102D02*
X673Y102D01*
X926Y102D02*
X1124Y102D01*
X1375Y102D02*
X1574Y102D01*
X1776Y102D02*
X1974Y102D01*
X75Y101D02*
X273Y101D01*
X475Y101D02*
X673Y101D01*
X926Y101D02*
X1124Y101D01*
X1375Y101D02*
X1574Y101D01*
X1776Y101D02*
X1974Y101D01*
X75Y100D02*
X273Y100D01*
X475Y100D02*
X673Y100D01*
X926Y100D02*
X1124Y100D01*
X1375Y100D02*
X1574Y100D01*
X1776Y100D02*
X1974Y100D01*
X75Y99D02*
X273Y99D01*
X475Y99D02*
X673Y99D01*
X926Y99D02*
X1124Y99D01*
X1375Y99D02*
X1574Y99D01*
X1776Y99D02*
X1974Y99D01*
X75Y98D02*
X273Y98D01*
X475Y98D02*
X673Y98D01*
X926Y98D02*
X1124Y98D01*
X1375Y98D02*
X1574Y98D01*
X1776Y98D02*
X1974Y98D01*
X75Y97D02*
X273Y97D01*
X475Y97D02*
X673Y97D01*
X926Y97D02*
X1124Y97D01*
X1375Y97D02*
X1574Y97D01*
X1776Y97D02*
X1974Y97D01*
X75Y96D02*
X273Y96D01*
X475Y96D02*
X673Y96D01*
X926Y96D02*
X1124Y96D01*
X1375Y96D02*
X1574Y96D01*
X1776Y96D02*
X1974Y96D01*
X75Y95D02*
X273Y95D01*
X475Y95D02*
X673Y95D01*
X926Y95D02*
X1124Y95D01*
X1375Y95D02*
X1574Y95D01*
X1776Y95D02*
X1974Y95D01*
X75Y94D02*
X273Y94D01*
X475Y94D02*
X673Y94D01*
X926Y94D02*
X1124Y94D01*
X1375Y94D02*
X1574Y94D01*
X1776Y94D02*
X1974Y94D01*
X75Y93D02*
X273Y93D01*
X475Y93D02*
X673Y93D01*
X926Y93D02*
X1124Y93D01*
X1375Y93D02*
X1574Y93D01*
X1776Y93D02*
X1974Y93D01*
X75Y92D02*
X273Y92D01*
X475Y92D02*
X673Y92D01*
X926Y92D02*
X1124Y92D01*
X1375Y92D02*
X1574Y92D01*
X1776Y92D02*
X1974Y92D01*
X75Y91D02*
X273Y91D01*
X475Y91D02*
X673Y91D01*
X926Y91D02*
X1124Y91D01*
X1375Y91D02*
X1574Y91D01*
X1776Y91D02*
X1974Y91D01*
X75Y90D02*
X273Y90D01*
X475Y90D02*
X673Y90D01*
X926Y90D02*
X1124Y90D01*
X1375Y90D02*
X1574Y90D01*
X1776Y90D02*
X1974Y90D01*
X75Y89D02*
X273Y89D01*
X475Y89D02*
X673Y89D01*
X926Y89D02*
X1124Y89D01*
X1375Y89D02*
X1574Y89D01*
X1776Y89D02*
X1974Y89D01*
X75Y88D02*
X273Y88D01*
X475Y88D02*
X673Y88D01*
X926Y88D02*
X1124Y88D01*
X1375Y88D02*
X1574Y88D01*
X1776Y88D02*
X1974Y88D01*
X75Y87D02*
X273Y87D01*
X475Y87D02*
X673Y87D01*
X926Y87D02*
X1124Y87D01*
X1375Y87D02*
X1574Y87D01*
X1776Y87D02*
X1974Y87D01*
X75Y86D02*
X273Y86D01*
X475Y86D02*
X673Y86D01*
X926Y86D02*
X1124Y86D01*
X1375Y86D02*
X1574Y86D01*
X1776Y86D02*
X1974Y86D01*
X75Y85D02*
X273Y85D01*
X475Y85D02*
X673Y85D01*
X926Y85D02*
X1124Y85D01*
X1375Y85D02*
X1574Y85D01*
X1776Y85D02*
X1974Y85D01*
X75Y84D02*
X273Y84D01*
X475Y84D02*
X673Y84D01*
X926Y84D02*
X1124Y84D01*
X1375Y84D02*
X1574Y84D01*
X1776Y84D02*
X1974Y84D01*
X75Y83D02*
X273Y83D01*
X475Y83D02*
X673Y83D01*
X926Y83D02*
X1124Y83D01*
X1375Y83D02*
X1574Y83D01*
X1776Y83D02*
X1974Y83D01*
X75Y82D02*
X273Y82D01*
X475Y82D02*
X673Y82D01*
X926Y82D02*
X1124Y82D01*
X1375Y82D02*
X1574Y82D01*
X1776Y82D02*
X1974Y82D01*
X75Y81D02*
X273Y81D01*
X475Y81D02*
X673Y81D01*
X926Y81D02*
X1124Y81D01*
X1375Y81D02*
X1574Y81D01*
X1776Y81D02*
X1974Y81D01*
X75Y80D02*
X273Y80D01*
X475Y80D02*
X673Y80D01*
X926Y80D02*
X1124Y80D01*
X1375Y80D02*
X1574Y80D01*
X1776Y80D02*
X1974Y80D01*
X75Y79D02*
X273Y79D01*
X475Y79D02*
X673Y79D01*
X926Y79D02*
X1124Y79D01*
X1375Y79D02*
X1574Y79D01*
X1776Y79D02*
X1974Y79D01*
X75Y78D02*
X273Y78D01*
X475Y78D02*
X673Y78D01*
X926Y78D02*
X1124Y78D01*
X1375Y78D02*
X1574Y78D01*
X1776Y78D02*
X1974Y78D01*
X75Y77D02*
X273Y77D01*
X475Y77D02*
X673Y77D01*
X926Y77D02*
X1124Y77D01*
X1375Y77D02*
X1574Y77D01*
X1776Y77D02*
X1974Y77D01*
X75Y76D02*
X273Y76D01*
X475Y76D02*
X673Y76D01*
X926Y76D02*
X1124Y76D01*
X1375Y76D02*
X1574Y76D01*
X1776Y76D02*
X1974Y76D01*
X75Y75D02*
X273Y75D01*
X475Y75D02*
X673Y75D01*
X926Y75D02*
X1124Y75D01*
X1375Y75D02*
X1574Y75D01*
X1776Y75D02*
X1974Y75D01*
X75Y74D02*
X273Y74D01*
X475Y74D02*
X673Y74D01*
X926Y74D02*
X1124Y74D01*
X1375Y74D02*
X1574Y74D01*
X1776Y74D02*
X1974Y74D01*
X75Y73D02*
X273Y73D01*
X475Y73D02*
X673Y73D01*
X926Y73D02*
X1124Y73D01*
X1375Y73D02*
X1574Y73D01*
X1776Y73D02*
X1974Y73D01*
X75Y72D02*
X273Y72D01*
X475Y72D02*
X673Y72D01*
X926Y72D02*
X1124Y72D01*
X1375Y72D02*
X1574Y72D01*
X1776Y72D02*
X1974Y72D01*
X75Y71D02*
X273Y71D01*
X475Y71D02*
X673Y71D01*
X926Y71D02*
X1124Y71D01*
X1375Y71D02*
X1574Y71D01*
X1776Y71D02*
X1974Y71D01*
X75Y70D02*
X273Y70D01*
X475Y70D02*
X673Y70D01*
X926Y70D02*
X1124Y70D01*
X1375Y70D02*
X1574Y70D01*
X1776Y70D02*
X1974Y70D01*
X75Y69D02*
X273Y69D01*
X475Y69D02*
X673Y69D01*
X926Y69D02*
X1124Y69D01*
X1375Y69D02*
X1574Y69D01*
X1776Y69D02*
X1974Y69D01*
X75Y68D02*
X273Y68D01*
X475Y68D02*
X673Y68D01*
X926Y68D02*
X1124Y68D01*
X1375Y68D02*
X1574Y68D01*
X1776Y68D02*
X1974Y68D01*
X75Y67D02*
X273Y67D01*
X475Y67D02*
X673Y67D01*
X926Y67D02*
X1124Y67D01*
X1375Y67D02*
X1574Y67D01*
X1776Y67D02*
X1974Y67D01*
X75Y66D02*
X273Y66D01*
X475Y66D02*
X673Y66D01*
X926Y66D02*
X1124Y66D01*
X1375Y66D02*
X1574Y66D01*
X1776Y66D02*
X1974Y66D01*
X75Y65D02*
X273Y65D01*
X475Y65D02*
X673Y65D01*
X926Y65D02*
X1124Y65D01*
X1375Y65D02*
X1574Y65D01*
X1776Y65D02*
X1974Y65D01*
X75Y64D02*
X273Y64D01*
X475Y64D02*
X673Y64D01*
X926Y64D02*
X1124Y64D01*
X1375Y64D02*
X1574Y64D01*
X1776Y64D02*
X1974Y64D01*
X75Y63D02*
X273Y63D01*
X475Y63D02*
X673Y63D01*
X926Y63D02*
X1124Y63D01*
X1375Y63D02*
X1574Y63D01*
X1776Y63D02*
X1974Y63D01*
X75Y62D02*
X273Y62D01*
X475Y62D02*
X673Y62D01*
X926Y62D02*
X1124Y62D01*
X1375Y62D02*
X1574Y62D01*
X1776Y62D02*
X1974Y62D01*
X75Y61D02*
X273Y61D01*
X475Y61D02*
X673Y61D01*
X926Y61D02*
X1124Y61D01*
X1375Y61D02*
X1574Y61D01*
X1776Y61D02*
X1974Y61D01*
X75Y60D02*
X273Y60D01*
X475Y60D02*
X673Y60D01*
X926Y60D02*
X1124Y60D01*
X1375Y60D02*
X1574Y60D01*
X1776Y60D02*
X1974Y60D01*
X75Y59D02*
X273Y59D01*
X475Y59D02*
X673Y59D01*
X926Y59D02*
X1124Y59D01*
X1375Y59D02*
X1574Y59D01*
X1776Y59D02*
X1974Y59D01*
X75Y58D02*
X273Y58D01*
X475Y58D02*
X673Y58D01*
X926Y58D02*
X1124Y58D01*
X1375Y58D02*
X1574Y58D01*
X1776Y58D02*
X1974Y58D01*
X75Y57D02*
X273Y57D01*
X475Y57D02*
X673Y57D01*
X926Y57D02*
X1124Y57D01*
X1375Y57D02*
X1574Y57D01*
X1776Y57D02*
X1974Y57D01*
X75Y56D02*
X273Y56D01*
X475Y56D02*
X673Y56D01*
X926Y56D02*
X1124Y56D01*
X1375Y56D02*
X1574Y56D01*
X1776Y56D02*
X1974Y56D01*
X75Y55D02*
X273Y55D01*
X475Y55D02*
X673Y55D01*
X926Y55D02*
X1124Y55D01*
X1375Y55D02*
X1574Y55D01*
X1776Y55D02*
X1974Y55D01*
X75Y54D02*
X273Y54D01*
X475Y54D02*
X673Y54D01*
X926Y54D02*
X1124Y54D01*
X1375Y54D02*
X1574Y54D01*
X1776Y54D02*
X1974Y54D01*
X75Y53D02*
X273Y53D01*
X475Y53D02*
X673Y53D01*
X926Y53D02*
X1124Y53D01*
X1375Y53D02*
X1574Y53D01*
X1776Y53D02*
X1974Y53D01*
X75Y52D02*
X273Y52D01*
X475Y52D02*
X673Y52D01*
X926Y52D02*
X1124Y52D01*
X1375Y52D02*
X1574Y52D01*
X1776Y52D02*
X1974Y52D01*
X75Y51D02*
X273Y51D01*
X475Y51D02*
X673Y51D01*
X926Y51D02*
X1124Y51D01*
X1375Y51D02*
X1574Y51D01*
X1776Y51D02*
X1974Y51D01*
X75Y50D02*
X273Y50D01*
X475Y50D02*
X673Y50D01*
X926Y50D02*
X1124Y50D01*
X1375Y50D02*
X1574Y50D01*
X1776Y50D02*
X1974Y50D01*
X75Y49D02*
X273Y49D01*
X475Y49D02*
X673Y49D01*
X926Y49D02*
X1124Y49D01*
X1375Y49D02*
X1574Y49D01*
X1776Y49D02*
X1974Y49D01*
X75Y48D02*
X273Y48D01*
X475Y48D02*
X673Y48D01*
X926Y48D02*
X1124Y48D01*
X1375Y48D02*
X1574Y48D01*
X1776Y48D02*
X1974Y48D01*
X75Y47D02*
X273Y47D01*
X475Y47D02*
X673Y47D01*
X926Y47D02*
X1124Y47D01*
X1375Y47D02*
X1574Y47D01*
X1776Y47D02*
X1974Y47D01*
X75Y46D02*
X273Y46D01*
X475Y46D02*
X673Y46D01*
X926Y46D02*
X1124Y46D01*
X1375Y46D02*
X1574Y46D01*
X1776Y46D02*
X1974Y46D01*
X75Y45D02*
X273Y45D01*
X475Y45D02*
X673Y45D01*
X926Y45D02*
X1124Y45D01*
X1375Y45D02*
X1574Y45D01*
X1776Y45D02*
X1974Y45D01*
X75Y44D02*
X273Y44D01*
X475Y44D02*
X673Y44D01*
X926Y44D02*
X1124Y44D01*
X1375Y44D02*
X1574Y44D01*
X1776Y44D02*
X1974Y44D01*
X75Y43D02*
X273Y43D01*
X475Y43D02*
X673Y43D01*
X926Y43D02*
X1124Y43D01*
X1375Y43D02*
X1574Y43D01*
X1776Y43D02*
X1974Y43D01*
X75Y42D02*
X273Y42D01*
X475Y42D02*
X673Y42D01*
X926Y42D02*
X1124Y42D01*
X1375Y42D02*
X1574Y42D01*
X1776Y42D02*
X1974Y42D01*
X75Y41D02*
X273Y41D01*
X475Y41D02*
X673Y41D01*
X926Y41D02*
X1124Y41D01*
X1375Y41D02*
X1574Y41D01*
X1776Y41D02*
X1974Y41D01*
X75Y40D02*
X273Y40D01*
X475Y40D02*
X673Y40D01*
X926Y40D02*
X1124Y40D01*
X1375Y40D02*
X1574Y40D01*
X1776Y40D02*
X1974Y40D01*
X75Y39D02*
X273Y39D01*
X475Y39D02*
X673Y39D01*
X926Y39D02*
X1124Y39D01*
X1375Y39D02*
X1574Y39D01*
X1776Y39D02*
X1974Y39D01*
X75Y38D02*
X273Y38D01*
X475Y38D02*
X673Y38D01*
X926Y38D02*
X1124Y38D01*
X1375Y38D02*
X1574Y38D01*
X1776Y38D02*
X1974Y38D01*
X75Y37D02*
X273Y37D01*
X475Y37D02*
X673Y37D01*
X926Y37D02*
X1124Y37D01*
X1375Y37D02*
X1574Y37D01*
X1776Y37D02*
X1974Y37D01*
X75Y36D02*
X273Y36D01*
X475Y36D02*
X673Y36D01*
X926Y36D02*
X1124Y36D01*
X1375Y36D02*
X1574Y36D01*
X1776Y36D02*
X1974Y36D01*
X75Y35D02*
X273Y35D01*
X475Y35D02*
X673Y35D01*
X926Y35D02*
X1124Y35D01*
X1375Y35D02*
X1574Y35D01*
X1776Y35D02*
X1974Y35D01*
X75Y34D02*
X273Y34D01*
X475Y34D02*
X673Y34D01*
X926Y34D02*
X1124Y34D01*
X1375Y34D02*
X1574Y34D01*
X1776Y34D02*
X1974Y34D01*
X75Y33D02*
X273Y33D01*
X475Y33D02*
X673Y33D01*
X926Y33D02*
X1124Y33D01*
X1375Y33D02*
X1574Y33D01*
X1776Y33D02*
X1974Y33D01*
X75Y32D02*
X273Y32D01*
X475Y32D02*
X673Y32D01*
X926Y32D02*
X1124Y32D01*
X1375Y32D02*
X1574Y32D01*
X1776Y32D02*
X1974Y32D01*
X75Y31D02*
X273Y31D01*
X475Y31D02*
X673Y31D01*
X926Y31D02*
X1124Y31D01*
X1375Y31D02*
X1574Y31D01*
X1776Y31D02*
X1974Y31D01*
X75Y30D02*
X273Y30D01*
X475Y30D02*
X673Y30D01*
X926Y30D02*
X1124Y30D01*
X1375Y30D02*
X1574Y30D01*
X1776Y30D02*
X1974Y30D01*
X75Y29D02*
X273Y29D01*
X475Y29D02*
X673Y29D01*
X926Y29D02*
X1124Y29D01*
X1375Y29D02*
X1574Y29D01*
X1776Y29D02*
X1974Y29D01*
X75Y28D02*
X273Y28D01*
X475Y28D02*
X673Y28D01*
X926Y28D02*
X1124Y28D01*
X1375Y28D02*
X1574Y28D01*
X1776Y28D02*
X1974Y28D01*
X75Y27D02*
X273Y27D01*
X475Y27D02*
X673Y27D01*
X926Y27D02*
X1124Y27D01*
X1375Y27D02*
X1574Y27D01*
X1776Y27D02*
X1974Y27D01*
X75Y26D02*
X273Y26D01*
X475Y26D02*
X673Y26D01*
X926Y26D02*
X1124Y26D01*
X1375Y26D02*
X1574Y26D01*
X1776Y26D02*
X1974Y26D01*
X75Y25D02*
X273Y25D01*
X475Y25D02*
X673Y25D01*
X926Y25D02*
X1124Y25D01*
X1375Y25D02*
X1574Y25D01*
X1776Y25D02*
X1974Y25D01*
X75Y24D02*
X273Y24D01*
X475Y24D02*
X673Y24D01*
X926Y24D02*
X1124Y24D01*
X1375Y24D02*
X1574Y24D01*
X1776Y24D02*
X1974Y24D01*
X75Y23D02*
X273Y23D01*
X475Y23D02*
X673Y23D01*
X926Y23D02*
X1124Y23D01*
X1375Y23D02*
X1574Y23D01*
X1776Y23D02*
X1974Y23D01*
X75Y22D02*
X273Y22D01*
X475Y22D02*
X673Y22D01*
X926Y22D02*
X1124Y22D01*
X1375Y22D02*
X1574Y22D01*
X1776Y22D02*
X1974Y22D01*
X75Y21D02*
X273Y21D01*
X475Y21D02*
X673Y21D01*
X926Y21D02*
X1124Y21D01*
X1375Y21D02*
X1574Y21D01*
X1776Y21D02*
X1974Y21D01*
X75Y20D02*
X273Y20D01*
X475Y20D02*
X673Y20D01*
X926Y20D02*
X1124Y20D01*
X1375Y20D02*
X1574Y20D01*
X1776Y20D02*
X1974Y20D01*
X75Y19D02*
X273Y19D01*
X475Y19D02*
X673Y19D01*
X926Y19D02*
X1124Y19D01*
X1375Y19D02*
X1574Y19D01*
X1776Y19D02*
X1974Y19D01*
X75Y18D02*
X273Y18D01*
X475Y18D02*
X673Y18D01*
X926Y18D02*
X1124Y18D01*
X1375Y18D02*
X1574Y18D01*
X1776Y18D02*
X1974Y18D01*
X75Y17D02*
X273Y17D01*
X475Y17D02*
X673Y17D01*
X926Y17D02*
X1124Y17D01*
X1375Y17D02*
X1574Y17D01*
X1776Y17D02*
X1974Y17D01*
X75Y16D02*
X273Y16D01*
X475Y16D02*
X673Y16D01*
X926Y16D02*
X1124Y16D01*
X1375Y16D02*
X1574Y16D01*
X1776Y16D02*
X1974Y16D01*
X75Y15D02*
X273Y15D01*
X475Y15D02*
X673Y15D01*
X926Y15D02*
X1124Y15D01*
X1375Y15D02*
X1574Y15D01*
X1776Y15D02*
X1974Y15D01*
X75Y14D02*
X273Y14D01*
X475Y14D02*
X673Y14D01*
X926Y14D02*
X1124Y14D01*
X1375Y14D02*
X1574Y14D01*
X1776Y14D02*
X1974Y14D01*
D02*
G04 End of Mask0*
M02*