; NON-PLATED HOLES START AT T1
; THROUGH (PLATED) HOLES START AT T100
M48
INCH
T1C0.031496
T100C0.157480
T101C0.015748
T102C0.038000
T103C0.051181
%
T1
X018079Y015130
X015657Y012709
T100
X010250Y002918
X018750Y027010
X005740Y002918
X014750Y027010
X001740Y002918
X014750Y002918
X005750Y027010
X018751Y002920
X010250Y027010
X001750Y027010
T101
X016500Y003038
X001833Y013519
X013011Y002371
X012000Y022482
X003499Y017482
X000487Y004075
X003944Y021538
X004999Y018982
X011988Y003198
X019000Y018038
X012500Y002801
X016000Y019982
X019500Y018038
X007487Y003433
X004499Y016982
X007361Y016466
X010222Y021760
X008512Y002618
X019000Y020038
X016988Y002371
X009749Y014646
X004537Y003594
X001805Y019899
X019500Y020038
X008138Y014646
X001361Y016538
X009061Y003563
X016500Y020982
X020000Y018982
X012177Y014649
X017500Y018038
X011477Y003628
X009763Y016232
X013659Y017124
X010333Y017621
X010907Y016217
X002999Y021066
X013055Y021510
X007999Y023538
X008006Y003050
X002969Y004063
X008972Y015413
X008166Y016232
X017500Y020038
X011472Y022982
X003487Y003544
X000999Y022982
X004006Y003013
X012175Y016213
X013144Y016668
X000499Y017983
X009333Y023010
X001472Y022094
X002416Y020566
X006944Y003865
X017000Y017983
X006888Y015344
X019500Y023538
X018000Y018038
X002499Y006038
X005638Y022066
X018500Y018038
X014675Y004399
X006999Y023066
X010880Y014646
X018000Y020038
X012500Y021982
X018500Y020038
X000916Y015399
T102
X013694Y018982
X009694Y018982
X012694Y018982
X014694Y019982
X006694Y018982
X008694Y019982
X011694Y019982
X007694Y019982
X010694Y019982
X005694Y019982
X014694Y018982
X008694Y018982
X011694Y018982
X007694Y018982
X010694Y018982
X013694Y019982
X009694Y019982
X005694Y018982
X012694Y019982
X006694Y019982
T103
X010277Y004408
X010277Y012464
T00
M30
